<svg width="24" height="24" viewBox="0 0 24 24" fill="none" xmlns="http://www.w3.org/2000/svg">
<path d="M1.08406 24C0.871757 24 0.668118 23.9387 0.492641 23.8226C-0.00779209 23.4951 -0.150773 22.8161 0.174184 22.309L11.3549 4.91748L9.3802 1.84658C9.30221 1.72392 9.27513 1.57826 9.30438 1.43479C9.33471 1.29132 9.41811 1.16866 9.53943 1.08981C9.62717 1.03176 9.73007 1.0011 9.83514 1.0011C10.0193 1.0011 10.1893 1.09419 10.289 1.2508L12.0004 3.91319L13.713 1.2497C13.8137 1.09309 13.9838 1 14.1679 1C14.273 1 14.3748 1.03067 14.4625 1.08871C14.5838 1.16866 14.6672 1.29132 14.6965 1.43369C14.7268 1.57716 14.6997 1.72282 14.6207 1.84548L12.646 4.91638L23.8256 22.3068C23.9393 22.4843 23.9989 22.6891 24 22.9004C24 23.1939 23.8873 23.4688 23.6837 23.6758C23.4801 23.8828 23.2082 23.9967 22.9179 23.9978H1.08406V24ZM1.0819 22.9048H7.36547L11.0786 16.8046C11.1675 16.659 11.2899 16.5352 11.435 16.4454C11.6051 16.3403 11.8011 16.2844 12.0004 16.2844C12.3806 16.2844 12.7262 16.4794 12.9244 16.8057L16.6365 22.9059H22.919L12.0004 5.92286L1.0819 22.9048ZM15.3648 22.9048L12.0015 17.3785V17.1047V17.3785L8.63822 22.9048H15.3648Z" fill="#37474F"/>
</svg>
