<svg id="Light" xmlns="http://www.w3.org/2000/svg" viewBox="0 0 24 24"><defs><style>.cls-1{fill:none;stroke:currentColor;stroke-linecap:round;stroke-linejoin:round;}</style></defs><title>canoe-2</title><path class="cls-1" d="M10.5,8.542h-4c-2.283,0-4.276-.868-4.438-2.385a.5.5,0,0,0-.931-.2A5.114,5.114,0,0,0,.5,8.542a5.041,5.041,0,0,0,5.078,5.016l.922-.016"/><path class="cls-1" d="M15.5,8.542h2c2.283,0,4.276-.868,4.438-2.385a.5.5,0,0,1,.931-.2,5.114,5.114,0,0,1,.631,2.58,5,5,0,0,1-5,5h-7"/><path class="cls-1" d="M3.789,16.7a2,2,0,0,1,3.1,2.528L5,21.542,1.9,19.014Z"/><line class="cls-1" x1="17.99" y1="2.458" x2="6.602" y2="16.417"/></svg>