<svg width="24" height="24" viewBox="0 0 24 24" fill="none" xmlns="http://www.w3.org/2000/svg">
<path d="M5 20C2.243 20 0 17.757 0 15C0 12.243 2.243 10 5 10C7.757 10 10 12.243 10 15C10 17.757 7.757 20 5 20ZM5 11C2.794 11 1 12.794 1 15C1 17.206 2.794 19 5 19C7.206 19 9 17.206 9 15C9 12.794 7.206 11 5 11Z" fill="#37474F"/>
<path d="M19 20C16.243 20 14 17.757 14 15C14 12.243 16.243 10 19 10C21.757 10 24 12.243 24 15C24 17.757 21.757 20 19 20ZM19 11C16.794 11 15 12.794 15 15C15 17.206 16.794 19 19 19C21.206 19 23 17.206 23 15C23 12.794 21.206 11 19 11Z" fill="#37474F"/>
<path d="M11.9999 23.9999C11.8319 23.9999 11.6769 23.9169 11.5839 23.7769L9.3339 20.4019C9.2249 20.2379 9.2219 20.0239 9.3279 19.8569C9.8689 19.0019 10.7959 18.4919 11.8059 18.4919C11.8709 18.4919 11.9359 18.4939 12.0009 18.4989C12.0649 18.4949 12.1289 18.4929 12.1929 18.4929C13.2049 18.4929 14.1319 19.0029 14.6739 19.8579C14.7799 20.0249 14.7769 20.2389 14.6679 20.4029L12.4179 23.7779C12.3229 23.9169 12.1679 23.9999 11.9999 23.9999ZM11.9999 22.5989L13.6379 20.1419C13.2739 19.7329 12.7459 19.4929 12.1939 19.4929C12.1429 19.4929 12.0909 19.4949 12.0389 19.4989C12.0319 19.4989 12.0059 19.4999 11.9989 19.4999C11.9859 19.4999 11.9729 19.4999 11.9609 19.4989C11.9089 19.4949 11.8579 19.4929 11.8069 19.4929C11.2539 19.4929 10.7259 19.7329 10.3609 20.1419L11.9999 22.5989Z" fill="#37474F"/>
<path d="M22.764 10.444C22.557 10.444 22.369 10.314 22.296 10.121C21.893 9.053 21.327 8.059 20.612 7.163C17.888 8.978 14.534 9 14.5 9C14.294 9 14.106 8.87 14.033 8.678C13.96 8.486 14.014 8.264 14.168 8.127L17.962 4.755C16.176 3.599 14.122 2.99 12 2.99C9.878 2.99 7.824 3.599 6.038 4.754L9.832 8.126C9.986 8.263 10.04 8.485 9.967 8.677C9.894 8.87 9.706 9 9.5 9C9.466 9 6.112 8.978 3.388 7.162C2.673 8.059 2.107 9.053 1.704 10.12C1.631 10.313 1.443 10.443 1.236 10.443C1.176 10.443 1.116 10.432 1.059 10.411C0.934 10.364 0.835 10.271 0.78 10.149C0.725 10.027 0.721 9.891 0.768 9.766C1.206 8.61 1.818 7.532 2.59 6.558C0.871 5.082 0 3.045 0 0.5C0 0.303 0.116 0.124 0.295 0.044C0.36 0.015 0.429 0 0.5 0C0.622 0 0.74 0.045 0.832 0.126L5.265 4.067C7.266 2.707 9.59 1.99 12 1.99C14.41 1.99 16.734 2.707 18.735 4.067L23.168 0.126C23.259 0.045 23.377 0 23.5 0C23.571 0 23.64 0.015 23.705 0.044C23.884 0.124 24 0.303 24 0.5C24 3.045 23.129 5.082 21.41 6.558C22.183 7.532 22.795 8.61 23.232 9.767C23.279 9.892 23.275 10.028 23.22 10.15C23.165 10.272 23.066 10.365 22.941 10.412C22.884 10.433 22.824 10.444 22.764 10.444ZM15.977 7.856C16.756 7.731 17.791 7.492 18.81 7.037C21.223 5.96 22.605 4.159 22.927 1.678L15.977 7.856ZM1.073 1.678C1.394 4.159 2.777 5.96 5.19 7.037C6.209 7.492 7.244 7.731 8.023 7.856L1.073 1.678Z" fill="#37474F"/>
<path d="M0.5 24C0.224 24 0 23.776 0 23.5V19.583C0 19.307 0.224 19.083 0.5 19.083C0.776 19.083 1 19.307 1 19.583V23.5C1 23.776 0.776 24 0.5 24Z" fill="#37474F"/>
<path d="M23.5 24C23.224 24 23 23.776 23 23.5V19.583C23 19.307 23.224 19.083 23.5 19.083C23.776 19.083 24 19.307 24 19.583V23.5C24 23.776 23.776 24 23.5 24Z" fill="#37474F"/>
<path d="M5 17C3.897 17 3 16.103 3 15C3 13.897 3.897 13 5 13C6.103 13 7 13.897 7 15C7 16.103 6.103 17 5 17ZM5 14C4.449 14 4 14.448 4 15C4 15.552 4.449 16 5 16C5.551 16 6 15.552 6 15C6 14.448 5.551 14 5 14Z" fill="#37474F"/>
<path d="M19 17C17.897 17 17 16.103 17 15C17 13.897 17.897 13 19 13C20.103 13 21 13.897 21 15C21 16.103 20.103 17 19 17ZM19 14C18.448 14 18 14.448 18 15C18 15.552 18.448 16 19 16C19.552 16 20 15.552 20 15C20 14.448 19.552 14 19 14Z" fill="#37474F"/>
</svg>
