<svg width="24" height="24" viewBox="0 0 24 24" fill="none" xmlns="http://www.w3.org/2000/svg">
<path d="M14.5 5.25002C14.339 5.25002 14.187 5.17202 14.093 5.04102C14.08 5.02302 12.726 3.15402 11.1 2.23802C10.522 1.91302 9.985 1.75002 9.5 1.75002C9.224 1.75002 9 1.52602 9 1.25002C9 0.974023 9.224 0.750023 9.5 0.750023C10.071 0.750023 10.677 0.906023 11.302 1.21302C12.204 0.590023 13.293 0.249023 14.385 0.249023C14.428 0.249023 14.47 0.249023 14.513 0.251023C14.544 0.250023 14.587 0.249023 14.63 0.249023C15.713 0.249023 16.797 0.591023 17.699 1.21402C18.324 0.907023 18.929 0.751023 19.501 0.751023C19.777 0.751023 20.001 0.975024 20.001 1.25102C20.001 1.52702 19.777 1.75102 19.501 1.75102C19.012 1.75102 18.471 1.91602 17.894 2.24202C17.893 2.24302 17.89 2.24402 17.89 2.24402C16.277 3.15702 14.921 5.02302 14.908 5.04202C14.813 5.17202 14.661 5.25002 14.5 5.25002ZM12.259 1.79202C13.243 2.49402 14.057 3.39702 14.5 3.93602C14.944 3.39702 15.757 2.49402 16.741 1.79202C16.091 1.43502 15.364 1.24902 14.618 1.24902C14.583 1.24902 14.547 1.24902 14.512 1.25002L14.397 1.24902C13.642 1.24902 12.91 1.43602 12.259 1.79202Z" fill="#37474F"/>
<path d="M16.75 6.25C17.1642 6.25 17.5 5.91421 17.5 5.5C17.5 5.08579 17.1642 4.75 16.75 4.75C16.3358 4.75 16 5.08579 16 5.5C16 5.91421 16.3358 6.25 16.75 6.25Z" fill="#37474F"/>
<path d="M12.25 6.25C12.6642 6.25 13 5.91421 13 5.5C13 5.08579 12.6642 4.75 12.25 4.75C11.8358 4.75 11.5 5.08579 11.5 5.5C11.5 5.91421 11.8358 6.25 12.25 6.25Z" fill="#37474F"/>
<path d="M4.49998 23.7501C4.35898 23.7501 4.22398 23.6901 4.12898 23.5851C4.03398 23.4811 3.98798 23.3401 4.00198 23.2001C4.36498 19.6301 5.04298 16.0681 6.01798 12.6151C7.14098 8.86708 8.76098 7.06508 9.65998 6.50608C9.55498 5.92708 9.50098 5.33708 9.49998 4.75108C9.49598 4.15408 9.60898 3.56908 9.83798 3.01508C9.91598 2.82708 10.097 2.70508 10.301 2.70508C10.367 2.70508 10.431 2.71808 10.492 2.74308C10.746 2.84808 10.868 3.14108 10.764 3.39608C10.587 3.82708 10.498 4.28108 10.502 4.74708C10.503 5.39808 10.576 6.04908 10.718 6.68208C10.778 6.95008 10.61 7.21708 10.343 7.27908C10.063 7.34408 8.25198 8.65308 6.98198 12.8941C6.07498 16.1071 5.42798 19.4231 5.05898 22.7501H6.46698C8.18098 22.5001 9.88798 21.9161 11.417 21.0551C10.629 18.1151 10.665 15.0251 11.523 12.1061C11.585 11.8951 11.782 11.7471 12.003 11.7471C12.051 11.7471 12.098 11.7541 12.144 11.7671C12.409 11.8451 12.561 12.1231 12.483 12.3881C11.706 15.0331 11.647 17.8331 12.31 20.5091C13.375 19.8011 14.313 18.9711 15.101 18.0391C17.391 15.3301 18.365 11.8401 17.845 8.21408C17.832 8.12108 17.845 8.02908 17.881 7.94408C18.318 6.93308 18.527 5.86208 18.503 4.76108C18.507 4.29208 18.423 3.84308 18.254 3.41908C18.204 3.29508 18.206 3.15908 18.259 3.03608C18.312 2.91308 18.409 2.81808 18.533 2.76908C18.593 2.74508 18.655 2.73308 18.718 2.73308C18.924 2.73308 19.106 2.85708 19.183 3.04808C19.4 3.59308 19.508 4.16608 19.504 4.75308C19.53 5.93908 19.312 7.10408 18.855 8.21008C19.372 12.0721 18.311 15.7891 15.865 18.6831C15.599 18.9981 15.304 19.3141 14.989 19.6231L15.864 22.2491H17C17.276 22.2491 17.5 22.4731 17.5 22.7491C17.5 23.0251 17.276 23.2491 17 23.2491H14C13.724 23.2491 13.5 23.0251 13.5 22.7491C13.5 22.4731 13.724 22.2491 14 22.2491H14.806L14.176 20.3591C13.589 20.8511 12.955 21.3031 12.287 21.7051L12.275 21.7121C10.537 22.7561 8.56398 23.4581 6.56998 23.7431C6.54798 23.7481 6.52398 23.7501 6.49998 23.7501H4.49998Z" fill="#37474F"/>
<path d="M14.5 8.75C14.366 8.75 14.241 8.698 14.146 8.604L13.146 7.604C13.052 7.509 13 7.384 13 7.25C13 7.116 13.052 6.991 13.146 6.896C13.24 6.801 13.366 6.75 13.5 6.75C13.634 6.75 13.759 6.802 13.854 6.896L14.5 7.543L15.146 6.897C15.24 6.803 15.366 6.751 15.5 6.751C15.634 6.751 15.759 6.803 15.854 6.897C15.949 6.991 16 7.117 16 7.25C16 7.383 15.948 7.509 15.854 7.604L14.854 8.604C14.759 8.698 14.633 8.75 14.5 8.75Z" fill="#37474F"/>
</svg>
