<svg width="24" height="24" viewBox="0 0 24 24" fill="none" xmlns="http://www.w3.org/2000/svg">
<path d="M16.5798 24C16.3038 24 16.0798 23.776 16.0798 23.5C16.0798 23.224 16.3038 23 16.5798 23H17.0798V21.98C15.9458 21.874 15.1828 21.26 15.0898 19H11.5628C11.4448 20.658 10.7338 21.714 9.57978 21.95V23.5C9.57978 23.776 9.35578 24 9.07978 24H8.07978C7.80378 24 7.57978 23.776 7.57978 23.5C7.57978 23.224 7.80378 23 8.07978 23H8.57978V21.938C7.28278 21.61 6.61078 20.017 6.58078 17.197C5.47578 15.906 5.07978 13.165 5.07978 11C5.05378 10.17 5.10478 9.329 5.23078 8.5H3.57978C2.98078 8.5 2.53878 8.307 2.26378 7.926C1.80878 7.295 2.07378 6.438 2.10478 6.342C2.13778 6.245 2.19778 6.161 2.27978 6.1L4.19878 4.664C4.11978 4.457 4.07978 4.235 4.07978 4C4.07978 2.188 6.42278 2.029 7.57978 2.005V0.5C7.57978 0.339 7.65778 0.187 7.78978 0.093C7.87478 0.032 7.97478 0 8.07978 0C8.13578 0 8.19078 0.009 8.24278 0.027C9.24478 0.372 9.95378 1.265 10.0658 2.313C11.4048 4.088 12.1198 6.285 12.0788 8.509V10H16.5788C20.0228 10 22.0788 11.869 22.0788 15C22.0788 17.5 20.7938 18.216 20.0648 18.419C19.9488 20.129 19.1278 21.565 18.0788 21.915V23.5C18.0788 23.776 17.8548 24 17.5788 24H16.5798ZM15.5798 18C15.8558 18 16.0798 18.224 16.0798 18.5C16.0798 21 16.6448 21 17.5798 21C18.1918 21 19.0798 19.831 19.0798 18V15C19.0798 14.724 19.3038 14.5 19.5798 14.5C19.8558 14.5 20.0798 14.724 20.0798 15V17.354C20.5438 17.115 21.0798 16.512 21.0798 15C21.0798 12.421 19.4818 11 16.5798 11H11.5798C11.3038 11 11.0798 10.776 11.0798 10.5V8.5C11.1168 6.444 10.4448 4.424 9.18478 2.807C9.12178 2.725 9.08478 2.628 9.07978 2.524C9.05878 2.086 8.87778 1.684 8.57978 1.386V2.5C8.57978 2.776 8.35578 3 8.07978 3C5.07978 3 5.07978 3.727 5.07978 4C5.07978 4.185 5.13278 4.345 5.24078 4.487C5.24278 4.49 5.25578 4.506 5.25978 4.512C5.49878 4.81 6.00678 5 6.57978 5C6.74678 5 6.90178 5.083 6.99478 5.221C7.08778 5.361 7.10578 5.536 7.04178 5.69C6.72678 6.455 6.48478 7.262 6.32078 8.088C6.31878 8.106 6.31478 8.132 6.30478 8.163C6.12578 9.093 6.04978 10.042 6.07878 10.984C6.07878 13.564 6.62278 15.836 7.43278 16.646C7.52678 16.74 7.57878 16.866 7.57878 17C7.57878 18.494 7.77378 21 9.07878 21C10.4328 21 10.5788 19.252 10.5788 18.5C10.5788 18.224 10.8028 18 11.0788 18H15.5798ZM3.02178 6.794C2.98578 6.994 2.98878 7.222 3.07578 7.342C3.16978 7.473 3.40178 7.5 3.57978 7.5H5.42178C5.54378 6.966 5.69778 6.44 5.87978 5.928C5.46778 5.842 5.09878 5.681 4.80678 5.458L3.02178 6.794Z" fill="#37474F"/>
</svg>
