<svg width="24" height="24" viewBox="0 0 24 24" fill="none" xmlns="http://www.w3.org/2000/svg">
<path d="M17.999 23.5C17.825 23.5 17.661 23.408 17.571 23.259C16.885 22.127 16.515 20.829 16.499 19.506C16.497 19.373 16.548 19.246 16.641 19.151C16.734 19.056 16.859 19.002 16.993 19H16.994C17.277 19 17.495 19.222 17.499 19.494C17.511 20.46 17.743 21.418 18.174 22.282C19.023 21.616 19.514 20.598 19.499 19.507C19.499 17.905 17.922 17.281 17.19 17.079C16.876 17.733 16.473 18.35 15.991 18.918C15.981 18.933 15.968 18.949 15.957 18.96C15.955 18.962 15.952 18.965 15.95 18.967C14.526 20.619 12.742 21.5 11.999 21.5C11.256 21.5 9.473 20.619 8.048 18.966C8.043 18.961 8.038 18.957 8.034 18.952C8.025 18.942 8.015 18.929 8.006 18.916C7.526 18.351 7.122 17.732 6.807 17.078C6.077 17.28 4.499 17.903 4.499 19.5C4.485 20.596 4.976 21.615 5.824 22.281C6.255 21.417 6.487 20.459 6.499 19.494C6.503 19.222 6.727 19 6.999 19C7.281 19.003 7.502 19.23 7.499 19.506C7.483 20.829 7.112 22.127 6.427 23.259C6.337 23.408 6.173 23.5 5.999 23.5C5.912 23.5 5.826 23.477 5.751 23.434C4.341 22.628 3.478 21.118 3.499 19.494C3.499 17.326 5.492 16.447 6.431 16.153C6.144 15.305 5.999 14.414 5.999 13.5C5.999 11.882 6.485 10.304 7.368 9.054C7.376 9.038 7.386 9.022 7.394 9.011C7.405 8.996 7.417 8.984 7.427 8.974C7.697 8.6 8.014 8.248 8.362 7.937C7.711 7.033 6.678 6.5 5.557 6.5H5.506C3.033 6.5 1.598 10.195 1.161 11.53C2.611 11.479 3.93 10.611 4.546 9.289C4.628 9.113 4.805 9 4.999 9C5.072 9 5.144 9.016 5.211 9.047C5.461 9.163 5.569 9.461 5.453 9.711C4.654 11.424 2.919 12.532 1.032 12.532C0.836004 12.532 0.637004 12.52 0.440004 12.496C0.297004 12.478 0.169004 12.401 0.0880035 12.283C0.00700355 12.165 -0.0199965 12.018 0.0150035 11.879C0.0790036 11.618 1.654 5.5 5.499 5.5L5.572 5.499C6.998 5.499 8.321 6.181 9.161 7.334C9.58 7.071 10.022 6.868 10.482 6.728C10.424 6.034 10.199 5.361 9.827 4.772C9.814 4.75 9.802 4.728 9.792 4.706C9.595 4.26 9.496 3.786 9.499 3.297C9.455 1.816 10.422 0.465 11.851 0.022C11.899 0.00800001 11.949 0 11.999 0C12.049 0 12.099 0.00800001 12.147 0.022C13.574 0.464 14.541 1.816 14.499 3.309C14.502 3.784 14.403 4.255 14.206 4.702C14.195 4.727 14.184 4.747 14.171 4.767C13.799 5.356 13.575 6.03 13.516 6.728C13.975 6.868 14.418 7.071 14.837 7.334C15.678 6.18 17.009 5.499 18.447 5.499H18.506C20.126 5.499 21.596 6.627 22.751 8.761C23.584 10.298 23.968 11.814 23.984 11.878C24.019 12.017 23.993 12.164 23.911 12.283C23.829 12.401 23.702 12.479 23.559 12.496C23.364 12.52 23.165 12.532 22.967 12.532C21.08 12.532 19.345 11.425 18.546 9.711C18.43 9.461 18.538 9.163 18.788 9.046C18.854 9.016 18.925 9 18.999 9C19.192 9 19.37 9.113 19.452 9.288C20.069 10.611 21.388 11.48 22.837 11.529C22.4 10.195 20.966 6.499 18.499 6.499H18.439C17.338 6.499 16.283 7.045 15.636 7.937C15.981 8.244 16.296 8.594 16.576 8.98C16.587 8.991 16.597 9.002 16.605 9.012C16.618 9.029 16.627 9.046 16.634 9.06C17.511 10.298 17.999 11.879 17.999 13.5C17.999 14.414 17.854 15.305 17.567 16.153C18.505 16.446 20.499 17.326 20.499 19.5C20.52 21.119 19.657 22.628 18.247 23.434C18.172 23.477 18.087 23.5 17.999 23.5ZM9.088 18.618C10.338 19.938 11.664 20.5 11.999 20.5C12.334 20.5 13.66 19.938 14.91 18.618L12.82 16.528C12.575 16.688 12.292 16.773 11.999 16.773C11.705 16.773 11.422 16.689 11.178 16.528L9.088 18.618ZM15.556 17.85C16.102 17.11 16.499 16.303 16.736 15.444L15.733 14.441L13.645 15.939L15.556 17.85ZM7.262 15.444C7.5 16.302 7.896 17.11 8.442 17.85L10.353 15.939L8.265 14.441L7.262 15.444ZM11.71 15.681C11.794 15.741 11.895 15.773 11.999 15.773C12.104 15.773 12.205 15.741 12.29 15.68L15.017 13.724L13.379 12.086L12.902 12.448C12.644 12.642 12.323 12.748 11.999 12.748C11.675 12.748 11.356 12.642 11.099 12.45L10.62 12.086L8.982 13.724L11.71 15.681ZM7.921 10.037C7.317 11.054 6.999 12.246 6.999 13.5C6.999 13.753 7.012 14.006 7.037 14.255L9.816 11.476L7.921 10.037ZM16.961 14.255C16.986 14.006 16.999 13.753 16.999 13.5C16.999 12.246 16.681 11.054 16.077 10.037L14.182 11.476L16.961 14.255ZM11.701 11.652C11.784 11.714 11.89 11.749 11.998 11.749C12.107 11.749 12.213 11.714 12.299 11.65L15.498 9.221C14.566 8.124 13.303 7.5 11.999 7.5C10.695 7.5 9.433 8.124 8.5 9.221L11.701 11.652ZM10.694 4.271C11.117 4.952 11.382 5.727 11.467 6.528C11.647 6.51 11.826 6.5 11.999 6.5C12.172 6.5 12.351 6.51 12.531 6.529C12.616 5.725 12.881 4.948 13.304 4.267C13.435 3.96 13.5 3.634 13.499 3.298C13.527 2.3 12.914 1.383 11.999 1.029C11.082 1.383 10.469 2.298 10.499 3.285C10.497 3.635 10.563 3.964 10.694 4.271Z" fill="#37474F"/>
</svg>
