<svg width="24" height="24" viewBox="0 0 24 24" fill="none" xmlns="http://www.w3.org/2000/svg">
<path d="M7.5 22.5C6.673 22.5 6 21.827 6 21V19.239L1.938 15.957C1.364 15.493 1.026 14.805 1.01 14.068C1 13.845 1 13.631 1 13.5C1 7.159 6.159 2 12.5 2C18.841 2 24 7.159 24 13.5C24 13.629 23.997 13.841 23.991 14.071C23.974 14.806 23.636 15.494 23.062 15.958L19 19.239V21C19 21.827 18.327 22.5 17.5 22.5H7.5ZM7 21C7 21.276 7.224 21.5 7.5 21.5H17.5C17.776 21.5 18 21.276 18 21V19.5H7V21ZM18.323 18.5L22.433 15.179C22.777 14.901 22.981 14.488 22.99 14.046C22.996 13.825 22.999 13.623 22.999 13.5C22.999 7.71 18.289 3 12.499 3C6.709 3 1.999 7.71 1.999 13.5C1.999 13.622 1.999 13.821 2.008 14.037C2.018 14.486 2.221 14.901 2.565 15.179L6.676 18.5H18.323Z" fill="#37474F"/>
<path d="M14 15.5C13.966 15.5 13.933 15.497 13.9 15.49C13.631 15.436 13.455 15.172 13.509 14.902L15.009 7.402C15.056 7.169 15.262 7 15.5 7C15.532 7 15.565 7.003 15.597 7.01C15.868 7.064 16.044 7.328 15.99 7.599L14.49 15.099C14.444 15.331 14.238 15.5 14 15.5Z" fill="#37474F"/>
<path d="M17.0001 16.5C16.9061 16.5 16.8141 16.474 16.7351 16.424C16.6221 16.353 16.5431 16.243 16.5131 16.112C16.4831 15.982 16.5051 15.848 16.5761 15.735L19.0761 11.735C19.1681 11.588 19.3261 11.5 19.5001 11.5C19.5941 11.5 19.6851 11.526 19.7651 11.576C19.9991 11.722 20.0701 12.032 19.9241 12.265L17.4241 16.265C17.3321 16.412 17.1741 16.5 17.0001 16.5Z" fill="#37474F"/>
<path d="M11.0001 15.5C10.7621 15.5 10.5561 15.331 10.5101 15.098L9.01006 7.598C8.98406 7.467 9.01006 7.334 9.08406 7.223C9.15806 7.112 9.27106 7.036 9.40206 7.01C9.43506 7.003 9.46806 7 9.50106 7C9.73806 7 9.94406 7.169 9.99106 7.402L11.4911 14.902C11.5451 15.172 11.3691 15.436 11.0991 15.49C11.0671 15.497 11.0341 15.5 11.0001 15.5Z" fill="#37474F"/>
<path d="M8.00011 16.5C7.82611 16.5 7.66811 16.412 7.57611 16.265L5.07611 12.265C4.93011 12.031 5.00111 11.722 5.23511 11.576C5.31511 11.526 5.40611 11.5 5.50011 11.5C5.67411 11.5 5.83211 11.588 5.92411 11.735L8.42411 15.735C8.49511 15.849 8.51711 15.983 8.48711 16.113C8.45711 16.243 8.37811 16.354 8.26411 16.425C8.18611 16.474 8.09411 16.5 8.00011 16.5Z" fill="#37474F"/>
</svg>
