<svg width="24" height="24" viewBox="0 0 24 24" fill="none" xmlns="http://www.w3.org/2000/svg">
<path d="M0.5 23.999C0.366 23.999 0.241 23.947 0.146 23.853C0.051 23.759 0 23.633 0 23.499C0 23.365 0.052 23.24 0.146 23.145L4.137 19.154C3.513 17.663 3.26 12.96 4.761 11.459L14.61 1.609C15.647 0.572 17.029 0 18.499 0C19.969 0 21.351 0.571 22.388 1.609C23.425 2.647 23.997 4.028 23.997 5.499C23.997 6.97 23.425 8.351 22.388 9.389L12.538 19.238C11.565 20.212 9.408 20.357 8.209 20.357C7.124 20.357 5.643 20.226 4.838 19.867L0.854 23.852C0.759 23.947 0.634 23.999 0.5 23.999ZM5.625 19.082C6.183 19.229 7.108 19.356 8.21 19.357C9.937 19.357 11.324 19.041 11.833 18.531L14.398 15.967C13.685 16.081 12.983 16.11 12.459 16.11C11.094 16.11 9.781 15.918 9.085 15.623L5.625 19.082ZM5.469 12.166C4.513 13.122 4.501 16.868 4.909 18.383L8.37 14.922C8.017 14.13 7.884 12.68 7.88 11.618C7.878 11.165 7.899 10.399 8.024 9.61L5.469 12.166ZM9.874 14.832C10.466 14.976 11.448 15.095 12.547 15.095C14.276 15.095 15.562 14.8 16.076 14.287C16.079 14.284 18.636 11.728 18.636 11.728C17.928 11.842 17.232 11.87 16.712 11.87C15.344 11.87 14.027 11.675 13.33 11.377L9.874 14.832ZM9.707 7.928C9.191 8.445 8.874 9.857 8.881 11.614C8.885 12.688 9.011 13.59 9.155 14.137L12.623 10.669C12.172 9.62 11.972 7.245 12.274 5.36L9.716 7.919C9.713 7.922 9.71 7.925 9.707 7.928ZM14.102 10.604C14.698 10.761 15.665 10.863 16.646 10.863C18.404 10.863 19.81 10.55 20.317 10.047L21.683 8.681C23.312 7.053 23.436 4.471 22.013 2.693L14.102 10.604ZM13.948 3.688C12.999 4.637 12.986 8.383 13.394 9.898L21.306 1.986C20.509 1.347 19.523 0.998 18.501 0.998C17.299 0.998 16.169 1.466 15.319 2.316L13.972 3.663C13.964 3.672 13.956 3.681 13.948 3.688Z" fill="#37474F"/>
</svg>
