<svg width="24" height="24" viewBox="0 0 24 24" fill="none" xmlns="http://www.w3.org/2000/svg">
<path d="M12 22.712C11.724 22.712 11.5 22.488 11.5 22.212V9.156C11.327 9.116 11.159 9.057 11 8.978V9.712C10.89 11.603 9.398 13.101 7.529 13.211L4 13.212C2.392 13.212 0 12.679 0 11.212C0 10.907 0 10.124 4.774 8.091C3.489 7.877 2.272 7.376 1.21 6.619C-0.069 5.771 -0.067 5 0.049 4.616C0.215 4.067 0.784 3.712 1.5 3.712H8.631C8.545 3.486 8.5 3.245 8.5 3C8.5 1.897 9.397 1 10.5 1C11.075 1 11.623 1.255 12 1.682C12.377 1.255 12.925 1 13.5 1C14.603 1 15.5 1.897 15.5 3C15.5 3.245 15.455 3.486 15.368 3.712H22.5C23.216 3.712 23.785 4.067 23.951 4.616C24.067 5 24.068 5.772 22.776 6.629C21.723 7.38 20.51 7.878 19.227 8.092C24 10.124 24 10.907 24 11.212C24 12.679 21.608 13.212 20 13.212H16.5C14.609 13.102 13.111 11.61 13.001 9.741V8.977C12.855 9.05 12.7 9.107 12.539 9.146C12.526 9.15 12.513 9.153 12.5 9.156V22.212C12.5 22.488 12.276 22.712 12 22.712ZM14 9.712C14.08 11.051 15.167 12.133 16.529 12.213L20 12.212C21.588 12.212 22.953 11.681 22.999 11.235C22.804 10.849 20.027 9.421 16.569 8.096C15.771 7.98 14.748 7.746 14 7.277V9.712ZM1.002 11.246C1.065 11.689 2.422 12.212 4 12.212H7.5C8.839 12.132 9.921 11.045 10.001 9.683L10 7.277C9.252 7.746 8.228 7.981 7.43 8.097C4 9.411 1.242 10.827 1.002 11.246ZM11 7.71C11.097 7.84 11.218 7.95 11.352 8.031C11.548 8.15 11.772 8.212 11.998 8.212C12.099 8.212 12.201 8.2 12.3 8.175C12.58 8.106 12.826 7.941 13 7.706V5.712C13 5.434 13.031 5.182 13.094 4.957C12.669 4.869 12.286 4.645 12 4.319C11.714 4.645 11.331 4.869 10.906 4.956C10.969 5.181 11 5.434 11 5.712V7.71ZM1.5 4.712C1.2 4.712 1.031 4.825 1.007 4.905C0.969 5.032 1.142 5.374 1.777 5.796C3.028 6.687 4.491 7.176 6.013 7.213C7.635 7.213 10.001 6.628 10.001 5.713C10.001 4.983 9.729 4.848 9.64 4.804L9.602 4.785C9.434 4.712 9.203 4.712 9 4.712H1.5ZM15 4.712C14.796 4.712 14.566 4.712 14.386 4.79L14.356 4.804C14.272 4.847 14 4.981 14 5.712C14 6.641 16.33 7.212 18 7.212C19.512 7.175 20.97 6.688 22.21 5.805C22.857 5.376 23.032 5.032 22.994 4.905C22.969 4.825 22.8 4.712 22.5 4.712H15ZM13.5 2C12.948 2 12.5 2.449 12.5 3C12.5 3.551 12.948 4 13.5 4C14.052 4 14.5 3.551 14.5 3C14.5 2.449 14.052 2 13.5 2ZM10.5 2C9.949 2 9.5 2.449 9.5 3C9.5 3.551 9.949 4 10.5 4C11.051 4 11.5 3.551 11.5 3C11.5 2.449 11.051 2 10.5 2Z" fill="#37474F"/>
</svg>
