<svg width="24" height="24" viewBox="0 0 24 24" fill="none" xmlns="http://www.w3.org/2000/svg">
<path d="M7.99854 4.17896C8.41275 4.17896 8.74854 3.84317 8.74854 3.42896C8.74854 3.01474 8.41275 2.67896 7.99854 2.67896C7.58432 2.67896 7.24854 3.01474 7.24854 3.42896C7.24854 3.84317 7.58432 4.17896 7.99854 4.17896Z" fill="#37474F"/>
<path d="M15.4985 23.929C15.4445 23.929 15.3915 23.92 15.3405 23.903C15.2145 23.861 15.1115 23.772 15.0515 23.653C14.9915 23.534 14.9815 23.398 15.0245 23.271L15.5225 21.776C14.8925 21.93 14.2515 22.008 13.6095 22.008C12.6005 22.008 11.6175 21.825 10.6805 21.463L9.97252 23.587C9.90452 23.791 9.71352 23.929 9.49852 23.929C9.44552 23.929 9.39252 23.92 9.34152 23.904C9.07852 23.816 8.93652 23.533 9.02352 23.271L9.76552 21.043C8.70852 20.476 7.81052 19.697 7.09452 18.726C4.90052 15.799 3.02752 5.685 2.53852 2.861C1.92852 3.245 1.35752 3.679 0.836521 4.155C0.743521 4.24 0.624521 4.286 0.499521 4.286C0.359521 4.286 0.224521 4.227 0.130521 4.123C0.0405208 4.024 -0.00547922 3.897 0.000520777 3.763C0.00652078 3.63 0.0645208 3.507 0.162521 3.416C0.913521 2.73 1.75052 2.13 2.65152 1.632C2.65452 1.63 2.67052 1.622 2.67352 1.62C4.51652 0.605 6.60252 0.044 8.70352 0C14.7685 0 23.5795 18.395 23.9515 19.178C24.0085 19.299 24.0155 19.434 23.9705 19.56C23.9255 19.686 23.8345 19.787 23.7145 19.844C23.6475 19.876 23.5735 19.892 23.5005 19.892C23.3085 19.892 23.1305 19.78 23.0485 19.606C23.0435 19.595 22.5175 18.492 21.6285 16.801C20.9495 17.818 20.1865 18.758 19.3565 19.6C19.0595 19.902 18.7345 20.183 18.3925 20.435C17.8755 20.816 17.3095 21.136 16.7075 21.386L15.9745 23.585C15.9055 23.792 15.7145 23.929 15.4985 23.929ZM10.7125 20.392C11.6165 20.794 12.6175 21.007 13.6085 21.007C14.4235 21.007 15.2235 20.869 15.9865 20.596C16.0755 20.515 16.1925 20.47 16.3165 20.47C16.8405 20.252 17.3395 19.971 17.7985 19.632C18.0975 19.412 18.3815 19.166 18.6425 18.9C19.5625 17.968 20.3865 16.925 21.0925 15.797C20.8215 15.294 20.5445 14.789 20.2655 14.289C19.5625 15.027 18.1145 16.232 16.1535 16.232C15.1885 16.232 14.2085 15.938 13.2425 15.358C10.8165 13.902 10.5125 8.677 10.5005 8.456C10.4935 8.323 10.5385 8.194 10.6285 8.095C10.7175 7.996 10.8405 7.937 10.9735 7.93H10.9745C11.2655 7.93 11.4845 8.138 11.4985 8.403C11.5725 9.767 12.1215 13.52 13.7565 14.501C14.5715 14.99 15.3865 15.238 16.1795 15.238C18.0005 15.238 19.2765 13.947 19.7495 13.378C15.1885 5.397 11.2725 1.004 8.71552 1.001C6.89952 1.04 5.08752 1.5 3.46352 2.333C3.79952 4.295 5.75452 15.27 7.89852 18.129C8.56752 19.037 9.45352 19.778 10.4625 20.275C10.4865 20.278 10.5135 20.282 10.5425 20.292C10.6055 20.313 10.6615 20.346 10.7125 20.392Z" fill="#37474F"/>
</svg>
