<svg width="24" height="24" viewBox="0 0 24 24" fill="none" xmlns="http://www.w3.org/2000/svg">
<path d="M9.507 22C7.573 22 6 20.43 6 18.5C6 16.57 7.57 15 9.5 15H12V2.039C11.985 1.86 11.985 1.659 12.002 1.46C12.023 1.202 12.242 1 12.5 1C12.79 1.011 13 1.231 13 1.5V2.017C13.072 2.856 13.534 3.615 14.267 4.077C19.14 7.325 17.492 11.554 16.289 14.641C16.218 14.823 16.148 15.003 16.081 15.179C16.006 15.371 15.818 15.501 15.612 15.501C15.551 15.501 15.491 15.49 15.434 15.468C15.309 15.42 15.21 15.327 15.156 15.205C15.102 15.083 15.098 14.947 15.146 14.823C15.207 14.665 15.356 14.28 15.356 14.28C16.556 11.202 17.916 7.714 13.722 4.918C13.458 4.752 13.215 4.55 12.999 4.321V18.501C12.999 18.509 12.999 18.524 12.998 18.532C12.939 20.411 11.409 21.941 9.515 22.001C9.513 22 9.509 22 9.507 22ZM9.499 16.001C8.12 16.001 6.999 17.123 6.999 18.501C6.999 19.879 8.12 21.001 9.499 21.001C10.852 20.958 11.954 19.854 11.999 18.489V16.001H9.499Z" fill="#37474F"/>
</svg>
