<svg width="24" height="24" viewBox="0 0 24 24" fill="none" xmlns="http://www.w3.org/2000/svg">
<path d="M0.5 21.5C0.224 21.5 0 21.276 0 21C0 20.724 0.224 20.5 0.5 20.5H23.5C23.776 20.5 24 20.724 24 21C24 21.276 23.776 21.5 23.5 21.5H0.5Z" fill="#37474F"/>
<path d="M0.5 14.5C0.224 14.5 0 14.276 0 14C0 13.724 0.224 13.5 0.5 13.5H2.5C2.776 13.5 3 13.724 3 14C3 14.276 2.776 14.5 2.5 14.5H0.5Z" fill="#37474F"/>
<path d="M5.13591 8.1359C5.00191 8.1359 4.87691 8.0839 4.78191 7.9899L3.36891 6.5759C3.17391 6.3809 3.17391 6.0639 3.36891 5.8689C3.46291 5.7749 3.58891 5.7229 3.72291 5.7229C3.85691 5.7229 3.98191 5.7749 4.07691 5.8689L5.48991 7.2819C5.68491 7.4769 5.68491 7.7939 5.48991 7.9889C5.39491 8.0839 5.26991 8.1359 5.13591 8.1359Z" fill="#37474F"/>
<path d="M11.5 5.5C11.224 5.5 11 5.276 11 5V3C11 2.724 11.224 2.5 11.5 2.5C11.776 2.5 12 2.724 12 3V5C12 5.276 11.776 5.5 11.5 5.5Z" fill="#37474F"/>
<path d="M17.864 8.1359C17.73 8.1359 17.605 8.0839 17.51 7.9899C17.315 7.7949 17.315 7.4779 17.51 7.2829L18.924 5.8689C19.018 5.7749 19.144 5.7229 19.278 5.7229C19.412 5.7229 19.537 5.7749 19.632 5.8689C19.827 6.0639 19.827 6.3809 19.632 6.5759L18.218 7.9899C18.123 8.0839 17.998 8.1359 17.864 8.1359Z" fill="#37474F"/>
<path d="M20.5 14.5C20.224 14.5 20 14.276 20 14C20 13.724 20.224 13.5 20.5 13.5H22.5C22.776 13.5 23 13.724 23 14C23 14.276 22.776 14.5 22.5 14.5H20.5Z" fill="#37474F"/>
<path d="M16.379 19.5C16.244 19.5 16.114 19.445 16.02 19.348C15.828 19.15 15.833 18.834 16.03 18.641C17.275 17.431 17.974 15.808 17.999 14.072C18.024 12.336 17.371 10.694 16.161 9.44898C14.951 8.20398 13.328 7.50498 11.592 7.47998H11.492C9.79598 7.47998 8.18998 8.13298 6.96998 9.31898C5.72698 10.527 5.02898 12.15 5.00398 13.888C4.97898 15.626 5.63098 17.268 6.83898 18.511C6.88198 18.555 6.92598 18.599 6.96998 18.642C7.16698 18.834 7.17198 19.151 6.97998 19.349C6.88398 19.446 6.75698 19.5 6.62098 19.5C6.48998 19.5 6.36598 19.45 6.27198 19.358C6.22198 19.309 6.17198 19.259 6.12198 19.209C4.72698 17.774 3.97498 15.88 4.00398 13.874C4.03298 11.868 4.83798 9.99598 6.27198 8.60198C7.67998 7.23398 9.54298 6.47998 11.518 6.47998H11.605C13.609 6.50898 15.481 7.31498 16.877 8.75198C18.273 10.188 19.027 12.083 18.998 14.086C18.969 16.089 18.163 17.961 16.726 19.357C16.634 19.45 16.51 19.5 16.379 19.5Z" fill="#37474F"/>
</svg>
