<svg xmlns="http://www.w3.org/2000/svg" viewBox="0 0 4640 3850" width="4640" height="3850"><defs><style type="text/css">@import url('https://fonts.googleapis.com/css?family=Roboto+Mono:400|Roboto:400,&amp;subset=cyrillic,cyrillic-ext,greek,greek-ext,latin-ext')</style></defs><rect x="0" y="0" width="4640" height="3850" fill="#ffffff"/><text x="2320" y="109" text-anchor="middle" font-size="64px" font-family="Roboto,sans-serif" fill="#52565f">User Flow - Chungungo</text><text x="4595" y="3791" text-anchor="end" font-size="14px" font-family="Roboto,sans-serif" color="#52565f">17 December 2020</text><g transform="translate(45,213)"><g><g><g transform="translate(2422, 2464)"><path d="M31.5 28 L140 28 L248.5 28 C250.5 28 252 29.5 252 31.5 L252 96 L252 160.5 C252 162.5 250.5 164 248.5 164 L140 164 L31.5 164 C29.5 164 28 162.5 28 160.5 L28 96 L28 31.5 C28 29.5 29.5 28 31.5 28 Z" fill="#ffffff" stroke="#4d9ef6" stroke-width="2"/><g transform="translate(36, 36)"/></g><g transform="translate(2422, 2656)"><path d="M31.5 28 L140 28 L248.5 28 C250.5 28 252 29.5 252 31.5 L252 96 L252 160.5 C252 162.5 250.5 164 248.5 164 L140 164 L31.5 164 C29.5 164 28 162.5 28 160.5 L28 96 L28 31.5 C28 29.5 29.5 28 31.5 28 Z" fill="#ffffff" stroke="#4d9ef6" stroke-width="2"/><g transform="translate(36, 36)"/></g><g transform="translate(2422, 2848)"><path d="M31.5 28 L140 28 L248.5 28 C250.5 28 252 29.5 252 31.5 L252 96 L252 160.5 C252 162.5 250.5 164 248.5 164 L140 164 L31.5 164 C29.5 164 28 162.5 28 160.5 L28 96 L28 31.5 C28 29.5 29.5 28 31.5 28 Z" fill="#ffffff" stroke="#4d9ef6" stroke-width="2"/><g transform="translate(36, 36)"/></g><g transform="translate(2422, 3040)"><path d="M31.5 28 L140 28 L248.5 28 C250.5 28 252 29.5 252 31.5 L252 96 L252 160.5 C252 162.5 250.5 164 248.5 164 L140 164 L31.5 164 C29.5 164 28 162.5 28 160.5 L28 96 L28 31.5 C28 29.5 29.5 28 31.5 28 Z" fill="#ffffff" stroke="#4d9ef6" stroke-width="2"/><g transform="translate(36, 36)"/></g><g transform="translate(854, 2112)"><path d="M68.5 60.5 L110 27 A3.338028169014084 3.338028169014084 0 0 1 114 27 L155.5 60.5 L197 94 A2.7241379310344827 2.7241379310344827 0 0 1 197 98 L155.5 131.5 L114 165 A3.338028169014084 3.338028169014084 0 0 1 110 165 L68.5 131.5 L27 98 A2.7241379310344827 2.7241379310344827 0 0 1 27 94 Z" fill="#ffffff" stroke="#4d9ef6" stroke-width="2"/><g transform="translate(64.5, 66)"><text font-size="14" font-family="Roboto,sans-serif" x="47.5" y="15" text-anchor="middle" fill="#52565f">facebook/goo</text><text font-size="14" font-family="Roboto,sans-serif" x="47.5" y="35" text-anchor="middle" fill="#52565f">gle account is</text><text font-size="14" font-family="Roboto,sans-serif" x="47.5" y="55" text-anchor="middle" fill="#52565f">correct?</text></g></g><g transform="translate(70, 416)"><path d="M31.5 28 L112 28 L192.5 28 C194.5 28 196 29.5 196 31.5 L196 64 L196 96.5 C196 98.5 194.5 100 192.5 100 L112 100 L31.5 100 C29.5 100 28 98.5 28 96.5 L28 64 L28 31.5 C28 29.5 29.5 28 31.5 28 Z" fill="#ffffff" stroke="#4d9ef6" stroke-width="2"/><g transform="translate(36, 34)"><text font-size="14" font-family="Roboto,sans-serif" x="76" y="35" text-anchor="middle" fill="#52565f">Home Page</text></g></g><g transform="translate(294, 416)"><path d="M64 28 L112 28 L160 28 C182 28 196 42 196 64 L196 64 L196 64 C196 86 182 100 160 100 L112 100 L64 100 C42 100 28 86 28 64 L28 64 L28 64 C28 42 42 28 64 28 Z" fill="#ffffff" stroke="#4d9ef6" stroke-width="2"/><g transform="translate(36, 34)"><text font-size="14" font-family="Roboto,sans-serif" x="76" y="35" text-anchor="middle" fill="#52565f">Registro</text></g></g><g transform="translate(294, 608)"><path d="M64 28 L112 28 L160 28 C182 28 196 42 196 64 L196 64 L196 64 C196 86 182 100 160 100 L112 100 L64 100 C42 100 28 86 28 64 L28 64 L28 64 C28 42 42 28 64 28 Z" fill="#ffffff" stroke="#4d9ef6" stroke-width="2"/><g transform="translate(36, 34)"><text font-size="14" font-family="Roboto,sans-serif" x="76" y="35" text-anchor="middle" fill="#52565f">Iniciar Sesión</text></g></g><g transform="translate(294, 896)"><path d="M64 28 L112 28 L160 28 C182 28 196 42 196 64 L196 64 L196 64 C196 86 182 100 160 100 L112 100 L64 100 C42 100 28 86 28 64 L28 64 L28 64 C28 42 42 28 64 28 Z" fill="#ffffff" stroke="#4d9ef6" stroke-width="2"/><g transform="translate(36, 34)"><text font-size="14" font-family="Roboto,sans-serif" x="76" y="35" text-anchor="middle" fill="#52565f">Estación</text></g></g><g transform="translate(686, 896)"><path d="M64 28 L112 28 L160 28 C182 28 196 42 196 64 L196 64 L196 64 C196 86 182 100 160 100 L112 100 L64 100 C42 100 28 86 28 64 L28 64 L28 64 C28 42 42 28 64 28 Z" fill="#ffffff" stroke="#4d9ef6" stroke-width="2"/><g transform="translate(36, 34)"><text font-size="14" font-family="Roboto,sans-serif" x="76" y="35" text-anchor="middle" fill="#52565f">Video Actividad 1</text></g></g><g transform="translate(686, 1024)"><path d="M64 28 L112 28 L160 28 C182 28 196 42 196 64 L196 64 L196 64 C196 86 182 100 160 100 L112 100 L64 100 C42 100 28 86 28 64 L28 64 L28 64 C28 42 42 28 64 28 Z" fill="#ffffff" stroke="#4d9ef6" stroke-width="2"/><g transform="translate(36, 34)"><text font-size="14" font-family="Roboto,sans-serif" x="76" y="35" text-anchor="middle" fill="#52565f">Video Actividad 2</text></g></g><g transform="translate(686, 1152)"><path d="M64 28 L112 28 L160 28 C182 28 196 42 196 64 L196 64 L196 64 C196 86 182 100 160 100 L112 100 L64 100 C42 100 28 86 28 64 L28 64 L28 64 C28 42 42 28 64 28 Z" fill="#ffffff" stroke="#4d9ef6" stroke-width="2"/><g transform="translate(36, 34)"><text font-size="14" font-family="Roboto,sans-serif" x="76" y="35" text-anchor="middle" fill="#52565f">Video Actividad 3</text></g></g><g transform="translate(686, 1280)"><path d="M64 28 L112 28 L160 28 C182 28 196 42 196 64 L196 64 L196 64 C196 86 182 100 160 100 L112 100 L64 100 C42 100 28 86 28 64 L28 64 L28 64 C28 42 42 28 64 28 Z" fill="#ffffff" stroke="#4d9ef6" stroke-width="2"/><g transform="translate(36, 34)"><text font-size="14" font-family="Roboto,sans-serif" x="76" y="35" text-anchor="middle" fill="#52565f">Video Actividad 4</text></g></g><g transform="translate(686, 512)"><path d="M64 28 L112 28 L160 28 C182 28 196 42 196 64 L196 64 L196 64 C196 86 182 100 160 100 L112 100 L64 100 C42 100 28 86 28 64 L28 64 L28 64 C28 42 42 28 64 28 Z" fill="#ffffff" stroke="#4d9ef6" stroke-width="2"/><g transform="translate(36, 34)"><text font-size="14" font-family="Roboto,sans-serif" x="76" y="35" text-anchor="middle" fill="#52565f">Mi perfil</text></g></g><g transform="translate(294, 192)"><path d="M64 28 L112 28 L160 28 C182 28 196 42 196 64 L196 64 L196 64 C196 86 182 100 160 100 L112 100 L64 100 C42 100 28 86 28 64 L28 64 L28 64 C28 42 42 28 64 28 Z" fill="#ffffff" stroke="#4d9ef6" stroke-width="2"/><g transform="translate(36, 34)"><text font-size="14" font-family="Roboto,sans-serif" x="76" y="35" text-anchor="middle" fill="#52565f">Confirmar cuenta</text></g></g><g transform="translate(14, 2144)"><path d="M64 28 L112 28 L160 28 C182 28 196 42 196 64 L196 64 L196 64 C196 86 182 100 160 100 L112 100 L64 100 C42 100 28 86 28 64 L28 64 L28 64 C28 42 42 28 64 28 Z" fill="#76E27A" stroke="#76E27A" stroke-width="2"/><g transform="translate(36, 34)"><text font-size="14" font-family="Roboto,sans-serif" x="76" y="35" text-anchor="middle" fill="#FFFFFF">Guest home page</text></g></g><g transform="translate(294, 2816)"><path d="M31.5 28 L112 28 L192.5 28 C194.5 28 196 29.5 196 31.5 L196 64 L196 96.5 C196 98.5 194.5 100 192.5 100 L112 100 L31.5 100 C29.5 100 28 98.5 28 96.5 L28 64 L28 31.5 C28 29.5 29.5 28 31.5 28 Z" fill="#ffffff" stroke="#4d9ef6" stroke-width="2"/><g transform="translate(36, 34)"><text font-size="14" font-family="Roboto,sans-serif" x="76" y="35" text-anchor="middle" fill="#52565f">Log in</text></g></g><g transform="translate(294, 2144)"><path d="M31.5 28 L112 28 L192.5 28 C194.5 28 196 29.5 196 31.5 L196 64 L196 96.5 C196 98.5 194.5 100 192.5 100 L112 100 L31.5 100 C29.5 100 28 98.5 28 96.5 L28 64 L28 31.5 C28 29.5 29.5 28 31.5 28 Z" fill="#ffffff" stroke="#4d9ef6" stroke-width="2"/><g transform="translate(36, 34)"><text font-size="14" font-family="Roboto,sans-serif" x="76" y="35" text-anchor="middle" fill="#52565f">Sign up</text></g></g><g transform="translate(294, 1568)"><path d="M31.5 28 L112 28 L192.5 28 C194.5 28 196 29.5 196 31.5 L196 64 L196 96.5 C196 98.5 194.5 100 192.5 100 L112 100 L31.5 100 C29.5 100 28 98.5 28 96.5 L28 64 L28 31.5 C28 29.5 29.5 28 31.5 28 Z" fill="#ffffff" stroke="#4d9ef6" stroke-width="2"/><g transform="translate(36, 34)"><text font-size="14" font-family="Roboto,sans-serif" x="76" y="25" text-anchor="middle" fill="#52565f">Play free highlighted</text><text font-size="14" font-family="Roboto,sans-serif" x="76" y="45" text-anchor="middle" fill="#52565f">activity</text></g></g><g transform="translate(518, 1568)"><path d="M50 28 L112 28 L193 28 A3 3 0 0 1 196 31 L196 97 A3 3 0 0 1 193 100 L49 100 A3 3 0 0 1 46 98.27799999999999 L28.5 65.584 Q27.5 64 28.5 62.4088 L46 29.721999999999998 A3 3 0 0 1 49 28 Z" fill="#ffffff" stroke="#4d9ef6" stroke-width="2"/><g transform="translate(46, 34)"><text font-size="14" font-family="Roboto,sans-serif" x="71" y="25" text-anchor="middle" fill="#52565f">Promt users to create an</text><text font-size="14" font-family="Roboto,sans-serif" x="71" y="45" text-anchor="middle" fill="#52565f">account</text></g></g><g transform="translate(630, 2816)"><path d="M68.5 44.5 L110 27 A4.846153846153847 4.846153846153847 0 0 1 114 27 L155.5 44.5 L197 62 A2.1724137931034484 2.1724137931034484 0 0 1 197 66 L155.5 83.5 L114 101 A4.846153846153847 4.846153846153847 0 0 1 110 101 L68.5 83.5 L27 66 A2.1724137931034484 2.1724137931034484 0 0 1 27 62 Z" fill="#ffffff" stroke="#4d9ef6" stroke-width="2"/><g transform="translate(64.5, 44)"><text font-size="14" font-family="Roboto,sans-serif" x="47.5" y="15" text-anchor="middle" fill="#52565f">Correct email/p</text><text font-size="14" font-family="Roboto,sans-serif" x="47.5" y="35" text-anchor="middle" fill="#52565f">assword</text></g></g><g transform="translate(630, 2976)"><path d="M31.5 28 L112 28 L192.5 28 C194.5 28 196 29.5 196 31.5 L196 64 L196 96.5 C196 98.5 194.5 100 192.5 100 L112 100 L31.5 100 C29.5 100 28 98.5 28 96.5 L28 64 L28 31.5 C28 29.5 29.5 28 31.5 28 Z" fill="#ffffff" stroke="#4d9ef6" stroke-width="2"/><g transform="translate(36, 34)"><text font-size="14" font-family="Roboto,sans-serif" x="76" y="35" text-anchor="middle" fill="#52565f">Forgot password?</text></g></g><g transform="translate(630, 3200)"><path d="M31.5 28 L112 28 L192.5 28 C194.5 28 196 29.5 196 31.5 L196 64 L196 96.5 C196 98.5 194.5 100 192.5 100 L112 100 L31.5 100 C29.5 100 28 98.5 28 96.5 L28 64 L28 31.5 C28 29.5 29.5 28 31.5 28 Z" fill="#ffffff" stroke="#4d9ef6" stroke-width="2"/><g transform="translate(36, 34)"><text font-size="14" font-family="Roboto,sans-serif" x="76" y="35" text-anchor="middle" fill="#52565f">Set new password</text></g></g><g transform="translate(630, 3360)"><path d="M31.5 28 L112 28 L192.5 28 C194.5 28 196 29.5 196 31.5 L196 64 L196 96.5 C196 98.5 194.5 100 192.5 100 L112 100 L31.5 100 C29.5 100 28 98.5 28 96.5 L28 64 L28 31.5 C28 29.5 29.5 28 31.5 28 Z" fill="#FFFFFF" stroke="#76E27A" stroke-width="2"/><g transform="translate(36, 34)"><text font-size="14" font-family="Roboto,sans-serif" x="76" y="35" text-anchor="middle" fill="#52565f">Sucess</text></g></g><g transform="translate(1302, 2464)"><path d="M64 28 L112 28 L160 28 C182 28 196 42 196 64 L196 64 L196 64 C196 86 182 100 160 100 L112 100 L64 100 C42 100 28 86 28 64 L28 64 L28 64 C28 42 42 28 64 28 Z" fill="#ffffff" stroke="#76E27A" stroke-width="2"/><g transform="translate(36, 34)"><text font-size="14" font-family="Roboto,sans-serif" x="76" y="35" text-anchor="middle" fill="#52565f">Home/Explore</text></g></g><g transform="translate(630, 2144)"><path d="M31.5 28 L112 28 L192.5 28 C194.5 28 196 29.5 196 31.5 L196 64 L196 96.5 C196 98.5 194.5 100 192.5 100 L112 100 L31.5 100 C29.5 100 28 98.5 28 96.5 L28 64 L28 31.5 C28 29.5 29.5 28 31.5 28 Z" fill="#ffffff" stroke="#4d9ef6" stroke-width="2"/><g transform="translate(36, 34)"><text font-size="14" font-family="Roboto,sans-serif" x="76" y="25" text-anchor="middle" fill="#52565f">Facebook/google</text><text font-size="14" font-family="Roboto,sans-serif" x="76" y="45" text-anchor="middle" fill="#52565f">permissions</text></g></g><g transform="translate(854, 2464)"><path d="M31.5 28 L112 28 L192.5 28 C194.5 28 196 29.5 196 31.5 L196 64 L196 96.5 C196 98.5 194.5 100 192.5 100 L112 100 L31.5 100 C29.5 100 28 98.5 28 96.5 L28 64 L28 31.5 C28 29.5 29.5 28 31.5 28 Z" fill="#ffffff" stroke="#76E27A" stroke-width="2"/><g transform="translate(36, 34)"><text font-size="14" font-family="Roboto,sans-serif" x="76" y="35" text-anchor="middle" fill="#52565f">Sign up sucess</text></g></g><g transform="translate(1582, 2048)"><path d="M31.5 28 L112 28 L192.5 28 C194.5 28 196 29.5 196 31.5 L196 64 L196 96.5 C196 98.5 194.5 100 192.5 100 L112 100 L31.5 100 C29.5 100 28 98.5 28 96.5 L28 64 L28 31.5 C28 29.5 29.5 28 31.5 28 Z" fill="#ffffff" stroke="#4d9ef6" stroke-width="2"/><g transform="translate(36, 34)"><text font-size="14" font-family="Roboto,sans-serif" x="76" y="35" text-anchor="middle" fill="#52565f">Profile</text></g></g><g transform="translate(1582, 2464)"><path d="M31.5 28 L112 28 L192.5 28 C194.5 28 196 29.5 196 31.5 L196 64 L196 96.5 C196 98.5 194.5 100 192.5 100 L112 100 L31.5 100 C29.5 100 28 98.5 28 96.5 L28 64 L28 31.5 C28 29.5 29.5 28 31.5 28 Z" fill="#ffffff" stroke="#4d9ef6" stroke-width="2"/><g transform="translate(36, 34)"><text font-size="14" font-family="Roboto,sans-serif" x="76" y="35" text-anchor="middle" fill="#52565f">Search activity tiles</text></g></g><g transform="translate(1582, 2752)"><path d="M31.5 28 L112 28 L192.5 28 C194.5 28 196 29.5 196 31.5 L196 64 L196 96.5 C196 98.5 194.5 100 192.5 100 L112 100 L31.5 100 C29.5 100 28 98.5 28 96.5 L28 64 L28 31.5 C28 29.5 29.5 28 31.5 28 Z" fill="#ffffff" stroke="#4d9ef6" stroke-width="2"/><g transform="translate(36, 34)"><text font-size="14" font-family="Roboto,sans-serif" x="76" y="25" text-anchor="middle" fill="#52565f">Activities</text><text font-size="14" font-family="Roboto,sans-serif" x="76" y="45" text-anchor="middle" fill="#52565f">El viaje del Chungungo</text></g></g><g transform="translate(2198, 2240)"><path d="M31.5 28 L112 28 L192.5 28 C194.5 28 196 29.5 196 31.5 L196 64 L196 96.5 C196 98.5 194.5 100 192.5 100 L112 100 L31.5 100 C29.5 100 28 98.5 28 96.5 L28 64 L28 31.5 C28 29.5 29.5 28 31.5 28 Z" fill="#ffffff" stroke="#4d9ef6" stroke-width="2"/><g transform="translate(36, 34)"><text font-size="14" font-family="Roboto,sans-serif" x="76" y="35" text-anchor="middle" fill="#52565f">Cancel Subscription</text></g></g><g transform="translate(1862, 2176)"><path d="M31.5 28 L112 28 L192.5 28 C194.5 28 196 29.5 196 31.5 L196 64 L196 96.5 C196 98.5 194.5 100 192.5 100 L112 100 L31.5 100 C29.5 100 28 98.5 28 96.5 L28 64 L28 31.5 C28 29.5 29.5 28 31.5 28 Z" fill="#ffffff" stroke="#4d9ef6" stroke-width="2"/><g transform="translate(36, 34)"><text font-size="14" font-family="Roboto,sans-serif" x="76" y="35" text-anchor="middle" fill="#52565f">Logout</text></g></g><g transform="translate(2198, 2112)"><path d="M31.5 28 L112 28 L192.5 28 C194.5 28 196 29.5 196 31.5 L196 64 L196 96.5 C196 98.5 194.5 100 192.5 100 L112 100 L31.5 100 C29.5 100 28 98.5 28 96.5 L28 64 L28 31.5 C28 29.5 29.5 28 31.5 28 Z" fill="#ffffff" stroke="#4d9ef6" stroke-width="2"/><g transform="translate(36, 34)"><text font-size="14" font-family="Roboto,sans-serif" x="76" y="35" text-anchor="middle" fill="#52565f">Manage payment metod</text></g></g><g transform="translate(2198, 1984)"><path d="M31.5 28 L112 28 L192.5 28 C194.5 28 196 29.5 196 31.5 L196 64 L196 96.5 C196 98.5 194.5 100 192.5 100 L112 100 L31.5 100 C29.5 100 28 98.5 28 96.5 L28 64 L28 31.5 C28 29.5 29.5 28 31.5 28 Z" fill="#ffffff" stroke="#4d9ef6" stroke-width="2"/><g transform="translate(36, 34)"><text font-size="14" font-family="Roboto,sans-serif" x="76" y="35" text-anchor="middle" fill="#52565f">Manage Log in data</text></g></g><g transform="translate(2198, 1856)"><path d="M31.5 28 L112 28 L192.5 28 C194.5 28 196 29.5 196 31.5 L196 64 L196 96.5 C196 98.5 194.5 100 192.5 100 L112 100 L31.5 100 C29.5 100 28 98.5 28 96.5 L28 64 L28 31.5 C28 29.5 29.5 28 31.5 28 Z" fill="#ffffff" stroke="#4d9ef6" stroke-width="2"/><g transform="translate(36, 34)"><text font-size="14" font-family="Roboto,sans-serif" x="76" y="25" text-anchor="middle" fill="#52565f">Add/edit personal data +</text><text font-size="14" font-family="Roboto,sans-serif" x="76" y="45" text-anchor="middle" fill="#52565f">avatar</text></g></g><g transform="translate(1862, 2048)"><path d="M31.5 28 L112 28 L192.5 28 C194.5 28 196 29.5 196 31.5 L196 64 L196 96.5 C196 98.5 194.5 100 192.5 100 L112 100 L31.5 100 C29.5 100 28 98.5 28 96.5 L28 64 L28 31.5 C28 29.5 29.5 28 31.5 28 Z" fill="#ffffff" stroke="#4d9ef6" stroke-width="2"/><g transform="translate(36, 34)"><text font-size="14" font-family="Roboto,sans-serif" x="76" y="35" text-anchor="middle" fill="#52565f">Manage Account</text></g></g><g transform="translate(1862, 1920)"><path d="M31.5 28 L112 28 L192.5 28 C194.5 28 196 29.5 196 31.5 L196 64 L196 96.5 C196 98.5 194.5 100 192.5 100 L112 100 L31.5 100 C29.5 100 28 98.5 28 96.5 L28 64 L28 31.5 C28 29.5 29.5 28 31.5 28 Z" fill="#ffffff" stroke="#4d9ef6" stroke-width="2"/><g transform="translate(36, 34)"><text font-size="14" font-family="Roboto,sans-serif" x="76" y="35" text-anchor="middle" fill="#52565f">Mi lista</text></g></g><g transform="translate(2142, 2496)"><path d="M31.5 28 L112 28 L192.5 28 C194.5 28 196 29.5 196 31.5 L196 64 L196 96.5 C196 98.5 194.5 100 192.5 100 L112 100 L31.5 100 C29.5 100 28 98.5 28 96.5 L28 64 L28 31.5 C28 29.5 29.5 28 31.5 28 Z" fill="#ffffff" stroke="#4d9ef6" stroke-width="2"/><g transform="translate(36, 34)"><text font-size="14" font-family="Roboto,sans-serif" x="76" y="25" text-anchor="middle" fill="#52565f">Estación</text><text font-size="14" font-family="Roboto,sans-serif" x="76" y="45" text-anchor="middle" fill="#52565f">El condor</text></g></g><g transform="translate(2142, 2688)"><path d="M31.5 28 L112 28 L192.5 28 C194.5 28 196 29.5 196 31.5 L196 64 L196 96.5 C196 98.5 194.5 100 192.5 100 L112 100 L31.5 100 C29.5 100 28 98.5 28 96.5 L28 64 L28 31.5 C28 29.5 29.5 28 31.5 28 Z" fill="#ffffff" stroke="#4d9ef6" stroke-width="2"/><g transform="translate(36, 34)"><text font-size="14" font-family="Roboto,sans-serif" x="76" y="25" text-anchor="middle" fill="#52565f">Estación</text><text font-size="14" font-family="Roboto,sans-serif" x="76" y="45" text-anchor="middle" fill="#52565f">El rio</text></g></g><g transform="translate(2142, 2880)"><path d="M31.5 28 L112 28 L192.5 28 C194.5 28 196 29.5 196 31.5 L196 64 L196 96.5 C196 98.5 194.5 100 192.5 100 L112 100 L31.5 100 C29.5 100 28 98.5 28 96.5 L28 64 L28 31.5 C28 29.5 29.5 28 31.5 28 Z" fill="#ffffff" stroke="#4d9ef6" stroke-width="2"/><g transform="translate(36, 34)"><text font-size="14" font-family="Roboto,sans-serif" x="76" y="25" text-anchor="middle" fill="#52565f">Estación</text><text font-size="14" font-family="Roboto,sans-serif" x="76" y="45" text-anchor="middle" fill="#52565f">La nieve</text></g></g><g transform="translate(2142, 3072)"><path d="M31.5 28 L112 28 L192.5 28 C194.5 28 196 29.5 196 31.5 L196 64 L196 96.5 C196 98.5 194.5 100 192.5 100 L112 100 L31.5 100 C29.5 100 28 98.5 28 96.5 L28 64 L28 31.5 C28 29.5 29.5 28 31.5 28 Z" fill="#ffffff" stroke="#4d9ef6" stroke-width="2"/><g transform="translate(36, 34)"><text font-size="14" font-family="Roboto,sans-serif" x="76" y="25" text-anchor="middle" fill="#52565f">Estación</text><text font-size="14" font-family="Roboto,sans-serif" x="76" y="45" text-anchor="middle" fill="#52565f">La chinchilla</text></g></g><g transform="translate(1862, 3200)"><path d="M31.5 28 L112 28 L192.5 28 C194.5 28 196 29.5 196 31.5 L196 64 L196 96.5 C196 98.5 194.5 100 192.5 100 L112 100 L31.5 100 C29.5 100 28 98.5 28 96.5 L28 64 L28 31.5 C28 29.5 29.5 28 31.5 28 Z" fill="#ffffff" stroke="#4d9ef6" stroke-width="2"/><g transform="translate(36, 34)"><text font-size="14" font-family="Roboto,sans-serif" x="76" y="35" text-anchor="middle" fill="#52565f">Segundo semestre 2021</text></g></g><g transform="translate(1862, 2752)"><path d="M31.5 28 L112 28 L192.5 28 C194.5 28 196 29.5 196 31.5 L196 64 L196 96.5 C196 98.5 194.5 100 192.5 100 L112 100 L31.5 100 C29.5 100 28 98.5 28 96.5 L28 64 L28 31.5 C28 29.5 29.5 28 31.5 28 Z" fill="#ffffff" stroke="#4d9ef6" stroke-width="2"/><g transform="translate(36, 34)"><text font-size="14" font-family="Roboto,sans-serif" x="76" y="35" text-anchor="middle" fill="#52565f">Primer semestre 2021</text></g></g><g transform="translate(3430, 2048)"><path d="M64 28 L112 28 L160 28 C182 28 196 42 196 64 L196 64 L196 64 C196 86 182 100 160 100 L112 100 L64 100 C42 100 28 86 28 64 L28 64 L28 64 C28 42 42 28 64 28 Z" fill="#76E27A" stroke="#76E27A" stroke-width="2"/><g transform="translate(36, 34)"><text font-size="14" font-family="Roboto,sans-serif" x="76" y="35" text-anchor="middle" fill="#FFFFFF">Ad</text></g></g><g transform="translate(3430, 2208)"><path d="M64 28 L112 28 L160 28 C182 28 196 42 196 64 L196 64 L196 64 C196 86 182 100 160 100 L112 100 L64 100 C42 100 28 86 28 64 L28 64 L28 64 C28 42 42 28 64 28 Z" fill="#76E27A" stroke="#76E27A" stroke-width="2"/><g transform="translate(36, 34)"><text font-size="14" font-family="Roboto,sans-serif" x="76" y="35" text-anchor="middle" fill="#FFFFFF">Organic</text></g></g><g transform="translate(3710, 2048)"><path d="M31.5 28 L112 28 L192.5 28 C194.5 28 196 29.5 196 31.5 L196 64 L196 96.5 C196 98.5 194.5 100 192.5 100 L112 100 L31.5 100 C29.5 100 28 98.5 28 96.5 L28 64 L28 31.5 C28 29.5 29.5 28 31.5 28 Z" fill="#ffffff" stroke="#4d9ef6" stroke-width="2"/><g transform="translate(36, 34)"><text font-size="14" font-family="Roboto,sans-serif" x="76" y="35" text-anchor="middle" fill="#52565f">Landing Page</text></g></g><g transform="translate(3710, 2208)"><path d="M31.5 28 L112 28 L192.5 28 C194.5 28 196 29.5 196 31.5 L196 64 L196 96.5 C196 98.5 194.5 100 192.5 100 L112 100 L31.5 100 C29.5 100 28 98.5 28 96.5 L28 64 L28 31.5 C28 29.5 29.5 28 31.5 28 Z" fill="#ffffff" stroke="#4d9ef6" stroke-width="2"/><g transform="translate(36, 34)"><text font-size="14" font-family="Roboto,sans-serif" x="76" y="35" text-anchor="middle" fill="#52565f">Home Page</text></g></g><g transform="translate(4046, 2112)"><path d="M31.5 28 L112 28 L192.5 28 C194.5 28 196 29.5 196 31.5 L196 64 L196 96.5 C196 98.5 194.5 100 192.5 100 L112 100 L31.5 100 C29.5 100 28 98.5 28 96.5 L28 64 L28 31.5 C28 29.5 29.5 28 31.5 28 Z" fill="#ffffff" stroke="#4d9ef6" stroke-width="2"/><g transform="translate(36, 34)"><text font-size="14" font-family="Roboto,sans-serif" x="76" y="35" text-anchor="middle" fill="#52565f">Sign Up</text></g></g><g transform="translate(4046, 2272)"><path d="M31.5 28 L112 28 L192.5 28 C194.5 28 196 29.5 196 31.5 L196 64 L196 96.5 C196 98.5 194.5 100 192.5 100 L112 100 L31.5 100 C29.5 100 28 98.5 28 96.5 L28 64 L28 31.5 C28 29.5 29.5 28 31.5 28 Z" fill="#ffffff" stroke="#4d9ef6" stroke-width="2"/><g transform="translate(36, 34)"><text font-size="14" font-family="Roboto,sans-serif" x="76" y="35" text-anchor="middle" fill="#52565f">Sign In</text></g></g><g transform="translate(4326, 2272)"><path d="M31.5 28 L112 28 L192.5 28 C194.5 28 196 29.5 196 31.5 L196 64 L196 96.5 C196 98.5 194.5 100 192.5 100 L112 100 L31.5 100 C29.5 100 28 98.5 28 96.5 L28 64 L28 31.5 C28 29.5 29.5 28 31.5 28 Z" fill="#ffffff" stroke="#4d9ef6" stroke-width="2"/><g transform="translate(36, 34)"><text font-size="14" font-family="Roboto,sans-serif" x="76" y="25" text-anchor="middle" fill="#52565f">HomePage</text><text font-size="14" font-family="Roboto,sans-serif" x="76" y="45" text-anchor="middle" fill="#52565f">Logged</text></g></g><g transform="translate(4326, 2400)"><path d="M31.5 28 L112 28 L192.5 28 C194.5 28 196 29.5 196 31.5 L196 64 L196 96.5 C196 98.5 194.5 100 192.5 100 L112 100 L31.5 100 C29.5 100 28 98.5 28 96.5 L28 64 L28 31.5 C28 29.5 29.5 28 31.5 28 Z" fill="#A2CEF9" stroke="#A2CEF9" stroke-width="2"/><g transform="translate(36, 34)"><text font-size="14" font-family="Roboto,sans-serif" x="76" y="35" text-anchor="middle" fill="#52565f">Process</text></g></g></g><g><g><path fill="none" stroke="#4d9ef6" stroke-width="2" stroke-dasharray="0px 0px" d="M 267,480L 284,480Q294,480 294,490L 294,950Q294,960 304,960L 319,960"/><path transform="translate( 269, 477 ) rotate( 450 )" d="M3 6C4.65685 6 6 4.65685 6 3C6 1.34315 4.65685 0 3 0C1.34315 0 0 1.34315 0 3C0 4.65685 1.34315 6 3 6Z" fill="#4d9ef6"/><path transform="translate( 321, 953 ) rotate( 450 )" d="M6.34003 0.275664C6.70452 -0.0918881 7.29548 -0.0918881 7.65997 0.275664L13.7266 6.39331C14.0911 6.76086 14.0911 7.35678 13.7266 7.72434C13.3621 8.09189 12.7712 8.09189 12.4067 7.72434L7 2.2722L1.5933 7.72434C1.22881 8.09189 0.637856 8.09189 0.273367 7.72434C-0.0911224 7.35678 -0.0911224 6.76086 0.273367 6.39331L6.34003 0.275664Z" fill="#4d9ef6"/></g><g><path fill="none" stroke="#4d9ef6" stroke-width="2" stroke-dasharray="0px 0px" d="M 267,480L 284,480Q294,480 294,490L 294,662Q294,672 304,672L 319,672"/><path transform="translate( 269, 477 ) rotate( 450 )" d="M3 6C4.65685 6 6 4.65685 6 3C6 1.34315 4.65685 0 3 0C1.34315 0 0 1.34315 0 3C0 4.65685 1.34315 6 3 6Z" fill="#4d9ef6"/><path transform="translate( 321, 665 ) rotate( 450 )" d="M6.34003 0.275664C6.70452 -0.0918881 7.29548 -0.0918881 7.65997 0.275664L13.7266 6.39331C14.0911 6.76086 14.0911 7.35678 13.7266 7.72434C13.3621 8.09189 12.7712 8.09189 12.4067 7.72434L7 2.2722L1.5933 7.72434C1.22881 8.09189 0.637856 8.09189 0.273367 7.72434C-0.0911224 7.35678 -0.0911224 6.76086 0.273367 6.39331L6.34003 0.275664Z" fill="#4d9ef6"/></g><g><path fill="none" stroke="#4d9ef6" stroke-width="2" stroke-dasharray="0px 0px" d="M 267,480L 294,480L 294,480L 319,480"/><path transform="translate( 269, 477 ) rotate( 450 )" d="M3 6C4.65685 6 6 4.65685 6 3C6 1.34315 4.65685 0 3 0C1.34315 0 0 1.34315 0 3C0 4.65685 1.34315 6 3 6Z" fill="#4d9ef6"/><path transform="translate( 321, 473 ) rotate( 450 )" d="M6.34003 0.275664C6.70452 -0.0918881 7.29548 -0.0918881 7.65997 0.275664L13.7266 6.39331C14.0911 6.76086 14.0911 7.35678 13.7266 7.72434C13.3621 8.09189 12.7712 8.09189 12.4067 7.72434L7 2.2722L1.5933 7.72434C1.22881 8.09189 0.637856 8.09189 0.273367 7.72434C-0.0911224 7.35678 -0.0911224 6.76086 0.273367 6.39331L6.34003 0.275664Z" fill="#4d9ef6"/></g><g><path fill="none" stroke="#4d9ef6" stroke-width="2" stroke-dasharray="0px 0px" d="M 491,480L 518,480L 620,480Q630,480 630,490L 630,822Q630,832 620,832L 416,832Q406,832 406,842L 406,896L 406,921"/><path transform="translate( 493, 477 ) rotate( 450 )" d="M3 6C4.65685 6 6 4.65685 6 3C6 1.34315 4.65685 0 3 0C1.34315 0 0 1.34315 0 3C0 4.65685 1.34315 6 3 6Z" fill="#4d9ef6"/><path transform="translate( 413, 923 ) rotate( 540 )" d="M6.34003 0.275664C6.70452 -0.0918881 7.29548 -0.0918881 7.65997 0.275664L13.7266 6.39331C14.0911 6.76086 14.0911 7.35678 13.7266 7.72434C13.3621 8.09189 12.7712 8.09189 12.4067 7.72434L7 2.2722L1.5933 7.72434C1.22881 8.09189 0.637856 8.09189 0.273367 7.72434C-0.0911224 7.35678 -0.0911224 6.76086 0.273367 6.39331L6.34003 0.275664Z" fill="#4d9ef6"/></g><g><path fill="none" stroke="#4d9ef6" stroke-width="2" stroke-dasharray="0px 0px" d="M 491,480L 518,480L 620,480Q630,480 630,490L 630,566Q630,576 640,576L 686,576L 711,576"/><path transform="translate( 493, 477 ) rotate( 450 )" d="M3 6C4.65685 6 6 4.65685 6 3C6 1.34315 4.65685 0 3 0C1.34315 0 0 1.34315 0 3C0 4.65685 1.34315 6 3 6Z" fill="#4d9ef6"/><path transform="translate( 713, 569 ) rotate( 450 )" d="M6.34003 0.275664C6.70452 -0.0918881 7.29548 -0.0918881 7.65997 0.275664L13.7266 6.39331C14.0911 6.76086 14.0911 7.35678 13.7266 7.72434C13.3621 8.09189 12.7712 8.09189 12.4067 7.72434L7 2.2722L1.5933 7.72434C1.22881 8.09189 0.637856 8.09189 0.273367 7.72434C-0.0911224 7.35678 -0.0911224 6.76086 0.273367 6.39331L6.34003 0.275664Z" fill="#4d9ef6"/></g><g><path fill="none" stroke="#4d9ef6" stroke-width="2" stroke-dasharray="0px 0px" d="M 406,443L 406,416L 406,320L 406,295"/><path transform="translate( 403, 441 ) rotate( 360 )" d="M3 6C4.65685 6 6 4.65685 6 3C6 1.34315 4.65685 0 3 0C1.34315 0 0 1.34315 0 3C0 4.65685 1.34315 6 3 6Z" fill="#4d9ef6"/><path transform="translate( 399, 293 ) rotate( 360 )" d="M6.34003 0.275664C6.70452 -0.0918881 7.29548 -0.0918881 7.65997 0.275664L13.7266 6.39331C14.0911 6.76086 14.0911 7.35678 13.7266 7.72434C13.3621 8.09189 12.7712 8.09189 12.4067 7.72434L7 2.2722L1.5933 7.72434C1.22881 8.09189 0.637856 8.09189 0.273367 7.72434C-0.0911224 7.35678 -0.0911224 6.76086 0.273367 6.39331L6.34003 0.275664Z" fill="#4d9ef6"/></g><g><path fill="none" stroke="#4d9ef6" stroke-width="2" stroke-dasharray="0px 0px" d="M 491,672L 518,672L 620,672Q630,672 630,682L 630,822Q630,832 620,832L 416,832Q406,832 406,842L 406,896L 406,921"/><path transform="translate( 493, 669 ) rotate( 450 )" d="M3 6C4.65685 6 6 4.65685 6 3C6 1.34315 4.65685 0 3 0C1.34315 0 0 1.34315 0 3C0 4.65685 1.34315 6 3 6Z" fill="#4d9ef6"/><path transform="translate( 413, 923 ) rotate( 540 )" d="M6.34003 0.275664C6.70452 -0.0918881 7.29548 -0.0918881 7.65997 0.275664L13.7266 6.39331C14.0911 6.76086 14.0911 7.35678 13.7266 7.72434C13.3621 8.09189 12.7712 8.09189 12.4067 7.72434L7 2.2722L1.5933 7.72434C1.22881 8.09189 0.637856 8.09189 0.273367 7.72434C-0.0911224 7.35678 -0.0911224 6.76086 0.273367 6.39331L6.34003 0.275664Z" fill="#4d9ef6"/></g><g><path fill="none" stroke="#4d9ef6" stroke-width="2" stroke-dasharray="0px 0px" d="M 491,672L 518,672L 620,672Q630,672 630,662L 630,586Q630,576 640,576L 686,576L 711,576"/><path transform="translate( 493, 669 ) rotate( 450 )" d="M3 6C4.65685 6 6 4.65685 6 3C6 1.34315 4.65685 0 3 0C1.34315 0 0 1.34315 0 3C0 4.65685 1.34315 6 3 6Z" fill="#4d9ef6"/><path transform="translate( 713, 569 ) rotate( 450 )" d="M6.34003 0.275664C6.70452 -0.0918881 7.29548 -0.0918881 7.65997 0.275664L13.7266 6.39331C14.0911 6.76086 14.0911 7.35678 13.7266 7.72434C13.3621 8.09189 12.7712 8.09189 12.4067 7.72434L7 2.2722L1.5933 7.72434C1.22881 8.09189 0.637856 8.09189 0.273367 7.72434C-0.0911224 7.35678 -0.0911224 6.76086 0.273367 6.39331L6.34003 0.275664Z" fill="#4d9ef6"/></g><g><path fill="none" stroke="#4d9ef6" stroke-width="2" stroke-dasharray="0px 0px" d="M 491,960L 508,960Q518,960 518,970L 518,1334Q518,1344 528,1344L 686,1344L 711,1344"/><path transform="translate( 493, 957 ) rotate( 450 )" d="M3 6C4.65685 6 6 4.65685 6 3C6 1.34315 4.65685 0 3 0C1.34315 0 0 1.34315 0 3C0 4.65685 1.34315 6 3 6Z" fill="#4d9ef6"/><path transform="translate( 713, 1337 ) rotate( 450 )" d="M6.34003 0.275664C6.70452 -0.0918881 7.29548 -0.0918881 7.65997 0.275664L13.7266 6.39331C14.0911 6.76086 14.0911 7.35678 13.7266 7.72434C13.3621 8.09189 12.7712 8.09189 12.4067 7.72434L7 2.2722L1.5933 7.72434C1.22881 8.09189 0.637856 8.09189 0.273367 7.72434C-0.0911224 7.35678 -0.0911224 6.76086 0.273367 6.39331L6.34003 0.275664Z" fill="#4d9ef6"/></g><g><path fill="none" stroke="#4d9ef6" stroke-width="2" stroke-dasharray="0px 0px" d="M 491,960L 508,960Q518,960 518,970L 518,1206Q518,1216 528,1216L 686,1216L 711,1216"/><path transform="translate( 493, 957 ) rotate( 450 )" d="M3 6C4.65685 6 6 4.65685 6 3C6 1.34315 4.65685 0 3 0C1.34315 0 0 1.34315 0 3C0 4.65685 1.34315 6 3 6Z" fill="#4d9ef6"/><path transform="translate( 713, 1209 ) rotate( 450 )" d="M6.34003 0.275664C6.70452 -0.0918881 7.29548 -0.0918881 7.65997 0.275664L13.7266 6.39331C14.0911 6.76086 14.0911 7.35678 13.7266 7.72434C13.3621 8.09189 12.7712 8.09189 12.4067 7.72434L7 2.2722L1.5933 7.72434C1.22881 8.09189 0.637856 8.09189 0.273367 7.72434C-0.0911224 7.35678 -0.0911224 6.76086 0.273367 6.39331L6.34003 0.275664Z" fill="#4d9ef6"/></g><g><path fill="none" stroke="#4d9ef6" stroke-width="2" stroke-dasharray="0px 0px" d="M 491,960L 508,960Q518,960 518,970L 518,1078Q518,1088 528,1088L 686,1088L 711,1088"/><path transform="translate( 493, 957 ) rotate( 450 )" d="M3 6C4.65685 6 6 4.65685 6 3C6 1.34315 4.65685 0 3 0C1.34315 0 0 1.34315 0 3C0 4.65685 1.34315 6 3 6Z" fill="#4d9ef6"/><path transform="translate( 713, 1081 ) rotate( 450 )" d="M6.34003 0.275664C6.70452 -0.0918881 7.29548 -0.0918881 7.65997 0.275664L13.7266 6.39331C14.0911 6.76086 14.0911 7.35678 13.7266 7.72434C13.3621 8.09189 12.7712 8.09189 12.4067 7.72434L7 2.2722L1.5933 7.72434C1.22881 8.09189 0.637856 8.09189 0.273367 7.72434C-0.0911224 7.35678 -0.0911224 6.76086 0.273367 6.39331L6.34003 0.275664Z" fill="#4d9ef6"/></g><g><path fill="none" stroke="#4d9ef6" stroke-width="2" stroke-dasharray="0px 0px" d="M 491,960L 518,960L 686,960L 711,960"/><path transform="translate( 493, 957 ) rotate( 450 )" d="M3 6C4.65685 6 6 4.65685 6 3C6 1.34315 4.65685 0 3 0C1.34315 0 0 1.34315 0 3C0 4.65685 1.34315 6 3 6Z" fill="#4d9ef6"/><path transform="translate( 713, 953 ) rotate( 450 )" d="M6.34003 0.275664C6.70452 -0.0918881 7.29548 -0.0918881 7.65997 0.275664L13.7266 6.39331C14.0911 6.76086 14.0911 7.35678 13.7266 7.72434C13.3621 8.09189 12.7712 8.09189 12.4067 7.72434L7 2.2722L1.5933 7.72434C1.22881 8.09189 0.637856 8.09189 0.273367 7.72434C-0.0911224 7.35678 -0.0911224 6.76086 0.273367 6.39331L6.34003 0.275664Z" fill="#4d9ef6"/></g><g><path fill="none" stroke="#4d9ef6" stroke-width="2" stroke-dasharray="0px 0px" d="M 406,219L 406,202Q406,192 396,192L 192,192Q182,192 182,202L 182,416L 182,441"/><path transform="translate( 403, 217 ) rotate( 360 )" d="M3 6C4.65685 6 6 4.65685 6 3C6 1.34315 4.65685 0 3 0C1.34315 0 0 1.34315 0 3C0 4.65685 1.34315 6 3 6Z" fill="#4d9ef6"/><path transform="translate( 189, 443 ) rotate( 540 )" d="M6.34003 0.275664C6.70452 -0.0918881 7.29548 -0.0918881 7.65997 0.275664L13.7266 6.39331C14.0911 6.76086 14.0911 7.35678 13.7266 7.72434C13.3621 8.09189 12.7712 8.09189 12.4067 7.72434L7 2.2722L1.5933 7.72434C1.22881 8.09189 0.637856 8.09189 0.273367 7.72434C-0.0911224 7.35678 -0.0911224 6.76086 0.273367 6.39331L6.34003 0.275664Z" fill="#4d9ef6"/></g><g><path fill="none" stroke="#4d9ef6" stroke-width="2" stroke-dasharray="0px 0px" d="M 211,2208L 238,2208L 284,2208Q294,2208 294,2218L 294,2870Q294,2880 304,2880L 319,2880"/><path transform="translate( 213, 2205 ) rotate( 450 )" d="M3 6C4.65685 6 6 4.65685 6 3C6 1.34315 4.65685 0 3 0C1.34315 0 0 1.34315 0 3C0 4.65685 1.34315 6 3 6Z" fill="#4d9ef6"/><path transform="translate( 321, 2873 ) rotate( 450 )" d="M6.34003 0.275664C6.70452 -0.0918881 7.29548 -0.0918881 7.65997 0.275664L13.7266 6.39331C14.0911 6.76086 14.0911 7.35678 13.7266 7.72434C13.3621 8.09189 12.7712 8.09189 12.4067 7.72434L7 2.2722L1.5933 7.72434C1.22881 8.09189 0.637856 8.09189 0.273367 7.72434C-0.0911224 7.35678 -0.0911224 6.76086 0.273367 6.39331L6.34003 0.275664Z" fill="#4d9ef6"/></g><g><path fill="none" stroke="#4d9ef6" stroke-width="2" stroke-dasharray="0px 0px" d="M 211,2208L 238,2208L 294,2208L 319,2208"/><path transform="translate( 213, 2205 ) rotate( 450 )" d="M3 6C4.65685 6 6 4.65685 6 3C6 1.34315 4.65685 0 3 0C1.34315 0 0 1.34315 0 3C0 4.65685 1.34315 6 3 6Z" fill="#4d9ef6"/><path transform="translate( 321, 2201 ) rotate( 450 )" d="M6.34003 0.275664C6.70452 -0.0918881 7.29548 -0.0918881 7.65997 0.275664L13.7266 6.39331C14.0911 6.76086 14.0911 7.35678 13.7266 7.72434C13.3621 8.09189 12.7712 8.09189 12.4067 7.72434L7 2.2722L1.5933 7.72434C1.22881 8.09189 0.637856 8.09189 0.273367 7.72434C-0.0911224 7.35678 -0.0911224 6.76086 0.273367 6.39331L6.34003 0.275664Z" fill="#4d9ef6"/></g><g><path fill="none" stroke="#4d9ef6" stroke-width="2" stroke-dasharray="0px 0px" d="M 211,2208L 238,2208L 284,2208Q294,2208 294,2198L 294,1642Q294,1632 304,1632L 319,1632"/><path transform="translate( 213, 2205 ) rotate( 450 )" d="M3 6C4.65685 6 6 4.65685 6 3C6 1.34315 4.65685 0 3 0C1.34315 0 0 1.34315 0 3C0 4.65685 1.34315 6 3 6Z" fill="#4d9ef6"/><path transform="translate( 321, 1625 ) rotate( 450 )" d="M6.34003 0.275664C6.70452 -0.0918881 7.29548 -0.0918881 7.65997 0.275664L13.7266 6.39331C14.0911 6.76086 14.0911 7.35678 13.7266 7.72434C13.3621 8.09189 12.7712 8.09189 12.4067 7.72434L7 2.2722L1.5933 7.72434C1.22881 8.09189 0.637856 8.09189 0.273367 7.72434C-0.0911224 7.35678 -0.0911224 6.76086 0.273367 6.39331L6.34003 0.275664Z" fill="#4d9ef6"/></g><g><path fill="none" stroke="#4d9ef6" stroke-width="2" stroke-dasharray="0px 0px" d="M 491,2880L 518,2880L 630,2880L 653,2880"/><path transform="translate( 493, 2877 ) rotate( 450 )" d="M3 6C4.65685 6 6 4.65685 6 3C6 1.34315 4.65685 0 3 0C1.34315 0 0 1.34315 0 3C0 4.65685 1.34315 6 3 6Z" fill="#4d9ef6"/><path transform="translate( 655, 2873 ) rotate( 450 )" d="M6.34003 0.275664C6.70452 -0.0918881 7.29548 -0.0918881 7.65997 0.275664L13.7266 6.39331C14.0911 6.76086 14.0911 7.35678 13.7266 7.72434C13.3621 8.09189 12.7712 8.09189 12.4067 7.72434L7 2.2722L1.5933 7.72434C1.22881 8.09189 0.637856 8.09189 0.273367 7.72434C-0.0911224 7.35678 -0.0911224 6.76086 0.273367 6.39331L6.34003 0.275664Z" fill="#4d9ef6"/></g><g><path fill="none" stroke="#4d9ef6" stroke-width="2" stroke-dasharray="0px 0px" d="M 491,2208L 518,2208L 630,2208L 655,2208"/><path transform="translate( 493, 2205 ) rotate( 450 )" d="M3 6C4.65685 6 6 4.65685 6 3C6 1.34315 4.65685 0 3 0C1.34315 0 0 1.34315 0 3C0 4.65685 1.34315 6 3 6Z" fill="#4d9ef6"/><path transform="translate( 657, 2201 ) rotate( 450 )" d="M6.34003 0.275664C6.70452 -0.0918881 7.29548 -0.0918881 7.65997 0.275664L13.7266 6.39331C14.0911 6.76086 14.0911 7.35678 13.7266 7.72434C13.3621 8.09189 12.7712 8.09189 12.4067 7.72434L7 2.2722L1.5933 7.72434C1.22881 8.09189 0.637856 8.09189 0.273367 7.72434C-0.0911224 7.35678 -0.0911224 6.76086 0.273367 6.39331L6.34003 0.275664Z" fill="#4d9ef6"/></g><g><path fill="none" stroke="#4d9ef6" stroke-width="2" stroke-dasharray="0px 0px" d="M 406,2245L 406,2272L 406,2806Q406,2816 416,2816L 732,2816Q742,2816 742,2826L 742,2839.5"/><path transform="translate( 409, 2247 ) rotate( 180 )" d="M3 6C4.65685 6 6 4.65685 6 3C6 1.34315 4.65685 0 3 0C1.34315 0 0 1.34315 0 3C0 4.65685 1.34315 6 3 6Z" fill="#4d9ef6"/><path transform="translate( 749, 2841.5 ) rotate( 540 )" d="M6.34003 0.275664C6.70452 -0.0918881 7.29548 -0.0918881 7.65997 0.275664L13.7266 6.39331C14.0911 6.76086 14.0911 7.35678 13.7266 7.72434C13.3621 8.09189 12.7712 8.09189 12.4067 7.72434L7 2.2722L1.5933 7.72434C1.22881 8.09189 0.637856 8.09189 0.273367 7.72434C-0.0911224 7.35678 -0.0911224 6.76086 0.273367 6.39331L6.34003 0.275664Z" fill="#4d9ef6"/></g><g><path fill="none" stroke="#4d9ef6" stroke-width="2" stroke-dasharray="0px 0px" d="M 491,2208L 508,2208Q518,2208 518,2218L 518,2518Q518,2528 528,2528L 854,2528L 879,2528"/><path transform="translate( 493, 2205 ) rotate( 450 )" d="M3 6C4.65685 6 6 4.65685 6 3C6 1.34315 4.65685 0 3 0C1.34315 0 0 1.34315 0 3C0 4.65685 1.34315 6 3 6Z" fill="#4d9ef6"/><path transform="translate( 881, 2521 ) rotate( 450 )" d="M6.34003 0.275664C6.70452 -0.0918881 7.29548 -0.0918881 7.65997 0.275664L13.7266 6.39331C14.0911 6.76086 14.0911 7.35678 13.7266 7.72434C13.3621 8.09189 12.7712 8.09189 12.4067 7.72434L7 2.2722L1.5933 7.72434C1.22881 8.09189 0.637856 8.09189 0.273367 7.72434C-0.0911224 7.35678 -0.0911224 6.76086 0.273367 6.39331L6.34003 0.275664Z" fill="#4d9ef6"/></g><g><path fill="none" stroke="#4d9ef6" stroke-width="2" stroke-dasharray="0px 0px" d="M 491,1632L 518,1632L 518,1632L 543,1632"/><path transform="translate( 493, 1629 ) rotate( 450 )" d="M3 6C4.65685 6 6 4.65685 6 3C6 1.34315 4.65685 0 3 0C1.34315 0 0 1.34315 0 3C0 4.65685 1.34315 6 3 6Z" fill="#4d9ef6"/><path transform="translate( 545, 1625 ) rotate( 450 )" d="M6.34003 0.275664C6.70452 -0.0918881 7.29548 -0.0918881 7.65997 0.275664L13.7266 6.39331C14.0911 6.76086 14.0911 7.35678 13.7266 7.72434C13.3621 8.09189 12.7712 8.09189 12.4067 7.72434L7 2.2722L1.5933 7.72434C1.22881 8.09189 0.637856 8.09189 0.273367 7.72434C-0.0911224 7.35678 -0.0911224 6.76086 0.273367 6.39331L6.34003 0.275664Z" fill="#4d9ef6"/></g><g><path fill="none" stroke="#4d9ef6" stroke-width="2" stroke-dasharray="0px 0px" d="M 715,1632L 732,1632Q742,1632 742,1642L 742,1766Q742,1776 732,1776L 416,1776Q406,1776 406,1786L 406,2144L 406,2169"/><path transform="translate( 717, 1629 ) rotate( 450 )" d="M3 6C4.65685 6 6 4.65685 6 3C6 1.34315 4.65685 0 3 0C1.34315 0 0 1.34315 0 3C0 4.65685 1.34315 6 3 6Z" fill="#4d9ef6"/><path transform="translate( 413, 2171 ) rotate( 540 )" d="M6.34003 0.275664C6.70452 -0.0918881 7.29548 -0.0918881 7.65997 0.275664L13.7266 6.39331C14.0911 6.76086 14.0911 7.35678 13.7266 7.72434C13.3621 8.09189 12.7712 8.09189 12.4067 7.72434L7 2.2722L1.5933 7.72434C1.22881 8.09189 0.637856 8.09189 0.273367 7.72434C-0.0911224 7.35678 -0.0911224 6.76086 0.273367 6.39331L6.34003 0.275664Z" fill="#4d9ef6"/></g><g><path fill="none" stroke="#4d9ef6" stroke-width="2" stroke-dasharray="0px 0px" d="M 742,2918.5L 742,2944L 742,2976L 742,3001"/><path transform="translate( 745, 2920.5 ) rotate( 180 )" d="M3 6C4.65685 6 6 4.65685 6 3C6 1.34315 4.65685 0 3 0C1.34315 0 0 1.34315 0 3C0 4.65685 1.34315 6 3 6Z" fill="#4d9ef6"/><path transform="translate( 749, 3003 ) rotate( 540 )" d="M6.34003 0.275664C6.70452 -0.0918881 7.29548 -0.0918881 7.65997 0.275664L13.7266 6.39331C14.0911 6.76086 14.0911 7.35678 13.7266 7.72434C13.3621 8.09189 12.7712 8.09189 12.4067 7.72434L7 2.2722L1.5933 7.72434C1.22881 8.09189 0.637856 8.09189 0.273367 7.72434C-0.0911224 7.35678 -0.0911224 6.76086 0.273367 6.39331L6.34003 0.275664Z" fill="#4d9ef6"/></g><g><path fill="none" stroke="#4d9ef6" stroke-width="2" stroke-dasharray="0px 0px" d="M 829,2880L 854,2880L 1292,2880Q1302,2880 1302,2870L 1302,2538Q1302,2528 1312,2528L 1327,2528"/><path transform="translate( 831, 2877 ) rotate( 450 )" d="M3 6C4.65685 6 6 4.65685 6 3C6 1.34315 4.65685 0 3 0C1.34315 0 0 1.34315 0 3C0 4.65685 1.34315 6 3 6Z" fill="#4d9ef6"/><path transform="translate( 1329, 2521 ) rotate( 450 )" d="M6.34003 0.275664C6.70452 -0.0918881 7.29548 -0.0918881 7.65997 0.275664L13.7266 6.39331C14.0911 6.76086 14.0911 7.35678 13.7266 7.72434C13.3621 8.09189 12.7712 8.09189 12.4067 7.72434L7 2.2722L1.5933 7.72434C1.22881 8.09189 0.637856 8.09189 0.273367 7.72434C-0.0911224 7.35678 -0.0911224 6.76086 0.273367 6.39331L6.34003 0.275664Z" fill="#4d9ef6"/></g><g><path fill="none" stroke="#4d9ef6" stroke-width="2" stroke-dasharray="0px 0px" d="M 742,3077L 742,3104L 742,3200L 742,3225"/><path transform="translate( 745, 3079 ) rotate( 180 )" d="M3 6C4.65685 6 6 4.65685 6 3C6 1.34315 4.65685 0 3 0C1.34315 0 0 1.34315 0 3C0 4.65685 1.34315 6 3 6Z" fill="#4d9ef6"/><path transform="translate( 749, 3227 ) rotate( 540 )" d="M6.34003 0.275664C6.70452 -0.0918881 7.29548 -0.0918881 7.65997 0.275664L13.7266 6.39331C14.0911 6.76086 14.0911 7.35678 13.7266 7.72434C13.3621 8.09189 12.7712 8.09189 12.4067 7.72434L7 2.2722L1.5933 7.72434C1.22881 8.09189 0.637856 8.09189 0.273367 7.72434C-0.0911224 7.35678 -0.0911224 6.76086 0.273367 6.39331L6.34003 0.275664Z" fill="#4d9ef6"/></g><g><path fill="none" stroke="#4d9ef6" stroke-width="2" stroke-dasharray="0px 0px" d="M 966,2137.5L 966,2112L 966,1834Q966,1824 956,1824L 416,1824Q406,1824 406,1834L 406,2144L 406,2169"/><path transform="translate( 963, 2135.5 ) rotate( 360 )" d="M3 6C4.65685 6 6 4.65685 6 3C6 1.34315 4.65685 0 3 0C1.34315 0 0 1.34315 0 3C0 4.65685 1.34315 6 3 6Z" fill="#4d9ef6"/><path transform="translate( 413, 2171 ) rotate( 540 )" d="M6.34003 0.275664C6.70452 -0.0918881 7.29548 -0.0918881 7.65997 0.275664L13.7266 6.39331C14.0911 6.76086 14.0911 7.35678 13.7266 7.72434C13.3621 8.09189 12.7712 8.09189 12.4067 7.72434L7 2.2722L1.5933 7.72434C1.22881 8.09189 0.637856 8.09189 0.273367 7.72434C-0.0911224 7.35678 -0.0911224 6.76086 0.273367 6.39331L6.34003 0.275664Z" fill="#4d9ef6"/></g><g><path fill="none" stroke="#4d9ef6" stroke-width="2" stroke-dasharray="0px 0px" d="M 966,2278.5L 966,2304L 966,2464L 966,2489"/><path transform="translate( 969, 2280.5 ) rotate( 180 )" d="M3 6C4.65685 6 6 4.65685 6 3C6 1.34315 4.65685 0 3 0C1.34315 0 0 1.34315 0 3C0 4.65685 1.34315 6 3 6Z" fill="#4d9ef6"/><path transform="translate( 973, 2491 ) rotate( 540 )" d="M6.34003 0.275664C6.70452 -0.0918881 7.29548 -0.0918881 7.65997 0.275664L13.7266 6.39331C14.0911 6.76086 14.0911 7.35678 13.7266 7.72434C13.3621 8.09189 12.7712 8.09189 12.4067 7.72434L7 2.2722L1.5933 7.72434C1.22881 8.09189 0.637856 8.09189 0.273367 7.72434C-0.0911224 7.35678 -0.0911224 6.76086 0.273367 6.39331L6.34003 0.275664Z" fill="#4d9ef6"/><g transform="translate( 966, 2325.2820659679605 )"><circle r="13" cx="0" cy="0" fill="#4d9ef6"/><g transform="translate( -12, -12 )"><svg width="24" height="24" fill="none" viewBox="0 0 24 24" id="svgSkitkfkzn85" xmlns="http://www.w3.org/2000/svg">
        <g>
            <path d="M12 21a9 9 0 1 0 0-18 9 9 0 0 0 0 18z" fill="#55D45B"/>
            <path fill-rule="evenodd" clip-rule="evenodd" d="M17.707 9.707L11.5 15.914l-4.207-4.207 1.414-1.414 2.793 2.793 4.793-4.793 1.414 1.414z" fill="#fff"/>
        </g>
    <desc>Created with Snap</desc><defs/></svg></g></g></g><g><path fill="none" stroke="#4d9ef6" stroke-width="2" stroke-dasharray="0px 0px" d="M 742,3301L 742,3328L 742,3360L 742,3385"/><path transform="translate( 745, 3303 ) rotate( 180 )" d="M3 6C4.65685 6 6 4.65685 6 3C6 1.34315 4.65685 0 3 0C1.34315 0 0 1.34315 0 3C0 4.65685 1.34315 6 3 6Z" fill="#4d9ef6"/><path transform="translate( 749, 3387 ) rotate( 540 )" d="M6.34003 0.275664C6.70452 -0.0918881 7.29548 -0.0918881 7.65997 0.275664L13.7266 6.39331C14.0911 6.76086 14.0911 7.35678 13.7266 7.72434C13.3621 8.09189 12.7712 8.09189 12.4067 7.72434L7 2.2722L1.5933 7.72434C1.22881 8.09189 0.637856 8.09189 0.273367 7.72434C-0.0911224 7.35678 -0.0911224 6.76086 0.273367 6.39331L6.34003 0.275664Z" fill="#4d9ef6"/></g><g><path fill="none" stroke="#4d9ef6" stroke-width="2" stroke-dasharray="0px 0px" d="M 827,3424L 854,3424L 1292,3424Q1302,3424 1302,3414L 1302,2538Q1302,2528 1312,2528L 1327,2528"/><path transform="translate( 829, 3421 ) rotate( 450 )" d="M3 6C4.65685 6 6 4.65685 6 3C6 1.34315 4.65685 0 3 0C1.34315 0 0 1.34315 0 3C0 4.65685 1.34315 6 3 6Z" fill="#4d9ef6"/><path transform="translate( 1329, 2521 ) rotate( 450 )" d="M6.34003 0.275664C6.70452 -0.0918881 7.29548 -0.0918881 7.65997 0.275664L13.7266 6.39331C14.0911 6.76086 14.0911 7.35678 13.7266 7.72434C13.3621 8.09189 12.7712 8.09189 12.4067 7.72434L7 2.2722L1.5933 7.72434C1.22881 8.09189 0.637856 8.09189 0.273367 7.72434C-0.0911224 7.35678 -0.0911224 6.76086 0.273367 6.39331L6.34003 0.275664Z" fill="#4d9ef6"/></g><g><path fill="none" stroke="#4d9ef6" stroke-width="2" stroke-dasharray="0px 0px" d="M 1499,2528L 1526,2528L 1572,2528Q1582,2528 1582,2518L 1582,2122Q1582,2112 1592,2112L 1607,2112"/><path transform="translate( 1501, 2525 ) rotate( 450 )" d="M3 6C4.65685 6 6 4.65685 6 3C6 1.34315 4.65685 0 3 0C1.34315 0 0 1.34315 0 3C0 4.65685 1.34315 6 3 6Z" fill="#4d9ef6"/><path transform="translate( 1609, 2105 ) rotate( 450 )" d="M6.34003 0.275664C6.70452 -0.0918881 7.29548 -0.0918881 7.65997 0.275664L13.7266 6.39331C14.0911 6.76086 14.0911 7.35678 13.7266 7.72434C13.3621 8.09189 12.7712 8.09189 12.4067 7.72434L7 2.2722L1.5933 7.72434C1.22881 8.09189 0.637856 8.09189 0.273367 7.72434C-0.0911224 7.35678 -0.0911224 6.76086 0.273367 6.39331L6.34003 0.275664Z" fill="#4d9ef6"/></g><g><path fill="none" stroke="#4d9ef6" stroke-width="2" stroke-dasharray="0px 0px" d="M 1499,2528L 1526,2528L 1582,2528L 1607,2528"/><path transform="translate( 1501, 2525 ) rotate( 450 )" d="M3 6C4.65685 6 6 4.65685 6 3C6 1.34315 4.65685 0 3 0C1.34315 0 0 1.34315 0 3C0 4.65685 1.34315 6 3 6Z" fill="#4d9ef6"/><path transform="translate( 1609, 2521 ) rotate( 450 )" d="M6.34003 0.275664C6.70452 -0.0918881 7.29548 -0.0918881 7.65997 0.275664L13.7266 6.39331C14.0911 6.76086 14.0911 7.35678 13.7266 7.72434C13.3621 8.09189 12.7712 8.09189 12.4067 7.72434L7 2.2722L1.5933 7.72434C1.22881 8.09189 0.637856 8.09189 0.273367 7.72434C-0.0911224 7.35678 -0.0911224 6.76086 0.273367 6.39331L6.34003 0.275664Z" fill="#4d9ef6"/></g><g><path fill="none" stroke="#4d9ef6" stroke-width="2" stroke-dasharray="0px 0px" d="M 1499,2528L 1526,2528L 1572,2528Q1582,2528 1582,2538L 1582,2806Q1582,2816 1592,2816L 1607,2816"/><path transform="translate( 1501, 2525 ) rotate( 450 )" d="M3 6C4.65685 6 6 4.65685 6 3C6 1.34315 4.65685 0 3 0C1.34315 0 0 1.34315 0 3C0 4.65685 1.34315 6 3 6Z" fill="#4d9ef6"/><path transform="translate( 1609, 2809 ) rotate( 450 )" d="M6.34003 0.275664C6.70452 -0.0918881 7.29548 -0.0918881 7.65997 0.275664L13.7266 6.39331C14.0911 6.76086 14.0911 7.35678 13.7266 7.72434C13.3621 8.09189 12.7712 8.09189 12.4067 7.72434L7 2.2722L1.5933 7.72434C1.22881 8.09189 0.637856 8.09189 0.273367 7.72434C-0.0911224 7.35678 -0.0911224 6.76086 0.273367 6.39331L6.34003 0.275664Z" fill="#4d9ef6"/></g><g><path fill="none" stroke="#4d9ef6" stroke-width="2" stroke-dasharray="0px 0px" d="M 827,2208L 854,2208L 854,2208L 877,2208"/><path transform="translate( 829, 2205 ) rotate( 450 )" d="M3 6C4.65685 6 6 4.65685 6 3C6 1.34315 4.65685 0 3 0C1.34315 0 0 1.34315 0 3C0 4.65685 1.34315 6 3 6Z" fill="#4d9ef6"/><path transform="translate( 879, 2201 ) rotate( 450 )" d="M6.34003 0.275664C6.70452 -0.0918881 7.29548 -0.0918881 7.65997 0.275664L13.7266 6.39331C14.0911 6.76086 14.0911 7.35678 13.7266 7.72434C13.3621 8.09189 12.7712 8.09189 12.4067 7.72434L7 2.2722L1.5933 7.72434C1.22881 8.09189 0.637856 8.09189 0.273367 7.72434C-0.0911224 7.35678 -0.0911224 6.76086 0.273367 6.39331L6.34003 0.275664Z" fill="#4d9ef6"/></g><g><path fill="none" stroke="#4d9ef6" stroke-width="2" stroke-dasharray="0px 0px" d="M 1051,2528L 1078,2528L 1302,2528L 1327,2528"/><path transform="translate( 1053, 2525 ) rotate( 450 )" d="M3 6C4.65685 6 6 4.65685 6 3C6 1.34315 4.65685 0 3 0C1.34315 0 0 1.34315 0 3C0 4.65685 1.34315 6 3 6Z" fill="#4d9ef6"/><path transform="translate( 1329, 2521 ) rotate( 450 )" d="M6.34003 0.275664C6.70452 -0.0918881 7.29548 -0.0918881 7.65997 0.275664L13.7266 6.39331C14.0911 6.76086 14.0911 7.35678 13.7266 7.72434C13.3621 8.09189 12.7712 8.09189 12.4067 7.72434L7 2.2722L1.5933 7.72434C1.22881 8.09189 0.637856 8.09189 0.273367 7.72434C-0.0911224 7.35678 -0.0911224 6.76086 0.273367 6.39331L6.34003 0.275664Z" fill="#4d9ef6"/></g><g><path fill="none" stroke="#4d9ef6" stroke-width="2" stroke-dasharray="0px 0px" d="M 1779,2112L 1806,2112L 1852,2112Q1862,2112 1862,2122L 1862,2230Q1862,2240 1872,2240L 1887,2240"/><path transform="translate( 1781, 2109 ) rotate( 450 )" d="M3 6C4.65685 6 6 4.65685 6 3C6 1.34315 4.65685 0 3 0C1.34315 0 0 1.34315 0 3C0 4.65685 1.34315 6 3 6Z" fill="#4d9ef6"/><path transform="translate( 1889, 2233 ) rotate( 450 )" d="M6.34003 0.275664C6.70452 -0.0918881 7.29548 -0.0918881 7.65997 0.275664L13.7266 6.39331C14.0911 6.76086 14.0911 7.35678 13.7266 7.72434C13.3621 8.09189 12.7712 8.09189 12.4067 7.72434L7 2.2722L1.5933 7.72434C1.22881 8.09189 0.637856 8.09189 0.273367 7.72434C-0.0911224 7.35678 -0.0911224 6.76086 0.273367 6.39331L6.34003 0.275664Z" fill="#4d9ef6"/></g><g><path fill="none" stroke="#4d9ef6" stroke-width="2" stroke-dasharray="0px 0px" d="M 1779,2112L 1806,2112L 1862,2112L 1887,2112"/><path transform="translate( 1781, 2109 ) rotate( 450 )" d="M3 6C4.65685 6 6 4.65685 6 3C6 1.34315 4.65685 0 3 0C1.34315 0 0 1.34315 0 3C0 4.65685 1.34315 6 3 6Z" fill="#4d9ef6"/><path transform="translate( 1889, 2105 ) rotate( 450 )" d="M6.34003 0.275664C6.70452 -0.0918881 7.29548 -0.0918881 7.65997 0.275664L13.7266 6.39331C14.0911 6.76086 14.0911 7.35678 13.7266 7.72434C13.3621 8.09189 12.7712 8.09189 12.4067 7.72434L7 2.2722L1.5933 7.72434C1.22881 8.09189 0.637856 8.09189 0.273367 7.72434C-0.0911224 7.35678 -0.0911224 6.76086 0.273367 6.39331L6.34003 0.275664Z" fill="#4d9ef6"/></g><g><path fill="none" stroke="#4d9ef6" stroke-width="2" stroke-dasharray="0px 0px" d="M 1779,2112L 1806,2112L 1852,2112Q1862,2112 1862,2102L 1862,1994Q1862,1984 1872,1984L 1887,1984"/><path transform="translate( 1781, 2109 ) rotate( 450 )" d="M3 6C4.65685 6 6 4.65685 6 3C6 1.34315 4.65685 0 3 0C1.34315 0 0 1.34315 0 3C0 4.65685 1.34315 6 3 6Z" fill="#4d9ef6"/><path transform="translate( 1889, 1977 ) rotate( 450 )" d="M6.34003 0.275664C6.70452 -0.0918881 7.29548 -0.0918881 7.65997 0.275664L13.7266 6.39331C14.0911 6.76086 14.0911 7.35678 13.7266 7.72434C13.3621 8.09189 12.7712 8.09189 12.4067 7.72434L7 2.2722L1.5933 7.72434C1.22881 8.09189 0.637856 8.09189 0.273367 7.72434C-0.0911224 7.35678 -0.0911224 6.76086 0.273367 6.39331L6.34003 0.275664Z" fill="#4d9ef6"/></g><g><path fill="none" stroke="#4d9ef6" stroke-width="2" stroke-dasharray="0px 0px" d="M 1779,2816L 1806,2816L 1862,2816L 1887,2816"/><path transform="translate( 1781, 2813 ) rotate( 450 )" d="M3 6C4.65685 6 6 4.65685 6 3C6 1.34315 4.65685 0 3 0C1.34315 0 0 1.34315 0 3C0 4.65685 1.34315 6 3 6Z" fill="#4d9ef6"/><path transform="translate( 1889, 2809 ) rotate( 450 )" d="M6.34003 0.275664C6.70452 -0.0918881 7.29548 -0.0918881 7.65997 0.275664L13.7266 6.39331C14.0911 6.76086 14.0911 7.35678 13.7266 7.72434C13.3621 8.09189 12.7712 8.09189 12.4067 7.72434L7 2.2722L1.5933 7.72434C1.22881 8.09189 0.637856 8.09189 0.273367 7.72434C-0.0911224 7.35678 -0.0911224 6.76086 0.273367 6.39331L6.34003 0.275664Z" fill="#4d9ef6"/></g><g><path fill="none" stroke="#4d9ef6" stroke-width="2" stroke-dasharray="0px 0px" d="M 1779,2816L 1806,2816L 1852,2816Q1862,2816 1862,2826L 1862,3254Q1862,3264 1872,3264L 1887,3264"/><path transform="translate( 1781, 2813 ) rotate( 450 )" d="M3 6C4.65685 6 6 4.65685 6 3C6 1.34315 4.65685 0 3 0C1.34315 0 0 1.34315 0 3C0 4.65685 1.34315 6 3 6Z" fill="#4d9ef6"/><path transform="translate( 1889, 3257 ) rotate( 450 )" d="M6.34003 0.275664C6.70452 -0.0918881 7.29548 -0.0918881 7.65997 0.275664L13.7266 6.39331C14.0911 6.76086 14.0911 7.35678 13.7266 7.72434C13.3621 8.09189 12.7712 8.09189 12.4067 7.72434L7 2.2722L1.5933 7.72434C1.22881 8.09189 0.637856 8.09189 0.273367 7.72434C-0.0911224 7.35678 -0.0911224 6.76086 0.273367 6.39331L6.34003 0.275664Z" fill="#4d9ef6"/></g><g><path fill="none" stroke="#4d9ef6" stroke-width="2" stroke-dasharray="0px 0px" d="M 2059,2112L 2086,2112L 2188,2112Q2198,2112 2198,2102L 2198,1930Q2198,1920 2208,1920L 2223,1920"/><path transform="translate( 2061, 2109 ) rotate( 450 )" d="M3 6C4.65685 6 6 4.65685 6 3C6 1.34315 4.65685 0 3 0C1.34315 0 0 1.34315 0 3C0 4.65685 1.34315 6 3 6Z" fill="#4d9ef6"/><path transform="translate( 2225, 1913 ) rotate( 450 )" d="M6.34003 0.275664C6.70452 -0.0918881 7.29548 -0.0918881 7.65997 0.275664L13.7266 6.39331C14.0911 6.76086 14.0911 7.35678 13.7266 7.72434C13.3621 8.09189 12.7712 8.09189 12.4067 7.72434L7 2.2722L1.5933 7.72434C1.22881 8.09189 0.637856 8.09189 0.273367 7.72434C-0.0911224 7.35678 -0.0911224 6.76086 0.273367 6.39331L6.34003 0.275664Z" fill="#4d9ef6"/></g><g><path fill="none" stroke="#4d9ef6" stroke-width="2" stroke-dasharray="0px 0px" d="M 2059,2112L 2086,2112L 2188,2112Q2198,2112 2198,2102L 2198,2058Q2198,2048 2208,2048L 2223,2048"/><path transform="translate( 2061, 2109 ) rotate( 450 )" d="M3 6C4.65685 6 6 4.65685 6 3C6 1.34315 4.65685 0 3 0C1.34315 0 0 1.34315 0 3C0 4.65685 1.34315 6 3 6Z" fill="#4d9ef6"/><path transform="translate( 2225, 2041 ) rotate( 450 )" d="M6.34003 0.275664C6.70452 -0.0918881 7.29548 -0.0918881 7.65997 0.275664L13.7266 6.39331C14.0911 6.76086 14.0911 7.35678 13.7266 7.72434C13.3621 8.09189 12.7712 8.09189 12.4067 7.72434L7 2.2722L1.5933 7.72434C1.22881 8.09189 0.637856 8.09189 0.273367 7.72434C-0.0911224 7.35678 -0.0911224 6.76086 0.273367 6.39331L6.34003 0.275664Z" fill="#4d9ef6"/></g><g><path fill="none" stroke="#4d9ef6" stroke-width="2" stroke-dasharray="0px 0px" d="M 2059,2112L 2086,2112L 2188,2112Q2198,2112 2198,2122L 2198,2166Q2198,2176 2208,2176L 2223,2176"/><path transform="translate( 2061, 2109 ) rotate( 450 )" d="M3 6C4.65685 6 6 4.65685 6 3C6 1.34315 4.65685 0 3 0C1.34315 0 0 1.34315 0 3C0 4.65685 1.34315 6 3 6Z" fill="#4d9ef6"/><path transform="translate( 2225, 2169 ) rotate( 450 )" d="M6.34003 0.275664C6.70452 -0.0918881 7.29548 -0.0918881 7.65997 0.275664L13.7266 6.39331C14.0911 6.76086 14.0911 7.35678 13.7266 7.72434C13.3621 8.09189 12.7712 8.09189 12.4067 7.72434L7 2.2722L1.5933 7.72434C1.22881 8.09189 0.637856 8.09189 0.273367 7.72434C-0.0911224 7.35678 -0.0911224 6.76086 0.273367 6.39331L6.34003 0.275664Z" fill="#4d9ef6"/></g><g><path fill="none" stroke="#4d9ef6" stroke-width="2" stroke-dasharray="0px 0px" d="M 2059,2112L 2086,2112L 2188,2112Q2198,2112 2198,2122L 2198,2294Q2198,2304 2208,2304L 2223,2304"/><path transform="translate( 2061, 2109 ) rotate( 450 )" d="M3 6C4.65685 6 6 4.65685 6 3C6 1.34315 4.65685 0 3 0C1.34315 0 0 1.34315 0 3C0 4.65685 1.34315 6 3 6Z" fill="#4d9ef6"/><path transform="translate( 2225, 2297 ) rotate( 450 )" d="M6.34003 0.275664C6.70452 -0.0918881 7.29548 -0.0918881 7.65997 0.275664L13.7266 6.39331C14.0911 6.76086 14.0911 7.35678 13.7266 7.72434C13.3621 8.09189 12.7712 8.09189 12.4067 7.72434L7 2.2722L1.5933 7.72434C1.22881 8.09189 0.637856 8.09189 0.273367 7.72434C-0.0911224 7.35678 -0.0911224 6.76086 0.273367 6.39331L6.34003 0.275664Z" fill="#4d9ef6"/></g><g><path fill="none" stroke="#4d9ef6" stroke-width="2" stroke-dasharray="0px 0px" d="M 2339,2560L 2366,2560L 2422,2560L 2447,2560"/><path transform="translate( 2341, 2557 ) rotate( 450 )" d="M3 6C4.65685 6 6 4.65685 6 3C6 1.34315 4.65685 0 3 0C1.34315 0 0 1.34315 0 3C0 4.65685 1.34315 6 3 6Z" fill="#4d9ef6"/><path transform="translate( 2449, 2553 ) rotate( 450 )" d="M6.34003 0.275664C6.70452 -0.0918881 7.29548 -0.0918881 7.65997 0.275664L13.7266 6.39331C14.0911 6.76086 14.0911 7.35678 13.7266 7.72434C13.3621 8.09189 12.7712 8.09189 12.4067 7.72434L7 2.2722L1.5933 7.72434C1.22881 8.09189 0.637856 8.09189 0.273367 7.72434C-0.0911224 7.35678 -0.0911224 6.76086 0.273367 6.39331L6.34003 0.275664Z" fill="#4d9ef6"/></g><g><path fill="none" stroke="#4d9ef6" stroke-width="2" stroke-dasharray="0px 0px" d="M 2339,2752L 2366,2752L 2422,2752L 2447,2752"/><path transform="translate( 2341, 2749 ) rotate( 450 )" d="M3 6C4.65685 6 6 4.65685 6 3C6 1.34315 4.65685 0 3 0C1.34315 0 0 1.34315 0 3C0 4.65685 1.34315 6 3 6Z" fill="#4d9ef6"/><path transform="translate( 2449, 2745 ) rotate( 450 )" d="M6.34003 0.275664C6.70452 -0.0918881 7.29548 -0.0918881 7.65997 0.275664L13.7266 6.39331C14.0911 6.76086 14.0911 7.35678 13.7266 7.72434C13.3621 8.09189 12.7712 8.09189 12.4067 7.72434L7 2.2722L1.5933 7.72434C1.22881 8.09189 0.637856 8.09189 0.273367 7.72434C-0.0911224 7.35678 -0.0911224 6.76086 0.273367 6.39331L6.34003 0.275664Z" fill="#4d9ef6"/></g><g><path fill="none" stroke="#4d9ef6" stroke-width="2" stroke-dasharray="0px 0px" d="M 2339,2944L 2366,2944L 2422,2944L 2447,2944"/><path transform="translate( 2341, 2941 ) rotate( 450 )" d="M3 6C4.65685 6 6 4.65685 6 3C6 1.34315 4.65685 0 3 0C1.34315 0 0 1.34315 0 3C0 4.65685 1.34315 6 3 6Z" fill="#4d9ef6"/><path transform="translate( 2449, 2937 ) rotate( 450 )" d="M6.34003 0.275664C6.70452 -0.0918881 7.29548 -0.0918881 7.65997 0.275664L13.7266 6.39331C14.0911 6.76086 14.0911 7.35678 13.7266 7.72434C13.3621 8.09189 12.7712 8.09189 12.4067 7.72434L7 2.2722L1.5933 7.72434C1.22881 8.09189 0.637856 8.09189 0.273367 7.72434C-0.0911224 7.35678 -0.0911224 6.76086 0.273367 6.39331L6.34003 0.275664Z" fill="#4d9ef6"/></g><g><path fill="none" stroke="#4d9ef6" stroke-width="2" stroke-dasharray="0px 0px" d="M 2339,3136L 2366,3136L 2422,3136L 2447,3136"/><path transform="translate( 2341, 3133 ) rotate( 450 )" d="M3 6C4.65685 6 6 4.65685 6 3C6 1.34315 4.65685 0 3 0C1.34315 0 0 1.34315 0 3C0 4.65685 1.34315 6 3 6Z" fill="#4d9ef6"/><path transform="translate( 2449, 3129 ) rotate( 450 )" d="M6.34003 0.275664C6.70452 -0.0918881 7.29548 -0.0918881 7.65997 0.275664L13.7266 6.39331C14.0911 6.76086 14.0911 7.35678 13.7266 7.72434C13.3621 8.09189 12.7712 8.09189 12.4067 7.72434L7 2.2722L1.5933 7.72434C1.22881 8.09189 0.637856 8.09189 0.273367 7.72434C-0.0911224 7.35678 -0.0911224 6.76086 0.273367 6.39331L6.34003 0.275664Z" fill="#4d9ef6"/></g></g><g><g transform="translate(306, 2908)"><rect width="232" height="192" fill="none" stroke="none" stroke-width="2" stroke-dasharray="0px 0px"/><g><g><g transform="translate(16, 16)"><g transform="translate(0, 0)"><text x="0" y="13.3" fill="#52565f" font-size="14" font-variant="" font-family="Roboto,sans-serif" font-weight="400">1</text></g><g transform="translate(0, 16.8)"><text x="0" y="13.3" fill="#52565f" font-size="14" font-variant="" font-family="Roboto,sans-serif" font-weight="400">Input [Email]</text></g><g transform="translate(0, 33.6)"><text x="0" y="13.3" fill="#52565f" font-size="14" font-variant="" font-family="Roboto,sans-serif" font-weight="400">Input [Password]</text></g><g transform="translate(0, 50.400000000000006)"><text x="0" y="13.3" fill="#52565f" font-size="14" font-variant="" font-family="Roboto,sans-serif" font-weight="400">Link [I forgot my password]</text></g><g transform="translate(0, 67.2)"><text x="0" y="13.3" fill="#52565f" font-size="14" font-variant="" font-family="Roboto,sans-serif" font-weight="400">Button [Log in]</text></g><g transform="translate(0, 84)"><text x="0" y="13.3" fill="#52565f" font-size="14" font-variant="" font-family="Roboto,sans-serif" font-weight="400">----- or -----</text></g><g transform="translate(0, 100.8)"><text x="0" y="13.3" fill="#52565f" font-size="14" font-variant="color" font-family="Roboto,sans-serif" font-weight="400">Button [Log in with Facebook]</text></g><g transform="translate(0, 117.6)"><text x="0" y="13.3" fill="#52565f" font-size="14" font-variant="color" font-family="Roboto,sans-serif" font-weight="400">Button [Log in with Google]</text></g></g></g></g></g><g transform="translate(314, 2244)"><rect width="232" height="160" fill="none" stroke="none" stroke-width="2" stroke-dasharray="0px 0px"/><g><g><g transform="translate(16, 16)"><g transform="translate(0, 0)"><text x="0" y="13.3" fill="#52565f" font-size="14" font-variant="" font-family="Roboto,sans-serif" font-weight="400">Logo,</text></g><g transform="translate(0, 16.8)"><text x="0" y="13.3" fill="#52565f" font-size="14" font-variant="" font-family="Roboto,sans-serif" font-weight="400">Why you should suscribe?</text></g><g transform="translate(0, 33.6)"><text x="0" y="13.3" fill="#52565f" font-size="14" font-variant="" font-family="Roboto,sans-serif" font-weight="400">Input [Email]</text></g><g transform="translate(0, 50.400000000000006)"><text x="0" y="13.3" fill="#52565f" font-size="14" font-variant="" font-family="Roboto,sans-serif" font-weight="400">Input [Password]</text></g><g transform="translate(0, 67.2)"><text x="0" y="13.3" fill="#52565f" font-size="14" font-variant="" font-family="Roboto,sans-serif" font-weight="400">Button [Sign up]</text></g><g transform="translate(0, 84)"><text x="0" y="13.3" fill="#52565f" font-size="14" font-variant="" font-family="Roboto,sans-serif" font-weight="400">----- or -----</text></g><g transform="translate(0, 100.8)"><text x="0" y="13.3" fill="#52565f" font-size="14" font-variant="color" font-family="Roboto,sans-serif" font-weight="400">Button [Sign up with Facebook]</text></g></g></g></g></g><g transform="translate(34, 2236)"><rect width="224" height="160" fill="none" stroke="none" stroke-width="2" stroke-dasharray="0px 0px"/><g><g><g transform="translate(16, 16)"><g transform="translate(0, 0)"><text x="0" y="13.3" fill="#52565f" font-size="14" font-variant="" font-family="Roboto,sans-serif" font-weight="400">-Menu</text></g><g transform="translate(0, 16.8)"><text x="0" y="13.3" fill="#52565f" font-size="14" font-variant="" font-family="Roboto,sans-serif" font-weight="400">-Hero</text></g><g transform="translate(0, 33.6)"><text x="0" y="13.3" fill="#52565f" font-size="14" font-variant="" font-family="Roboto,sans-serif" font-weight="400">-Information about chungungo</text></g><g transform="translate(0, 50.400000000000006)"><text x="0" y="13.3" fill="#52565f" font-size="14" font-variant="" font-family="Roboto,sans-serif" font-weight="400">-Free highlighted activity</text></g><g transform="translate(0, 67.2)"><text x="0" y="13.3" fill="#52565f" font-size="14" font-variant="" font-family="Roboto,sans-serif" font-weight="400">-Cards</text></g><g transform="translate(0, 84)"><text x="0" y="13.3" fill="#52565f" font-size="14" font-variant="" font-family="Roboto,sans-serif" font-weight="400">-CTA </text></g><g transform="translate(0, 100.8)"><text x="0" y="13.3" fill="#52565f" font-size="14" font-variant="" font-family="Roboto,sans-serif" font-weight="400">-Footer</text></g></g></g></g></g><g transform="translate(18, 1980)"><rect width="224" height="160" fill="none" stroke="none" stroke-width="2" stroke-dasharray="0px 0px"/><g><g><g transform="translate(16, 16)"><g transform="translate(0, 0)"><text x="0" y="13.3" fill="#52565f" font-size="14" font-variant="" font-family="Roboto,sans-serif" font-weight="400"/></g></g></g></g></g><g transform="translate(1602, 2148)"><rect width="208" height="128" fill="none" stroke="none" stroke-width="2" stroke-dasharray="0px 0px"/><g><g><g transform="translate(16, 16)"><g transform="translate(0, 0)"><text x="0" y="13.3" fill="#52565f" font-size="14" font-variant="" font-family="Roboto,sans-serif" font-weight="400">-Navigation</text></g><g transform="translate(0, 16.8)"><text x="0" y="13.3" fill="#52565f" font-size="14" font-variant="" font-family="Roboto,sans-serif" font-weight="400">-Estaciones en desarrollo</text></g><g transform="translate(0, 33.6)"><text x="0" y="13.3" fill="#52565f" font-size="14" font-variant="color" font-family="Roboto,sans-serif" font-weight="400">-To do later</text></g><g transform="translate(0, 50.400000000000006)"><text x="0" y="13.3" fill="#52565f" font-size="14" font-variant="color" font-family="Roboto,sans-serif" font-weight="400">-Favoritos</text></g><g transform="translate(0, 67.2)"><text x="0" y="13.3" fill="#52565f" font-size="14" font-variant="" font-family="Roboto,sans-serif" font-weight="400">-Estaciones completadas</text></g></g></g></g></g><g transform="translate(650, 2236)"><rect width="200" height="128" fill="none" stroke="none" stroke-width="2" stroke-dasharray="0px 0px"/><g><g><g transform="translate(16, 16)"><g transform="translate(0, 0)"><text x="0" y="13.3" fill="#52565f" font-size="14" font-variant="" font-family="Roboto,sans-serif" font-weight="400">Screen that allows user to </text></g><g transform="translate(0, 16.8)"><text x="0" y="13.3" fill="#52565f" font-size="14" font-variant="" font-family="Roboto,sans-serif" font-weight="400">Sign up with facebook or </text></g><g transform="translate(0, 33.6)"><text x="0" y="13.3" fill="#52565f" font-size="14" font-variant="" font-family="Roboto,sans-serif" font-weight="400">Google (whichever the </text></g><g transform="translate(0, 50.400000000000006)"><text x="0" y="13.3" fill="#52565f" font-size="14" font-variant="" font-family="Roboto,sans-serif" font-weight="400">user chooses) and give </text></g><g transform="translate(0, 67.2)"><text x="0" y="13.3" fill="#52565f" font-size="14" font-variant="" font-family="Roboto,sans-serif" font-weight="400">permision to user data </text></g></g></g></g></g><g transform="translate(658, 1932)"><rect width="168" height="128" fill="#4D9EF6" stroke="#4D9EF6" stroke-width="2" stroke-dasharray="0px 0px"/><g><g><g transform="translate(16, 16)"><g transform="translate(0, 0)"><text x="8.81787109375" y="13.3" fill="#ffffff" font-size="10px" font-variant="color size bold" font-family="Roboto,sans-serif">If user rejects the required </text></g><g transform="translate(0, 16.8)"><text x="7.74853515625" y="13.3" fill="#ffffff" font-size="10px" font-variant="color size bold" font-family="Roboto,sans-serif">permisions show alert "We </text></g><g transform="translate(0, 33.6)"><text x="26.0322265625" y="13.3" fill="#ffffff" font-size="10px" font-variant="color size bold" font-family="Roboto,sans-serif">didn´t receive your </text></g><g transform="translate(0, 50.400000000000006)"><text x="1.69140625" y="13.3" fill="#ffffff" font-size="10px" font-variant="color size bold" font-family="Roboto,sans-serif">facebook/google details. You </text></g><g transform="translate(0, 67.2)"><text x="10.59033203125" y="13.3" fill="#ffffff" font-size="10px" font-variant="color size bold" font-family="Roboto,sans-serif">can try again or create an </text></g></g></g></g></g><g transform="translate(1330, 2564)"><rect width="184" height="112" fill="none" stroke="none" stroke-width="2" stroke-dasharray="0px 0px"/><g><g><g transform="translate(16, 16)"><g transform="translate(0, 0)"><text x="0" y="13.3" fill="#52565f" font-size="14" font-variant="" font-family="Roboto,sans-serif" font-weight="400">-Menu</text></g><g transform="translate(0, 16.8)"><text x="0" y="13.3" fill="#52565f" font-size="14" font-variant="" font-family="Roboto,sans-serif" font-weight="400">-Hero</text></g><g transform="translate(0, 33.6)"><text x="0" y="13.3" fill="#52565f" font-size="14" font-variant="" font-family="Roboto,sans-serif" font-weight="400">-Cards</text></g><g transform="translate(0, 50.400000000000006)"><text x="0" y="13.3" fill="#52565f" font-size="14" font-variant="" font-family="Roboto,sans-serif" font-weight="400">-CTA </text></g></g></g></g></g><g transform="translate(642, 3292)"><rect width="184" height="80" fill="none" stroke="none" stroke-width="2" stroke-dasharray="0px 0px"/><g><g><g transform="translate(16, 16)"><g transform="translate(0, 0)"><text x="0" y="13.3" fill="#52565f" font-size="14" font-variant="" font-family="Roboto,sans-serif" font-weight="400">Input [Password]</text></g><g transform="translate(0, 16.8)"><text x="0" y="13.3" fill="#52565f" font-size="14" font-variant="" font-family="Roboto,sans-serif" font-weight="400">Input [Repeat password]</text></g><g transform="translate(0, 33.6)"><text x="0" y="13.3" fill="#52565f" font-size="14" font-variant="" font-family="Roboto,sans-serif" font-weight="400">Button [Submit]</text></g></g></g></g></g><g transform="translate(866, 2564)"><rect width="184" height="80" fill="none" stroke="none" stroke-width="2" stroke-dasharray="0px 0px"/><g><g><g transform="translate(16, 16)"><g transform="translate(0, 0)"><text x="0" y="13.3" fill="#52565f" font-size="14" font-variant="" font-family="Roboto,sans-serif" font-weight="400">Text: The email was </text></g><g transform="translate(0, 16.8)"><text x="0" y="13.3" fill="#52565f" font-size="14" font-variant="" font-family="Roboto,sans-serif" font-weight="400">verified and the account </text></g><g transform="translate(0, 33.6)"><text x="0" y="13.3" fill="#52565f" font-size="14" font-variant="" font-family="Roboto,sans-serif" font-weight="400">is created</text></g></g></g></g></g><g transform="translate(202, 20)"><rect width="184" height="80" fill="none" stroke="none" stroke-width="2" stroke-dasharray="0px 0px"/><g><g><g transform="translate(16, 16)"><g transform="translate(0, 0)"><text x="0" y="38" fill="#52565f" font-size="40px" font-variant="size" font-family="Roboto,sans-serif" font-weight="400">V.1</text></g></g></g></g></g><g transform="translate(306, 1476)"><rect width="184" height="80" fill="none" stroke="none" stroke-width="2" stroke-dasharray="0px 0px"/><g><g><g transform="translate(16, 16)"><g transform="translate(0, 0)"><text x="0" y="38" fill="#52565f" font-size="40px" font-variant="size" font-family="Roboto,sans-serif" font-weight="400">V.2</text></g></g></g></g></g><g transform="translate(82, 508)"><rect width="152" height="96" fill="none" stroke="none" stroke-width="2" stroke-dasharray="0px 0px"/><g><g><g transform="translate(16, 16)"><g transform="translate(0, 0)"><text x="0" y="13.3" fill="#52565f" font-size="14" font-variant="" font-family="Roboto,sans-serif" font-weight="400">Menú</text></g><g transform="translate(0, 16.8)"><text x="0" y="13.3" fill="#52565f" font-size="14" font-variant="" font-family="Roboto,sans-serif" font-weight="400">Hero Destacado</text></g><g transform="translate(0, 33.6)"><text x="0" y="13.3" fill="#52565f" font-size="14" font-variant="" font-family="Roboto,sans-serif" font-weight="400">Miniaturas</text></g><g transform="translate(0, 50.400000000000006)"><text x="0" y="13.3" fill="#52565f" font-size="14" font-variant="" font-family="Roboto,sans-serif" font-weight="400">Llamado a registro</text></g></g></g></g></g><g transform="translate(434, 2772)"><rect width="240" height="48" fill="none" stroke="none" stroke-width="2" stroke-dasharray="0px 0px"/><g><g><g transform="translate(16, 16)"><g transform="translate(0, 0)"><text x="0" y="13.3" fill="#52565f" font-size="14" font-variant="" font-family="Roboto,sans-serif" font-weight="400">User clicks Forgot password link</text></g></g></g></g></g><g transform="translate(314, 1660)"><rect width="184" height="64" fill="none" stroke="none" stroke-width="2" stroke-dasharray="0px 0px"/><g><g><g transform="translate(16, 16)"><g transform="translate(0, 0)"><text x="0" y="13.3" fill="#52565f" font-size="14" font-variant="" font-family="Roboto,sans-serif" font-weight="400">Onboarding</text></g><g transform="translate(0, 16.8)"><text x="0" y="13.3" fill="#52565f" font-size="14" font-variant="" font-family="Roboto,sans-serif" font-weight="400">Free activity</text></g></g></g></g></g><g transform="translate(642, 3068)"><rect width="184" height="64" fill="none" stroke="none" stroke-width="2" stroke-dasharray="0px 0px"/><g><g><g transform="translate(16, 16)"><g transform="translate(0, 0)"><text x="0" y="13.3" fill="#52565f" font-size="14" font-variant="" font-family="Roboto,sans-serif" font-weight="400">Input [Email]</text></g><g transform="translate(0, 16.8)"><text x="0" y="13.3" fill="#52565f" font-size="14" font-variant="" font-family="Roboto,sans-serif" font-weight="400">Button [Submit]</text></g></g></g></g></g><g transform="translate(642, 3460)"><rect width="184" height="64" fill="none" stroke="none" stroke-width="2" stroke-dasharray="0px 0px"/><g><g><g transform="translate(16, 16)"><g transform="translate(0, 0)"><text x="0" y="13.3" fill="#52565f" font-size="14" font-variant="" font-family="Roboto,sans-serif" font-weight="400">Text: The password was </text></g><g transform="translate(0, 16.8)"><text x="0" y="13.3" fill="#52565f" font-size="14" font-variant="" font-family="Roboto,sans-serif" font-weight="400">updated successfully. </text></g></g></g></g></g><g transform="translate(2450, 2524)"><rect width="128" height="96" fill="none" stroke="none" stroke-width="2" stroke-dasharray="3px 2px"/><g><g><g transform="translate(16, 16)"><g transform="translate(0, 0)"><text x="0" y="13.3" fill="#52565f" font-size="14" font-variant="" font-family="Roboto,sans-serif" font-weight="400">-Canciones</text></g><g transform="translate(0, 16.8)"><text x="0" y="13.3" fill="#52565f" font-size="14" font-variant="" font-family="Roboto,sans-serif" font-weight="400">-Cuentos</text></g><g transform="translate(0, 33.6)"><text x="0" y="13.3" fill="#52565f" font-size="14" font-variant="" font-family="Roboto,sans-serif" font-weight="400">-Poemas</text></g><g transform="translate(0, 50.400000000000006)"><text x="0" y="13.3" fill="#52565f" font-size="14" font-variant="" font-family="Roboto,sans-serif" font-weight="400">-Jardineria</text></g></g></g></g></g><g transform="translate(2442, 2716)"><rect width="128" height="96" fill="none" stroke="none" stroke-width="2" stroke-dasharray="3px 2px"/><g><g><g transform="translate(16, 16)"><g transform="translate(0, 0)"><text x="0" y="13.3" fill="#52565f" font-size="14" font-variant="" font-family="Roboto,sans-serif" font-weight="400">-Canciones</text></g><g transform="translate(0, 16.8)"><text x="0" y="13.3" fill="#52565f" font-size="14" font-variant="" font-family="Roboto,sans-serif" font-weight="400">-Cuentos</text></g><g transform="translate(0, 33.6)"><text x="0" y="13.3" fill="#52565f" font-size="14" font-variant="" font-family="Roboto,sans-serif" font-weight="400">-Poemas</text></g><g transform="translate(0, 50.400000000000006)"><text x="0" y="13.3" fill="#52565f" font-size="14" font-variant="" font-family="Roboto,sans-serif" font-weight="400">-Jardineria</text></g></g></g></g></g><g transform="translate(2442, 2908)"><rect width="128" height="96" fill="none" stroke="none" stroke-width="2" stroke-dasharray="3px 2px"/><g><g><g transform="translate(16, 16)"><g transform="translate(0, 0)"><text x="0" y="13.3" fill="#52565f" font-size="14" font-variant="" font-family="Roboto,sans-serif" font-weight="400">-Canciones</text></g><g transform="translate(0, 16.8)"><text x="0" y="13.3" fill="#52565f" font-size="14" font-variant="" font-family="Roboto,sans-serif" font-weight="400">-Cuentos</text></g><g transform="translate(0, 33.6)"><text x="0" y="13.3" fill="#52565f" font-size="14" font-variant="" font-family="Roboto,sans-serif" font-weight="400">-Poemas</text></g><g transform="translate(0, 50.400000000000006)"><text x="0" y="13.3" fill="#52565f" font-size="14" font-variant="" font-family="Roboto,sans-serif" font-weight="400">-Jardineria</text></g></g></g></g></g><g transform="translate(2442, 3100)"><rect width="128" height="96" fill="none" stroke="none" stroke-width="2" stroke-dasharray="3px 2px"/><g><g><g transform="translate(16, 16)"><g transform="translate(0, 0)"><text x="0" y="13.3" fill="#52565f" font-size="14" font-variant="" font-family="Roboto,sans-serif" font-weight="400">-Canciones</text></g><g transform="translate(0, 16.8)"><text x="0" y="13.3" fill="#52565f" font-size="14" font-variant="" font-family="Roboto,sans-serif" font-weight="400">-Cuentos</text></g><g transform="translate(0, 33.6)"><text x="0" y="13.3" fill="#52565f" font-size="14" font-variant="" font-family="Roboto,sans-serif" font-weight="400">-Poemas</text></g><g transform="translate(0, 50.400000000000006)"><text x="0" y="13.3" fill="#52565f" font-size="14" font-variant="" font-family="Roboto,sans-serif" font-weight="400">-Jardineria</text></g></g></g></g></g><g transform="translate(506, 2140)"><rect width="144" height="80" fill="none" stroke="none" stroke-width="2" stroke-dasharray="0px 0px"/><g><g><g transform="translate(16, 16)"><g transform="translate(0, 0)"><text x="0" y="13.3" fill="#52565f" font-size="14" font-variant="" font-family="Roboto,sans-serif" font-weight="400">Sing up with </text></g><g transform="translate(0, 16.8)"><text x="0" y="13.3" fill="#52565f" font-size="14" font-variant="" font-family="Roboto,sans-serif" font-weight="400">facebook/google</text></g></g></g></g></g><g transform="translate(658, 3140)"><rect width="168" height="64" fill="#848DEA" stroke="none" stroke-width="2" stroke-dasharray="0px 0px"/><g><g><g transform="translate(16, 16)"><g transform="translate(0, 0)"><text x="34.1142578125" y="13.3" fill="#ffffff" font-size="14" font-variant="color bold" font-family="Roboto,sans-serif">Email with </text></g><g transform="translate(0, 16.8)"><text x="16.64501953125" y="13.3" fill="#ffffff" font-size="14" font-variant="color bold" font-family="Roboto,sans-serif">verification code</text></g></g></g></g></g><g transform="translate(2546, 2524)"><rect width="128" height="80" fill="none" stroke="none" stroke-width="2" stroke-dasharray="3px 2px"/><g><g><g transform="translate(16, 16)"><g transform="translate(0, 0)"><text x="0" y="13.3" fill="#52565f" font-size="14" font-variant="" font-family="Roboto,sans-serif" font-weight="400">-Informacion</text></g><g transform="translate(0, 16.8)"><text x="0" y="13.3" fill="#52565f" font-size="14" font-variant="" font-family="Roboto,sans-serif" font-weight="400">-Manualidades</text></g><g transform="translate(0, 33.6)"><text x="0" y="13.3" fill="#52565f" font-size="14" font-variant="" font-family="Roboto,sans-serif" font-weight="400">-Baile</text></g></g></g></g></g><g transform="translate(2538, 2716)"><rect width="128" height="80" fill="none" stroke="none" stroke-width="2" stroke-dasharray="3px 2px"/><g><g><g transform="translate(16, 16)"><g transform="translate(0, 0)"><text x="0" y="13.3" fill="#52565f" font-size="14" font-variant="" font-family="Roboto,sans-serif" font-weight="400">-Informacion</text></g><g transform="translate(0, 16.8)"><text x="0" y="13.3" fill="#52565f" font-size="14" font-variant="" font-family="Roboto,sans-serif" font-weight="400">-Manualidades</text></g><g transform="translate(0, 33.6)"><text x="0" y="13.3" fill="#52565f" font-size="14" font-variant="" font-family="Roboto,sans-serif" font-weight="400">-Baile</text></g></g></g></g></g><g transform="translate(2538, 2908)"><rect width="128" height="80" fill="none" stroke="none" stroke-width="2" stroke-dasharray="3px 2px"/><g><g><g transform="translate(16, 16)"><g transform="translate(0, 0)"><text x="0" y="13.3" fill="#52565f" font-size="14" font-variant="" font-family="Roboto,sans-serif" font-weight="400">-Informacion</text></g><g transform="translate(0, 16.8)"><text x="0" y="13.3" fill="#52565f" font-size="14" font-variant="" font-family="Roboto,sans-serif" font-weight="400">-Manualidades</text></g><g transform="translate(0, 33.6)"><text x="0" y="13.3" fill="#52565f" font-size="14" font-variant="" font-family="Roboto,sans-serif" font-weight="400">-Baile</text></g></g></g></g></g><g transform="translate(2538, 3100)"><rect width="128" height="80" fill="none" stroke="none" stroke-width="2" stroke-dasharray="3px 2px"/><g><g><g transform="translate(16, 16)"><g transform="translate(0, 0)"><text x="0" y="13.3" fill="#52565f" font-size="14" font-variant="" font-family="Roboto,sans-serif" font-weight="400">-Informacion</text></g><g transform="translate(0, 16.8)"><text x="0" y="13.3" fill="#52565f" font-size="14" font-variant="" font-family="Roboto,sans-serif" font-weight="400">-Manualidades</text></g><g transform="translate(0, 33.6)"><text x="0" y="13.3" fill="#52565f" font-size="14" font-variant="" font-family="Roboto,sans-serif" font-weight="400">-Baile</text></g></g></g></g></g><g transform="translate(202, 148)"><rect width="184" height="48" fill="none" stroke="none" stroke-width="2" stroke-dasharray="0px 0px"/><g><g><g transform="translate(16, 16)"><g transform="translate(0, 0)"><text x="15.1396484375" y="13.3" fill="#58a8f7" font-size="14" font-variant="color" font-family="Roboto,sans-serif" font-weight="400">Usuario Registrado </text></g></g></g></g></g><g transform="translate(490, 2844)"><rect width="184" height="48" fill="none" stroke="none" stroke-width="2" stroke-dasharray="0px 0px"/><g><g><g transform="translate(16, 16)"><g transform="translate(0, 0)"><text x="0" y="13.3" fill="#52565f" font-size="14" font-variant="" font-family="Roboto,sans-serif" font-weight="400">Log in with user/pass</text></g></g></g></g></g><g transform="translate(330, 508)"><rect width="152" height="64" fill="none" stroke="none" stroke-width="2" stroke-dasharray="0px 0px"/><g><g><g transform="translate(16, 16)"><g transform="translate(0, 0)"><text x="0" y="13.3" fill="#52565f" font-size="14" font-variant="" font-family="Roboto,sans-serif" font-weight="400">Correo</text></g><g transform="translate(0, 16.8)"><text x="0" y="13.3" fill="#52565f" font-size="14" font-variant="" font-family="Roboto,sans-serif" font-weight="400">Contraseña</text></g></g></g></g></g><g transform="translate(330, 708)"><rect width="152" height="64" fill="none" stroke="none" stroke-width="2" stroke-dasharray="0px 0px"/><g><g><g transform="translate(16, 16)"><g transform="translate(0, 0)"><text x="0" y="13.3" fill="#52565f" font-size="14" font-variant="" font-family="Roboto,sans-serif" font-weight="400">Correo</text></g><g transform="translate(0, 16.8)"><text x="0" y="13.3" fill="#52565f" font-size="14" font-variant="" font-family="Roboto,sans-serif" font-weight="400">Contraseña</text></g></g></g></g></g><g transform="translate(330, 988)"><rect width="152" height="64" fill="none" stroke="none" stroke-width="2" stroke-dasharray="0px 0px"/><g><g><g transform="translate(16, 16)"><g transform="translate(0, 0)"><text x="0" y="13.3" fill="#52565f" font-size="14" font-variant="" font-family="Roboto,sans-serif" font-weight="400">Agrupa videos de </text></g><g transform="translate(0, 16.8)"><text x="0" y="13.3" fill="#52565f" font-size="14" font-variant="" font-family="Roboto,sans-serif" font-weight="400">contenido similar</text></g></g></g></g></g><g transform="translate(522, 2484)"><rect width="152" height="56" fill="none" stroke="none" stroke-width="2" stroke-dasharray="0px 0px"/><g><g><g transform="translate(16, 16)"><g transform="translate(0, 0)"><text x="0" y="13.3" fill="#52565f" font-size="14" font-variant="" font-family="Roboto,sans-serif" font-weight="400">Sing up with email</text></g></g></g></g></g><g transform="translate(706, 2484)"><rect width="104" height="80" fill="#848DEA" stroke="none" stroke-width="2" stroke-dasharray="0px 0px"/><g><g><g transform="translate(16, 16)"><g transform="translate(0, 0)"><text x="2.1142578125" y="13.3" fill="#ffffff" font-size="14" font-variant="color bold" font-family="Roboto,sans-serif">Email with </text></g><g transform="translate(0, 16.8)"><text x="-0.04248046875" y="13.3" fill="#ffffff" font-size="14" font-variant="color bold" font-family="Roboto,sans-serif">verification </text></g><g transform="translate(0, 33.6)"><text x="20.6875" y="13.3" fill="#ffffff" font-size="14" font-variant="color bold" font-family="Roboto,sans-serif">code</text></g></g></g></g></g><g transform="translate(2498, 2492)"><rect width="112" height="48" fill="none" stroke="none" stroke-width="2" stroke-dasharray="0px 0px"/><g><g><g transform="translate(16, 16)"><g transform="translate(0, 0)"><text x="0" y="13.3" fill="#52565f" font-size="14" font-variant="bold" font-family="Roboto,sans-serif">Actividades</text></g></g></g></g></g><g transform="translate(2506, 2684)"><rect width="112" height="48" fill="none" stroke="none" stroke-width="2" stroke-dasharray="0px 0px"/><g><g><g transform="translate(16, 16)"><g transform="translate(0, 0)"><text x="0" y="13.3" fill="#52565f" font-size="14" font-variant="bold" font-family="Roboto,sans-serif">Actividades</text></g></g></g></g></g><g transform="translate(2506, 2876)"><rect width="112" height="48" fill="none" stroke="none" stroke-width="2" stroke-dasharray="0px 0px"/><g><g><g transform="translate(16, 16)"><g transform="translate(0, 0)"><text x="0" y="13.3" fill="#52565f" font-size="14" font-variant="bold" font-family="Roboto,sans-serif">Actividades</text></g></g></g></g></g><g transform="translate(2506, 3068)"><rect width="112" height="48" fill="none" stroke="none" stroke-width="2" stroke-dasharray="0px 0px"/><g><g><g transform="translate(16, 16)"><g transform="translate(0, 0)"><text x="0" y="13.3" fill="#52565f" font-size="14" font-variant="bold" font-family="Roboto,sans-serif">Actividades</text></g></g></g></g></g></g><g><g><path fill="none" stroke="#4d9ef6" stroke-width="2" stroke-dasharray="0px 0px" d="M 742,2172L 742,2060"/><path transform="translate( 739, 2169 ) rotate( 0 )" d="M3 6C4.65685 6 6 4.65685 6 3C6 1.34315 4.65685 0 3 0C1.34315 0 0 1.34315 0 3C0 4.65685 1.34315 6 3 6Z" fill="#4d9ef6"/><path transform="translate( 735, 2061 ) rotate( 360 )" d="M6.34003 0.275664C6.70452 -0.0918881 7.29548 -0.0918881 7.65997 0.275664L13.7266 6.39331C14.0911 6.76086 14.0911 7.35678 13.7266 7.72434C13.3621 8.09189 12.7712 8.09189 12.4067 7.72434L7 2.2722L1.5933 7.72434C1.22881 8.09189 0.637856 8.09189 0.273367 7.72434C-0.0911224 7.35678 -0.0911224 6.76086 0.273367 6.39331L6.34003 0.275664Z" fill="#4d9ef6"/></g><g><path fill="none" stroke="#4d9ef6" stroke-width="2" stroke-dasharray="0px 0px" d="M 657,1996L 637,1996L 416,1996Q406,1996 406,2006L 406,2144L 406,2169"/><path transform="translate( 655, 1999 ) rotate( 270 )" d="M3 6C4.65685 6 6 4.65685 6 3C6 1.34315 4.65685 0 3 0C1.34315 0 0 1.34315 0 3C0 4.65685 1.34315 6 3 6Z" fill="#4d9ef6"/><path transform="translate( 413, 2171 ) rotate( 540 )" d="M6.34003 0.275664C6.70452 -0.0918881 7.29548 -0.0918881 7.65997 0.275664L13.7266 6.39331C14.0911 6.76086 14.0911 7.35678 13.7266 7.72434C13.3621 8.09189 12.7712 8.09189 12.4067 7.72434L7 2.2722L1.5933 7.72434C1.22881 8.09189 0.637856 8.09189 0.273367 7.72434C-0.0911224 7.35678 -0.0911224 6.76086 0.273367 6.39331L6.34003 0.275664Z" fill="#4d9ef6"/></g></g><g><g transform="translate( 742, 2960 )"><circle r="13" cx="0" cy="0" fill="#4d9ef6"/><g transform="translate( -12, -12 )"><svg width="24" height="24" fill="none" viewBox="0 0 24 24" id="svgSkitkfkzn7n" xmlns="http://www.w3.org/2000/svg">
        <g>
            <path d="M12 21a9 9 0 1 0 0-18 9 9 0 0 0 0 18z" fill="#FD6764"/>
            <path d="M12 10.546L9.455 8 8 9.455 10.546 12 8 14.546 9.455 16 12 13.454 14.546 16 16 14.546 13.454 12 16 9.455 14.546 8 12 10.546z" fill="#fff"/>
        </g>
    <desc>Created with Snap</desc><defs/></svg></g></g><g transform="translate( 873.9131821701867, 2880 )"><circle r="13" cx="0" cy="0" fill="#4d9ef6"/><g transform="translate( -12, -12 )"><svg width="24" height="24" fill="none" viewBox="0 0 24 24" id="svgSkitkfkzn7t" xmlns="http://www.w3.org/2000/svg">
        <g>
            <path d="M12 21a9 9 0 1 0 0-18 9 9 0 0 0 0 18z" fill="#55D45B"/>
            <path fill-rule="evenodd" clip-rule="evenodd" d="M17.707 9.707L11.5 15.914l-4.207-4.207 1.414-1.414 2.793 2.793 4.793-4.793 1.414 1.414z" fill="#fff"/>
        </g>
    <desc>Created with Snap</desc><defs/></svg></g></g><g transform="translate( 966, 2085.319299889004 )"><circle r="13" cx="0" cy="0" fill="#4d9ef6"/><g transform="translate( -12, -12 )"><svg width="24" height="24" fill="none" viewBox="0 0 24 24" id="svgSkitkfkzn7z" xmlns="http://www.w3.org/2000/svg">
        <g>
            <path d="M12 21a9 9 0 1 0 0-18 9 9 0 0 0 0 18z" fill="#FD6764"/>
            <path d="M12 10.546L9.455 8 8 9.455 10.546 12 8 14.546 9.455 16 12 13.454 14.546 16 16 14.546 13.454 12 16 9.455 14.546 8 12 10.546z" fill="#fff"/>
        </g>
    <desc>Created with Snap</desc><defs/></svg></g></g></g></g></g></svg>