<svg width="25" height="25" viewBox="0 0 25 25" fill="none" xmlns="http://www.w3.org/2000/svg">
<path d="M5.5 20.7145C2.743 20.7145 0.5 18.4715 0.5 15.7145C0.5 12.9575 2.743 10.7145 5.5 10.7145C8.257 10.7145 10.5 12.9575 10.5 15.7145C10.5 18.4715 8.257 20.7145 5.5 20.7145ZM5.5 11.7145C3.294 11.7145 1.5 13.5085 1.5 15.7145C1.5 17.9205 3.294 19.7145 5.5 19.7145C7.706 19.7145 9.5 17.9205 9.5 15.7145C9.5 13.5085 7.706 11.7145 5.5 11.7145Z" fill="white"/>
<path d="M19.5 20.7145C16.743 20.7145 14.5 18.4715 14.5 15.7145C14.5 12.9575 16.743 10.7145 19.5 10.7145C22.257 10.7145 24.5 12.9575 24.5 15.7145C24.5 18.4715 22.257 20.7145 19.5 20.7145ZM19.5 11.7145C17.294 11.7145 15.5 13.5085 15.5 15.7145C15.5 17.9205 17.294 19.7145 19.5 19.7145C21.706 19.7145 23.5 17.9205 23.5 15.7145C23.5 13.5085 21.706 11.7145 19.5 11.7145Z" fill="white"/>
<path d="M12.4997 24.7144C12.3317 24.7144 12.1767 24.6314 12.0837 24.4914L9.83366 21.1164C9.72466 20.9524 9.72166 20.7384 9.82766 20.5714C10.3687 19.7164 11.2957 19.2064 12.3057 19.2064C12.3707 19.2064 12.4357 19.2084 12.5007 19.2134C12.5647 19.2094 12.6287 19.2074 12.6927 19.2074C13.7047 19.2074 14.6317 19.7174 15.1737 20.5724C15.2797 20.7394 15.2767 20.9534 15.1677 21.1174L12.9177 24.4924C12.8227 24.6314 12.6677 24.7144 12.4997 24.7144ZM12.4997 23.3134L14.1377 20.8564C13.7737 20.4474 13.2457 20.2074 12.6937 20.2074C12.6427 20.2074 12.5907 20.2094 12.5387 20.2134C12.5317 20.2134 12.5057 20.2144 12.4987 20.2144C12.4857 20.2144 12.4727 20.2144 12.4607 20.2134C12.4087 20.2094 12.3577 20.2074 12.3067 20.2074C11.7537 20.2074 11.2257 20.4474 10.8607 20.8564L12.4997 23.3134Z" fill="white"/>
<path d="M23.264 11.1585C23.057 11.1585 22.869 11.0285 22.796 10.8355C22.393 9.76748 21.827 8.77348 21.112 7.87748C18.388 9.69248 15.034 9.71448 15 9.71448C14.794 9.71448 14.606 9.58448 14.533 9.39248C14.46 9.20048 14.514 8.97848 14.668 8.84148L18.462 5.46948C16.676 4.31348 14.622 3.70448 12.5 3.70448C10.378 3.70448 8.324 4.31348 6.538 5.46848L10.332 8.84048C10.486 8.97748 10.54 9.19948 10.467 9.39148C10.394 9.58448 10.206 9.71448 10 9.71448C9.966 9.71448 6.612 9.69248 3.888 7.87648C3.173 8.77348 2.607 9.76748 2.204 10.8345C2.131 11.0275 1.943 11.1575 1.736 11.1575C1.676 11.1575 1.616 11.1465 1.559 11.1255C1.434 11.0785 1.335 10.9855 1.28 10.8635C1.225 10.7415 1.221 10.6055 1.268 10.4805C1.706 9.32448 2.318 8.24648 3.09 7.27248C1.371 5.79648 0.5 3.75948 0.5 1.21448C0.5 1.01748 0.616 0.838478 0.795 0.758478C0.86 0.729478 0.929 0.714478 1 0.714478C1.122 0.714478 1.24 0.759478 1.332 0.840478L5.765 4.78148C7.766 3.42148 10.09 2.70448 12.5 2.70448C14.91 2.70448 17.234 3.42148 19.235 4.78148L23.668 0.840478C23.759 0.759478 23.877 0.714478 24 0.714478C24.071 0.714478 24.14 0.729478 24.205 0.758478C24.384 0.838478 24.5 1.01748 24.5 1.21448C24.5 3.75948 23.629 5.79648 21.91 7.27248C22.683 8.24648 23.295 9.32448 23.732 10.4815C23.779 10.6065 23.775 10.7425 23.72 10.8645C23.665 10.9865 23.566 11.0795 23.441 11.1265C23.384 11.1475 23.324 11.1585 23.264 11.1585ZM16.477 8.57048C17.256 8.44548 18.291 8.20648 19.31 7.75148C21.723 6.67448 23.105 4.87348 23.427 2.39248L16.477 8.57048ZM1.573 2.39248C1.894 4.87348 3.277 6.67448 5.69 7.75148C6.709 8.20648 7.744 8.44548 8.523 8.57048L1.573 2.39248Z" fill="white"/>
<path d="M1 24.7145C0.724 24.7145 0.5 24.4905 0.5 24.2145V20.2975C0.5 20.0215 0.724 19.7975 1 19.7975C1.276 19.7975 1.5 20.0215 1.5 20.2975V24.2145C1.5 24.4905 1.276 24.7145 1 24.7145Z" fill="white"/>
<path d="M24 24.7145C23.724 24.7145 23.5 24.4905 23.5 24.2145V20.2975C23.5 20.0215 23.724 19.7975 24 19.7975C24.276 19.7975 24.5 20.0215 24.5 20.2975V24.2145C24.5 24.4905 24.276 24.7145 24 24.7145Z" fill="white"/>
<path d="M5.5 17.7145C4.397 17.7145 3.5 16.8175 3.5 15.7145C3.5 14.6115 4.397 13.7145 5.5 13.7145C6.603 13.7145 7.5 14.6115 7.5 15.7145C7.5 16.8175 6.603 17.7145 5.5 17.7145ZM5.5 14.7145C4.949 14.7145 4.5 15.1625 4.5 15.7145C4.5 16.2665 4.949 16.7145 5.5 16.7145C6.051 16.7145 6.5 16.2665 6.5 15.7145C6.5 15.1625 6.051 14.7145 5.5 14.7145Z" fill="white"/>
<path d="M19.5 17.7145C18.397 17.7145 17.5 16.8175 17.5 15.7145C17.5 14.6115 18.397 13.7145 19.5 13.7145C20.603 13.7145 21.5 14.6115 21.5 15.7145C21.5 16.8175 20.603 17.7145 19.5 17.7145ZM19.5 14.7145C18.948 14.7145 18.5 15.1625 18.5 15.7145C18.5 16.2665 18.948 16.7145 19.5 16.7145C20.052 16.7145 20.5 16.2665 20.5 15.7145C20.5 15.1625 20.052 14.7145 19.5 14.7145Z" fill="white"/>
</svg>
