<svg width="25" height="25" viewBox="0 0 25 25" fill="none" xmlns="http://www.w3.org/2000/svg">
<path d="M8 23.2135C7.173 23.2135 6.5 22.5405 6.5 21.7135V19.9525L2.438 16.6705C1.864 16.2065 1.526 15.5185 1.51 14.7815C1.5 14.5585 1.5 14.3445 1.5 14.2135C1.5 7.8725 6.659 2.7135 13 2.7135C19.341 2.7135 24.5 7.8725 24.5 14.2135C24.5 14.3425 24.497 14.5545 24.491 14.7845C24.474 15.5195 24.136 16.2075 23.562 16.6715L19.5 19.9525V21.7135C19.5 22.5405 18.827 23.2135 18 23.2135H8ZM7.5 21.7135C7.5 21.9895 7.724 22.2135 8 22.2135H18C18.276 22.2135 18.5 21.9895 18.5 21.7135V20.2135H7.5V21.7135ZM18.823 19.2135L22.933 15.8925C23.277 15.6145 23.481 15.2015 23.49 14.7595C23.496 14.5385 23.499 14.3365 23.499 14.2135C23.499 8.4235 18.789 3.7135 12.999 3.7135C7.209 3.7135 2.499 8.4235 2.499 14.2135C2.499 14.3355 2.499 14.5345 2.508 14.7505C2.518 15.1995 2.721 15.6145 3.065 15.8925L7.176 19.2135H18.823Z" fill="white"/>
<path d="M14.4998 16.2135C14.4658 16.2135 14.4328 16.2105 14.3998 16.2035C14.1308 16.1495 13.9548 15.8855 14.0088 15.6155L15.5088 8.1155C15.5558 7.8825 15.7618 7.7135 15.9998 7.7135C16.0318 7.7135 16.0648 7.7165 16.0968 7.7235C16.3678 7.7775 16.5438 8.0415 16.4898 8.3125L14.9898 15.8125C14.9438 16.0445 14.7378 16.2135 14.4998 16.2135Z" fill="white"/>
<path d="M17.5001 17.2135C17.4061 17.2135 17.3141 17.1875 17.2351 17.1375C17.1221 17.0665 17.0431 16.9565 17.0131 16.8255C16.9831 16.6955 17.0051 16.5615 17.0761 16.4485L19.5761 12.4485C19.6681 12.3015 19.8261 12.2135 20.0001 12.2135C20.0941 12.2135 20.1851 12.2395 20.2651 12.2895C20.4991 12.4355 20.5701 12.7455 20.4241 12.9785L17.9241 16.9785C17.8321 17.1255 17.6741 17.2135 17.5001 17.2135Z" fill="white"/>
<path d="M11.4998 16.2135C11.2618 16.2135 11.0558 16.0445 11.0098 15.8115L9.50981 8.3115C9.48381 8.1805 9.50981 8.0475 9.58381 7.9365C9.65781 7.8255 9.77081 7.7495 9.90181 7.7235C9.93481 7.7165 9.96781 7.7135 10.0008 7.7135C10.2378 7.7135 10.4438 7.8825 10.4908 8.1155L11.9908 15.6155C12.0448 15.8855 11.8688 16.1495 11.5988 16.2035C11.5668 16.2105 11.5338 16.2135 11.4998 16.2135Z" fill="white"/>
<path d="M8.49987 17.2135C8.32587 17.2135 8.16787 17.1255 8.07587 16.9785L5.57587 12.9785C5.42987 12.7445 5.50087 12.4355 5.73487 12.2895C5.81487 12.2395 5.90587 12.2135 5.99987 12.2135C6.17387 12.2135 6.33187 12.3015 6.42387 12.4485L8.92387 16.4485C8.99487 16.5625 9.01687 16.6965 8.98687 16.8265C8.95687 16.9565 8.87787 17.0675 8.76387 17.1385C8.68587 17.1875 8.59387 17.2135 8.49987 17.2135Z" fill="white"/>
</svg>
