<svg width="24" height="24" viewBox="0 0 24 24" fill="none" xmlns="http://www.w3.org/2000/svg">
<g clip-path="url(#clip0)">
<path d="M8.01799 24C6.69899 24 5.67699 23.613 4.98099 22.85C4.19699 21.992 3.87199 20.703 4.01499 19.019C3.34399 18.979 2.32499 18.779 1.45999 18.01C0.479995 17.139 -0.0180054 15.79 -0.0180054 14C-0.0180054 9.057 2.85999 9 2.98199 9C3.13699 9 3.27999 9.07 3.37499 9.191C3.46999 9.312 3.50399 9.468 3.46799 9.618C3.16899 10.849 3.16899 12.151 3.46799 13.382C3.65099 14.502 4.15399 15.491 4.93099 16.276C5.65999 15.201 6.72799 14.502 7.76399 13.825C9.59199 12.629 11.482 11.393 11.983 7.964V5C11.983 2.821 14.521 0.255 14.629 0.147C14.722 0.053 14.851 0 14.982 0C15.002 0 15.022 0.001 15.042 0.004C15.194 0.022 15.328 0.107 15.409 0.239L16.82 2.536C17.464 2.629 18.097 2.797 18.703 3.036C19.674 3.4 20.469 4.149 20.894 5.099L22.993 5.799C23.607 6.003 24.019 6.575 24.019 7.222V8.2C24.022 8.897 23.549 9.497 22.869 9.658C18.87 10.618 18.024 11.466 18.019 12.01C18.006 13.3 17.997 14.59 17.992 15.707C17.992 15.796 18.027 15.88 18.091 15.945C18.154 16.009 18.239 16.044 18.33 16.044C18.455 16.044 18.568 15.976 18.627 15.867L20.044 13.265C20.131 13.104 20.3 13.004 20.483 13.004H21.983C22.259 13.004 22.483 13.228 22.483 13.504C22.483 13.78 22.259 14.004 21.983 14.004H20.78L19.506 16.343C19.273 16.774 18.822 17.043 18.33 17.043C17.97 17.043 17.634 16.903 17.382 16.65C17.13 16.397 16.991 16.061 16.991 15.703C16.996 14.583 17.005 13.291 17.018 11.999C17.038 10.028 20.819 9.121 22.636 8.685C22.862 8.631 23.019 8.433 23.018 8.202V7.221C23.018 7.005 22.881 6.815 22.676 6.746L20.36 5.974C20.216 5.926 20.103 5.817 20.05 5.676C19.754 4.886 19.132 4.264 18.343 3.968C17.734 3.728 17.103 3.57 16.462 3.497C16.308 3.479 16.173 3.393 16.093 3.262L14.904 1.327C14.257 2.072 12.982 3.709 12.982 5V8C12.982 8.024 12.98 8.048 12.977 8.072C12.42 11.973 10.237 13.402 8.31099 14.662C6.58999 15.788 5.23099 16.677 5.01599 19.046C4.88599 20.47 5.12299 21.523 5.71899 22.177C6.21899 22.722 6.99199 23 8.01799 23H11.518C11.794 23 12.018 23.224 12.018 23.5C12.018 23.776 11.794 24 11.518 24H8.01799ZM2.33399 10.227C1.75299 10.589 0.981995 11.534 0.981995 14C0.981995 15.489 1.36499 16.586 2.11999 17.26C2.82399 17.887 3.71799 18.007 4.17299 18.024C4.24199 17.73 4.33099 17.451 4.43799 17.19C3.40199 16.238 2.71199 14.963 2.48799 13.581C2.22699 12.507 2.17299 11.352 2.33399 10.227Z" fill="white"/>
<path d="M14.518 24C14.242 24 14.018 23.776 14.018 23.5V17C14.018 16.724 14.242 16.5 14.518 16.5C14.794 16.5 15.018 16.724 15.018 17V23.5C15.018 23.775 14.794 24 14.518 24Z" fill="white"/>
<path d="M10.018 22C9.92197 22 9.82797 21.972 9.74697 21.92C9.51497 21.77 9.44897 21.46 9.59797 21.229C10.294 20.153 10.117 18.739 9.17797 17.867C8.97597 17.68 8.96397 17.363 9.15197 17.161C9.24697 17.058 9.37997 17 9.51797 17C9.64397 17 9.76497 17.047 9.85797 17.133C11.154 18.336 11.397 20.287 10.438 21.771C10.346 21.914 10.188 22 10.018 22Z" fill="white"/>
<path d="M17.732 6.5C18.1462 6.5 18.482 6.16421 18.482 5.75C18.482 5.33579 18.1462 5 17.732 5C17.3178 5 16.982 5.33579 16.982 5.75C16.982 6.16421 17.3178 6.5 17.732 6.5Z" fill="white"/>
</g>
<defs>
<clipPath id="clip0">
<rect width="24" height="24" fill="white"/>
</clipPath>
</defs>
</svg>
