<svg width="25" height="25" viewBox="0 0 25 25" fill="none" xmlns="http://www.w3.org/2000/svg">
<path d="M8.49805 4.89343C8.91226 4.89343 9.24805 4.55765 9.24805 4.14343C9.24805 3.72922 8.91226 3.39343 8.49805 3.39343C8.08383 3.39343 7.74805 3.72922 7.74805 4.14343C7.74805 4.55765 8.08383 4.89343 8.49805 4.89343Z" fill="white"/>
<path d="M15.9985 24.6435C15.9445 24.6435 15.8915 24.6345 15.8405 24.6175C15.7145 24.5755 15.6115 24.4865 15.5515 24.3675C15.4915 24.2485 15.4815 24.1125 15.5245 23.9855L16.0225 22.4905C15.3925 22.6445 14.7515 22.7225 14.1095 22.7225C13.1005 22.7225 12.1175 22.5395 11.1805 22.1775L10.4725 24.3015C10.4045 24.5055 10.2135 24.6435 9.99852 24.6435C9.94552 24.6435 9.89252 24.6345 9.84152 24.6185C9.57852 24.5305 9.43652 24.2475 9.52352 23.9855L10.2655 21.7575C9.20852 21.1905 8.31052 20.4115 7.59452 19.4405C5.40052 16.5135 3.52752 6.39948 3.03852 3.57548C2.42852 3.95948 1.85752 4.39348 1.33652 4.86948C1.24352 4.95448 1.12452 5.00048 0.999521 5.00048C0.859521 5.00048 0.724521 4.94148 0.630521 4.83748C0.540521 4.73848 0.494521 4.61148 0.500521 4.47748C0.506521 4.34448 0.564521 4.22148 0.662521 4.13048C1.41352 3.44448 2.25052 2.84448 3.15152 2.34648C3.15452 2.34448 3.17052 2.33648 3.17352 2.33448C5.01652 1.31948 7.10252 0.758478 9.20352 0.714478C15.2685 0.714478 24.0795 19.1095 24.4515 19.8925C24.5085 20.0135 24.5155 20.1485 24.4705 20.2745C24.4255 20.4005 24.3345 20.5015 24.2145 20.5585C24.1475 20.5905 24.0735 20.6065 24.0005 20.6065C23.8085 20.6065 23.6305 20.4945 23.5485 20.3205C23.5435 20.3095 23.0175 19.2065 22.1285 17.5155C21.4495 18.5325 20.6865 19.4725 19.8565 20.3145C19.5595 20.6165 19.2345 20.8975 18.8925 21.1495C18.3755 21.5305 17.8095 21.8505 17.2075 22.1005L16.4745 24.2995C16.4055 24.5065 16.2145 24.6435 15.9985 24.6435ZM11.2125 21.1065C12.1165 21.5085 13.1175 21.7215 14.1085 21.7215C14.9235 21.7215 15.7235 21.5835 16.4865 21.3105C16.5755 21.2295 16.6925 21.1845 16.8165 21.1845C17.3405 20.9665 17.8395 20.6855 18.2985 20.3465C18.5975 20.1265 18.8815 19.8805 19.1425 19.6145C20.0625 18.6825 20.8865 17.6395 21.5925 16.5115C21.3215 16.0085 21.0445 15.5035 20.7655 15.0035C20.0625 15.7415 18.6145 16.9465 16.6535 16.9465C15.6885 16.9465 14.7085 16.6525 13.7425 16.0725C11.3165 14.6165 11.0125 9.39148 11.0005 9.17048C10.9935 9.03748 11.0385 8.90848 11.1285 8.80948C11.2175 8.71048 11.3405 8.65148 11.4735 8.64448H11.4745C11.7655 8.64448 11.9845 8.85248 11.9985 9.11748C12.0725 10.4815 12.6215 14.2345 14.2565 15.2155C15.0715 15.7045 15.8865 15.9525 16.6795 15.9525C18.5005 15.9525 19.7765 14.6615 20.2495 14.0925C15.6885 6.11148 11.7725 1.71848 9.21552 1.71548C7.39952 1.75448 5.58752 2.21448 3.96352 3.04748C4.29952 5.00948 6.25452 15.9845 8.39852 18.8435C9.06752 19.7515 9.95352 20.4925 10.9625 20.9895C10.9865 20.9925 11.0135 20.9965 11.0425 21.0065C11.1055 21.0275 11.1615 21.0605 11.2125 21.1065Z" fill="white"/>
</svg>
