<svg width="24" height="24" viewBox="0 0 24 24" fill="none" xmlns="http://www.w3.org/2000/svg">
<g clip-path="url(#clip0)">
<path d="M10.5 8.542H6.50001C4.21701 8.542 2.22401 7.674 2.06201 6.157C2.05157 6.0516 2.00793 5.95223 1.93738 5.87323C1.86683 5.79423 1.77302 5.73967 1.66946 5.71742C1.5659 5.69518 1.45796 5.70639 1.36119 5.74945C1.26441 5.79251 1.18382 5.86518 1.13101 5.957C0.696265 6.74789 0.478562 7.63975 0.50001 8.542C0.503281 9.20501 0.637311 9.86087 0.894426 10.472C1.15154 11.0831 1.52669 11.6376 1.99838 12.1035C2.47008 12.5694 3.02906 12.9377 3.64331 13.1873C4.25756 13.4369 4.91501 13.5629 5.57801 13.558L6.50001 13.542" stroke="white" stroke-linecap="round" stroke-linejoin="round"/>
<path d="M15.5 8.542H17.5C19.783 8.542 21.776 7.674 21.938 6.157C21.9484 6.0516 21.9921 5.95223 22.0626 5.87323C22.1332 5.79423 22.227 5.73967 22.3306 5.71742C22.4341 5.69518 22.5421 5.70639 22.6388 5.74945C22.7356 5.79251 22.8162 5.86518 22.869 5.957C23.3029 6.74642 23.5206 7.63644 23.5 8.537C23.5 9.86308 22.9732 11.1349 22.0355 12.0725C21.0979 13.0102 19.8261 13.537 18.5 13.537H11.5" stroke="white" stroke-linecap="round" stroke-linejoin="round"/>
<path d="M3.78899 16.7C4.12423 16.2889 4.60903 16.0278 5.13676 15.9742C5.66449 15.9206 6.19191 16.0788 6.60299 16.414C7.01408 16.7492 7.27516 17.234 7.32879 17.7618C7.38243 18.2895 7.22423 18.8169 6.88899 19.228L4.99999 21.542L1.89999 19.014L3.78899 16.7Z" stroke="white" stroke-linecap="round" stroke-linejoin="round"/>
<path d="M17.99 2.458L6.60199 16.417" stroke="white" stroke-linecap="round" stroke-linejoin="round"/>
</g>
<defs>
<clipPath id="clip0">
<rect width="24" height="24" fill="white"/>
</clipPath>
</defs>
</svg>
