<svg width="25" height="24" viewBox="0 0 25 24" fill="none" xmlns="http://www.w3.org/2000/svg">
<path d="M1.58406 23.7145C1.37176 23.7145 1.16812 23.6531 0.992641 23.5371C0.492208 23.2096 0.349227 22.5306 0.674184 22.0235L11.8549 4.63196L9.8802 1.56106C9.80221 1.4384 9.77513 1.29274 9.80438 1.14927C9.83471 1.0058 9.91811 0.883136 10.0394 0.804283C10.1272 0.746238 10.2301 0.715573 10.3351 0.715573C10.5193 0.715573 10.6893 0.808664 10.789 0.965275L12.5004 3.62767L14.213 0.96418C14.3137 0.807568 14.4838 0.714478 14.6679 0.714478C14.773 0.714478 14.8748 0.745143 14.9625 0.803188C15.0838 0.883136 15.1672 1.0058 15.1965 1.14817C15.2268 1.29164 15.1997 1.4373 15.1207 1.55996L13.146 4.63086L24.3256 22.0213C24.4393 22.1987 24.4989 22.4035 24.5 22.6149C24.5 22.9084 24.3873 23.1833 24.1837 23.3903C23.9801 23.5973 23.7082 23.7112 23.4179 23.7123H1.58406V23.7145ZM1.5819 22.6193H7.86547L11.5786 16.5191C11.6675 16.3734 11.7899 16.2497 11.935 16.1599C12.1051 16.0547 12.3011 15.9989 12.5004 15.9989C12.8806 15.9989 13.2262 16.1938 13.4244 16.5202L17.1365 22.6204H23.419L12.5004 5.63734L1.5819 22.6193ZM15.8648 22.6193L12.5015 17.093V16.8192V17.093L9.13822 22.6193H15.8648Z" fill="white"/>
</svg>
