<svg width="13" height="22" viewBox="0 0 13 22" fill="none" xmlns="http://www.w3.org/2000/svg">
<path d="M4.007 21.7145C2.073 21.7145 0.5 20.1445 0.5 18.2145C0.5 16.2845 2.07 14.7145 4 14.7145H6.5V1.75348C6.485 1.57448 6.485 1.37348 6.502 1.17448C6.523 0.916478 6.742 0.714478 7 0.714478C7.29 0.725478 7.5 0.945478 7.5 1.21448V1.73148C7.572 2.57048 8.034 3.32948 8.767 3.79148C13.64 7.03948 11.992 11.2685 10.789 14.3555C10.718 14.5375 10.648 14.7175 10.581 14.8935C10.506 15.0855 10.318 15.2155 10.112 15.2155C10.051 15.2155 9.991 15.2045 9.934 15.1825C9.809 15.1345 9.71 15.0415 9.656 14.9195C9.602 14.7975 9.598 14.6615 9.646 14.5375C9.707 14.3795 9.856 13.9945 9.856 13.9945C11.056 10.9165 12.416 7.42848 8.222 4.63248C7.958 4.46648 7.715 4.26448 7.499 4.03548V18.2155C7.499 18.2235 7.499 18.2385 7.498 18.2465C7.439 20.1255 5.909 21.6555 4.015 21.7155C4.013 21.7145 4.009 21.7145 4.007 21.7145ZM3.999 15.7155C2.62 15.7155 1.499 16.8375 1.499 18.2155C1.499 19.5935 2.62 20.7155 3.999 20.7155C5.352 20.6725 6.454 19.5685 6.499 18.2035V15.7155H3.999Z" fill="#469E85"/>
</svg>
