<svg width="25" height="25" viewBox="0 0 25 25" fill="none" xmlns="http://www.w3.org/2000/svg">
<path d="M1.00024 24.7145C0.866277 24.7145 0.740311 24.6625 0.646336 24.5675C0.497376 24.4185 0.457386 24.1905 0.548362 23.9995L3.58355 17.6245C2.56483 15.8945 2.02897 13.9235 2.03197 11.9145C2.03697 8.91848 3.20765 6.10348 5.32909 3.98848C7.44653 1.87648 10.2588 0.714478 13.247 0.714478C15.3614 0.714478 17.4069 1.29748 19.1844 2.39948C21.7327 3.97948 23.5132 6.45848 24.1991 9.37848C24.8839 12.2985 24.391 15.3105 22.8114 17.8605C21.2319 20.4095 18.7545 22.1905 15.8343 22.8765C14.9835 23.0765 14.1137 23.1775 13.249 23.1775C11.2685 23.1775 9.31403 22.6425 7.59049 21.6305L1.21618 24.6675C1.1462 24.6985 1.07422 24.7145 1.00024 24.7145ZM13.239 1.71448C10.5197 1.71648 7.96239 2.77548 6.0369 4.69548C4.10441 6.62248 3.0377 9.18648 3.0337 11.9155C3.0307 13.8325 3.56456 15.7045 4.57729 17.3315C4.66726 17.4765 4.67826 17.6555 4.60428 17.8105L2.05896 23.1575L7.40454 20.6115C7.47152 20.5795 7.5455 20.5625 7.61948 20.5625C7.71245 20.5625 7.80443 20.5885 7.88341 20.6375C9.50698 21.6435 11.3625 22.1765 13.251 22.1765C14.0388 22.1765 14.8306 22.0845 15.6064 21.9025C18.2656 21.2785 20.522 19.6555 21.9617 17.3335C23.4003 15.0105 23.8492 12.2675 23.2253 9.60748C22.6015 6.94748 20.9789 4.68948 18.6575 3.25048C17.041 2.24748 15.1825 1.71648 13.282 1.71448C13.275 1.71548 13.268 1.71548 13.261 1.71548C13.256 1.71548 13.246 1.71448 13.239 1.71448Z" fill="#D04E02"/>
<path d="M9.24805 11.2145C9.66226 11.2145 9.99805 10.8787 9.99805 10.4645C9.99805 10.0503 9.66226 9.71448 9.24805 9.71448C8.83383 9.71448 8.49805 10.0503 8.49805 10.4645C8.49805 10.8787 8.83383 11.2145 9.24805 11.2145Z" fill="#D04E02"/>
<path d="M17.2461 11.2145C17.6603 11.2145 17.9961 10.8787 17.9961 10.4645C17.9961 10.0503 17.6603 9.71448 17.2461 9.71448C16.8319 9.71448 16.4961 10.0503 16.4961 10.4645C16.4961 10.8787 16.8319 11.2145 17.2461 11.2145Z" fill="#D04E02"/>
<path d="M13.2472 16.7145C11.5937 16.7145 10.248 15.3685 10.248 13.7145C10.248 13.4385 10.472 13.2145 10.7479 13.2145H15.7466C16.0225 13.2145 16.2464 13.4385 16.2464 13.7145C16.2464 15.3685 14.9008 16.7145 13.2472 16.7145ZM11.3108 14.2145C11.5337 15.0865 12.3225 15.7145 13.2472 15.7145C14.172 15.7145 14.9608 15.0865 15.1837 14.2145H11.3108Z" fill="#D04E02"/>
</svg>
