<svg width="130" height="171" viewBox="0 0 130 171" fill="none" xmlns="http://www.w3.org/2000/svg">
<path d="M82.467 100.301C82.3423 100.454 82.3973 100.582 82.5733 100.727C82.7016 100.551 82.6613 100.408 82.5696 100.272C82.5623 100.263 82.4853 100.278 82.467 100.301Z" fill="#D6B600"/>
<path d="M83.9404 105.414C84.0669 105.449 84.1879 105.509 84.4005 105.39C84.1824 105.344 84.0504 105.243 83.9404 105.414Z" fill="#D6B600"/>
<path d="M84.1892 93.8468C84.2002 93.7331 84.0939 93.6927 84.0206 93.6395C83.9693 93.6029 83.8996 93.6359 83.8905 93.7001C83.8721 93.8175 83.9473 93.8817 84.0463 93.9183C84.1104 93.9422 84.1581 93.9202 84.1892 93.8468Z" fill="#D6B600"/>
<path d="M83.6267 94.7803C83.5607 94.8353 83.4636 94.8903 83.4489 95.0114C83.4416 95.0738 83.4966 95.1159 83.5607 95.1086C83.6799 95.0958 83.7844 95.0536 83.777 94.905C83.7734 94.839 83.7202 94.8115 83.6267 94.7803Z" fill="#D6B600"/>
<path d="M78.9578 102.092C79.1429 101.969 79.1338 101.8 79.1833 101.661C79.0183 101.745 78.9248 101.862 78.9578 102.092Z" fill="#D6B600"/>
<path d="M80.2318 104.812C80.1383 104.825 80.1035 104.891 80.109 104.972C80.1181 105.091 80.2043 105.128 80.3106 105.107C80.3674 105.096 80.4206 105.063 80.4077 104.994C80.3894 104.9 80.3527 104.812 80.2318 104.812Z" fill="#D6B600"/>
<path d="M105.624 86.4876C105.605 86.4638 105.53 86.4528 105.51 86.4711C105.415 86.5555 105.475 86.6637 105.486 86.7609C105.492 86.7994 105.519 86.8361 105.556 86.915C105.602 86.8746 105.629 86.86 105.627 86.8508C105.603 86.7279 105.713 86.6032 105.624 86.4876Z" fill="#D6B600"/>
<path d="M95.2265 83.6316C95.177 83.6298 95.0909 83.6757 95.0854 83.7105C95.0689 83.8041 95.1404 83.8646 95.2284 83.8811C95.2944 83.8939 95.342 83.8499 95.3677 83.7857C95.3878 83.6738 95.3108 83.6335 95.2265 83.6316Z" fill="#D6B600"/>
<path d="M117.175 38.6102C117.188 38.5659 117.17 38.5234 117.129 38.5326C117.081 38.5437 117.04 38.5862 116.996 38.6139C117.016 38.6416 117.037 38.6712 117.059 38.6989C117.125 38.7045 117.159 38.6694 117.175 38.6102Z" fill="#D6B600"/>
<path d="M72.0972 101.426C71.9854 101.428 71.9524 101.494 71.945 101.593C71.9377 101.712 71.9487 101.813 72.0953 101.831C72.22 101.82 72.3043 101.767 72.2988 101.628C72.2933 101.501 72.2347 101.424 72.0972 101.426Z" fill="#D6B600"/>
<path d="M84.2225 94.4411C84.1308 94.4631 84.074 94.5658 84.052 94.6649C84.0025 94.9033 84.1638 95.0152 84.3416 95.1271C84.4296 94.9565 84.5928 94.8153 84.4443 94.6007C84.3856 94.5181 84.3233 94.4191 84.2225 94.4411Z" fill="#D6B600"/>
<path d="M84.6788 101.584C84.6073 101.556 84.5523 101.573 84.5908 101.661C84.6238 101.74 84.7081 101.765 84.7888 101.771C84.8108 101.773 84.8364 101.729 84.8584 101.705C84.8419 101.598 84.7466 101.609 84.6788 101.584Z" fill="#D6B600"/>
<path d="M65.9077 52.1446C66.0269 52.1427 66.0361 52.073 66.0306 52.018C66.0177 51.919 65.9334 51.9061 65.8527 51.9153C65.7959 51.9226 65.7299 51.9501 65.7574 52.0253C65.7867 52.1005 65.8582 52.1391 65.9077 52.1446Z" fill="#D6B600"/>
<path d="M14.5382 150.04C14.3934 150.089 14.4465 150.21 14.474 150.315C14.5308 150.524 14.6683 150.59 14.8755 150.544C14.8865 150.408 14.7141 150.361 14.7288 150.218C14.7416 150.098 14.6848 149.99 14.5382 150.04Z" fill="#D6B600"/>
<path d="M48.2316 66.4133C48.261 66.384 48.316 66.351 48.3105 66.3326C48.2793 66.1951 48.1382 66.2666 48.0593 66.2097C48.0098 66.1731 47.9695 66.2079 47.9915 66.2666C48.0318 66.3785 48.118 66.4262 48.2316 66.4133Z" fill="#D6B600"/>
<path d="M24.9817 109.605C25.0624 109.495 25.1522 109.422 25.1338 109.179C25.0312 109.343 24.8974 109.411 24.9817 109.605Z" fill="#D6B600"/>
<path d="M71.6818 104.17C71.5865 104.231 71.6305 104.317 71.6287 104.396C71.625 104.544 71.6965 104.693 71.8285 104.658C72.0265 104.603 71.9421 104.431 71.8725 104.302C71.8322 104.227 71.7827 104.152 71.6818 104.17Z" fill="#D6B600"/>
<path d="M109.684 44.7305C109.795 44.7012 109.841 44.6242 109.817 44.5123C109.814 44.4939 109.764 44.4866 109.746 44.4774C109.674 44.5453 109.579 44.5985 109.546 44.6792C109.524 44.7287 109.627 44.7452 109.684 44.7305Z" fill="#D6B600"/>
<path d="M58.9709 62.5025C59.0355 62.4858 59.0669 62.4341 59.0595 62.3658C59.0336 62.2974 58.9801 62.2623 58.9136 62.2752C58.8453 62.2882 58.8139 62.3454 58.8305 62.4119C58.8472 62.4803 58.897 62.5209 58.9709 62.5025Z" fill="#D6B600"/>
<path d="M19.9754 100.369C19.8929 100.41 19.8508 100.485 19.8526 100.575C19.8526 100.637 19.8764 100.696 19.9589 100.7C20.0671 100.652 20.1129 100.56 20.1074 100.446C20.1037 100.375 20.0506 100.335 19.9754 100.369Z" fill="#D6B600"/>
<path d="M67.5326 82.72C67.4574 82.698 67.3456 82.6669 67.3034 82.7622C67.2613 82.8595 67.3694 82.8961 67.4318 82.9383C67.5839 83.0447 67.7397 83.0557 67.8992 82.9402C67.8241 82.7861 67.6701 82.7622 67.5326 82.72Z" fill="#D6B600"/>
<path d="M63.4313 108.398C63.3213 108.381 63.2829 108.455 63.2719 108.543C63.2682 108.578 63.292 108.636 63.3195 108.647C63.4185 108.688 63.4827 108.62 63.5157 108.539C63.5431 108.475 63.4918 108.425 63.4313 108.398Z" fill="#D6B600"/>
<path d="M32.593 94.0762C32.5266 94.0448 32.4712 94.0854 32.4509 94.1482C32.4287 94.2129 32.4564 94.2646 32.5229 94.2905C32.5967 94.2868 32.6429 94.2424 32.6484 94.1759C32.6521 94.1445 32.6226 94.0909 32.593 94.0762Z" fill="#D6B600"/>
<path d="M27.8761 108.293C27.8467 108.293 27.8211 108.394 27.8027 108.429C27.8192 108.55 27.8651 108.625 27.9695 108.611C28.041 108.6 28.0667 108.53 28.0447 108.462C28.019 108.378 27.9732 108.292 27.8761 108.293Z" fill="#D6B600"/>
<path d="M43.3995 92.183C43.3097 92.1995 43.207 92.2619 43.2272 92.3334C43.2583 92.4416 43.2858 92.6031 43.4526 92.5957C43.5608 92.5902 43.5553 92.4783 43.5663 92.3994C43.5846 92.2747 43.5278 92.1995 43.3995 92.183Z" fill="#D6B600"/>
<path d="M92.922 86.6198C92.8303 86.6088 92.768 86.6785 92.7552 86.7702C92.746 86.8399 92.7864 86.895 92.8597 86.895C92.9385 86.895 93.0357 86.9243 93.0687 86.8051C93.0577 86.7134 93.0137 86.6326 92.922 86.6198Z" fill="#D6B600"/>
<path d="M120.524 7.0197C120.456 7.03254 120.456 7.11325 120.456 7.17745C120.471 7.2655 120.504 7.34987 120.606 7.3297C120.639 7.32236 120.678 7.22698 120.674 7.17562C120.669 7.09491 120.63 6.99953 120.524 7.0197Z" fill="#D6B600"/>
<path d="M116.675 6.02556C116.661 6.07509 116.697 6.17781 116.736 6.19432C117.06 6.33189 116.882 5.89533 117.117 5.91734C116.901 5.79444 116.741 5.79811 116.675 6.02556Z" fill="#D6B600"/>
<path d="M128.243 9.54002C128.617 9.69409 128.617 9.69409 128.92 9.6409C128.714 9.496 128.52 9.507 128.243 9.54002Z" fill="#D6B600"/>
<path d="M90.1669 24.282C89.9708 24.2582 89.9763 24.4288 89.9341 24.5315C89.8681 24.6874 89.8883 24.8562 90.0917 24.8653C90.2916 24.8727 90.2146 24.6801 90.2274 24.57C90.2384 24.4728 90.2787 24.3554 90.1669 24.282Z" fill="#D6B600"/>
<path d="M102.076 5.3707C102.124 5.41289 102.16 5.45508 102.203 5.48626C102.278 5.54129 102.406 5.64584 102.393 5.45691C102.386 5.32668 102.221 5.30834 102.076 5.3707Z" fill="#D6B600"/>
<path d="M92.5443 66.7968C92.6066 66.7949 92.6487 66.7583 92.6726 66.6996C92.6597 66.606 92.5882 66.5877 92.5131 66.5748C92.4398 66.5638 92.3994 66.6115 92.3976 66.6702C92.3939 66.7619 92.4581 66.8004 92.5443 66.7968Z" fill="#D6B600"/>
<path d="M117.832 87.1406C117.526 87.0232 117.108 87.0838 116.749 87.0599C116.175 87.0214 115.57 87.0599 115.029 86.7921C114.775 86.6655 114.512 86.649 114.237 86.6068C113.601 86.5078 112.938 86.4693 112.348 86.1868C111.963 86.0015 111.585 85.9006 111.16 85.9318C110.885 85.952 110.61 85.9263 110.368 85.7521C110.042 85.5173 109.636 85.4494 109.266 85.332C108.74 85.1669 108.265 84.8313 107.69 84.8294C107.635 84.8294 107.558 84.8093 107.527 84.7707C107.083 84.2241 106.386 84.3342 105.827 84.0976C105.263 83.8591 104.722 83.5583 104.174 83.2831C104.086 83.2391 104.007 83.1401 103.919 83.1327C103.244 83.074 102.685 82.742 102.157 82.366C101.461 81.8689 100.581 81.7735 99.8826 81.282C99.3841 80.9316 98.8048 80.7023 98.3667 80.2566C98.2457 80.1337 98.1009 80.0163 97.9011 80.0126C97.8241 80.0108 97.7251 80.0035 97.6738 79.9558C97.0451 79.3596 96.2385 78.9928 95.6098 78.4205C95.069 77.9289 94.4384 77.5877 93.8665 77.1585C93.6337 76.9843 93.8867 76.843 93.7529 76.7238C93.5769 76.566 93.4119 76.9696 93.2872 76.744C93.1076 76.4175 92.8235 76.2157 92.5577 75.9827C92.5064 75.9369 92.499 75.8323 92.3982 75.8543C92.1599 75.9075 92.0976 75.7535 92.0261 75.5737C91.8758 75.1995 91.6943 74.8492 91.2415 74.7556C91.0967 74.7263 90.9977 74.6162 90.9428 74.4823C90.8456 74.2457 90.622 74.1173 90.4387 73.9962C90.2242 73.8532 90.039 73.7486 89.9199 73.4881C89.8099 73.2515 89.458 73.213 89.2985 72.9727C89.26 72.914 89.1243 72.9048 89.106 72.848C88.9044 72.25 88.2995 71.9785 88.0007 71.4925C87.733 71.0559 87.3408 70.7147 87.1245 70.2488C86.965 69.9021 86.7267 69.6417 86.3234 69.5518C86.1328 69.5096 86.0485 69.3775 86.0136 69.1262C85.955 68.7117 85.6892 68.3137 85.3995 68.033C84.8661 67.5194 84.5728 66.8664 84.1842 66.2685C84.0412 66.0483 83.9056 65.8466 83.6123 65.7695C83.8763 66.1217 83.8066 66.6096 84.1256 66.927C84.1897 66.9912 84.263 67.1287 84.2356 67.1911C84.0852 67.5451 84.2649 67.723 84.5453 67.8753C84.6315 67.9211 84.714 67.9982 84.7158 68.1064C84.7195 68.5154 84.9449 68.8144 85.1997 69.1006C85.2382 69.1446 85.2822 69.1978 85.2914 69.2528C85.4197 70.014 85.8395 70.6835 85.9696 71.4429C86.0136 71.6961 86.0888 71.929 86.2739 72.1381C86.5086 72.4004 86.5342 72.7544 86.5141 73.0938C86.4957 73.3689 86.5415 73.611 86.7377 73.8073C87.0713 74.1411 86.9247 74.6584 87.2088 75.0088C86.9118 75.2876 87.2179 75.5572 87.2381 75.8268C87.2601 76.1167 87.3518 76.4101 87.5461 76.6523C87.5791 76.6926 87.5974 76.7733 87.5791 76.8192C87.4251 77.2007 87.5442 77.496 87.8522 77.7381C87.8834 77.762 87.9328 77.8115 87.9274 77.8244C87.7422 78.1692 88.085 78.4994 87.9658 78.8185C87.8907 79.0166 88.1528 79.3431 87.7514 79.4165C87.7642 79.4715 87.7679 79.5687 87.7935 79.5761C88.0117 79.6384 88.0502 79.8714 88.2005 79.9888C88.4021 80.1484 88.4461 80.3116 88.3453 80.5574C88.2885 80.695 88.2793 80.8876 88.3306 81.0252C88.5396 81.5974 88.5286 82.1881 88.5414 82.7806C88.5488 83.0575 88.5836 83.3327 88.6514 83.606C88.8054 84.2223 88.8237 84.8478 88.7816 85.4843C88.7394 86.1299 88.7761 86.7811 88.7871 87.4304C88.7926 87.7679 88.8329 88.1054 88.7027 88.4301C88.6807 88.4833 88.6331 88.5603 88.6533 88.5897C88.7156 88.6832 88.7431 88.7768 88.7541 88.8722C89.1188 88.6814 89.4873 88.4943 89.8741 88.4136C90.5028 88.2815 91.0289 87.8927 91.6797 87.8138C91.896 87.7881 92.1801 87.6285 92.4257 87.5166C92.7098 87.3882 93.1461 87.4855 93.2781 87.2342C93.5384 86.7389 93.7144 87.4414 93.9178 87.225C93.9545 87.1865 94.0461 87.2048 94.1085 87.1828C95.4063 86.7041 96.7664 86.6509 98.1247 86.5867C98.4767 86.5702 98.8305 86.5592 99.1824 86.539C99.3071 86.5316 99.4574 86.5702 99.5307 86.4161C99.5912 86.2895 99.6737 86.1703 99.8222 86.1905C100.084 86.2235 99.835 86.3849 99.8808 86.4784C99.9175 86.5573 99.9835 86.539 100.044 86.5426C101.045 86.6068 102.049 86.638 103.037 86.8196C103.78 86.9554 104.57 86.8325 105.266 87.1901C105.627 87.3754 106.022 87.4414 106.399 87.5276C106.698 87.5955 106.986 87.667 107.274 87.7753C107.847 87.9917 108.485 88.0963 108.951 88.5163C109.204 88.7456 109.497 88.1586 109.664 88.6209C109.776 88.9309 110.133 88.9089 110.337 89.107C110.478 89.2445 110.711 89.2005 110.885 89.3197C111.766 89.925 112.753 90.3543 113.605 91.0219C114.1 91.409 114.69 91.6896 115.141 92.1445C115.422 92.427 115.708 92.6966 116.025 92.9351C116.439 93.2487 116.51 93.2286 116.708 92.7205C116.923 92.1684 117.071 91.5814 117.348 91.0641C117.999 89.8407 118.411 88.5145 119.024 87.2764C118.629 87.2745 118.23 87.291 117.832 87.1406ZM92.8583 86.8948C92.785 86.8948 92.7447 86.8398 92.7538 86.7701C92.7667 86.6784 92.829 86.6087 92.9206 86.6197C93.0123 86.6307 93.0563 86.7132 93.0655 86.8049C93.0361 86.9223 92.9371 86.8948 92.8583 86.8948ZM95.2285 83.8811C95.1405 83.8646 95.069 83.8041 95.0855 83.7105C95.091 83.6757 95.179 83.6298 95.2266 83.6317C95.311 83.6335 95.388 83.6757 95.366 83.7876C95.3421 83.8499 95.2945 83.894 95.2285 83.8811ZM105.627 86.8508C105.629 86.86 105.602 86.8746 105.556 86.915C105.518 86.8343 105.49 86.7994 105.486 86.7609C105.475 86.6619 105.415 86.5555 105.51 86.4711C105.53 86.4546 105.605 86.4656 105.624 86.4876C105.714 86.6032 105.604 86.7279 105.627 86.8508Z" fill="#D6B600"/>
<path d="M84.5922 87.6846C84.5996 87.7049 84.6532 87.7105 84.6864 87.7234C84.7473 87.7013 84.7879 87.6551 84.7824 87.5923C84.7806 87.5683 84.7289 87.5295 84.7012 87.5313C84.6126 87.5405 84.5609 87.5941 84.5922 87.6846Z" fill="#D6B600"/>
<path d="M84.0539 90.7872C84.2189 90.822 84.2024 90.6514 84.2207 90.5505C84.2409 90.4387 84.2409 90.3194 84.0594 90.1965C84.0356 90.3304 84.0283 90.424 84.0026 90.512C83.9696 90.6166 83.8853 90.7505 84.0539 90.7872Z" fill="#D6B600"/>
<path d="M86.4456 82.9934C86.5244 82.9806 86.5886 82.9347 86.6179 82.8614C86.6546 82.766 86.5721 82.7861 86.5262 82.777C86.4456 82.788 86.3686 82.8063 86.3503 82.8962C86.3374 82.9622 86.3723 83.0044 86.4456 82.9934Z" fill="#D6B600"/>
<path d="M85.3056 86.1593C85.4009 86.1556 85.4522 86.0878 85.4559 86.0126C85.4596 85.9355 85.4119 85.8603 85.3129 85.8677C85.2488 85.8732 85.2158 85.9209 85.2103 85.9832C85.2029 86.0621 85.2084 86.1355 85.3056 86.1593Z" fill="#D6B600"/>
<path d="M92.2526 73.6918C92.3626 73.7102 92.4341 73.6386 92.4102 73.5066C92.3919 73.4002 92.5019 73.2718 92.3571 73.1819C92.1866 73.2149 92.2819 73.38 92.2141 73.468C92.1591 73.5396 92.0876 73.6643 92.2526 73.6918Z" fill="#D6B600"/>
<path d="M86.153 89.3564C86.2098 89.3803 86.274 89.3638 86.274 89.2941C86.274 89.2079 86.2043 89.1693 86.1237 89.1565C86.0632 89.1693 86.0008 89.2078 86.0173 89.2665C86.0302 89.3069 86.1017 89.3362 86.153 89.3564Z" fill="#D6B600"/>
<path d="M84.5867 74.3681C84.6163 74.3663 84.6717 74.3275 84.6698 74.3183C84.6458 74.237 84.583 74.1927 84.5 74.176C84.476 74.1982 84.4298 74.2204 84.4298 74.2425C84.4261 74.346 84.5018 74.3718 84.5867 74.3681Z" fill="#D6B600"/>
<path d="M104.546 49.663C104.7 49.5988 104.872 49.7638 105.039 49.6501C104.88 49.5602 104.722 49.4869 104.546 49.663Z" fill="#D6B600"/>
<path d="M129.794 6.49515C129.823 5.84398 129.585 5.33406 129.022 4.99655C128.087 4.43527 127.191 3.81895 126.203 3.33103C125.118 2.79543 123.983 2.39556 122.867 1.95166C122.19 1.68386 121.446 1.54629 120.757 1.30967C119.859 1.00151 118.948 0.792404 118.026 0.62732C117.104 0.462236 116.191 0.229284 115.23 0.27881C114.556 0.311827 113.881 0.126564 113.199 0.135736C113.107 0.13757 113.036 0.0807079 112.988 0C112.678 0 112.371 0 112.061 0C111.819 0.286146 111.483 0.165084 111.197 0.161415C110.58 0.154078 109.942 0.18893 109.37 0.320997C108.849 0.440225 108.312 0.539275 107.795 0.621817C106.164 0.880449 104.684 1.52978 103.212 2.20846C102.012 2.76241 100.947 3.54198 99.9349 4.39124C99.8341 4.47562 99.7315 4.56366 99.616 4.6242C99.0734 4.90851 98.7654 5.45145 98.298 5.8183C98.1807 5.91002 98.1587 6.03108 98.1917 6.17415C98.2155 6.27687 98.1734 6.37959 98.0597 6.30438C97.8196 6.14297 97.7462 6.36858 97.6454 6.47314C97.3448 6.79046 97.123 7.19034 96.8334 7.49666C95.8912 8.489 95.2661 9.69228 94.597 10.846C93.7868 12.2438 93.1709 13.7552 92.4945 15.2281C92.3607 15.5216 92.3735 15.8793 92.2507 16.1801C91.9647 16.8863 91.7154 17.6017 91.556 18.3482C91.534 18.4528 91.4936 18.5573 91.446 18.6545C91.2535 19.0489 91.1252 19.4634 91.0024 19.8835C90.6962 20.929 90.4249 21.9911 90.0363 23.0072C89.5836 24.1903 89.1473 25.3808 88.7074 26.5676C88.5112 27.0958 88.2253 27.5911 88.0071 28.112C88.1519 28.8274 88.1464 29.5648 88.3096 30.2728C88.4691 30.968 88.4049 31.6888 88.6487 32.3767C88.8228 32.8664 88.7257 33.4186 88.8577 33.934C88.9017 34.1009 88.7935 34.3229 88.7184 34.5026C88.6249 34.7246 88.4691 34.9263 88.7257 35.1409C88.7642 35.1721 88.7953 35.262 88.7789 35.3024C88.5625 35.8361 88.8283 36.3607 88.8118 36.8908C88.7917 37.5713 88.8558 38.25 88.7843 38.9342C88.7349 39.4203 88.887 39.921 88.6359 40.3998C88.5735 40.5172 88.6139 40.7226 88.6689 40.8639C88.8577 41.3628 88.7074 41.8213 88.5845 42.3038C88.4104 42.9953 88.3151 43.7088 88.3151 44.4187C88.3151 44.9103 88.1776 45.3743 88.02 45.7962C87.8586 46.2273 87.8513 46.64 87.8275 47.0674C87.8183 47.2269 87.8605 47.3957 87.7432 47.5223C87.4975 47.7901 87.4352 48.1422 87.4004 48.4596C87.3417 48.997 87.1566 49.5014 87.0741 50.0205C87.0264 50.3232 86.7936 50.4663 86.7386 50.7451C86.6012 51.4366 86.3739 52.1116 86.1979 52.7958C86.1466 52.9921 86.0989 53.1791 85.9614 53.3332C85.9101 53.3919 85.8294 53.4616 85.8313 53.5258C85.8368 54.2155 85.3107 54.6686 85.098 55.2445C84.9147 55.7453 84.6874 56.2167 84.4711 56.6973C84.33 57.0109 84.0514 57.2641 84.1228 57.6768C84.1522 57.851 83.956 58.0253 83.8332 58.1812C83.7654 58.2692 83.7544 58.372 83.8497 58.4435C83.9469 58.5169 84.0532 58.4637 84.1064 58.383C84.2897 58.1005 84.4895 57.8235 84.6013 57.5025C84.6728 57.2934 84.7498 57.1063 84.9642 56.9871C85.076 56.9247 85.1769 56.7908 85.2227 56.6661C85.417 56.1213 85.8221 55.7526 86.2217 55.3693C86.5627 55.0409 86.7075 54.5604 87.0576 54.2302C87.3252 53.9789 87.646 53.7588 87.6369 53.3277C88.0805 53.0801 88.2381 52.5353 88.5992 52.2804C88.9328 52.0437 89.2206 51.7796 89.5322 51.5246C89.9502 51.1835 90.1518 50.7084 90.4616 50.3067C90.5863 50.1453 90.6907 50.0095 90.8704 49.916C91.2902 49.6977 91.7026 49.4996 91.9024 48.9933C91.9794 48.7952 92.2874 48.665 92.5147 48.555C92.8098 48.4119 93.0481 48.2046 93.2607 47.9735C93.4275 47.7937 93.5723 47.6176 93.8418 47.6085C93.9408 47.6048 94.0343 47.5443 94.0874 47.4562C94.4376 46.8858 94.9178 46.4841 95.5576 46.2584C95.7555 46.1887 95.9645 46.0475 96.0818 45.8806C96.256 45.6293 96.4723 45.4991 96.7527 45.433C96.8297 45.4147 96.9489 45.3927 96.9654 45.3431C97.1468 44.8167 97.7976 44.8296 98.0505 44.3875C98.0945 44.3105 98.2082 44.2316 98.2925 44.2261C98.9451 44.1949 99.3887 43.6868 99.9698 43.5052C100.287 43.4062 100.472 43.1273 100.721 42.9458C101.106 42.6669 101.522 42.4322 101.931 42.2212C102.516 41.9186 103.038 41.4802 103.695 41.3169C103.79 41.2931 103.885 41.2124 103.973 41.2215C104.336 41.2601 104.67 41.2711 104.767 40.8088C105.121 40.6969 105.463 40.5429 105.839 40.5172C105.997 40.5062 106.188 40.5539 106.292 40.4218C106.783 39.7945 107.559 39.8147 108.217 39.6184C108.22 39.6184 108.222 39.6166 108.226 39.6166C108.56 38.6976 108.906 37.7749 109.276 36.878C109.769 35.6894 110.378 34.5393 110.968 33.3874C111.628 32.0997 112.512 30.9533 113.133 29.651C113.197 29.5171 113.338 29.4217 113.441 29.3061C113.558 29.1741 113.659 29.0273 113.787 28.9081C114.088 28.6274 114.031 28.3175 113.85 28.0221C113.701 27.78 113.562 27.5471 113.535 27.2517C113.67 27.2591 113.712 27.3361 113.749 27.4113C113.797 27.5104 113.822 27.6223 113.879 27.714C114.072 28.0185 114.253 28.0386 114.488 27.7635C115.34 26.7638 116.227 25.7898 117.019 24.7425C117.661 23.895 118.561 23.3392 119.252 22.5523C119.639 22.1121 120.313 21.9801 120.601 21.3931C120.639 21.316 120.786 21.2794 120.889 21.2482C121.067 21.1931 121.213 21.0978 121.299 20.9364C121.464 20.6264 121.778 20.487 122.025 20.2742C122.302 20.0357 122.372 20.0632 122.562 20.3971C122.878 20.9529 123.178 21.516 123.497 22.0699C123.609 22.2625 123.747 22.4643 124.022 22.3102C124.26 22.1782 124.478 22.0259 124.357 21.6902C124.252 21.4023 124.166 21.1088 123.99 20.8465C123.796 20.5548 123.624 20.2467 123.468 19.9348C123.384 19.7661 123.473 19.4909 123.248 19.4176C123.03 19.346 122.916 19.5918 122.757 19.6964C122.738 19.7092 122.724 19.7276 122.705 19.7386C122.449 19.9018 122.254 19.867 122.214 19.579C122.163 19.1993 121.974 18.8765 121.877 18.5151C121.71 17.8951 121.622 17.266 121.496 16.6405C121.384 16.0865 121.387 15.5198 121.353 14.9676C121.309 14.2578 121.494 13.5351 121.56 12.8179C121.585 12.5372 121.717 12.44 121.981 12.429C122.649 12.3997 122.966 12.8197 122.733 13.5039C122.625 13.8231 122.491 14.1514 122.57 14.4669C122.724 15.0814 122.592 15.7013 122.674 16.3232C122.77 17.0569 122.83 17.7851 123.076 18.4894C123.241 18.9645 123.336 18.9975 123.745 18.6729C123.78 18.6454 123.805 18.6068 123.84 18.5812C124.132 18.372 124.205 18.4069 124.359 18.7426C124.659 19.3919 124.647 20.1861 125.257 20.6942C125.272 20.7052 125.281 20.7327 125.279 20.7511C125.206 21.3307 125.754 21.5894 125.937 22.202C126.108 21.7599 126.624 21.8718 126.641 21.5197C126.657 21.2078 126.493 20.8813 126.315 20.597C126.28 20.5401 126.243 20.4851 126.212 20.4264C125.816 19.6909 125.402 18.9663 125.233 18.1281C125.145 17.6934 124.986 17.6787 124.619 18.0125C124.348 18.2602 124.197 18.2363 124.016 17.908C123.974 17.8328 123.939 17.7484 123.923 17.6622C123.829 17.1651 123.745 16.668 123.651 16.1709C123.435 15.0098 123.66 13.8542 123.704 12.6968C123.714 12.4822 123.794 12.2676 123.855 12.0567C123.886 11.9484 123.957 11.8677 124.093 11.8732C124.604 11.8916 125.01 12.3685 124.949 12.8876C124.909 13.2379 124.839 13.5846 124.817 13.9368C124.758 14.9016 124.691 15.8683 124.975 16.8147C125.052 17.0734 125.308 17.2036 125.451 17.0239C125.655 16.7689 125.926 16.5653 125.933 16.1489C125.95 15.1988 125.708 14.267 125.79 13.3113C125.825 12.9151 125.924 12.5317 125.95 12.1355C125.988 11.5284 126.025 11.51 126.612 11.6256C127.286 11.7595 127.358 11.8512 127.129 12.4859C126.828 13.3241 126.931 14.1642 126.991 15.0428C127.612 14.5971 127.963 13.99 128.337 13.4158C129.028 12.3575 129.546 11.2221 129.684 9.93807C129.708 9.71429 129.741 9.45016 129.939 9.27223C129.939 8.52018 129.939 7.76997 129.939 7.01791C129.722 6.90052 129.785 6.68224 129.794 6.49515ZM90.0895 24.8654C89.886 24.858 89.8659 24.6893 89.9319 24.5315C89.9758 24.4288 89.9685 24.2564 90.1647 24.2821C90.2783 24.3554 90.2361 24.4728 90.2251 24.57C90.2123 24.6801 90.2893 24.8727 90.0895 24.8654ZM102.202 5.4863C102.158 5.45512 102.122 5.41476 102.076 5.37074C102.221 5.30838 102.386 5.32672 102.393 5.45512C102.406 5.64588 102.279 5.54133 102.202 5.4863ZM116.735 6.19433C116.697 6.17782 116.66 6.07327 116.675 6.02558C116.741 5.79813 116.898 5.79446 117.116 5.91919C116.882 5.89534 117.061 6.33373 116.735 6.19433ZM120.607 7.32974C120.504 7.34992 120.471 7.26371 120.456 7.1775C120.454 7.1133 120.456 7.03259 120.524 7.01975C120.63 6.99957 120.669 7.09495 120.676 7.17566C120.678 7.22702 120.639 7.32241 120.607 7.32974ZM128.243 9.54004C128.522 9.50702 128.714 9.49601 128.919 9.64092C128.617 9.69411 128.617 9.69411 128.243 9.54004Z" fill="#D6B600"/>
<path d="M106.11 45.5578C106.086 45.5707 106.06 45.628 106.071 45.6483C106.099 45.7037 106.158 45.713 106.217 45.6963C106.265 45.6834 106.274 45.6501 106.252 45.6095C106.217 45.5559 106.167 45.5264 106.11 45.5578Z" fill="#D6B600"/>
<path d="M75.9992 99.7567C76.0047 99.4393 76.0304 99.067 75.7554 98.801C75.7426 98.7882 75.7242 98.7607 75.7297 98.7496C75.924 98.2947 75.5611 97.9517 75.4988 97.5519C75.42 97.0584 75.2458 96.598 75.1212 96.1211C74.9983 95.6442 74.8022 95.1838 74.969 94.6757C75.0277 94.4978 75.0203 94.2979 74.8755 94.1731C74.6757 93.9989 74.6886 93.81 74.7399 93.5862C74.826 93.2065 74.6721 92.8653 74.5951 92.5021C74.4723 91.928 74.4558 91.3117 74.5163 90.7247C74.5749 90.1579 74.3403 89.6333 74.4081 89.0757C74.4777 88.5089 74.4851 87.922 74.4668 87.3643C74.4283 86.1904 74.6409 84.9981 74.3293 83.8444C74.2321 83.4812 74.5566 83.3198 74.5566 83.0171C74.5566 82.764 74.3219 82.5072 74.5694 82.2504C74.7454 82.067 74.826 81.8615 74.6574 81.6084C74.6006 81.5222 74.5969 81.3681 74.6262 81.2599C74.7765 80.7151 74.8682 80.1593 74.98 79.6072C75.0753 79.1431 75.2843 78.7029 75.2091 78.2095C75.2 78.1545 75.2092 78.0829 75.2403 78.0371C75.5354 77.5969 75.4786 77.0392 75.7297 76.588C75.8141 76.4358 75.7902 76.2817 75.8177 76.1294C75.8892 75.7314 75.7719 75.282 76.122 74.9518C76.1587 74.9188 76.1623 74.8399 76.1642 74.7812C76.2045 73.8788 76.7618 73.1121 76.8186 72.2041C76.8369 71.9161 77.143 71.6575 77.2274 71.3585C77.3832 70.8046 77.6673 70.313 77.8891 69.792C78.0119 69.5022 77.9881 69.1757 78.1696 68.8932C78.274 68.73 78.3474 68.5429 78.4775 68.3907C78.5417 68.3173 78.637 68.2366 78.6443 68.154C78.6737 67.723 78.714 67.3029 79.0238 66.9599C79.0714 66.9067 79.0696 66.804 78.9889 66.749C78.9193 66.7013 78.8386 66.7105 78.7616 66.738C78.6187 66.7893 78.5545 66.9104 78.494 67.0406C78.3125 67.435 78.1311 67.8165 77.7425 68.077C77.5793 68.1852 77.5152 68.4402 77.3997 68.6236C77.1705 68.9868 77.0092 69.4068 76.5583 69.5793C76.4007 69.6398 76.3291 69.7865 76.2742 69.9443C76.1458 70.313 76.0377 70.6927 75.5978 70.8321C75.4218 70.8871 75.4145 71.087 75.365 71.2283C75.1725 71.7657 74.7509 72.1216 74.3183 72.4095C73.9297 72.6682 73.6125 73.0002 73.3486 73.3377C72.894 73.9173 72.3899 74.4181 71.807 74.8546C71.7281 74.9133 71.6512 74.9849 71.6017 75.0674C71.2094 75.7259 70.5696 76.1203 69.9959 76.588C69.4771 77.0117 68.973 77.4501 68.4213 77.8316C68.2746 77.9325 68.1555 78.0628 67.9685 78.1049C67.5671 78.1967 67.2225 78.3746 67.0556 78.791C67.0281 78.857 66.9493 78.9487 66.8925 78.9505C66.4141 78.9652 66.1409 79.3651 65.7523 79.543C65.5599 79.6311 65.3491 79.7118 65.2519 79.9411C65.1749 80.1226 64.9586 80.1813 64.8156 80.2217C64.0897 80.4253 63.5985 80.9958 62.9679 81.3461C62.6453 81.5259 62.3666 81.746 61.9597 81.7276C61.6847 81.7148 61.5399 82.0028 61.3511 82.1678C61.2118 82.2889 61.1073 82.4173 60.9002 82.3825C60.7535 82.3586 60.6381 82.4558 60.5152 82.5182C59.4044 83.0703 58.3247 83.694 57.1222 84.0406C56.8418 84.1213 56.6969 84.413 56.3523 84.4405C55.8042 84.4827 55.3258 84.7542 54.8419 85.0311C54.4789 85.2384 54.0463 85.3925 53.6082 85.4494C53.1536 85.5081 52.7174 85.6236 52.2829 85.7704C51.9108 85.8969 51.5039 85.8988 51.1134 85.9464C50.7321 85.9941 50.5708 86.3647 50.2445 86.4142C49.9494 86.46 49.6708 86.2656 49.3353 86.471C48.7762 86.8122 48.1182 86.8141 47.4766 86.7535C47.3006 86.737 47.1595 86.7774 47.0275 86.8581C46.626 87.1075 46.2154 87.1827 45.7315 87.1479C45.1706 87.1075 44.6005 87.2946 44.0304 87.2396C43.5373 87.1919 43.0076 87.2029 42.6684 86.7223C42.6153 86.6471 42.5218 86.5903 42.4338 86.5499C41.5814 86.1556 41.1543 85.4787 41.1177 84.5542C41.1085 84.3286 41.0902 84.1213 40.9545 83.9342C40.7877 83.7013 40.7914 83.4115 40.8849 83.1877C41.279 82.2394 41.5319 81.2232 42.3898 80.5115C42.8224 80.1538 43.1909 79.6879 43.4347 79.1505C43.6345 78.7084 44.0744 78.5158 44.4502 78.2737C44.6922 78.1178 44.8828 77.982 44.9653 77.6794C45.0844 77.2373 45.4694 76.9842 45.7902 76.6926C45.8323 76.6559 45.9258 76.6577 45.946 76.6174C46.2649 75.9974 46.9175 75.691 47.3153 75.1298C47.6379 74.6749 48.0558 74.2071 48.5416 73.965C49.2253 73.6238 49.6066 72.9653 50.2629 72.6058C51.1244 72.1344 51.8026 71.3934 52.6513 70.8779C53.1994 70.5441 53.7494 70.1644 54.248 69.7297C54.6861 69.3481 55.1828 69.0235 55.8079 69.0308C56.037 69.0326 55.8574 68.8034 55.9912 68.7245C56.7391 68.2916 57.4137 67.7377 58.2221 67.4057C58.4237 67.3231 58.6162 67.2149 58.8471 67.2406C58.97 67.2534 59.0763 67.2149 59.1624 67.1122C59.4832 66.7325 59.9763 66.6518 60.3723 66.4151C60.7737 66.1749 61.2631 66.1455 61.6132 65.8208C61.7489 65.6943 61.9249 65.5934 62.0935 65.6026C62.8524 65.6448 63.4426 65.2027 64.0952 64.9404C64.1319 64.9257 64.1612 64.889 64.1979 64.8817C64.4673 64.8358 64.7331 64.7918 65.0136 64.7863C65.2262 64.7826 65.3839 64.4672 65.6955 64.4598C65.976 64.4543 66.2491 64.2746 66.513 64.1938C66.9548 64.0563 67.3856 63.871 67.8347 63.7646C68.051 63.7133 68.2508 63.6472 68.4469 63.5482C68.7879 63.3739 69.1453 63.3446 69.5321 63.3244C70.0454 63.2969 70.5678 63.3134 71.0866 63.1043C71.565 62.9099 72.1241 62.908 72.6502 62.8457C72.9655 62.809 73.2844 62.8071 73.6034 62.809C73.7757 62.8108 73.8948 62.7063 74.0378 62.6567C74.3274 62.5558 74.6299 62.4696 74.9525 62.5467C75.101 62.5815 75.2935 62.6072 75.3595 62.4073C75.4364 62.1761 75.2403 62.0771 75.0845 62.0129C74.8682 61.923 74.6336 61.8552 74.4008 61.8295C74.0726 61.791 73.7464 61.6681 73.4036 61.8111C73.2569 61.8717 73.0938 61.7708 72.938 61.7414C72.7363 61.7047 72.5494 61.5525 72.3184 61.6846C72.2506 61.7231 72.1003 61.7011 72.0324 61.6497C71.4715 61.2095 70.7786 61.3709 70.1554 61.226C69.8529 61.1563 69.5285 61.1783 69.226 61.1049C68.9987 61.0499 68.6871 61.0884 68.6101 60.7491C68.5844 60.6335 68.4818 60.6665 68.4194 60.6849C68.1262 60.7766 67.8695 60.6867 67.6257 60.54C67.5322 60.4831 67.4406 60.4905 67.3416 60.4905C67.0135 60.4886 66.6469 60.584 66.5204 60.1144C66.4929 60.0099 66.3517 60.0521 66.2546 60.0502C65.6533 60.0374 65.0924 59.8631 64.5462 59.6247C64.4325 59.5752 64.317 59.5697 64.1979 59.566C64.0989 59.5642 64.0091 59.5513 63.9174 59.4926C63.7708 59.3991 63.8789 58.9625 63.4811 59.1918C63.2685 59.3147 63.0339 59.0212 62.7919 59.1276C62.6068 59.2083 62.4601 59.1184 62.3721 58.9974C62.1833 58.7351 61.9524 58.68 61.6499 58.7167C61.331 58.7552 61.1422 58.4489 60.9295 58.3022C60.3448 57.9005 59.639 57.7849 59.0598 57.363C58.9095 57.253 58.7317 57.1668 58.5447 57.0897C58.4769 57.1282 58.409 57.1649 58.343 57.2016C56.7538 58.1004 55.291 59.1881 53.8062 60.2447C53.4469 60.5015 53.1555 60.828 52.8072 61.0793C51.9181 61.7231 51.1372 62.4953 50.3508 63.2419C49.2913 64.2452 48.3015 65.3329 47.3959 66.494C46.7892 67.2717 46.1769 68.0587 45.6582 68.8822C45.0111 69.9076 44.3145 70.9128 43.7958 72.0353C43.4053 72.8828 42.9581 73.7174 42.5584 74.5685C42.0837 75.581 41.5704 76.5807 41.224 77.6482C40.7785 79.0239 40.3588 80.4088 39.9225 81.7882C39.8437 82.0376 39.6805 82.2742 39.6549 82.5274C39.5339 83.7123 39.1618 84.8312 38.8226 85.9611C38.7787 86.1079 38.7163 86.2399 38.7218 86.405C38.7493 87.2249 38.5605 88.0173 38.3607 88.8042C38.1627 89.5911 38.0949 90.3946 38.0344 91.198C37.9978 91.6767 37.831 91.873 37.3562 91.8913C36.6395 91.9188 35.9227 91.9684 35.206 92.0014C34.9842 92.0124 34.7862 92.1775 34.5608 92.1151C33.6021 91.8473 32.724 92.3499 31.7983 92.4122C31.2282 92.4508 30.6435 92.7039 30.0734 92.7791C28.9351 92.9258 27.8572 93.3055 26.7867 93.6375C25.2946 94.1016 23.8208 94.6629 22.3965 95.3287C21.458 95.7671 20.5304 96.2275 19.656 96.7796C19.3536 96.9704 18.9521 96.9484 18.7138 97.218C18.3546 97.6252 17.8688 97.8417 17.4454 98.1517C16.7708 98.6451 16.0229 99.0303 15.4051 99.6081C14.9909 99.9951 14.5399 100.353 14.0908 100.69C13.6161 101.048 13.1743 101.446 12.7362 101.835C12.1166 102.383 11.5374 102.985 10.9893 103.618C10.2872 104.429 9.52648 105.184 8.88857 106.056C8.11685 107.108 7.33412 108.15 6.57523 109.212C5.79984 110.296 5.24992 111.49 4.60835 112.639C4.04376 113.651 3.54333 114.711 3.17488 115.816C3.0264 116.261 2.66895 116.601 2.60663 117.063C2.56264 117.377 2.44532 117.644 2.33717 117.932C2.0787 118.609 1.86607 119.306 1.67176 120.007C1.40597 120.966 1.31431 121.97 1.00636 122.92C0.813883 123.518 0.883544 124.147 0.747897 124.747C0.505931 125.82 0.293293 126.895 0.293293 128.001C0.293293 128.509 0.295126 129.017 0.282295 129.523C0.274963 129.852 0.263963 130.185 0 130.438C0 130.704 0 130.969 0 131.235C0.157644 131.284 0.177806 131.416 0.186971 131.55C0.240131 132.353 0.293293 133.157 0.344619 133.96C0.392278 134.685 0.388612 135.415 0.493097 136.132C0.656241 137.253 0.999028 138.344 1.02286 139.489C1.02469 139.551 1.05035 139.626 1.09251 139.67C1.32348 139.916 1.30698 140.226 1.36564 140.529C1.50679 141.259 1.67726 141.987 1.99438 142.669C2.08604 142.866 2.21069 143.062 2.17769 143.297C2.13736 143.579 2.25835 143.816 2.37933 144.051C2.52964 144.346 2.63779 144.654 2.74595 144.968C2.94392 145.547 3.14922 146.131 3.42051 146.677C3.86962 147.582 4.2399 148.519 4.71283 149.416C5.6037 151.107 6.06014 151.973 7.33413 153.431C7.35796 153.459 7.37812 153.515 7.36712 153.548C7.26447 153.846 7.51193 153.994 7.64392 154.179C8.12418 154.856 8.50913 155.61 9.1892 156.129C9.33034 156.237 9.422 156.386 9.50448 156.546C9.81977 157.153 10.3257 157.621 10.7528 158.138C11.0809 158.534 11.508 158.87 11.8948 159.229C12.925 160.187 14.0193 161.073 15.066 162.01C16.2264 163.05 17.5553 163.837 18.8513 164.655C19.8613 165.293 20.9264 165.877 22.0299 166.381C23.0087 166.829 24.0004 167.254 24.9976 167.641C26.6675 168.29 28.3943 168.8 30.1486 169.186C30.6398 169.294 31.1659 169.518 31.6187 169.466C32.3042 169.389 32.911 169.644 33.5452 169.719C34.5039 169.833 35.4718 169.787 36.4287 169.963C37.1106 170.09 37.1161 169.98 37.226 169.275C37.2682 169.008 37.2682 168.744 37.2334 168.489C37.1381 167.766 37.2535 167.045 37.1985 166.32C37.1326 165.447 37.2132 164.563 37.2187 163.683C37.2224 163.114 37.1875 163.035 36.6596 162.997C35.8622 162.938 35.1308 162.634 34.3683 162.452C32.6709 162.047 31.1219 161.245 29.5455 160.522C29.1055 160.321 28.6858 160.067 28.2825 159.822C27.8719 159.572 27.4008 159.424 27.0323 159.128C25.8848 158.211 24.653 157.406 23.5697 156.404C22.534 155.447 21.5936 154.398 20.7156 153.303C19.9365 152.33 19.2546 151.278 18.6167 150.197C18.0026 149.159 17.3885 148.125 16.9614 146.995C16.6901 146.279 16.4207 145.566 16.2062 144.825C15.9954 144.095 15.7589 143.363 15.5536 142.629C15.2512 141.547 15.1009 140.433 15.033 139.309C14.9579 138.067 14.7782 136.836 14.9139 135.578C15.0147 134.643 14.9799 133.702 15.143 132.759C15.4161 131.18 15.7021 129.617 16.1622 128.076C16.428 127.186 17.0641 126.436 17.0952 125.469C17.0971 125.394 17.1722 125.312 17.229 125.248C17.5095 124.928 17.6433 124.532 17.8303 124.16C18.1639 123.494 18.4627 122.799 18.8825 122.188C19.6469 121.069 20.4516 119.972 21.3095 118.925C22.0042 118.076 22.7301 117.224 23.5715 116.531C24.763 115.546 25.9178 114.502 27.256 113.704C27.9654 113.283 28.6418 112.791 29.3842 112.439C29.8369 112.224 30.2805 111.999 30.7296 111.778C31.3859 111.457 32.1081 111.269 32.7863 110.973C33.0246 110.869 33.3253 110.852 33.5966 110.749C34.1905 110.526 34.7972 110.273 35.4186 110.194C36.3498 110.076 37.2315 109.728 38.1701 109.665C38.6705 109.632 39.1654 109.493 39.6659 109.476C40.6337 109.443 41.6034 109.456 42.5731 109.462C42.8572 109.464 43.1267 109.3 43.42 109.403C44.2229 109.684 45.0734 109.596 45.8983 109.717C46.7452 109.841 47.5701 110.1 48.428 110.157C48.4884 110.161 48.5508 110.205 48.6021 110.245C48.9522 110.509 49.3775 110.575 49.7844 110.632C50.1199 110.68 50.4205 110.762 50.723 110.904C51.6927 111.357 52.7137 111.67 53.6632 112.195C54.4973 112.657 55.401 113.007 56.2332 113.497C56.5741 113.699 56.8289 114.002 57.179 114.207C57.762 114.548 58.3137 114.965 58.8306 115.396C59.5162 115.968 60.1944 116.553 60.8195 117.206C61.6591 118.083 62.5096 118.95 63.2465 119.908C64.1007 121.02 64.8028 122.245 65.5342 123.443C65.7853 123.853 66.1354 124.228 66.2876 124.672C66.5754 125.502 66.9695 126.289 67.2353 127.128C67.3526 127.493 67.5469 127.663 67.9172 127.588C68.5899 127.452 69.2627 127.579 69.9372 127.531C71.1874 127.445 72.4467 127.505 73.7024 127.524C74.4429 127.535 75.1926 127.672 75.9204 127.592C76.9927 127.472 78.0632 127.722 79.1264 127.52C79.5004 127.449 79.8945 127.564 80.2684 127.445C80.2116 127.175 80.0283 127.067 79.9165 126.909C79.3024 126.034 78.5472 125.253 78.1017 124.264C77.8671 123.742 77.572 123.248 77.2897 122.757C76.9836 122.221 76.7508 121.662 76.5271 121.097C76.2027 120.28 75.9149 119.449 75.6454 118.615C75.4493 118.009 75.145 117.43 75.0955 116.792C75.0607 116.331 74.9763 115.878 74.8829 115.438C74.6281 114.253 74.5822 113.057 74.5474 111.859C74.5327 111.333 74.6134 110.804 74.5914 110.28C74.5401 109.148 74.804 108.049 74.947 106.941C75.0258 106.325 75.1432 105.689 75.409 105.1C75.5061 104.883 75.5721 104.628 75.5703 104.394C75.5648 103.59 76.1917 102.992 76.2485 102.215C76.3603 102.005 76.4666 101.795 76.573 101.582C76.4923 101.303 76.364 101.037 76.2448 100.771C76.0982 100.446 75.9937 100.135 75.9992 99.7567ZM58.9131 62.2752C58.9791 62.2642 59.0323 62.2972 59.0579 62.3651C59.0653 62.433 59.0341 62.4843 58.97 62.5008C58.8985 62.5192 58.849 62.4788 58.8325 62.4109C58.8141 62.3449 58.8453 62.2862 58.9131 62.2752ZM48.0613 66.2097C48.1402 66.2684 48.2831 66.1969 48.3125 66.3326C48.3161 66.3528 48.263 66.3858 48.2336 66.4133C48.1182 66.4243 48.0338 66.3785 47.9935 66.2666C47.9715 66.206 48.0118 66.173 48.0613 66.2097ZM14.8772 150.544C14.6701 150.59 14.5326 150.524 14.4758 150.315C14.4483 150.21 14.3951 150.089 14.5399 150.039C14.6847 149.99 14.7434 150.098 14.7306 150.217C14.7159 150.362 14.8882 150.408 14.8772 150.544ZM19.9585 100.701C19.876 100.698 19.8522 100.639 19.8522 100.577C19.8522 100.487 19.8925 100.41 19.975 100.371C20.0502 100.334 20.1015 100.377 20.107 100.45C20.1125 100.562 20.0667 100.654 19.9585 100.701ZM24.9811 109.605C24.8968 109.412 25.0306 109.343 25.1333 109.179C25.1516 109.421 25.0618 109.493 24.9811 109.605ZM27.969 108.611C27.8645 108.625 27.8187 108.552 27.8022 108.429C27.8205 108.394 27.8462 108.293 27.8755 108.293C27.9709 108.292 28.0167 108.378 28.0442 108.46C28.0662 108.53 28.0405 108.6 27.969 108.611ZM32.5224 94.2905C32.4564 94.2649 32.4307 94.2117 32.4509 94.1493C32.4729 94.0851 32.526 94.0466 32.592 94.0778C32.6214 94.0906 32.6489 94.1456 32.647 94.1768C32.6397 94.2428 32.5957 94.2869 32.5224 94.2905ZM43.4548 92.5957C43.288 92.603 43.2605 92.4416 43.2294 92.3334C43.2092 92.2618 43.3119 92.2013 43.4017 92.183C43.53 92.1995 43.5868 92.2747 43.5703 92.3994C43.5575 92.4783 43.5611 92.5902 43.4548 92.5957ZM63.516 108.539C63.483 108.618 63.4188 108.686 63.3198 108.647C63.2923 108.636 63.2685 108.576 63.2722 108.543C63.2832 108.455 63.3217 108.381 63.4317 108.398C63.4921 108.425 63.5435 108.475 63.516 108.539ZM67.4333 82.9382C67.3728 82.8942 67.2628 82.8575 67.3049 82.7622C67.3471 82.6668 67.4589 82.698 67.5341 82.72C67.6715 82.7603 67.8255 82.786 67.9007 82.9401C67.7412 83.0575 67.5836 83.0465 67.4333 82.9382ZM71.829 104.656C71.6988 104.693 71.6273 104.542 71.6292 104.394C71.631 104.313 71.5852 104.227 71.6823 104.168C71.7831 104.152 71.8345 104.227 71.873 104.298C71.9408 104.429 72.0269 104.601 71.829 104.656ZM72.0929 101.831C71.9463 101.813 71.9353 101.712 71.9426 101.593C71.95 101.494 71.9829 101.426 72.0948 101.426C72.2322 101.424 72.2909 101.501 72.2964 101.629C72.3019 101.767 72.2194 101.822 72.0929 101.831Z" fill="#D6B600"/>
<path d="M72.4966 50.2901C72.5131 50.358 72.5809 50.4405 72.6451 50.4681C73.2298 50.7175 73.5433 51.2935 74.0492 51.6347C74.3187 51.8163 74.2398 52.2235 74.4598 52.372C74.6798 52.5224 74.9584 52.6032 75.1582 52.8013C75.226 52.8691 75.303 52.9645 75.3085 53.0525C75.3305 53.4891 75.6073 53.7239 75.9446 53.9202C76.0491 53.9807 76.1316 54.0614 76.2012 54.1641C76.566 54.6979 76.9839 55.1858 77.4257 55.659C77.664 55.914 77.6585 56.279 77.7043 56.611C78.0673 56.5707 78.3184 56.7908 78.5439 57.0146C78.7235 57.1925 78.6575 57.5135 78.8665 57.6988C78.9362 57.7593 78.9233 57.8914 79.0993 57.9335C79.2148 57.6456 79.2918 57.3649 79.0407 57.0934C78.641 56.6606 78.4999 56.0919 78.2396 55.5875C78.005 55.1326 77.8913 54.6209 77.5815 54.2008C77.5467 54.1549 77.5045 54.0871 77.5137 54.0412C77.6054 53.6212 77.3927 53.3222 77.1361 53.0379C77.0976 52.9957 77.0353 52.9278 77.0463 52.8911C77.1948 52.4326 76.6668 52.1024 76.8116 51.6475C76.8208 51.6163 76.8061 51.5631 76.7823 51.5356C76.2855 50.945 76.4029 50.2058 76.2617 49.5253C76.1682 49.0777 76.0179 48.6246 75.8566 48.1862C75.7741 47.9625 75.6751 47.7405 75.5853 47.5167C74.7641 48.0615 74.0052 48.687 73.1932 49.2428C72.8559 49.4739 72.5094 49.6885 72.1611 49.8976C72.2931 50.0095 72.4508 50.092 72.4966 50.2901Z" fill="#D6B600"/>
<path d="M91.008 71.3127C91.074 71.2999 91.0831 71.2247 91.0556 71.1678C91.0135 71.0798 90.9732 70.9844 90.854 71.0009C90.7862 71.0247 90.7367 71.0688 90.7532 71.1275C90.788 71.2467 90.8687 71.3384 91.008 71.3127Z" fill="#D6B600"/>
<path d="M102.555 46.5869C102.518 46.6566 102.489 46.7666 102.572 46.7978C102.707 46.8492 102.715 46.7098 102.738 46.6272C102.759 46.5557 102.768 46.4732 102.693 46.3979C102.647 46.4603 102.592 46.5172 102.555 46.5869Z" fill="#D6B600"/>
<path d="M100.69 49.8241C100.66 49.8204 100.614 49.8444 100.597 49.8703C100.562 49.9239 100.579 49.9793 100.64 50.0015C100.697 50.0236 100.749 50.0033 100.78 49.946C100.782 49.8832 100.756 49.8315 100.69 49.8241Z" fill="#D6B600"/>
<path d="M63.2891 73.7559C63.2726 73.7669 63.2653 73.8384 63.2818 73.8568C63.3789 73.965 63.4889 73.8824 63.5934 73.8476C63.4889 73.8036 63.4082 73.6843 63.2891 73.7559Z" fill="#D6B600"/>
<path d="M42.9305 84.901C42.8829 84.912 42.8609 84.9634 42.8902 84.9799C42.969 85.0258 43.0589 85.0569 43.145 85.0918C43.1542 85.0606 43.1652 85.0276 43.1743 84.9946C43.1194 84.8955 43.0314 84.8753 42.9305 84.901Z" fill="#D6B600"/>
<path d="M50.7754 79.3066C50.7186 79.3176 50.6782 79.3616 50.6709 79.4662C50.9202 79.4717 51.1438 79.4368 51.3381 79.1984C51.0833 79.1543 50.9404 79.2754 50.7754 79.3066Z" fill="#D6B600"/>
<path d="M52.3821 83.4628C52.3234 83.4811 52.3069 83.5453 52.3234 83.604C52.3509 83.6976 52.4353 83.6921 52.5086 83.6921C52.5617 83.6921 52.6222 83.6829 52.6002 83.5967C52.5361 83.5398 52.5013 83.4243 52.3821 83.4628Z" fill="#D6B600"/>
<path d="M73.3086 54.8341C73.3123 54.908 73.3806 54.9098 73.4323 54.9024C73.4619 54.8987 73.4877 54.8673 73.5283 54.8378C73.4748 54.8082 73.4305 54.775 73.3806 54.7639C73.3603 54.7602 73.3068 54.81 73.3086 54.8341Z" fill="#D6B600"/>
<path d="M76.8497 62.1267C76.8332 62.1194 76.7745 62.1542 76.7709 62.1762C76.7526 62.312 76.8442 62.3248 76.9872 62.3193C77.0037 62.3157 77.0587 62.3028 77.1137 62.29C77.0678 62.1671 76.9432 62.1707 76.8497 62.1267Z" fill="#D6B600"/>
<path d="M68.5119 53.7937C68.4528 53.8084 68.414 53.8509 68.4306 53.9119C68.4472 53.9729 68.5045 54.0024 68.5636 53.9932C68.6245 53.9839 68.6503 53.9341 68.6429 53.8731C68.6171 53.8158 68.5765 53.7789 68.5119 53.7937Z" fill="#D6B600"/>
<path d="M59.1993 81.8433C59.2763 81.8708 59.1754 82.0322 59.3276 82.034C59.3404 82.034 59.3661 82.0084 59.3661 81.9955C59.3661 81.8965 59.3111 81.8176 59.2433 81.7552C59.2176 81.7332 59.1864 81.7717 59.1993 81.8433Z" fill="#D6B600"/>
<path d="M79.0605 66.507C79.2732 66.4905 79.3869 66.4208 79.3759 66.1346C79.22 66.2465 79.066 66.2722 79.0605 66.507Z" fill="#D6B600"/>
<path d="M58.5777 74.0898C58.4915 74.1265 58.4713 74.2054 58.475 74.2806C58.4823 74.431 58.6015 74.3943 58.6913 74.3888C58.7756 74.3852 58.8453 74.3393 58.8086 74.2439C58.772 74.1467 58.6657 74.1265 58.5777 74.0898Z" fill="#D6B600"/>
<path d="M52.8435 84.8148C52.7867 84.7763 52.7042 84.7286 52.6473 84.8295C52.6272 84.9212 52.6913 84.9671 52.7463 85.0202C52.8545 85.1266 52.9663 85.0808 53.0653 85.0184C53.1019 84.9946 53.1294 84.9139 53.1203 84.868C53.0763 84.6571 52.9351 84.8735 52.8435 84.8148Z" fill="#D6B600"/>
<path d="M88.3568 84.3559C88.4362 84.3633 88.4325 84.2912 88.4343 84.2358C88.4232 84.1712 88.3974 84.1121 88.3236 84.1361C88.2719 84.1509 88.1943 84.197 88.1925 84.2321C88.1888 84.3282 88.2829 84.3485 88.3568 84.3559Z" fill="#D6B600"/>
<path d="M77.4639 58.0655C77.4159 58.0729 77.3993 58.1117 77.4196 58.1561C77.451 58.2244 77.475 58.3131 77.5747 58.3002C77.595 58.2965 77.6079 58.2392 77.6246 58.2041C77.595 58.1284 77.5655 58.0508 77.4639 58.0655Z" fill="#D6B600"/>
<path d="M79.3926 58.1426C79.378 58.249 79.3596 58.3242 79.3615 58.3994C79.3633 58.4892 79.3505 58.6176 79.5026 58.5846C79.6218 58.5589 79.6328 58.4544 79.6016 58.3517C79.5796 58.2783 79.5448 58.2086 79.3926 58.1426Z" fill="#D6B600"/>
<path d="M75.6484 62.4753C75.8831 62.4588 76.0682 62.4845 76.2442 62.2295C75.9546 62.1525 75.7822 62.191 75.6484 62.4753Z" fill="#D6B600"/>
<path d="M103.855 57.598C103.27 57.8071 102.726 58.0474 102.196 58.3867C101.806 58.638 101.32 58.8453 100.807 58.8563C100.735 58.8581 100.625 58.8912 100.598 58.9425C100.409 59.2929 100.046 59.2855 99.736 59.3974C99.243 59.5753 98.6967 59.6285 98.2842 60.0046C98.2348 60.0504 98.1358 60.0467 98.0588 60.0541C97.4374 60.1183 96.8471 60.3329 96.244 60.4429C95.8059 60.5237 95.3495 60.6227 94.9444 60.7474C94.202 60.9767 93.3734 60.9382 92.7099 61.3986C92.4716 61.5637 92.2278 61.5142 91.9821 61.5325C91.3516 61.5784 90.7632 61.8498 90.1216 61.8627C89.8503 61.8682 89.5863 61.9984 89.3169 61.8425C89.2692 61.815 89.1849 61.793 89.1464 61.815C88.5341 62.1763 87.8192 61.892 87.1942 62.1323C87.0823 62.1745 87.0182 62.1598 86.9265 62.114C86.8587 62.0809 86.7725 62.0516 86.7029 62.0644C86.5837 62.0865 86.4738 62.1653 86.4628 62.2937C86.4499 62.4533 86.5856 62.4845 86.7066 62.49C87.3958 62.5193 88.0887 62.5872 88.7761 62.5542C89.2509 62.5303 89.6835 62.578 90.0977 62.7981C90.3012 62.9064 90.501 62.9357 90.7265 62.8477C90.8933 62.7816 91.0839 62.7743 91.2563 62.8238C91.8777 63.0054 92.5449 63.0219 93.1333 63.3044C93.4358 63.4512 93.7566 63.3833 94.059 63.4933C94.6089 63.6933 95.1735 63.8639 95.7381 64.0234C96.2147 64.1573 96.695 64.2821 97.1972 64.2692C97.4814 64.2619 97.727 64.4196 97.9946 64.4765C98.4969 64.5811 98.9057 64.8856 99.3548 65.1038C99.5399 65.1937 99.7049 65.2762 99.9157 65.2267C100.251 65.1478 100.491 65.4248 100.775 65.5165C101.637 65.7935 102.493 66.1218 103.29 66.5676C103.928 66.9253 104.568 67.2811 105.206 67.637C105.276 67.6755 105.343 67.7213 105.419 67.7397C106.267 67.9488 106.905 68.5394 107.638 68.9576C107.948 69.1337 108.236 69.3447 108.562 69.4951C108.707 69.5611 108.925 69.596 108.909 69.8381C108.903 69.9078 108.927 69.9573 108.991 69.9628C109.327 69.9958 109.583 70.1609 109.823 70.3535C109.668 69.9775 109.528 69.5941 109.409 69.2053C109.182 68.4734 108.955 67.7323 108.689 67.0225C108.366 66.164 108.32 65.2084 107.774 64.4306C107.664 64.2747 107.671 64.051 107.675 63.8492C107.679 63.6529 107.616 63.464 107.582 63.2732C107.503 62.8422 107.27 62.4441 107.237 62.0241C107.182 61.3197 107.1 60.63 106.931 59.944C106.779 59.3259 106.656 58.6949 106.586 58.0621C106.518 57.4494 106.474 56.8349 106.429 56.2205C105.979 56.5066 105.477 56.6717 105.041 56.9432C104.652 57.1853 104.271 57.4494 103.855 57.598Z" fill="#D6B600"/>
<path d="M81.1226 77.4172C81.0291 77.5273 81.075 77.6153 81.1226 77.7015C81.1611 77.7731 81.2088 77.8299 81.3499 77.8006C81.3352 77.6355 81.3078 77.4906 81.1226 77.4172Z" fill="#D6B600"/>
<path d="M72.858 64.3241C73.0963 63.9408 73.0963 63.9407 72.9332 63.6876C72.7407 63.8509 72.7096 64.0416 72.858 64.3241Z" fill="#D6B600"/>
<path d="M65.6822 55.8718C65.6199 55.8699 65.5649 55.9011 65.5887 55.9727C65.6217 56.0754 65.706 56.1194 65.8105 56.1231C65.8728 56.1194 65.9351 56.0937 65.9058 56.0277C65.8655 55.9378 65.7867 55.8754 65.6822 55.8718Z" fill="#D6B600"/>
<path d="M78.5417 52.7408C78.4995 52.7537 78.4445 52.8215 78.4463 52.8637C78.4482 52.9408 78.494 53.016 78.5911 53.0123C78.6901 53.0086 78.7121 52.9389 78.703 52.8289C78.692 52.7555 78.6223 52.7188 78.5417 52.7408Z" fill="#D6B600"/>
<path d="M127.229 16.8827C127.174 16.5378 127.068 16.2003 126.984 15.8592C126.955 15.7399 126.879 15.6556 126.749 15.7014C126.568 15.7638 126.117 16.525 126.124 16.7616C126.249 17.4476 126.472 18.1245 126.705 18.8087C127.004 19.6909 127.55 20.4357 127.88 21.2886C127.93 21.4188 128.064 21.5124 128.194 21.494C128.456 21.4555 128.707 21.3344 128.863 21.1217C129.008 20.9236 128.817 20.7548 128.714 20.5934C127.983 19.4507 127.446 18.2327 127.229 16.8827Z" fill="#D6B600"/>
<path d="M79.3979 44.5472C79.2733 44.5362 79.2128 44.6444 79.2091 44.7673C79.2054 44.9214 79.2916 45.0094 79.4309 45.0516C79.5556 45.0277 79.6252 44.9525 79.6215 44.826C79.6179 44.6792 79.5446 44.56 79.3979 44.5472Z" fill="#D6B600"/>
<path d="M82.6328 39.8072C82.829 39.9466 83.0306 39.9594 83.3459 39.9044C83.0563 39.7045 82.8455 39.7228 82.6328 39.8072Z" fill="#D6B600"/>
<path d="M82.4521 44.7122C82.3825 44.7085 82.3257 44.7379 82.3165 44.8113C82.3073 44.8865 82.3587 44.9323 82.4301 44.9378C82.498 44.9433 82.5475 44.9085 82.5676 44.8388C82.5658 44.7617 82.5291 44.7177 82.4521 44.7122Z" fill="#D6B600"/>
<path d="M104.967 81.6122C105.032 81.6213 105.085 81.5901 105.114 81.5278C105.136 81.4471 105.081 81.4141 105.022 81.3939C104.96 81.3737 104.887 81.3737 104.859 81.4397C104.819 81.5351 104.872 81.5975 104.967 81.6122Z" fill="#D6B600"/>
<path d="M80.8749 43.5969C80.785 43.6024 80.6897 43.6281 80.7209 43.7382C80.741 43.8115 80.8125 43.9124 80.873 43.9216C80.9573 43.9344 81.0105 43.8244 81.0288 43.7437C81.0563 43.6299 80.961 43.6116 80.8749 43.5969Z" fill="#D6B600"/>
<path d="M106.296 40.4254C106.192 40.5574 106.001 40.5098 105.844 40.5208C105.468 40.5464 105.125 40.7005 104.771 40.8124C104.674 41.2746 104.34 41.2618 103.977 41.2251C103.889 41.216 103.794 41.2967 103.699 41.3205C103.043 41.4838 102.52 41.9221 101.935 42.2248C101.527 42.4357 101.111 42.6705 100.726 42.9493C100.476 43.1309 100.289 43.4097 99.9741 43.5088C99.3911 43.6904 98.9494 44.1985 98.2968 44.2297C98.2125 44.2333 98.0988 44.314 98.0548 44.3911C97.8 44.8331 97.1511 44.8221 96.9696 45.3467C96.9531 45.3962 96.8322 45.4201 96.757 45.4366C96.4766 45.5026 96.2602 45.6329 96.0861 45.8842C95.9688 46.0529 95.7598 46.1923 95.5618 46.262C94.9221 46.4876 94.4418 46.8875 94.0917 47.4598C94.0367 47.5478 93.9451 47.6084 93.8461 47.612C93.5766 47.6212 93.4318 47.7973 93.265 47.9771C93.0505 48.2082 92.8141 48.4155 92.5189 48.5585C92.2916 48.6686 91.9837 48.7988 91.9067 48.9969C91.7087 49.5013 91.2944 49.7013 90.8747 49.9196C90.695 50.0131 90.5905 50.1488 90.4659 50.3103C90.1561 50.712 89.9545 51.187 89.5365 51.5282C89.2249 51.7832 88.9389 52.0473 88.6035 52.2839C88.2424 52.5389 88.0847 53.0837 87.6411 53.3313C87.6503 53.7624 87.3295 53.9825 87.0619 54.2338C86.7118 54.5639 86.567 55.0445 86.226 55.3728C85.8264 55.758 85.4194 56.1249 85.227 56.6697C85.183 56.7944 85.0822 56.9283 84.9685 56.9907C84.7559 57.1117 84.6789 57.2988 84.6056 57.5061C84.4937 57.8289 84.2939 58.1041 84.1106 58.3865C84.0575 58.4691 83.9512 58.5223 83.854 58.4471C83.7605 58.3755 83.7697 58.271 83.8375 58.1848C83.9603 58.027 84.1565 57.8528 84.1271 57.6804C84.0556 57.2676 84.3343 57.0127 84.4754 56.7009C84.6917 56.2203 84.919 55.7489 85.1023 55.2481C85.3131 54.6721 85.8411 54.2191 85.8356 53.5294C85.8356 53.4652 85.9144 53.3955 85.9657 53.3368C86.1032 53.1827 86.1508 52.9956 86.2022 52.7994C86.3781 52.1152 86.6054 51.4402 86.7429 50.7486C86.7979 50.4698 87.0307 50.3268 87.0784 50.0241C87.1609 49.505 87.346 49.0024 87.4047 48.4632C87.4395 48.144 87.5018 47.7918 87.7474 47.5258C87.8648 47.3993 87.8226 47.2287 87.8318 47.0709C87.8556 46.6436 87.8629 46.2327 88.0242 45.7998C88.1801 45.3797 88.3194 44.9157 88.3194 44.4223C88.3194 43.7124 88.4147 42.9989 88.5888 42.3073C88.7098 41.8249 88.862 41.3664 88.6731 40.8674C88.62 40.7262 88.5778 40.5208 88.6402 40.4034C88.8931 39.9246 88.7391 39.4257 88.7886 38.9378C88.8601 38.2518 88.796 37.5749 88.8161 36.8944C88.8308 36.3625 88.5668 35.8397 88.7831 35.3059C88.7996 35.2637 88.7685 35.1757 88.73 35.1445C88.4733 34.9299 88.6292 34.7281 88.7226 34.5062C88.7996 34.3264 88.906 34.1045 88.862 33.9376C88.7281 33.4221 88.8271 32.87 88.653 32.3803C88.4074 31.6924 88.4734 30.9716 88.3139 30.2764C88.1507 29.5683 88.1562 28.831 88.0114 28.1156C87.8758 28.4384 87.7658 28.7723 87.7181 29.13C87.7071 29.2125 87.643 29.2877 87.6026 29.3666C87.1004 30.3644 86.6458 31.3843 86.1692 32.3931C85.6266 33.5395 85.0638 34.6694 84.4516 35.7773C83.579 37.3566 82.591 38.8626 81.647 40.396C81.0971 41.2875 80.2648 41.99 79.9276 43.019C79.9056 43.0869 79.8047 43.1584 79.7278 43.1768C79.4895 43.2318 79.4088 43.4501 79.2512 43.584C78.9872 43.8078 78.8882 44.1288 78.6682 44.3709C78.0761 45.0202 77.4969 45.6787 76.8956 46.3189C76.5345 46.7023 76.1881 47.1278 75.7537 47.4066C75.6968 47.4433 75.6418 47.4836 75.5868 47.5203C75.6767 47.7441 75.7738 47.9642 75.8581 48.1898C76.0194 48.6282 76.1716 49.0813 76.2632 49.5289C76.4044 50.2094 76.2871 50.9486 76.7838 51.5392C76.8077 51.5667 76.8223 51.6199 76.8132 51.6511C76.6683 52.1078 77.1963 52.4362 77.0478 52.8947C77.0368 52.9314 77.0973 52.9975 77.1376 53.0415C77.3942 53.3276 77.6069 53.6266 77.5152 54.0448C77.5042 54.0907 77.5482 54.1586 77.5831 54.2044C77.8928 54.6245 78.0083 55.1362 78.2411 55.5911C78.5014 56.0974 78.6426 56.666 79.0422 57.0971C79.2933 57.3685 79.2163 57.6473 79.1008 57.9372C78.923 57.8968 78.9359 57.7647 78.868 57.7024C78.6591 57.5171 78.7251 57.1961 78.5454 57.0182C78.3218 56.7944 78.0688 56.5761 77.7059 56.6146C77.66 56.2826 77.6655 55.9176 77.4272 55.6627C76.9855 55.1894 76.5675 54.7015 76.2028 54.1677C76.1331 54.065 76.0506 53.9843 75.9461 53.9238C75.6088 53.7275 75.332 53.4927 75.3101 53.0562C75.3064 52.9699 75.2276 52.8727 75.1597 52.8049C74.9599 52.6068 74.6813 52.5261 74.4613 52.3756C74.2414 52.2252 74.322 51.8199 74.0507 51.6383C73.5448 51.2971 73.2313 50.7211 72.6466 50.4717C72.5824 50.4442 72.5146 50.3616 72.4981 50.2937C72.4523 50.0956 72.2946 50.0131 72.1627 49.8994C71.6531 50.2057 71.1361 50.501 70.6229 50.8018C69.7632 51.3081 68.8705 51.7538 67.9447 52.1354C67.0832 52.4912 66.4196 53.2469 65.4444 53.3735C64.4803 54.0338 63.3657 54.408 62.3575 54.984C61.0964 55.703 59.8132 56.3835 58.5484 57.0952C58.7354 57.1723 58.9132 57.2585 59.0635 57.3685C59.6428 57.7922 60.3503 57.9078 60.9332 58.3077C61.1459 58.4526 61.3347 58.7607 61.6537 58.7222C61.9561 58.6855 62.1871 58.7406 62.3759 59.0029C62.4639 59.1239 62.6105 59.2156 62.7957 59.1331C63.0376 59.0267 63.2723 59.3202 63.4849 59.1973C63.8845 58.968 63.7745 59.4046 63.9212 59.4981C64.0128 59.5568 64.1026 59.5696 64.2016 59.5715C64.3208 59.5752 64.4363 59.5788 64.5499 59.6302C65.0943 59.8668 65.6571 60.0429 66.2583 60.0557C66.3555 60.0576 66.4966 60.0154 66.5241 60.1199C66.6488 60.5895 67.0172 60.4941 67.3453 60.496C67.4443 60.496 67.536 60.4905 67.6295 60.5455C67.8733 60.6922 68.1299 60.7821 68.4232 60.6904C68.4874 60.6702 68.5882 60.639 68.6138 60.7546C68.6908 61.0939 69.0024 61.0554 69.2297 61.1104C69.5322 61.1838 69.8566 61.1618 70.1591 61.2315C70.7824 61.3764 71.4753 61.215 72.0362 61.6552C72.104 61.7084 72.2543 61.7304 72.3221 61.6901C72.5513 61.558 72.7401 61.7102 72.9417 61.7469C73.0975 61.7744 73.2607 61.8772 73.4073 61.8166C73.7483 61.6736 74.0764 61.7965 74.4045 61.835C74.6373 61.8625 74.8719 61.9285 75.0882 62.0184C75.2422 62.0826 75.4402 62.1816 75.3632 62.4128C75.2972 62.6127 75.1047 62.587 74.9563 62.5522C74.6336 62.4751 74.3312 62.5613 74.0416 62.6622C73.8986 62.7118 73.7794 62.8163 73.6071 62.8145C73.29 62.8126 72.9692 62.8126 72.6539 62.8512C72.1278 62.9135 71.5687 62.9172 71.0903 63.1098C70.5716 63.3189 70.051 63.3042 69.5359 63.3299C69.1509 63.3501 68.7935 63.3794 68.4507 63.5537C68.2564 63.6527 68.0547 63.7188 67.8384 63.7701C67.3875 63.8765 66.9586 64.0618 66.5168 64.1993C66.2528 64.2819 65.9797 64.4598 65.6992 64.4653C65.3876 64.4727 65.23 64.7863 65.0173 64.7918C64.7369 64.7973 64.4711 64.8413 64.2016 64.8872C64.165 64.8927 64.1356 64.9312 64.099 64.9459C63.4464 65.2082 62.8561 65.6484 62.0973 65.6081C61.9304 65.5989 61.7545 65.6998 61.617 65.8263C61.2687 66.151 60.7774 66.1822 60.376 66.4206C59.9782 66.6573 59.487 66.7398 59.1662 67.1177C59.08 67.2204 58.9719 67.2589 58.8509 67.2461C58.6181 67.2204 58.4274 67.3286 58.2258 67.4111C57.4174 67.7432 56.7429 68.2971 55.995 68.73C55.8593 68.8089 56.0408 69.0382 55.8116 69.0363C55.1847 69.029 54.6898 69.3536 54.2517 69.7352C53.7531 70.1699 53.2032 70.5496 52.6551 70.8834C51.8064 71.4007 51.1281 72.1417 50.2666 72.6113C49.6104 72.9708 49.2309 73.6293 48.5453 73.9705C48.0596 74.2126 47.6435 74.6804 47.319 75.1353C46.9212 75.6947 46.2687 76.0029 45.9497 76.6229C45.9295 76.6632 45.8361 76.6595 45.7939 76.6981C45.4731 76.9897 45.0882 77.2428 44.969 77.6849C44.8884 77.9875 44.6977 78.1233 44.4539 78.2792C44.0781 78.5213 43.6382 78.7139 43.4384 79.156C43.1964 79.6934 42.8262 80.1575 42.3935 80.517C41.5338 81.2287 41.2827 82.2467 40.8886 83.1932C40.7951 83.417 40.7914 83.7068 40.9582 83.9398C41.0939 84.1269 41.1122 84.336 41.1214 84.5597C41.1581 85.486 41.5852 86.1629 42.4375 86.5554C42.5237 86.5958 42.619 86.6526 42.6722 86.7278C43.0113 87.2084 43.5411 87.1974 44.0342 87.2451C44.6042 87.3001 45.1743 87.113 45.7352 87.1534C46.2192 87.1882 46.6298 87.113 47.0312 86.8636C47.1632 86.7829 47.3044 86.7407 47.4803 86.759C48.1219 86.8196 48.78 86.8159 49.3391 86.4765C49.6745 86.2729 49.955 86.4655 50.2483 86.4197C50.5746 86.3702 50.734 85.9996 51.1171 85.9519C51.5058 85.9042 51.9145 85.9024 52.2866 85.7759C52.7211 85.6273 53.1574 85.5136 53.612 85.4549C54.0501 85.398 54.4827 85.2439 54.8456 85.0366C55.3295 84.7597 55.808 84.4882 56.3561 84.446C56.7007 84.4203 56.8437 84.1269 57.126 84.0461C58.3285 83.6995 59.4081 83.0758 60.519 82.5237C60.6436 82.4613 60.7573 82.3641 60.9039 82.388C61.1129 82.4228 61.2155 82.2944 61.3549 82.1734C61.5437 82.0083 61.6885 81.7221 61.9634 81.7331C62.3704 81.7515 62.6508 81.5314 62.9716 81.3516C63.6022 81.0013 64.0935 80.4308 64.8194 80.2272C64.9623 80.1868 65.1805 80.1281 65.2556 79.9465C65.3528 79.7173 65.5636 79.6366 65.7561 79.5485C66.1465 79.3706 66.4178 78.9689 66.8962 78.956C66.9531 78.9542 67.0337 78.8643 67.0594 78.7965C67.2262 78.3801 67.5708 78.204 67.9722 78.1104C68.1592 78.0683 68.2784 77.938 68.425 77.8371C68.9768 77.4556 69.4809 77.0172 69.9996 76.5935C70.5734 76.1258 71.2113 75.7332 71.6054 75.0729C71.6549 74.9903 71.7337 74.9188 71.8107 74.8601C72.3936 74.4236 72.8995 73.9228 73.3523 73.3432C73.6163 73.0057 73.9334 72.6737 74.322 72.415C74.7565 72.1271 75.1762 71.7694 75.3687 71.2338C75.42 71.0925 75.4274 70.8926 75.6015 70.8376C76.0414 70.6982 76.1514 70.3185 76.2779 69.9498C76.3329 69.7939 76.4044 69.6453 76.562 69.5848C77.013 69.4123 77.1761 68.9923 77.4034 68.6291C77.5189 68.4457 77.5831 68.1907 77.7462 68.0825C78.1366 67.822 78.3163 67.4405 78.4978 67.0461C78.5582 66.9159 78.6224 66.7948 78.7654 66.7435C78.8405 66.716 78.923 66.7068 78.9927 66.7545C79.0733 66.8095 79.0752 66.9122 79.0275 66.9654C78.7177 67.3084 78.6774 67.7285 78.6481 68.1595C78.6426 68.2421 78.5454 68.3228 78.4813 68.3961C78.3511 68.5484 78.2778 68.7355 78.1733 68.8987C77.9918 69.1794 78.0157 69.5059 77.8928 69.7975C77.671 70.3185 77.3869 70.8101 77.2311 71.364C77.1468 71.6612 76.8388 71.9216 76.8223 72.2096C76.7655 73.1176 76.2083 73.8843 76.1679 74.7867C76.1661 74.8454 76.1624 74.9243 76.1258 74.9573C75.7756 75.2875 75.8948 75.7351 75.8215 76.1349C75.794 76.289 75.8178 76.4431 75.7335 76.5935C75.4824 77.0447 75.5373 77.6023 75.2441 78.0426C75.2147 78.0866 75.2056 78.16 75.2129 78.215C75.288 78.7084 75.0791 79.1486 74.9838 79.6127C74.8701 80.1648 74.7785 80.7206 74.63 81.2654C74.6006 81.3736 74.6043 81.5259 74.6611 81.6139C74.8298 81.867 74.7491 82.0743 74.5732 82.2559C74.3257 82.5127 74.5603 82.7695 74.5603 83.0226C74.5603 83.3253 74.2359 83.4867 74.333 83.8499C74.6428 85.0036 74.432 86.1959 74.4705 87.3698C74.4888 87.9275 74.4797 88.5144 74.4118 89.0812C74.344 89.6407 74.5787 90.1634 74.52 90.7302C74.4595 91.3153 74.476 91.9335 74.5988 92.5076C74.6776 92.8726 74.8298 93.2138 74.7436 93.5917C74.6923 93.8155 74.6795 94.0044 74.8793 94.1786C75.0241 94.3052 75.0296 94.5033 74.9728 94.6812C74.806 95.1893 75.0021 95.6497 75.1249 96.1266C75.2477 96.6035 75.4237 97.0658 75.5025 97.5574C75.5648 97.9572 75.9296 98.3003 75.7335 98.7551C75.728 98.7662 75.7463 98.7937 75.7591 98.8065C76.0359 99.0743 76.0084 99.4448 76.0029 99.7622C75.9974 100.14 76.1019 100.452 76.2504 100.78C76.3696 101.046 76.496 101.312 76.5785 101.591C77.2164 100.314 77.7902 99.0028 78.5931 97.8142C78.8369 97.4528 79.0092 97.0236 79.3098 96.7228C79.7809 96.2495 80.142 95.6992 80.549 95.182C80.6846 95.0096 80.8203 94.8225 80.9926 94.6941C81.5095 94.3107 81.9036 93.8026 82.349 93.3532C83.1263 92.5682 83.9732 91.8473 84.8604 91.2291C85.9895 90.4404 87.159 89.681 88.4 89.061C88.521 89.0005 88.6402 88.9381 88.7611 88.8739C88.7501 88.7785 88.7226 88.685 88.6603 88.5915C88.6402 88.5621 88.6896 88.4851 88.7098 88.4319C88.84 88.1072 88.7996 87.7697 88.7941 87.4322C88.7831 86.7829 88.7465 86.1317 88.7886 85.486C88.829 84.8496 88.8106 84.2241 88.6585 83.6078C88.5907 83.3344 88.5558 83.0611 88.5485 82.7823C88.5338 82.1899 88.5448 81.5992 88.3377 81.0269C88.2882 80.8894 88.2955 80.6968 88.3524 80.5592C88.4532 80.3152 88.4092 80.1501 88.2076 79.9906C88.0572 79.8713 88.0187 79.6384 87.8006 79.5779C87.7731 79.5705 87.7713 79.4733 87.7584 79.4183C88.1599 79.3449 87.8978 79.0184 87.9729 78.8203C88.0921 78.5011 87.7511 78.171 87.9344 77.8261C87.9418 77.8133 87.8904 77.7638 87.8593 77.7399C87.5513 77.4978 87.4322 77.2043 87.5861 76.821C87.6045 76.7751 87.5861 76.6944 87.5531 76.654C87.3588 76.4119 87.269 76.1184 87.2452 75.8286C87.2232 75.559 86.9189 75.2912 87.2159 75.0105C86.9299 74.6602 87.0765 74.1429 86.7448 73.8091C86.5486 73.6128 86.5028 73.3707 86.5211 73.0956C86.5431 72.7562 86.5156 72.404 86.281 72.1399C86.0958 71.9308 86.0207 71.6978 85.9767 71.4447C85.8466 70.6853 85.4268 70.0158 85.2985 69.2546C85.2893 69.1996 85.2453 69.1464 85.2068 69.1023C84.9538 68.8144 84.7284 68.5172 84.7229 68.1082C84.721 68 84.6386 67.9229 84.5524 67.8771C84.2719 67.7266 84.0923 67.5469 84.2426 67.1929C84.2701 67.1305 84.1968 66.9929 84.1326 66.9287C83.8118 66.6114 83.8833 66.1235 83.6194 65.7713C83.9127 65.8465 84.0483 66.0483 84.1913 66.2702C84.5781 66.8682 84.8732 67.5212 85.4066 68.0348C85.6962 68.3154 85.962 68.7116 86.0207 69.128C86.0555 69.3793 86.1398 69.5114 86.3305 69.5536C86.7338 69.6435 86.9721 69.9039 87.1315 70.2506C87.3478 70.7183 87.7401 71.0577 88.0077 71.4942C88.3047 71.9803 88.9115 72.2518 89.1131 72.8498C89.1314 72.9066 89.2671 72.9158 89.3056 72.9745C89.465 73.2148 89.817 73.2533 89.927 73.4899C90.0461 73.7504 90.2313 73.8549 90.4457 73.998C90.629 74.1191 90.8508 74.2475 90.9498 74.4841C91.0048 74.6162 91.1038 74.7262 91.2486 74.7574C91.6996 74.8509 91.881 75.2031 92.0332 75.5755C92.1047 75.7552 92.167 75.9093 92.4053 75.8561C92.5061 75.8341 92.5134 75.9387 92.5648 75.9845C92.8306 76.2175 93.1147 76.4192 93.2943 76.7457C93.4171 76.9695 93.5821 76.566 93.7599 76.7256C93.8937 76.8448 93.6408 76.986 93.8736 77.1603C94.4473 77.5895 95.0779 77.9307 95.6168 78.4223C96.2456 78.9946 97.0521 79.3614 97.6809 79.9576C97.7304 80.0052 97.8312 80.0126 97.9082 80.0144C98.1061 80.0181 98.2528 80.1355 98.3738 80.2584C98.8119 80.7041 99.3911 80.9334 99.8897 81.2837C100.586 81.7753 101.466 81.8707 102.165 82.3678C102.693 82.7438 103.252 83.0758 103.926 83.1345C104.014 83.1418 104.091 83.2409 104.181 83.2849C104.731 83.5619 105.27 83.8627 105.834 84.0993C106.395 84.3341 107.092 84.2259 107.534 84.7725C107.565 84.811 107.642 84.8312 107.697 84.8312C108.274 84.833 108.749 85.1687 109.273 85.3338C109.644 85.4494 110.049 85.5172 110.375 85.7538C110.619 85.9299 110.892 85.9538 111.167 85.9336C111.592 85.9043 111.97 86.0033 112.355 86.1886C112.945 86.4729 113.607 86.5114 114.245 86.6086C114.518 86.6508 114.782 86.6691 115.036 86.7939C115.577 87.0617 116.182 87.025 116.756 87.0617C117.117 87.0855 117.535 87.0268 117.839 87.1424C118.235 87.2946 118.637 87.2763 119.034 87.2708C119.084 87.1699 119.133 87.0672 119.186 86.9663C119.337 86.682 119.326 86.4178 119.078 86.1225C118.4 85.3154 117.759 84.4772 117.132 83.6298C116.167 82.3256 115.242 80.9921 114.4 79.6072C114.092 79.1028 113.651 78.6626 113.476 78.0976C113.18 77.1383 112.553 76.3606 112.133 75.4709C111.807 74.7812 111.566 74.0402 111.093 73.4221C111.042 73.356 111.031 73.2588 111.005 73.1744C110.786 72.4847 110.527 71.8061 110.199 71.1641C110.063 70.8999 109.942 70.6285 109.83 70.357C109.59 70.1644 109.334 69.9993 108.998 69.9663C108.934 69.9608 108.91 69.9113 108.916 69.8416C108.932 69.5994 108.714 69.5646 108.569 69.4986C108.243 69.3481 107.955 69.1372 107.645 68.9611C106.912 68.5429 106.274 67.9523 105.426 67.7432C105.35 67.7248 105.281 67.679 105.213 67.6404C104.573 67.2846 103.935 66.9269 103.297 66.5711C102.5 66.1253 101.644 65.797 100.782 65.52C100.498 65.4283 100.26 65.1513 99.9227 65.2302C99.7119 65.2797 99.5469 65.1972 99.3618 65.1073C98.9127 64.889 98.5039 64.5864 98.0017 64.48C97.7322 64.4231 97.4884 64.2654 97.2043 64.2727C96.7002 64.2874 96.2199 64.1627 95.7452 64.0269C95.1806 63.8673 94.6178 63.6968 94.0661 63.4968C93.7636 63.3868 93.4428 63.4528 93.1403 63.3079C92.5519 63.0236 91.8847 63.0089 91.2633 62.8273C91.091 62.7778 90.8985 62.7851 90.7335 62.8512C90.5081 62.9392 90.3083 62.9099 90.1048 62.8016C89.6887 62.5815 89.2579 62.5338 88.7831 62.5577C88.0957 62.5907 87.4028 62.5247 86.7136 62.4935C86.5944 62.488 86.457 62.4568 86.4698 62.2972C86.4808 62.1688 86.5908 62.0899 86.7099 62.0679C86.7796 62.0551 86.8657 62.0844 86.9336 62.1175C87.0252 62.1615 87.0894 62.178 87.2012 62.1358C87.8263 61.8955 88.5412 62.1816 89.1534 61.8185C89.1919 61.7946 89.2762 61.8185 89.3239 61.846C89.5933 62.0019 89.8591 61.8717 90.1286 61.8662C90.772 61.8533 91.3586 61.5818 91.9892 61.536C92.2348 61.5176 92.4768 61.5672 92.7169 61.4021C93.3805 60.9417 94.209 60.982 94.9514 60.7509C95.3565 60.6262 95.813 60.5253 96.2511 60.4464C96.8542 60.3364 97.4444 60.1218 98.0658 60.0576C98.1428 60.0502 98.2418 60.0521 98.2913 60.008C98.7037 59.632 99.25 59.5788 99.7431 59.4009C100.053 59.289 100.416 59.2963 100.605 58.946C100.632 58.8928 100.742 58.8598 100.814 58.8598C101.327 58.8506 101.813 58.6415 102.203 58.3902C102.733 58.049 103.277 57.8088 103.862 57.6015C104.278 57.4529 104.659 57.1888 105.046 56.9503C105.482 56.6788 105.985 56.5138 106.434 56.2276C106.401 55.7911 106.368 55.3545 106.326 54.9198C106.221 53.8669 106.179 52.8085 106.243 51.7575C106.313 50.6294 106.122 49.483 106.445 48.3714C106.458 48.3311 106.45 48.2834 106.452 48.2394C106.513 47.1186 106.573 45.9942 106.909 44.9157C107.132 44.1966 107.057 43.4189 107.341 42.7256C107.754 41.7277 107.864 40.651 108.234 39.633C108.236 39.6293 108.236 39.6256 108.238 39.622C108.234 39.622 108.232 39.6238 108.228 39.6238C107.563 39.8182 106.789 39.7981 106.296 40.4254ZM78.5912 53.014C78.4959 53.0176 78.4483 52.9424 78.4464 52.8654C78.4446 52.8232 78.4996 52.7553 78.5418 52.7425C78.6224 52.7205 78.6921 52.7572 78.7031 52.8324C78.7122 52.9388 78.6902 53.0103 78.5912 53.014ZM65.8111 56.1231C65.7066 56.1176 65.6223 56.0754 65.5893 55.9726C65.5673 55.9011 65.6223 55.8699 65.6827 55.8718C65.7872 55.8773 65.8661 55.9378 65.9046 56.0277C65.9339 56.0937 65.8734 56.1194 65.8111 56.1231ZM68.5625 53.9935C68.5038 54.0026 68.447 53.9733 68.4305 53.9128C68.414 53.8522 68.4525 53.8082 68.5112 53.7954C68.5753 53.7807 68.6157 53.8174 68.6413 53.8742C68.6487 53.9348 68.6212 53.9843 68.5625 53.9935ZM73.4311 54.9014C73.378 54.9069 73.312 54.9051 73.3083 54.8336C73.3065 54.8097 73.3597 54.7602 73.3798 54.7657C73.4293 54.7767 73.4733 54.8116 73.5265 54.8391C73.4843 54.8666 73.4605 54.8978 73.4311 54.9014ZM43.1433 85.0935C43.0571 85.0568 42.9691 85.0275 42.8885 84.9816C42.8592 84.9651 42.8811 84.9137 42.9288 84.9027C43.0296 84.8771 43.1176 84.8972 43.1726 84.9981C43.1634 85.0293 43.1543 85.0605 43.1433 85.0935ZM50.6717 79.466C50.679 79.3614 50.7194 79.3174 50.7762 79.3064C50.9412 79.2752 51.086 79.1541 51.3408 79.1963C51.1446 79.4366 50.921 79.4715 50.6717 79.466ZM52.5084 83.6921C52.4351 83.6921 52.3508 83.6976 52.3233 83.6041C52.3068 83.5454 52.3233 83.4812 52.382 83.4628C52.5011 83.4243 52.5359 83.5399 52.5983 83.5967C52.6221 83.683 52.5616 83.694 52.5084 83.6921ZM53.0675 85.0183C52.9685 85.0807 52.8567 85.1265 52.7486 85.0201C52.6936 84.9651 52.6276 84.9193 52.6496 84.8294C52.7083 84.7285 52.7889 84.7762 52.8457 84.8147C52.9355 84.8734 53.0785 84.657 53.1225 84.8679C53.1317 84.9138 53.1042 84.9963 53.0675 85.0183ZM58.6914 74.3887C58.6034 74.3942 58.4824 74.4309 58.4751 74.2805C58.4714 74.2053 58.4916 74.1264 58.5778 74.0897C58.6657 74.1246 58.7702 74.1448 58.8087 74.2438C58.8454 74.3392 58.7757 74.385 58.6914 74.3887ZM59.3275 82.0339C59.1753 82.0303 59.2762 81.8689 59.1992 81.8432C59.1863 81.7716 59.2175 81.7331 59.2432 81.757C59.311 81.8193 59.366 81.8982 59.366 81.9973C59.366 82.0101 59.3403 82.0339 59.3275 82.0339ZM63.2814 73.8568C63.2649 73.8384 63.2704 73.7669 63.2888 73.7559C63.4079 73.6843 63.4886 73.8036 63.593 73.8476C63.4886 73.8806 63.3786 73.965 63.2814 73.8568ZM72.8574 64.3241C72.7089 64.0416 72.7401 63.8508 72.9325 63.6876C73.0957 63.9407 73.0957 63.9407 72.8574 64.3241ZM75.6492 62.4751C75.7848 62.1927 75.9571 62.1523 76.2449 62.2293C76.0689 62.4825 75.882 62.4568 75.6492 62.4751ZM76.9873 62.3174C76.8443 62.3229 76.7527 62.31 76.771 62.1743C76.7747 62.1541 76.8333 62.1174 76.8498 62.1248C76.9433 62.1688 77.068 62.1651 77.1138 62.2862C77.0588 62.3009 77.0038 62.3137 76.9873 62.3174ZM77.5739 58.2985C77.4731 58.3132 77.4511 58.2251 77.4199 58.1554C77.3997 58.1114 77.4163 58.0711 77.4639 58.0655C77.5647 58.0527 77.5959 58.1279 77.6234 58.2031C77.6051 58.2361 77.5941 58.2948 77.5739 58.2985ZM79.0605 66.5069C79.066 66.2739 79.22 66.2464 79.3758 66.1345C79.3868 66.4206 79.2731 66.4903 79.0605 66.5069ZM79.5023 58.5846C79.3501 58.6177 79.363 58.4893 79.3611 58.3994C79.3593 58.3242 79.3776 58.2508 79.3923 58.1426C79.5444 58.2105 79.5793 58.2783 79.6013 58.3517C79.6306 58.4544 79.6214 58.5571 79.5023 58.5846ZM79.4326 45.0514C79.2933 45.0092 79.209 44.9212 79.2108 44.7671C79.2127 44.6424 79.2732 44.536 79.3996 44.547C79.5463 44.5598 79.6178 44.679 79.6233 44.8258C79.6251 44.9524 79.5554 45.0276 79.4326 45.0514ZM81.0292 43.7454C81.0109 43.8261 80.9577 43.9362 80.8734 43.9233C80.8129 43.9142 80.7414 43.8133 80.7213 43.7399C80.6901 43.6298 80.7854 43.6042 80.8753 43.5987C80.9614 43.6115 81.0567 43.6298 81.0292 43.7454ZM81.1227 77.7014C81.0751 77.6134 81.0274 77.5271 81.1227 77.4171C81.3097 77.4905 81.3354 77.6354 81.35 77.8004C81.2089 77.8298 81.1612 77.7729 81.1227 77.7014ZM88.323 84.1342C88.3964 84.1122 88.4239 84.1709 88.433 84.2332C88.4312 84.2883 88.4349 84.3598 88.356 84.3525C88.2827 84.347 88.1892 84.325 88.1929 84.2296C88.1947 84.1966 88.2717 84.1507 88.323 84.1342ZM86.3506 82.8942C86.369 82.8043 86.446 82.7878 86.5266 82.775C86.5725 82.7842 86.6549 82.764 86.6183 82.8594C86.589 82.9327 86.5248 82.9786 86.446 82.9914C86.3727 83.0043 86.3378 82.9621 86.3506 82.8942ZM86.1233 89.1564C86.204 89.1693 86.2718 89.2078 86.2737 89.294C86.2737 89.3655 86.2095 89.3802 86.1527 89.3563C86.1013 89.3362 86.0299 89.3068 86.017 89.2646C86.0005 89.2078 86.0629 89.1711 86.1233 89.1564ZM85.2105 85.9831C85.216 85.9208 85.249 85.8731 85.3131 85.8676C85.4121 85.8584 85.4598 85.9354 85.4561 86.0125C85.4524 86.0877 85.4011 86.1555 85.3058 86.1592C85.2086 86.1354 85.2031 86.062 85.2105 85.9831ZM84.7815 87.5936C84.787 87.656 84.7467 87.7018 84.6862 87.7239C84.6532 87.711 84.6001 87.7055 84.5927 87.6853C84.5634 87.5936 84.6129 87.5404 84.7009 87.5349C84.7265 87.5312 84.7797 87.5698 84.7815 87.5936ZM84.4992 74.1741C84.5817 74.1906 84.6441 74.2346 84.6679 74.3153C84.6697 74.3245 84.6147 74.3649 84.5854 74.3649C84.5011 74.3685 84.4259 74.3429 84.4296 74.2401C84.4296 74.2181 84.4754 74.1961 84.4992 74.1741ZM84.0006 90.5101C84.0263 90.4221 84.0336 90.3285 84.0575 90.1946C84.2408 90.3193 84.2389 90.4367 84.2188 90.5486C84.2005 90.6495 84.2188 90.8201 84.052 90.7853C83.8852 90.7504 83.9695 90.6165 84.0006 90.5101ZM82.4297 44.9377C82.3582 44.9322 82.3069 44.8882 82.3161 44.8111C82.3252 44.7396 82.382 44.7084 82.4517 44.7121C82.5269 44.7157 82.5653 44.7616 82.5672 44.8368C82.547 44.9083 82.4975 44.9432 82.4297 44.9377ZM82.6332 39.8072C82.8476 39.7229 83.0566 39.7045 83.3462 39.9044C83.0309 39.9613 82.8293 39.9466 82.6332 39.8072ZM104.857 81.4396C104.885 81.3736 104.96 81.3736 105.021 81.3938C105.081 81.414 105.134 81.447 105.112 81.5277C105.083 81.5882 105.03 81.6212 104.966 81.6121C104.872 81.5974 104.819 81.535 104.857 81.4396ZM92.5134 66.5747C92.5886 66.5876 92.6601 66.6059 92.6729 66.6995C92.6491 66.7581 92.6088 66.7948 92.5446 66.7967C92.4584 66.8003 92.3943 66.7618 92.398 66.6701C92.3998 66.6096 92.4401 66.5619 92.5134 66.5747ZM92.2128 73.4697C92.2806 73.3817 92.1853 73.2148 92.3558 73.1836C92.5006 73.2716 92.3906 73.4 92.409 73.5083C92.4328 73.6403 92.3613 73.7119 92.2513 73.6935C92.0882 73.6642 92.1597 73.5394 92.2128 73.4697ZM90.8545 70.999C90.9737 70.9825 91.014 71.0779 91.0561 71.1659C91.0836 71.2246 91.0745 71.2998 91.0085 71.3108C90.8692 71.3365 90.7904 71.2448 90.7537 71.1255C90.7354 71.0668 90.7867 71.0228 90.8545 70.999ZM100.639 50.0003C100.579 49.9764 100.562 49.9232 100.597 49.87C100.614 49.8444 100.66 49.8205 100.689 49.8242C100.755 49.8315 100.781 49.881 100.779 49.9452C100.749 50.0039 100.698 50.0223 100.639 50.0003ZM102.74 46.6252C102.716 46.7078 102.709 46.8472 102.573 46.7958C102.491 46.7646 102.52 46.6546 102.557 46.5849C102.594 46.517 102.647 46.4583 102.694 46.3941C102.768 46.4693 102.76 46.5518 102.74 46.6252ZM104.546 49.6628C104.724 49.4848 104.879 49.56 105.039 49.6499C104.872 49.7655 104.7 49.6004 104.546 49.6628ZM106.216 45.6952C106.159 45.7117 106.098 45.7026 106.071 45.6475C106.062 45.6274 106.086 45.5705 106.109 45.5577C106.166 45.5265 106.214 45.5577 106.249 45.609C106.272 45.6494 106.261 45.6824 106.216 45.6952Z" fill="#D6B600"/>
</svg>
