<svg width="257" height="33" viewBox="0 0 257 33" fill="none" xmlns="http://www.w3.org/2000/svg">
<path d="M4.14893 7.18604H1.64404V11.5H0.230469V0.835938H3.76074C4.96191 0.835938 5.88477 1.10937 6.5293 1.65625C7.17871 2.20313 7.50342 2.99902 7.50342 4.04395C7.50342 4.70801 7.32275 5.28662 6.96143 5.77979C6.60498 6.27295 6.10693 6.6416 5.46729 6.88574L7.97217 11.4121V11.5H6.46338L4.14893 7.18604ZM1.64404 6.03613H3.80469C4.50293 6.03613 5.05713 5.85547 5.46729 5.49414C5.88232 5.13281 6.08984 4.64941 6.08984 4.04395C6.08984 3.38477 5.89209 2.87939 5.49658 2.52783C5.10596 2.17627 4.53955 1.99805 3.79736 1.99316H1.64404V6.03613ZM12.5571 11.6465C11.4829 11.6465 10.6089 11.2949 9.93506 10.5918C9.26123 9.88379 8.92432 8.93896 8.92432 7.75732V7.5083C8.92432 6.72217 9.07324 6.02148 9.37109 5.40625C9.67383 4.78613 10.0938 4.30273 10.6309 3.95605C11.1729 3.60449 11.7588 3.42871 12.3887 3.42871C13.4189 3.42871 14.2197 3.76807 14.791 4.44678C15.3623 5.12549 15.6479 6.09717 15.6479 7.36182V7.92578H10.2793C10.2988 8.70703 10.5259 9.33936 10.9604 9.82275C11.3999 10.3013 11.9565 10.5405 12.6304 10.5405C13.1089 10.5405 13.5142 10.4429 13.8462 10.2476C14.1782 10.0522 14.4688 9.79346 14.7178 9.47119L15.5454 10.1157C14.8813 11.1362 13.8853 11.6465 12.5571 11.6465ZM12.3887 4.54199C11.8418 4.54199 11.3828 4.74219 11.0117 5.14258C10.6406 5.53809 10.4111 6.09473 10.3232 6.8125H14.293V6.70996C14.2539 6.02148 14.0684 5.48926 13.7363 5.11328C13.4043 4.73242 12.9551 4.54199 12.3887 4.54199ZM20.4014 10.5405C20.8848 10.5405 21.3071 10.394 21.6685 10.1011C22.0298 9.80811 22.23 9.44189 22.269 9.00244H23.5508C23.5264 9.45654 23.3701 9.88867 23.082 10.2988C22.7939 10.709 22.4082 11.0361 21.9248 11.2803C21.4463 11.5244 20.9385 11.6465 20.4014 11.6465C19.3223 11.6465 18.4629 11.2876 17.8232 10.5698C17.1885 9.84717 16.8711 8.86084 16.8711 7.61084V7.38379C16.8711 6.6123 17.0127 5.92627 17.2959 5.32568C17.5791 4.7251 17.9844 4.25879 18.5117 3.92676C19.0439 3.59473 19.6714 3.42871 20.394 3.42871C21.2827 3.42871 22.02 3.69482 22.606 4.22705C23.1968 4.75928 23.5117 5.4502 23.5508 6.2998H22.269C22.23 5.78711 22.0347 5.36719 21.6831 5.04004C21.3364 4.70801 20.9067 4.54199 20.394 4.54199C19.7056 4.54199 19.1709 4.79102 18.79 5.28906C18.4141 5.78223 18.2261 6.49756 18.2261 7.43506V7.69141C18.2261 8.60449 18.4141 9.30762 18.79 9.80078C19.166 10.2939 19.7031 10.5405 20.4014 10.5405ZM24.7153 7.46436C24.7153 6.68799 24.8667 5.98975 25.1694 5.36963C25.4771 4.74951 25.9019 4.271 26.4438 3.93408C26.9907 3.59717 27.6133 3.42871 28.3115 3.42871C29.3906 3.42871 30.2622 3.80225 30.9263 4.54932C31.5952 5.29639 31.9297 6.29004 31.9297 7.53027V7.62549C31.9297 8.39697 31.7808 9.09033 31.4829 9.70557C31.1899 10.3159 30.7676 10.792 30.2158 11.1338C29.6689 11.4756 29.0391 11.6465 28.3262 11.6465C27.252 11.6465 26.3804 11.2729 25.7114 10.5259C25.0474 9.77881 24.7153 8.79004 24.7153 7.55957V7.46436ZM26.0776 7.62549C26.0776 8.50439 26.2803 9.20996 26.6855 9.74219C27.0957 10.2744 27.6426 10.5405 28.3262 10.5405C29.0146 10.5405 29.5615 10.272 29.9668 9.73486C30.3721 9.19287 30.5747 8.43604 30.5747 7.46436C30.5747 6.59521 30.3672 5.89209 29.9521 5.35498C29.542 4.81299 28.9951 4.54199 28.3115 4.54199C27.6426 4.54199 27.103 4.80811 26.6929 5.34033C26.2827 5.87256 26.0776 6.63428 26.0776 7.62549ZM37.4595 4.79102C37.2544 4.75684 37.0322 4.73975 36.793 4.73975C35.9043 4.73975 35.3013 5.11816 34.9839 5.875V11.5H33.6289V3.5752H34.9473L34.9692 4.49072C35.4136 3.78271 36.0435 3.42871 36.8589 3.42871C37.1226 3.42871 37.3228 3.46289 37.4595 3.53125V4.79102ZM41.854 11.6465C40.7798 11.6465 39.9058 11.2949 39.2319 10.5918C38.5581 9.88379 38.2212 8.93896 38.2212 7.75732V7.5083C38.2212 6.72217 38.3701 6.02148 38.668 5.40625C38.9707 4.78613 39.3906 4.30273 39.9277 3.95605C40.4697 3.60449 41.0557 3.42871 41.6855 3.42871C42.7158 3.42871 43.5166 3.76807 44.0879 4.44678C44.6592 5.12549 44.9448 6.09717 44.9448 7.36182V7.92578H39.5762C39.5957 8.70703 39.8228 9.33936 40.2573 9.82275C40.6968 10.3013 41.2534 10.5405 41.9272 10.5405C42.4058 10.5405 42.811 10.4429 43.1431 10.2476C43.4751 10.0522 43.7656 9.79346 44.0146 9.47119L44.8423 10.1157C44.1782 11.1362 43.1821 11.6465 41.854 11.6465ZM41.6855 4.54199C41.1387 4.54199 40.6797 4.74219 40.3086 5.14258C39.9375 5.53809 39.708 6.09473 39.6201 6.8125H43.5898V6.70996C43.5508 6.02148 43.3652 5.48926 43.0332 5.11328C42.7012 4.73242 42.252 4.54199 41.6855 4.54199ZM50.3501 4.79102C50.145 4.75684 49.9229 4.73975 49.6836 4.73975C48.7949 4.73975 48.1919 5.11816 47.8745 5.875V11.5H46.5195V3.5752H47.8379L47.8599 4.49072C48.3042 3.78271 48.9341 3.42871 49.7495 3.42871C50.0132 3.42871 50.2134 3.46289 50.3501 3.53125V4.79102ZM54.7446 11.6465C53.6704 11.6465 52.7964 11.2949 52.1226 10.5918C51.4487 9.88379 51.1118 8.93896 51.1118 7.75732V7.5083C51.1118 6.72217 51.2607 6.02148 51.5586 5.40625C51.8613 4.78613 52.2812 4.30273 52.8184 3.95605C53.3604 3.60449 53.9463 3.42871 54.5762 3.42871C55.6064 3.42871 56.4072 3.76807 56.9785 4.44678C57.5498 5.12549 57.8354 6.09717 57.8354 7.36182V7.92578H52.4668C52.4863 8.70703 52.7134 9.33936 53.1479 9.82275C53.5874 10.3013 54.144 10.5405 54.8179 10.5405C55.2964 10.5405 55.7017 10.4429 56.0337 10.2476C56.3657 10.0522 56.6562 9.79346 56.9053 9.47119L57.7329 10.1157C57.0688 11.1362 56.0728 11.6465 54.7446 11.6465ZM54.5762 4.54199C54.0293 4.54199 53.5703 4.74219 53.1992 5.14258C52.8281 5.53809 52.5986 6.09473 52.5107 6.8125H56.4805V6.70996C56.4414 6.02148 56.2559 5.48926 55.9238 5.11328C55.5918 4.73242 55.1426 4.54199 54.5762 4.54199ZM60.6846 3.5752L60.7212 4.4541C61.3022 3.77051 62.0859 3.42871 63.0723 3.42871C64.1807 3.42871 64.9351 3.85352 65.3354 4.70312C65.5991 4.32227 65.9409 4.01465 66.3608 3.78027C66.7856 3.5459 67.2861 3.42871 67.8623 3.42871C69.6006 3.42871 70.4844 4.34912 70.5137 6.18994V11.5H69.1587V6.27051C69.1587 5.7041 69.0293 5.28174 68.7705 5.00342C68.5117 4.72021 68.0771 4.57861 67.4668 4.57861C66.9639 4.57861 66.5464 4.72998 66.2144 5.03271C65.8823 5.33057 65.6895 5.7334 65.6357 6.24121V11.5H64.2734V6.30713C64.2734 5.15479 63.7095 4.57861 62.5815 4.57861C61.6929 4.57861 61.085 4.95703 60.7578 5.71387V11.5H59.4028V3.5752H60.6846ZM72.2056 7.46436C72.2056 6.68799 72.3569 5.98975 72.6597 5.36963C72.9673 4.74951 73.3921 4.271 73.9341 3.93408C74.481 3.59717 75.1035 3.42871 75.8018 3.42871C76.8809 3.42871 77.7524 3.80225 78.4165 4.54932C79.0854 5.29639 79.4199 6.29004 79.4199 7.53027V7.62549C79.4199 8.39697 79.271 9.09033 78.9731 9.70557C78.6802 10.3159 78.2578 10.792 77.7061 11.1338C77.1592 11.4756 76.5293 11.6465 75.8164 11.6465C74.7422 11.6465 73.8706 11.2729 73.2017 10.5259C72.5376 9.77881 72.2056 8.79004 72.2056 7.55957V7.46436ZM73.5679 7.62549C73.5679 8.50439 73.7705 9.20996 74.1758 9.74219C74.5859 10.2744 75.1328 10.5405 75.8164 10.5405C76.5049 10.5405 77.0518 10.272 77.457 9.73486C77.8623 9.19287 78.0649 8.43604 78.0649 7.46436C78.0649 6.59521 77.8574 5.89209 77.4424 5.35498C77.0322 4.81299 76.4854 4.54199 75.8018 4.54199C75.1328 4.54199 74.5933 4.80811 74.1831 5.34033C73.7729 5.87256 73.5679 6.63428 73.5679 7.62549ZM85.7334 9.39795C85.7334 9.03174 85.5942 8.74854 85.3159 8.54834C85.0425 8.34326 84.5615 8.16748 83.873 8.021C83.1895 7.87451 82.645 7.69873 82.2397 7.49365C81.8394 7.28857 81.5415 7.04443 81.3462 6.76123C81.1558 6.47803 81.0605 6.14111 81.0605 5.75049C81.0605 5.10107 81.334 4.55176 81.8809 4.10254C82.4326 3.65332 83.1357 3.42871 83.9902 3.42871C84.8887 3.42871 85.6162 3.66064 86.1729 4.12451C86.7344 4.58838 87.0151 5.18164 87.0151 5.9043H85.6528C85.6528 5.5332 85.4941 5.21338 85.1768 4.94482C84.8643 4.67627 84.4688 4.54199 83.9902 4.54199C83.4971 4.54199 83.1113 4.64941 82.833 4.86426C82.5547 5.0791 82.4155 5.35986 82.4155 5.70654C82.4155 6.03369 82.5449 6.28027 82.8037 6.44629C83.0625 6.6123 83.5288 6.771 84.2026 6.92236C84.8813 7.07373 85.4307 7.25439 85.8506 7.46436C86.2705 7.67432 86.5806 7.92822 86.7808 8.22607C86.9858 8.51904 87.0884 8.87793 87.0884 9.30273C87.0884 10.0107 86.8052 10.5796 86.2388 11.0093C85.6724 11.4341 84.9375 11.6465 84.0342 11.6465C83.3994 11.6465 82.8379 11.5342 82.3496 11.3096C81.8613 11.085 81.478 10.7725 81.1997 10.3721C80.9263 9.9668 80.7896 9.52979 80.7896 9.06104H82.1445C82.1689 9.51514 82.3496 9.87646 82.6865 10.145C83.0283 10.4087 83.4775 10.5405 84.0342 10.5405C84.5469 10.5405 84.957 10.438 85.2646 10.2329C85.5771 10.0229 85.7334 9.74463 85.7334 9.39795ZM93.9731 3.5752V12.4155C93.9731 13.939 93.2822 14.7007 91.9004 14.7007C91.6025 14.7007 91.3267 14.6567 91.0728 14.5688V13.4849C91.229 13.5239 91.4341 13.5435 91.688 13.5435C91.9907 13.5435 92.2202 13.4604 92.3765 13.2944C92.5376 13.1333 92.6182 12.8501 92.6182 12.4448V3.5752H93.9731ZM92.479 1.47314C92.479 1.2583 92.5449 1.0752 92.6768 0.923828C92.8135 0.767578 93.0112 0.689453 93.27 0.689453C93.5337 0.689453 93.7339 0.765137 93.8706 0.916504C94.0073 1.06787 94.0757 1.25342 94.0757 1.47314C94.0757 1.69287 94.0073 1.87598 93.8706 2.02246C93.7339 2.16895 93.5337 2.24219 93.27 2.24219C93.0063 2.24219 92.8086 2.16895 92.6768 2.02246C92.5449 1.87598 92.479 1.69287 92.479 1.47314ZM101.056 10.7163C100.528 11.3364 99.7544 11.6465 98.7339 11.6465C97.8892 11.6465 97.2446 11.4023 96.8003 10.9141C96.3608 10.4209 96.1387 9.69336 96.1338 8.73145V3.5752H97.4888V8.69482C97.4888 9.896 97.9771 10.4966 98.9536 10.4966C99.9888 10.4966 100.677 10.1108 101.019 9.33936V3.5752H102.374V11.5H101.085L101.056 10.7163ZM105.721 3.5752L105.765 4.57129C106.371 3.80957 107.162 3.42871 108.138 3.42871C109.813 3.42871 110.658 4.37354 110.672 6.26318V11.5H109.317V6.25586C109.312 5.68457 109.181 5.26221 108.922 4.98877C108.668 4.71533 108.27 4.57861 107.728 4.57861C107.289 4.57861 106.903 4.6958 106.571 4.93018C106.239 5.16455 105.98 5.47217 105.794 5.85303V11.5H104.439V3.5752H105.721ZM114.554 1.65625V3.5752H116.034V4.62256H114.554V9.53711C114.554 9.85449 114.62 10.0938 114.752 10.2549C114.884 10.4111 115.108 10.4893 115.426 10.4893C115.582 10.4893 115.797 10.46 116.07 10.4014V11.5C115.714 11.5977 115.367 11.6465 115.03 11.6465C114.425 11.6465 113.968 11.4634 113.661 11.0972C113.353 10.731 113.199 10.2109 113.199 9.53711V4.62256H111.756V3.5752H113.199V1.65625H114.554ZM117.118 7.46436C117.118 6.68799 117.269 5.98975 117.572 5.36963C117.879 4.74951 118.304 4.271 118.846 3.93408C119.393 3.59717 120.016 3.42871 120.714 3.42871C121.793 3.42871 122.665 3.80225 123.329 4.54932C123.998 5.29639 124.332 6.29004 124.332 7.53027V7.62549C124.332 8.39697 124.183 9.09033 123.885 9.70557C123.592 10.3159 123.17 10.792 122.618 11.1338C122.071 11.4756 121.441 11.6465 120.729 11.6465C119.654 11.6465 118.783 11.2729 118.114 10.5259C117.45 9.77881 117.118 8.79004 117.118 7.55957V7.46436ZM118.48 7.62549C118.48 8.50439 118.683 9.20996 119.088 9.74219C119.498 10.2744 120.045 10.5405 120.729 10.5405C121.417 10.5405 121.964 10.272 122.369 9.73486C122.774 9.19287 122.977 8.43604 122.977 7.46436C122.977 6.59521 122.77 5.89209 122.354 5.35498C121.944 4.81299 121.397 4.54199 120.714 4.54199C120.045 4.54199 119.505 4.80811 119.095 5.34033C118.685 5.87256 118.48 6.63428 118.48 7.62549ZM131.034 3.5752L131.078 4.57129C131.683 3.80957 132.474 3.42871 133.451 3.42871C135.125 3.42871 135.97 4.37354 135.985 6.26318V11.5H134.63V6.25586C134.625 5.68457 134.493 5.26221 134.234 4.98877C133.98 4.71533 133.583 4.57861 133.041 4.57861C132.601 4.57861 132.215 4.6958 131.883 4.93018C131.551 5.16455 131.292 5.47217 131.107 5.85303V11.5H129.752V3.5752H131.034ZM142.921 10.7163C142.394 11.3364 141.62 11.6465 140.599 11.6465C139.754 11.6465 139.11 11.4023 138.666 10.9141C138.226 10.4209 138.004 9.69336 137.999 8.73145V3.5752H139.354V8.69482C139.354 9.896 139.842 10.4966 140.819 10.4966C141.854 10.4966 142.542 10.1108 142.884 9.33936V3.5752H144.239V11.5H142.95L142.921 10.7163ZM149.593 11.6465C148.519 11.6465 147.645 11.2949 146.971 10.5918C146.297 9.88379 145.96 8.93896 145.96 7.75732V7.5083C145.96 6.72217 146.109 6.02148 146.407 5.40625C146.71 4.78613 147.13 4.30273 147.667 3.95605C148.209 3.60449 148.795 3.42871 149.425 3.42871C150.455 3.42871 151.256 3.76807 151.827 4.44678C152.398 5.12549 152.684 6.09717 152.684 7.36182V7.92578H147.315C147.335 8.70703 147.562 9.33936 147.997 9.82275C148.436 10.3013 148.993 10.5405 149.667 10.5405C150.145 10.5405 150.55 10.4429 150.882 10.2476C151.214 10.0522 151.505 9.79346 151.754 9.47119L152.582 10.1157C151.917 11.1362 150.921 11.6465 149.593 11.6465ZM149.425 4.54199C148.878 4.54199 148.419 4.74219 148.048 5.14258C147.677 5.53809 147.447 6.09473 147.359 6.8125H151.329V6.70996C151.29 6.02148 151.104 5.48926 150.772 5.11328C150.44 4.73242 149.991 4.54199 149.425 4.54199ZM158.873 9.39795C158.873 9.03174 158.734 8.74854 158.456 8.54834C158.182 8.34326 157.701 8.16748 157.013 8.021C156.329 7.87451 155.785 7.69873 155.379 7.49365C154.979 7.28857 154.681 7.04443 154.486 6.76123C154.295 6.47803 154.2 6.14111 154.2 5.75049C154.2 5.10107 154.474 4.55176 155.021 4.10254C155.572 3.65332 156.275 3.42871 157.13 3.42871C158.028 3.42871 158.756 3.66064 159.312 4.12451C159.874 4.58838 160.155 5.18164 160.155 5.9043H158.792C158.792 5.5332 158.634 5.21338 158.316 4.94482C158.004 4.67627 157.608 4.54199 157.13 4.54199C156.637 4.54199 156.251 4.64941 155.973 4.86426C155.694 5.0791 155.555 5.35986 155.555 5.70654C155.555 6.03369 155.685 6.28027 155.943 6.44629C156.202 6.6123 156.668 6.771 157.342 6.92236C158.021 7.07373 158.57 7.25439 158.99 7.46436C159.41 7.67432 159.72 7.92822 159.92 8.22607C160.125 8.51904 160.228 8.87793 160.228 9.30273C160.228 10.0107 159.945 10.5796 159.378 11.0093C158.812 11.4341 158.077 11.6465 157.174 11.6465C156.539 11.6465 155.978 11.5342 155.489 11.3096C155.001 11.085 154.618 10.7725 154.339 10.3721C154.066 9.9668 153.929 9.52979 153.929 9.06104H155.284C155.309 9.51514 155.489 9.87646 155.826 10.145C156.168 10.4087 156.617 10.5405 157.174 10.5405C157.687 10.5405 158.097 10.438 158.404 10.2329C158.717 10.0229 158.873 9.74463 158.873 9.39795ZM163.832 1.65625V3.5752H165.311V4.62256H163.832V9.53711C163.832 9.85449 163.897 10.0938 164.029 10.2549C164.161 10.4111 164.386 10.4893 164.703 10.4893C164.859 10.4893 165.074 10.46 165.348 10.4014V11.5C164.991 11.5977 164.645 11.6465 164.308 11.6465C163.702 11.6465 163.246 11.4634 162.938 11.0972C162.63 10.731 162.477 10.2109 162.477 9.53711V4.62256H161.034V3.5752H162.477V1.65625H163.832ZM170.731 4.79102C170.526 4.75684 170.304 4.73975 170.064 4.73975C169.176 4.73975 168.573 5.11816 168.255 5.875V11.5H166.9V3.5752H168.219L168.241 4.49072C168.685 3.78271 169.315 3.42871 170.13 3.42871C170.394 3.42871 170.594 3.46289 170.731 3.53125V4.79102ZM171.478 7.46436C171.478 6.68799 171.629 5.98975 171.932 5.36963C172.24 4.74951 172.665 4.271 173.207 3.93408C173.753 3.59717 174.376 3.42871 175.074 3.42871C176.153 3.42871 177.025 3.80225 177.689 4.54932C178.358 5.29639 178.692 6.29004 178.692 7.53027V7.62549C178.692 8.39697 178.543 9.09033 178.246 9.70557C177.953 10.3159 177.53 10.792 176.979 11.1338C176.432 11.4756 175.802 11.6465 175.089 11.6465C174.015 11.6465 173.143 11.2729 172.474 10.5259C171.81 9.77881 171.478 8.79004 171.478 7.55957V7.46436ZM172.84 7.62549C172.84 8.50439 173.043 9.20996 173.448 9.74219C173.858 10.2744 174.405 10.5405 175.089 10.5405C175.777 10.5405 176.324 10.272 176.729 9.73486C177.135 9.19287 177.337 8.43604 177.337 7.46436C177.337 6.59521 177.13 5.89209 176.715 5.35498C176.305 4.81299 175.758 4.54199 175.074 4.54199C174.405 4.54199 173.866 4.80811 173.456 5.34033C173.045 5.87256 172.84 6.63428 172.84 7.62549ZM185.006 9.39795C185.006 9.03174 184.867 8.74854 184.588 8.54834C184.315 8.34326 183.834 8.16748 183.146 8.021C182.462 7.87451 181.917 7.69873 181.512 7.49365C181.112 7.28857 180.814 7.04443 180.619 6.76123C180.428 6.47803 180.333 6.14111 180.333 5.75049C180.333 5.10107 180.606 4.55176 181.153 4.10254C181.705 3.65332 182.408 3.42871 183.263 3.42871C184.161 3.42871 184.889 3.66064 185.445 4.12451C186.007 4.58838 186.288 5.18164 186.288 5.9043H184.925C184.925 5.5332 184.767 5.21338 184.449 4.94482C184.137 4.67627 183.741 4.54199 183.263 4.54199C182.77 4.54199 182.384 4.64941 182.105 4.86426C181.827 5.0791 181.688 5.35986 181.688 5.70654C181.688 6.03369 181.817 6.28027 182.076 6.44629C182.335 6.6123 182.801 6.771 183.475 6.92236C184.154 7.07373 184.703 7.25439 185.123 7.46436C185.543 7.67432 185.853 7.92822 186.053 8.22607C186.258 8.51904 186.361 8.87793 186.361 9.30273C186.361 10.0107 186.078 10.5796 185.511 11.0093C184.945 11.4341 184.21 11.6465 183.307 11.6465C182.672 11.6465 182.11 11.5342 181.622 11.3096C181.134 11.085 180.75 10.7725 180.472 10.3721C180.199 9.9668 180.062 9.52979 180.062 9.06104H181.417C181.441 9.51514 181.622 9.87646 181.959 10.145C182.301 10.4087 182.75 10.5405 183.307 10.5405C183.819 10.5405 184.229 10.438 184.537 10.2329C184.85 10.0229 185.006 9.74463 185.006 9.39795ZM196.739 11.5C196.661 11.3438 196.598 11.0654 196.549 10.665C195.919 11.3193 195.167 11.6465 194.293 11.6465C193.512 11.6465 192.87 11.4268 192.367 10.9873C191.869 10.543 191.62 9.98145 191.62 9.30273C191.62 8.47754 191.932 7.83789 192.557 7.38379C193.187 6.9248 194.071 6.69531 195.208 6.69531H196.527V6.07275C196.527 5.59912 196.385 5.22314 196.102 4.94482C195.819 4.66162 195.401 4.52002 194.85 4.52002C194.366 4.52002 193.961 4.64209 193.634 4.88623C193.307 5.13037 193.143 5.42578 193.143 5.77246H191.781C191.781 5.37695 191.92 4.99609 192.198 4.62988C192.481 4.25879 192.862 3.96582 193.341 3.75098C193.824 3.53613 194.354 3.42871 194.93 3.42871C195.843 3.42871 196.559 3.6582 197.076 4.11719C197.594 4.57129 197.862 5.19873 197.882 5.99951V9.64697C197.882 10.3745 197.975 10.9531 198.16 11.3828V11.5H196.739ZM194.491 10.4673C194.916 10.4673 195.318 10.3574 195.699 10.1377C196.08 9.91797 196.356 9.63232 196.527 9.28076V7.65479H195.465C193.805 7.65479 192.975 8.14062 192.975 9.1123C192.975 9.53711 193.116 9.86914 193.399 10.1084C193.683 10.3477 194.046 10.4673 194.491 10.4673ZM201.28 3.5752L201.317 4.4541C201.898 3.77051 202.682 3.42871 203.668 3.42871C204.776 3.42871 205.531 3.85352 205.931 4.70312C206.195 4.32227 206.537 4.01465 206.957 3.78027C207.381 3.5459 207.882 3.42871 208.458 3.42871C210.196 3.42871 211.08 4.34912 211.109 6.18994V11.5H209.754V6.27051C209.754 5.7041 209.625 5.28174 209.366 5.00342C209.107 4.72021 208.673 4.57861 208.062 4.57861C207.56 4.57861 207.142 4.72998 206.81 5.03271C206.478 5.33057 206.285 5.7334 206.231 6.24121V11.5H204.869V6.30713C204.869 5.15479 204.305 4.57861 203.177 4.57861C202.289 4.57861 201.681 4.95703 201.354 5.71387V11.5H199.999V3.5752H201.28ZM214.632 11.5H213.277V3.5752H214.632V11.5ZM213.167 1.47314C213.167 1.25342 213.233 1.06787 213.365 0.916504C213.502 0.765137 213.702 0.689453 213.966 0.689453C214.229 0.689453 214.43 0.765137 214.566 0.916504C214.703 1.06787 214.771 1.25342 214.771 1.47314C214.771 1.69287 214.703 1.87598 214.566 2.02246C214.43 2.16895 214.229 2.24219 213.966 2.24219C213.702 2.24219 213.502 2.16895 213.365 2.02246C213.233 1.87598 213.167 1.69287 213.167 1.47314ZM216.485 7.47168C216.485 6.23633 216.771 5.25488 217.342 4.52734C217.914 3.79492 218.67 3.42871 219.613 3.42871C220.58 3.42871 221.334 3.77051 221.876 4.4541L221.942 3.5752H223.18V11.3096C223.18 12.335 222.875 13.1431 222.264 13.7339C221.659 14.3247 220.843 14.6201 219.818 14.6201C219.247 14.6201 218.688 14.498 218.141 14.2539C217.594 14.0098 217.176 13.6753 216.888 13.2505L217.591 12.4375C218.172 13.1553 218.883 13.5142 219.723 13.5142C220.382 13.5142 220.895 13.3286 221.261 12.9575C221.632 12.5864 221.817 12.064 221.817 11.3901V10.709C221.275 11.334 220.536 11.6465 219.598 11.6465C218.67 11.6465 217.918 11.2729 217.342 10.5259C216.771 9.77881 216.485 8.76074 216.485 7.47168ZM217.848 7.62549C217.848 8.51904 218.031 9.22217 218.397 9.73486C218.763 10.2427 219.276 10.4966 219.935 10.4966C220.79 10.4966 221.417 10.1084 221.817 9.33203V5.71387C221.402 4.95703 220.78 4.57861 219.95 4.57861C219.291 4.57861 218.775 4.83496 218.404 5.34766C218.033 5.86035 217.848 6.61963 217.848 7.62549ZM230.123 10.7163C229.596 11.3364 228.822 11.6465 227.801 11.6465C226.957 11.6465 226.312 11.4023 225.868 10.9141C225.428 10.4209 225.206 9.69336 225.201 8.73145V3.5752H226.556V8.69482C226.556 9.896 227.044 10.4966 228.021 10.4966C229.056 10.4966 229.745 10.1108 230.086 9.33936V3.5752H231.441V11.5H230.152L230.123 10.7163ZM234.979 11.5H233.624V3.5752H234.979V11.5ZM233.514 1.47314C233.514 1.25342 233.58 1.06787 233.712 0.916504C233.849 0.765137 234.049 0.689453 234.312 0.689453C234.576 0.689453 234.776 0.765137 234.913 0.916504C235.05 1.06787 235.118 1.25342 235.118 1.47314C235.118 1.69287 235.05 1.87598 234.913 2.02246C234.776 2.16895 234.576 2.24219 234.312 2.24219C234.049 2.24219 233.849 2.16895 233.712 2.02246C233.58 1.87598 233.514 1.69287 233.514 1.47314ZM238.993 1.65625V3.5752H240.472V4.62256H238.993V9.53711C238.993 9.85449 239.059 10.0938 239.19 10.2549C239.322 10.4111 239.547 10.4893 239.864 10.4893C240.021 10.4893 240.235 10.46 240.509 10.4014V11.5C240.152 11.5977 239.806 11.6465 239.469 11.6465C238.863 11.6465 238.407 11.4634 238.099 11.0972C237.792 10.731 237.638 10.2109 237.638 9.53711V4.62256H236.195V3.5752H237.638V1.65625H238.993ZM241.556 7.46436C241.556 6.68799 241.708 5.98975 242.01 5.36963C242.318 4.74951 242.743 4.271 243.285 3.93408C243.832 3.59717 244.454 3.42871 245.152 3.42871C246.231 3.42871 247.103 3.80225 247.767 4.54932C248.436 5.29639 248.771 6.29004 248.771 7.53027V7.62549C248.771 8.39697 248.622 9.09033 248.324 9.70557C248.031 10.3159 247.608 10.792 247.057 11.1338C246.51 11.4756 245.88 11.6465 245.167 11.6465C244.093 11.6465 243.221 11.2729 242.552 10.5259C241.888 9.77881 241.556 8.79004 241.556 7.55957V7.46436ZM242.918 7.62549C242.918 8.50439 243.121 9.20996 243.526 9.74219C243.937 10.2744 244.483 10.5405 245.167 10.5405C245.855 10.5405 246.402 10.272 246.808 9.73486C247.213 9.19287 247.416 8.43604 247.416 7.46436C247.416 6.59521 247.208 5.89209 246.793 5.35498C246.383 4.81299 245.836 4.54199 245.152 4.54199C244.483 4.54199 243.944 4.80811 243.534 5.34033C243.124 5.87256 242.918 6.63428 242.918 7.62549ZM255.084 9.39795C255.084 9.03174 254.945 8.74854 254.667 8.54834C254.393 8.34326 253.912 8.16748 253.224 8.021C252.54 7.87451 251.996 7.69873 251.59 7.49365C251.19 7.28857 250.892 7.04443 250.697 6.76123C250.506 6.47803 250.411 6.14111 250.411 5.75049C250.411 5.10107 250.685 4.55176 251.231 4.10254C251.783 3.65332 252.486 3.42871 253.341 3.42871C254.239 3.42871 254.967 3.66064 255.523 4.12451C256.085 4.58838 256.366 5.18164 256.366 5.9043H255.003C255.003 5.5332 254.845 5.21338 254.527 4.94482C254.215 4.67627 253.819 4.54199 253.341 4.54199C252.848 4.54199 252.462 4.64941 252.184 4.86426C251.905 5.0791 251.766 5.35986 251.766 5.70654C251.766 6.03369 251.896 6.28027 252.154 6.44629C252.413 6.6123 252.879 6.771 253.553 6.92236C254.232 7.07373 254.781 7.25439 255.201 7.46436C255.621 7.67432 255.931 7.92822 256.131 8.22607C256.336 8.51904 256.439 8.87793 256.439 9.30273C256.439 10.0107 256.156 10.5796 255.589 11.0093C255.023 11.4341 254.288 11.6465 253.385 11.6465C252.75 11.6465 252.188 11.5342 251.7 11.3096C251.212 11.085 250.829 10.7725 250.55 10.3721C250.277 9.9668 250.14 9.52979 250.14 9.06104H251.495C251.52 9.51514 251.7 9.87646 252.037 10.145C252.379 10.4087 252.828 10.5405 253.385 10.5405C253.897 10.5405 254.308 10.438 254.615 10.2329C254.928 10.0229 255.084 9.74463 255.084 9.39795ZM1.2998 24.5752L1.33643 25.4541C1.91748 24.7705 2.70117 24.4287 3.6875 24.4287C4.7959 24.4287 5.55029 24.8535 5.95068 25.7031C6.21436 25.3223 6.55615 25.0146 6.97607 24.7803C7.40088 24.5459 7.90137 24.4287 8.47754 24.4287C10.2158 24.4287 11.0996 25.3491 11.1289 27.1899V32.5H9.77393V27.2705C9.77393 26.7041 9.64453 26.2817 9.38574 26.0034C9.12695 25.7202 8.69238 25.5786 8.08203 25.5786C7.5791 25.5786 7.16162 25.73 6.82959 26.0327C6.49756 26.3306 6.30469 26.7334 6.25098 27.2412V32.5H4.88867V27.3071C4.88867 26.1548 4.32471 25.5786 3.19678 25.5786C2.30811 25.5786 1.7002 25.957 1.37305 26.7139V32.5H0.0180664V24.5752H1.2998ZM18.0723 32.5C17.9941 32.3438 17.9307 32.0654 17.8818 31.665C17.252 32.3193 16.5 32.6465 15.626 32.6465C14.8447 32.6465 14.2026 32.4268 13.6997 31.9873C13.2017 31.543 12.9526 30.9814 12.9526 30.3027C12.9526 29.4775 13.2651 28.8379 13.8901 28.3838C14.52 27.9248 15.4038 27.6953 16.5415 27.6953H17.8599V27.0728C17.8599 26.5991 17.7183 26.2231 17.4351 25.9448C17.1519 25.6616 16.7344 25.52 16.1826 25.52C15.6992 25.52 15.2939 25.6421 14.9668 25.8862C14.6396 26.1304 14.4761 26.4258 14.4761 26.7725H13.1138C13.1138 26.377 13.2529 25.9961 13.5312 25.6299C13.8145 25.2588 14.1953 24.9658 14.6738 24.751C15.1572 24.5361 15.687 24.4287 16.2632 24.4287C17.1763 24.4287 17.8916 24.6582 18.4092 25.1172C18.9268 25.5713 19.1953 26.1987 19.2148 26.9995V30.647C19.2148 31.3745 19.3076 31.9531 19.4932 32.3828V32.5H18.0723ZM15.8237 31.4673C16.2485 31.4673 16.6514 31.3574 17.0322 31.1377C17.4131 30.918 17.689 30.6323 17.8599 30.2808V28.6548H16.7979C15.1377 28.6548 14.3076 29.1406 14.3076 30.1123C14.3076 30.5371 14.4492 30.8691 14.7324 31.1084C15.0156 31.3477 15.3794 31.4673 15.8237 31.4673ZM25.1694 25.791C24.9644 25.7568 24.7422 25.7397 24.5029 25.7397C23.6143 25.7397 23.0112 26.1182 22.6938 26.875V32.5H21.3389V24.5752H22.6572L22.6792 25.4907C23.1235 24.7827 23.7534 24.4287 24.5688 24.4287C24.8325 24.4287 25.0327 24.4629 25.1694 24.5312V25.791ZM27.894 32.5H26.5391V24.5752H27.894V32.5ZM26.4292 22.4731C26.4292 22.2534 26.4951 22.0679 26.627 21.9165C26.7637 21.7651 26.9639 21.6895 27.2275 21.6895C27.4912 21.6895 27.6914 21.7651 27.8281 21.9165C27.9648 22.0679 28.0332 22.2534 28.0332 22.4731C28.0332 22.6929 27.9648 22.876 27.8281 23.0225C27.6914 23.1689 27.4912 23.2422 27.2275 23.2422C26.9639 23.2422 26.7637 23.1689 26.627 23.0225C26.4951 22.876 26.4292 22.6929 26.4292 22.4731ZM31.3511 24.5752L31.395 25.5713C32.0005 24.8096 32.7915 24.4287 33.7681 24.4287C35.4429 24.4287 36.2876 25.3735 36.3022 27.2632V32.5H34.9473V27.2559C34.9424 26.6846 34.8105 26.2622 34.5518 25.9888C34.2979 25.7153 33.8999 25.5786 33.3579 25.5786C32.9185 25.5786 32.5327 25.6958 32.2007 25.9302C31.8687 26.1646 31.6099 26.4722 31.4243 26.853V32.5H30.0693V24.5752H31.3511ZM37.9868 28.4644C37.9868 27.688 38.1382 26.9897 38.4409 26.3696C38.7485 25.7495 39.1733 25.271 39.7153 24.9341C40.2622 24.5972 40.8848 24.4287 41.583 24.4287C42.6621 24.4287 43.5337 24.8022 44.1978 25.5493C44.8667 26.2964 45.2012 27.29 45.2012 28.5303V28.6255C45.2012 29.397 45.0522 30.0903 44.7544 30.7056C44.4614 31.3159 44.0391 31.792 43.4873 32.1338C42.9404 32.4756 42.3105 32.6465 41.5977 32.6465C40.5234 32.6465 39.6519 32.2729 38.9829 31.5259C38.3188 30.7788 37.9868 29.79 37.9868 28.5596V28.4644ZM39.3491 28.6255C39.3491 29.5044 39.5518 30.21 39.957 30.7422C40.3672 31.2744 40.9141 31.5405 41.5977 31.5405C42.2861 31.5405 42.833 31.272 43.2383 30.7349C43.6436 30.1929 43.8462 29.436 43.8462 28.4644C43.8462 27.5952 43.6387 26.8921 43.2236 26.355C42.8135 25.813 42.2666 25.542 41.583 25.542C40.9141 25.542 40.3745 25.8081 39.9644 26.3403C39.5542 26.8726 39.3491 27.6343 39.3491 28.6255ZM51.5146 30.3979C51.5146 30.0317 51.3755 29.7485 51.0972 29.5483C50.8237 29.3433 50.3428 29.1675 49.6543 29.021C48.9707 28.8745 48.4263 28.6987 48.021 28.4937C47.6206 28.2886 47.3228 28.0444 47.1274 27.7612C46.937 27.478 46.8418 27.1411 46.8418 26.7505C46.8418 26.1011 47.1152 25.5518 47.6621 25.1025C48.2139 24.6533 48.917 24.4287 49.7715 24.4287C50.6699 24.4287 51.3975 24.6606 51.9541 25.1245C52.5156 25.5884 52.7964 26.1816 52.7964 26.9043H51.4341C51.4341 26.5332 51.2754 26.2134 50.958 25.9448C50.6455 25.6763 50.25 25.542 49.7715 25.542C49.2783 25.542 48.8926 25.6494 48.6143 25.8643C48.3359 26.0791 48.1968 26.3599 48.1968 26.7065C48.1968 27.0337 48.3262 27.2803 48.585 27.4463C48.8438 27.6123 49.3101 27.771 49.9839 27.9224C50.6626 28.0737 51.2119 28.2544 51.6318 28.4644C52.0518 28.6743 52.3618 28.9282 52.562 29.2261C52.7671 29.519 52.8696 29.8779 52.8696 30.3027C52.8696 31.0107 52.5864 31.5796 52.02 32.0093C51.4536 32.4341 50.7188 32.6465 49.8154 32.6465C49.1807 32.6465 48.6191 32.5342 48.1309 32.3096C47.6426 32.085 47.2593 31.7725 46.981 31.3721C46.7075 30.9668 46.5708 30.5298 46.5708 30.061H47.9258C47.9502 30.5151 48.1309 30.8765 48.4678 31.145C48.8096 31.4087 49.2588 31.5405 49.8154 31.5405C50.3281 31.5405 50.7383 31.438 51.0459 31.2329C51.3584 31.0229 51.5146 30.7446 51.5146 30.3979ZM60.1938 22.6562V24.5752H61.6733V25.6226H60.1938V30.5371C60.1938 30.8545 60.2598 31.0938 60.3916 31.2549C60.5234 31.4111 60.748 31.4893 61.0654 31.4893C61.2217 31.4893 61.4365 31.46 61.71 31.4014V32.5C61.3535 32.5977 61.0068 32.6465 60.6699 32.6465C60.0645 32.6465 59.6079 32.4634 59.3003 32.0972C58.9927 31.731 58.8389 31.2109 58.8389 30.5371V25.6226H57.396V24.5752H58.8389V22.6562H60.1938ZM62.7573 28.4644C62.7573 27.688 62.9087 26.9897 63.2114 26.3696C63.519 25.7495 63.9438 25.271 64.4858 24.9341C65.0327 24.5972 65.6553 24.4287 66.3535 24.4287C67.4326 24.4287 68.3042 24.8022 68.9683 25.5493C69.6372 26.2964 69.9717 27.29 69.9717 28.5303V28.6255C69.9717 29.397 69.8228 30.0903 69.5249 30.7056C69.2319 31.3159 68.8096 31.792 68.2578 32.1338C67.7109 32.4756 67.0811 32.6465 66.3682 32.6465C65.2939 32.6465 64.4224 32.2729 63.7534 31.5259C63.0894 30.7788 62.7573 29.79 62.7573 28.5596V28.4644ZM64.1196 28.6255C64.1196 29.5044 64.3223 30.21 64.7275 30.7422C65.1377 31.2744 65.6846 31.5405 66.3682 31.5405C67.0566 31.5405 67.6035 31.272 68.0088 30.7349C68.4141 30.1929 68.6167 29.436 68.6167 28.4644C68.6167 27.5952 68.4092 26.8921 67.9941 26.355C67.584 25.813 67.0371 25.542 66.3535 25.542C65.6846 25.542 65.145 25.8081 64.7349 26.3403C64.3247 26.8726 64.1196 27.6343 64.1196 28.6255ZM71.3413 28.4717C71.3413 27.2559 71.6294 26.2793 72.2056 25.542C72.7817 24.7998 73.5361 24.4287 74.4688 24.4287C75.3965 24.4287 76.1313 24.7461 76.6733 25.3809V21.25H78.0283V32.5H76.7832L76.7173 31.6504C76.1753 32.3145 75.4209 32.6465 74.4541 32.6465C73.5361 32.6465 72.7866 32.2705 72.2056 31.5186C71.6294 30.7666 71.3413 29.7852 71.3413 28.5742V28.4717ZM72.6963 28.6255C72.6963 29.5239 72.8818 30.2271 73.2529 30.7349C73.624 31.2427 74.1367 31.4966 74.791 31.4966C75.6504 31.4966 76.2778 31.1108 76.6733 30.3394V26.6992C76.2681 25.9521 75.6455 25.5786 74.8057 25.5786C74.1416 25.5786 73.624 25.835 73.2529 26.3477C72.8818 26.8604 72.6963 27.6196 72.6963 28.6255ZM79.7788 28.4644C79.7788 27.688 79.9302 26.9897 80.2329 26.3696C80.5405 25.7495 80.9653 25.271 81.5073 24.9341C82.0542 24.5972 82.6768 24.4287 83.375 24.4287C84.4541 24.4287 85.3257 24.8022 85.9897 25.5493C86.6587 26.2964 86.9932 27.29 86.9932 28.5303V28.6255C86.9932 29.397 86.8442 30.0903 86.5464 30.7056C86.2534 31.3159 85.8311 31.792 85.2793 32.1338C84.7324 32.4756 84.1025 32.6465 83.3896 32.6465C82.3154 32.6465 81.4438 32.2729 80.7749 31.5259C80.1108 30.7788 79.7788 29.79 79.7788 28.5596V28.4644ZM81.1411 28.6255C81.1411 29.5044 81.3438 30.21 81.749 30.7422C82.1592 31.2744 82.7061 31.5405 83.3896 31.5405C84.0781 31.5405 84.625 31.272 85.0303 30.7349C85.4355 30.1929 85.6382 29.436 85.6382 28.4644C85.6382 27.5952 85.4307 26.8921 85.0156 26.355C84.6055 25.813 84.0586 25.542 83.375 25.542C82.7061 25.542 82.1665 25.8081 81.7563 26.3403C81.3462 26.8726 81.1411 27.6343 81.1411 28.6255ZM95.7017 32.6465C94.6274 32.6465 93.7534 32.2949 93.0796 31.5918C92.4058 30.8838 92.0688 29.939 92.0688 28.7573V28.5083C92.0688 27.7222 92.2178 27.0215 92.5156 26.4062C92.8184 25.7861 93.2383 25.3027 93.7754 24.9561C94.3174 24.6045 94.9033 24.4287 95.5332 24.4287C96.5635 24.4287 97.3643 24.7681 97.9355 25.4468C98.5068 26.1255 98.7925 27.0972 98.7925 28.3618V28.9258H93.4238C93.4434 29.707 93.6704 30.3394 94.105 30.8228C94.5444 31.3013 95.1011 31.5405 95.7749 31.5405C96.2534 31.5405 96.6587 31.4429 96.9907 31.2476C97.3228 31.0522 97.6133 30.7935 97.8623 30.4712L98.6899 31.1157C98.0259 32.1362 97.0298 32.6465 95.7017 32.6465ZM95.5332 25.542C94.9863 25.542 94.5273 25.7422 94.1562 26.1426C93.7852 26.5381 93.5557 27.0947 93.4678 27.8125H97.4375V27.71C97.3984 27.0215 97.2129 26.4893 96.8809 26.1133C96.5488 25.7324 96.0996 25.542 95.5332 25.542ZM101.839 32.5H100.484V21.25H101.839V32.5ZM109.208 32.5H107.853V21.25H109.208V32.5ZM112.855 32.5H111.5V24.5752H112.855V32.5ZM111.39 22.4731C111.39 22.2534 111.456 22.0679 111.588 21.9165C111.725 21.7651 111.925 21.6895 112.188 21.6895C112.452 21.6895 112.652 21.7651 112.789 21.9165C112.926 22.0679 112.994 22.2534 112.994 22.4731C112.994 22.6929 112.926 22.876 112.789 23.0225C112.652 23.1689 112.452 23.2422 112.188 23.2422C111.925 23.2422 111.725 23.1689 111.588 23.0225C111.456 22.876 111.39 22.6929 111.39 22.4731ZM116.869 22.6562V24.5752H118.348V25.6226H116.869V30.5371C116.869 30.8545 116.935 31.0938 117.066 31.2549C117.198 31.4111 117.423 31.4893 117.74 31.4893C117.896 31.4893 118.111 31.46 118.385 31.4014V32.5C118.028 32.5977 117.682 32.6465 117.345 32.6465C116.739 32.6465 116.283 32.4634 115.975 32.0972C115.667 31.731 115.514 31.2109 115.514 30.5371V25.6226H114.071V24.5752H115.514V22.6562H116.869ZM119.432 28.4644C119.432 27.688 119.583 26.9897 119.886 26.3696C120.194 25.7495 120.619 25.271 121.161 24.9341C121.708 24.5972 122.33 24.4287 123.028 24.4287C124.107 24.4287 124.979 24.8022 125.643 25.5493C126.312 26.2964 126.646 27.29 126.646 28.5303V28.6255C126.646 29.397 126.498 30.0903 126.2 30.7056C125.907 31.3159 125.484 31.792 124.933 32.1338C124.386 32.4756 123.756 32.6465 123.043 32.6465C121.969 32.6465 121.097 32.2729 120.428 31.5259C119.764 30.7788 119.432 29.79 119.432 28.5596V28.4644ZM120.794 28.6255C120.794 29.5044 120.997 30.21 121.402 30.7422C121.812 31.2744 122.359 31.5405 123.043 31.5405C123.731 31.5405 124.278 31.272 124.684 30.7349C125.089 30.1929 125.292 29.436 125.292 28.4644C125.292 27.5952 125.084 26.8921 124.669 26.355C124.259 25.813 123.712 25.542 123.028 25.542C122.359 25.542 121.82 25.8081 121.41 26.3403C121 26.8726 120.794 27.6343 120.794 28.6255ZM132.176 25.791C131.971 25.7568 131.749 25.7397 131.51 25.7397C130.621 25.7397 130.018 26.1182 129.701 26.875V32.5H128.346V24.5752H129.664L129.686 25.4907C130.13 24.7827 130.76 24.4287 131.576 24.4287C131.839 24.4287 132.04 24.4629 132.176 24.5312V25.791ZM138.028 32.5C137.95 32.3438 137.887 32.0654 137.838 31.665C137.208 32.3193 136.456 32.6465 135.582 32.6465C134.801 32.6465 134.159 32.4268 133.656 31.9873C133.158 31.543 132.909 30.9814 132.909 30.3027C132.909 29.4775 133.221 28.8379 133.846 28.3838C134.476 27.9248 135.36 27.6953 136.498 27.6953H137.816V27.0728C137.816 26.5991 137.674 26.2231 137.391 25.9448C137.108 25.6616 136.69 25.52 136.139 25.52C135.655 25.52 135.25 25.6421 134.923 25.8862C134.596 26.1304 134.432 26.4258 134.432 26.7725H133.07C133.07 26.377 133.209 25.9961 133.487 25.6299C133.771 25.2588 134.151 24.9658 134.63 24.751C135.113 24.5361 135.643 24.4287 136.219 24.4287C137.132 24.4287 137.848 24.6582 138.365 25.1172C138.883 25.5713 139.151 26.1987 139.171 26.9995V30.647C139.171 31.3745 139.264 31.9531 139.449 32.3828V32.5H138.028ZM135.78 31.4673C136.205 31.4673 136.607 31.3574 136.988 31.1377C137.369 30.918 137.645 30.6323 137.816 30.2808V28.6548H136.754C135.094 28.6548 134.264 29.1406 134.264 30.1123C134.264 30.5371 134.405 30.8691 134.688 31.1084C134.972 31.3477 135.335 31.4673 135.78 31.4673ZM142.767 32.5H141.412V21.25H142.767V32.5Z" fill="#37474F"/>
</svg>
