<svg width="25" height="20" viewBox="0 0 25 20" fill="none" xmlns="http://www.w3.org/2000/svg">
<path d="M0.520833 19.8959C0.233333 19.8959 0 19.6626 0 19.3751C0 19.0876 0.233333 18.8542 0.520833 18.8542H24.4792C24.7667 18.8542 25 19.0876 25 19.3751C25 19.6626 24.7667 19.8959 24.4792 19.8959H0.520833Z" fill="#C35623"/>
<path d="M0.520833 12.6042C0.233333 12.6042 0 12.3708 0 12.0833C0 11.7958 0.233333 11.5625 0.520833 11.5625H2.60417C2.89167 11.5625 3.125 11.7958 3.125 12.0833C3.125 12.3708 2.89167 12.6042 2.60417 12.6042H0.520833Z" fill="#C35623"/>
<path d="M5.35039 5.97497C5.21081 5.97497 5.0806 5.9208 4.98164 5.82288L3.50977 4.34997C3.30664 4.14684 3.30664 3.81663 3.50977 3.61351C3.60768 3.51559 3.73893 3.46143 3.87852 3.46143C4.0181 3.46143 4.14831 3.51559 4.24727 3.61351L5.71914 5.08538C5.92227 5.28851 5.92227 5.61872 5.71914 5.82184C5.62018 5.9208 5.48997 5.97497 5.35039 5.97497Z" fill="#C35623"/>
<path d="M11.9788 3.22925C11.6913 3.22925 11.458 2.99592 11.458 2.70842V0.625081C11.458 0.337581 11.6913 0.104248 11.9788 0.104248C12.2663 0.104248 12.4997 0.337581 12.4997 0.625081V2.70842C12.4997 2.99592 12.2663 3.22925 11.9788 3.22925Z" fill="#C35623"/>
<path d="M18.608 5.97497C18.4684 5.97497 18.3382 5.9208 18.2393 5.82288C18.0361 5.61976 18.0361 5.28955 18.2393 5.08643L19.7122 3.61351C19.8101 3.51559 19.9413 3.46143 20.0809 3.46143C20.2205 3.46143 20.3507 3.51559 20.4497 3.61351C20.6528 3.81663 20.6528 4.14684 20.4497 4.34997L18.9768 5.82288C18.8778 5.9208 18.7476 5.97497 18.608 5.97497Z" fill="#C35623"/>
<path d="M21.3538 12.6042C21.0663 12.6042 20.833 12.3708 20.833 12.0833C20.833 11.7958 21.0663 11.5625 21.3538 11.5625H23.4372C23.7247 11.5625 23.958 11.7958 23.958 12.0833C23.958 12.3708 23.7247 12.6042 23.4372 12.6042H21.3538Z" fill="#C35623"/>
<path d="M17.0614 17.8125C16.9208 17.8125 16.7853 17.7552 16.6874 17.6542C16.4874 17.4479 16.4926 17.1188 16.6978 16.9177C17.9947 15.6573 18.7228 13.9667 18.7489 12.1583C18.7749 10.35 18.0947 8.63958 16.8343 7.34271C15.5739 6.04583 13.8833 5.31771 12.0749 5.29167H11.9708C10.2041 5.29167 8.53118 5.97188 7.26035 7.20729C5.96556 8.46563 5.23847 10.1562 5.21243 11.9667C5.18639 13.7771 5.86556 15.4875 7.12389 16.7823C7.16868 16.8281 7.21451 16.874 7.26035 16.9188C7.46556 17.1188 7.47076 17.449 7.27076 17.6552C7.17076 17.7563 7.03847 17.8125 6.89681 17.8125C6.76035 17.8125 6.63118 17.7604 6.53326 17.6646C6.48118 17.6135 6.4291 17.5615 6.37701 17.5094C4.92389 16.0146 4.14056 14.0417 4.17076 11.9521C4.20097 9.8625 5.03951 7.9125 6.53326 6.46042C7.99993 5.03542 9.94056 4.25 11.9978 4.25H12.0885C14.176 4.28021 16.126 5.11979 17.5801 6.61667C19.0343 8.1125 19.8197 10.0865 19.7895 12.1729C19.7593 14.2594 18.9197 16.2094 17.4228 17.6635C17.327 17.7604 17.1978 17.8125 17.0614 17.8125Z" fill="#C35623"/>
</svg>
