<svg width="24" height="25" viewBox="0 0 24 25" fill="none" xmlns="http://www.w3.org/2000/svg">
<path d="M0.5 21.7768C0.224 21.7768 0 21.5557 0 21.2832C0 21.0108 0.224 20.7897 0.5 20.7897H23.5C23.776 20.7897 24 21.0108 24 21.2832C24 21.5557 23.776 21.7768 23.5 21.7768H0.5Z" fill="white"/>
<path d="M0.5 14.867C0.224 14.867 0 14.6459 0 14.3734C0 14.101 0.224 13.8799 0.5 13.8799H2.5C2.776 13.8799 3 14.101 3 14.3734C3 14.6459 2.776 14.867 2.5 14.867H0.5Z" fill="white"/>
<path d="M5.13591 8.58493C5.00191 8.58493 4.87691 8.5336 4.78191 8.44081L3.36891 7.04502C3.17391 6.85253 3.17391 6.53961 3.36891 6.34712C3.46291 6.25433 3.58891 6.203 3.72291 6.203C3.85691 6.203 3.98191 6.25433 4.07691 6.34712L5.48991 7.74193C5.68491 7.93442 5.68491 8.24734 5.48991 8.43983C5.39491 8.5336 5.26991 8.58493 5.13591 8.58493Z" fill="white"/>
<path d="M11.5 5.98286C11.224 5.98286 11 5.76174 11 5.4893V3.51505C11 3.2426 11.224 3.02148 11.5 3.02148C11.776 3.02148 12 3.2426 12 3.51505V5.4893C12 5.76174 11.776 5.98286 11.5 5.98286Z" fill="white"/>
<path d="M17.8635 8.58493C17.7295 8.58493 17.6045 8.5336 17.5095 8.44081C17.3145 8.24833 17.3145 7.93541 17.5095 7.74292L18.9235 6.34712C19.0175 6.25433 19.1435 6.203 19.2775 6.203C19.4115 6.203 19.5365 6.25433 19.6315 6.34712C19.8265 6.53961 19.8265 6.85253 19.6315 7.04502L18.2175 8.44081C18.1225 8.5336 17.9975 8.58493 17.8635 8.58493Z" fill="white"/>
<path d="M20.5 14.867C20.224 14.867 20 14.6459 20 14.3734C20 14.101 20.224 13.8799 20.5 13.8799H22.5C22.776 13.8799 23 14.101 23 14.3734C23 14.6459 22.776 14.867 22.5 14.867H20.5Z" fill="white"/>
<path d="M16.3787 19.8026C16.2437 19.8026 16.1137 19.7483 16.0197 19.6525C15.8277 19.4571 15.8327 19.1451 16.0297 18.9546C17.2747 17.7602 17.9737 16.1581 17.9987 14.4444C18.0237 12.7308 17.3707 11.1099 16.1607 9.88097C14.9507 8.652 13.3277 7.962 11.5917 7.93732H11.4917C9.79574 7.93732 8.18974 8.58191 6.96974 9.75264C5.72674 10.9451 5.02874 12.5472 5.00374 14.2628C4.97874 15.9784 5.63074 17.5993 6.83874 18.8263C6.88174 18.8697 6.92574 18.9132 6.96974 18.9556C7.16674 19.1451 7.17174 19.4581 6.97974 19.6535C6.88374 19.7493 6.75674 19.8026 6.62074 19.8026C6.48974 19.8026 6.36574 19.7532 6.27174 19.6624C6.22174 19.614 6.17174 19.5647 6.12174 19.5153C4.72674 18.0988 3.97474 16.2292 4.00374 14.249C4.03274 12.2688 4.83774 10.4209 6.27174 9.04487C7.67974 7.69449 9.54274 6.9502 11.5177 6.9502H11.6047C13.6087 6.97882 15.4807 7.77444 16.8767 9.19294C18.2727 10.6105 19.0267 12.4811 18.9977 14.4583C18.9687 16.4355 18.1627 18.2834 16.7257 19.6614C16.6337 19.7532 16.5097 19.8026 16.3787 19.8026Z" fill="white"/>
</svg>
