<svg width="25" height="25" viewBox="0 0 25 25" fill="none" xmlns="http://www.w3.org/2000/svg">
<path d="M1 24.7135C0.866 24.7135 0.741 24.6615 0.646 24.5675C0.551 24.4735 0.5 24.3475 0.5 24.2135C0.5 24.0795 0.552 23.9545 0.646 23.8595L4.637 19.8685C4.013 18.3775 3.76 13.6745 5.261 12.1735L15.11 2.32348C16.147 1.28648 17.529 0.714478 18.999 0.714478C20.469 0.714478 21.851 1.28548 22.888 2.32348C23.925 3.36148 24.497 4.74248 24.497 6.21348C24.497 7.68448 23.925 9.06548 22.888 10.1035L13.038 19.9525C12.065 20.9265 9.908 21.0715 8.709 21.0715C7.624 21.0715 6.143 20.9405 5.338 20.5815L1.354 24.5665C1.259 24.6615 1.134 24.7135 1 24.7135ZM6.125 19.7965C6.683 19.9435 7.608 20.0705 8.71 20.0715C10.437 20.0715 11.824 19.7555 12.333 19.2455L14.898 16.6815C14.185 16.7955 13.483 16.8245 12.959 16.8245C11.594 16.8245 10.281 16.6325 9.585 16.3375L6.125 19.7965ZM5.969 12.8805C5.013 13.8365 5.001 17.5825 5.409 19.0975L8.87 15.6365C8.517 14.8445 8.384 13.3945 8.38 12.3325C8.378 11.8795 8.399 11.1135 8.524 10.3245L5.969 12.8805ZM10.374 15.5465C10.966 15.6905 11.948 15.8095 13.047 15.8095C14.776 15.8095 16.062 15.5145 16.576 15.0015C16.579 14.9985 19.136 12.4425 19.136 12.4425C18.428 12.5565 17.732 12.5845 17.212 12.5845C15.844 12.5845 14.527 12.3895 13.83 12.0915L10.374 15.5465ZM10.207 8.64248C9.691 9.15948 9.374 10.5715 9.381 12.3285C9.385 13.4025 9.511 14.3045 9.655 14.8515L13.123 11.3835C12.672 10.3345 12.472 7.95948 12.774 6.07448L10.216 8.63348C10.213 8.63648 10.21 8.63948 10.207 8.64248ZM14.602 11.3185C15.198 11.4755 16.165 11.5775 17.146 11.5775C18.904 11.5775 20.31 11.2645 20.817 10.7615L22.183 9.39548C23.812 7.76748 23.936 5.18548 22.513 3.40748L14.602 11.3185ZM14.448 4.40248C13.499 5.35148 13.486 9.09748 13.894 10.6125L21.806 2.70048C21.009 2.06148 20.023 1.71248 19.001 1.71248C17.799 1.71248 16.669 2.18048 15.819 3.03048L14.472 4.37748C14.464 4.38648 14.456 4.39548 14.448 4.40248Z" fill="#C35623"/>
</svg>
