<svg width="64" height="64" viewBox="0 0 64 64" fill="none" xmlns="http://www.w3.org/2000/svg">
<g opacity="0.6">
<g filter="url(#filter0_d)">
<circle cx="32" cy="30" r="24" fill="white"/>
</g>
</g>
<g opacity="0.3">
<path d="M26.3958 40C25.0743 40 24 38.9247 24 37.6042V28.0208C24 26.6993 25.0743 25.625 26.3958 25.625H26.875V22.75C26.875 19.5798 29.4548 17 32.625 17C35.7952 17 38.375 19.5798 38.375 22.75V25.625H38.8542C40.1748 25.625 41.25 26.6993 41.25 28.0208V37.6042C41.25 38.9247 40.1748 40 38.8542 40H26.3958ZM26.3958 26.5833C25.6033 26.5833 24.9583 27.2283 24.9583 28.0208V37.6042C24.9583 38.3967 25.6033 39.0417 26.3958 39.0417H38.8542C39.6467 39.0417 40.2917 38.3967 40.2917 37.6042V28.0208C40.2917 27.2283 39.6467 26.5833 38.8542 26.5833H26.3958ZM37.4167 25.625V22.75C37.4167 20.1079 35.2671 17.9583 32.625 17.9583C29.9829 17.9583 27.8333 20.1079 27.8333 22.75V25.625H37.4167Z" fill="white" stroke="black"/>
<path d="M32.6256 34.4897C31.7008 34.4897 30.9485 33.7374 30.9485 32.8126C30.9485 31.8878 31.7008 31.1355 32.6256 31.1355C33.5504 31.1355 34.3027 31.8878 34.3027 32.8126C34.3027 33.7374 33.5504 34.4897 32.6256 34.4897ZM32.6256 32.0938C32.2288 32.0938 31.9068 32.4158 31.9068 32.8126C31.9068 33.2093 32.2288 33.5313 32.6256 33.5313C33.0223 33.5313 33.3443 33.2093 33.3443 32.8126C33.3443 32.4158 33.0223 32.0938 32.6256 32.0938Z" fill="white" stroke="black"/>
</g>
<defs>
<filter id="filter0_d" x="0" y="0" width="64" height="64" filterUnits="userSpaceOnUse" color-interpolation-filters="sRGB">
<feFlood flood-opacity="0" result="BackgroundImageFix"/>
<feColorMatrix in="SourceAlpha" type="matrix" values="0 0 0 0 0 0 0 0 0 0 0 0 0 0 0 0 0 0 127 0"/>
<feOffset dy="2"/>
<feGaussianBlur stdDeviation="4"/>
<feColorMatrix type="matrix" values="0 0 0 0 0 0 0 0 0 0 0 0 0 0 0 0 0 0 0.15 0"/>
<feBlend mode="normal" in2="BackgroundImageFix" result="effect1_dropShadow"/>
<feBlend mode="normal" in="SourceGraphic" in2="effect1_dropShadow" result="shape"/>
</filter>
</defs>
</svg>
