<svg width="18" height="18" viewBox="0 0 18 18" fill="none" xmlns="http://www.w3.org/2000/svg">
<g clip-path="url(#clip0)">
<path d="M9 12C9.41421 12 9.75 11.6642 9.75 11.25C9.75 10.8358 9.41421 10.5 9 10.5C8.58579 10.5 8.25 10.8358 8.25 11.25C8.25 11.6642 8.58579 12 9 12Z" stroke="#ECEFF1" stroke-linecap="round" stroke-linejoin="round"/>
<path d="M9 12V14.25" stroke="#ECEFF1" stroke-linecap="round" stroke-linejoin="round"/>
<path d="M14.625 7.125H3.375C2.96079 7.125 2.625 7.46079 2.625 7.875V16.875C2.625 17.2892 2.96079 17.625 3.375 17.625H14.625C15.0392 17.625 15.375 17.2892 15.375 16.875V7.875C15.375 7.46079 15.0392 7.125 14.625 7.125Z" stroke="#ECEFF1" stroke-linecap="round" stroke-linejoin="round"/>
<path d="M4.875 4.5C4.875 3.40598 5.3096 2.35677 6.08318 1.58318C6.85677 0.809597 7.90598 0.375 9 0.375C10.094 0.375 11.1432 0.809597 11.9168 1.58318C12.6904 2.35677 13.125 3.40598 13.125 4.5V7.125H4.875V4.5Z" stroke="#ECEFF1" stroke-linecap="round" stroke-linejoin="round"/>
</g>
<defs>
<clipPath id="clip0">
<rect width="18" height="18" fill="white"/>
</clipPath>
</defs>
</svg>
