<svg width="229" height="246" viewBox="0 0 229 246" fill="none" xmlns="http://www.w3.org/2000/svg">
<path d="M98.8001 94.8403C98.8001 94.8403 104.94 96.8903 106.01 73.3003C106.46 67.0703 102.89 55.9403 101.56 53.0903C101.56 53.0903 108.15 62.7903 117.32 67.6003C126.49 72.4103 136.91 74.9903 138.86 72.3203C140.82 69.6503 138.5 66.3603 136.55 64.4903C134.59 62.6203 122.04 48.9103 104.41 48.3803C104.41 48.3803 118.39 46.5103 127.65 39.8303C136.91 33.1503 140.98 27.9903 139.61 25.0503C138.24 22.1103 131.83 23.0903 128.72 23.9803C125.6 24.8703 112.25 28.4303 101.48 43.6503C101.48 43.6503 106.47 34.0403 106.11 19.9703C105.75 5.90029 101.66 1.1003 98.8101 1.4503C95.9601 1.8003 91.0601 8.66028 91.5101 24.0603C91.4801 32.0703 95.7801 42.7603 95.7801 42.7603C95.7801 42.7603 86.9701 31.1003 75.3901 26.3803C63.9701 21.7203 59.7201 21.6603 58.1201 25.3103C56.5201 28.9603 64.8001 37.9503 72.0101 41.4203C79.2201 44.8903 88.8401 47.6803 92.4001 48.1503C92.4001 48.1503 79.76 50.5803 71.66 55.3903C63.04 60.5103 55.3701 66.7903 58.3201 71.4103C60.8901 75.4203 70.3201 73.5503 79.4901 67.9403C88.6601 62.3303 95.6 53.7003 95.6 53.7003C95.6 53.7003 89.6401 64.6503 91.9501 79.5203C94.2601 94.4003 95.5101 94.4903 98.8001 94.8403Z" fill="#2600FF"/>
<path d="M195.82 17.2503L196.57 17.4902L197.32 17.7303C197.31 17.7603 196.84 19.3003 196.93 21.7003C196.94 22.0303 196.97 22.3902 197.01 22.7702C200.58 18.5002 201.98 14.6502 201 9.02025C200.5 6.17025 159.4 -15.3797 146.46 25.3403C143.1 35.9203 137.96 52.8802 125.7 66.3602C111.34 82.1402 75.6 78.9903 68.76 132.77C38.8 132.77 14.52 157.92 14.52 188.95C14.52 219.69 38.35 244.65 67.93 245.12V235.15C49.65 232.01 35.73 216.08 35.73 196.91C35.73 175.48 53.11 158.1 74.54 158.1C91.57 158.1 106.03 169.07 111.26 184.32C111.32 184.26 111.38 184.2 111.44 184.14H130.23C124.87 177.89 121.63 169.77 121.63 160.89C121.63 141.16 137.62 125.17 157.35 125.17C166.83 125.17 175.45 128.87 181.84 134.89L186.12 124.94C179.19 117.68 149.81 75.1903 181.82 37.3503C184.7 33.9503 187.94 31.7403 190.41 29.4503C188 23.3703 189.43 18.7103 189.5 18.4803L191.01 18.9602C191.01 18.9802 190.53 20.5203 190.62 22.9303C190.67 24.3103 190.92 26.1703 191.67 28.2803C192.11 27.8603 192.54 27.4503 192.96 27.0603C191.44 21.8703 192.6 18.0903 192.67 17.8803L194.18 18.3602C194.18 18.3802 193.7 19.9202 193.79 22.3302C193.82 23.2802 193.95 24.4503 194.27 25.7803C194.75 25.3003 195.2 24.8302 195.63 24.3602C194.9 20.2602 195.76 17.4303 195.82 17.2503Z" fill="#D14E00"/>
<path d="M192.29 33.1403L193.63 32.3003C192.75 30.9003 192.12 29.5403 191.67 28.2803C191.26 28.6603 190.85 29.0503 190.42 29.4503C190.88 30.6303 191.49 31.8603 192.29 33.1403Z" fill="#D14E00"/>
<path d="M195.45 32.5302L196.79 31.6902C195.45 29.5602 194.69 27.5303 194.26 25.7603C193.84 26.1803 193.41 26.6102 192.96 27.0502C193.45 28.7502 194.24 30.6002 195.45 32.5302Z" fill="#D14E00"/>
<path d="M195.62 24.34C196.01 26.57 196.88 29.16 198.61 31.92L199.95 31.08C197.95 27.9 197.23 24.95 197.01 22.77C196.58 23.29 196.11 23.81 195.62 24.34Z" fill="#D14E00"/>
<path d="M196.57 17.5L197.32 17.74V17.73L196.57 17.5Z" fill="#D14E00"/>
<path d="M216.22 100.78C216.51 100.78 216.77 100.84 217.06 100.71C217.79 100.36 218.51 100.66 219.18 100.88C219.66 101.04 220.12 101.17 220.62 101.15C220.96 101.13 221.23 101.35 221.38 101.54C221.75 102 222.34 102.01 222.74 102.32C223.71 103.08 224.74 103.73 225.56 104.73C226.84 106.28 227.2 108.16 227.9 109.91C228.07 110.35 228 110.89 228.01 111.38C228.03 111.8 228.09 112.21 228.29 112.58C228.29 112.68 228.29 112.79 228.29 112.89C228.07 113.06 227.99 113.27 228.03 113.57C228.13 114.31 227.8 115.02 227.8 115.75C227.81 116.55 227.32 117.2 227.34 118.02C227.36 118.95 226.63 119.63 226.17 120.38C226.05 120.57 225.85 120.72 225.79 120.97C225.66 121.56 225.29 122 224.84 122.36C224.11 122.94 223.38 123.52 222.61 124.04C221.17 124.99 219.56 125.44 217.84 125.53C216.31 125.61 214.8 125.42 213.33 125.08C212.64 124.92 212 124.48 211.37 124.12C210.74 123.76 210.16 123.33 209.59 122.85C208.79 122.17 208.33 121.31 207.81 120.46C207.73 120.33 207.66 120.14 207.54 120.1C206.77 119.8 206.79 119.05 206.68 118.46C206.58 117.91 206.47 117.4 206.27 116.87C206.06 116.31 205.95 115.72 206 115.1L205.76 113.51C205.76 112.77 205.74 112.01 205.89 111.3C206.16 109.99 206.52 108.69 206.91 107.41C207.26 106.25 207.97 105.31 208.78 104.43C209.08 104.1 209.07 103.8 209.61 103.38C209.61 103.38 210.47 102.67 212.76 101.66C215.05 100.65 216.22 100.78 216.22 100.78ZM211.24 111.06C211.22 112.45 211.21 113.82 211.36 115.21C211.47 116.18 211.66 116.85 212.03 117.99C212.03 118.04 212.44 118.52 212.64 118.82C213.35 119.9 214.27 120.66 215.63 120.77C215.63 120.77 216.73 121.07 218.19 121.01C218.89 120.98 219.4 120.47 219.93 120.16C220.6 119.77 221.12 119.16 221.47 118.57C222.46 116.9 223.02 115.09 222.75 113.06C222.59 111.86 222.56 110.64 222.29 109.46C222.29 109.46 222.12 108.69 221.77 108.24C220.45 106.52 218.98 105.04 216.57 105.24C215.06 105.37 213.74 105.94 212.85 107.25C212.51 107.75 212.2 108.07 211.84 108.73C211.84 108.73 211.37 109.79 211.24 111.06Z" fill="black"/>
<path d="M186.54 123.36C186.14 123.82 185.84 123.6 185.51 123.46C184.65 123.09 184.09 122.37 183.54 121.68C182.46 120.32 181.34 118.97 180.92 117.2C180.66 116.13 180.41 115.06 180.34 113.96C180.28 113.16 180.22 112.36 180.14 111.55C180.1 111.16 180.42 110.89 180.46 110.52C180.56 109.49 180.66 108.46 180.99 107.48C181.18 106.91 181.48 106.41 181.88 105.95C182.16 105.63 182.4 105.26 182.43 104.81C182.46 104.38 182.8 104.22 183.12 104C183.54 103.71 183.77 103.13 184.21 102.91C184.71 102.65 184.86 102.06 185.45 101.91C186.08 101.76 186.69 101.48 187.26 101.16C187.86 100.83 188.53 100.78 189.15 100.73C189.71 100.69 190.38 100.85 190.9 100.83C192.3 100.79 193.24 101.72 194.43 102.04C195.22 102.25 196.09 102.69 196.98 101.96C197.63 101.43 198.51 101.25 199.37 101.21C200.53 101.16 201.6 102.29 201.72 103.43C201.88 104.98 201.59 106.4 201.76 108.08C201.78 108.16 201.79 108.26 201.76 108.34C201.6 111.12 201.91 110.43 201.9 112.94C201.99 113.58 201.66 114.18 201.75 114.83C201.77 114.97 201.66 115.42 201.8 115.55C201.89 116.16 201.86 116.25 201.77 116.45C201.34 117.4 201.77 117.76 201.88 118.73C201.92 119.07 201.68 119.44 201.72 119.78C201.9 121.72 201.67 123.63 201.49 125.55C201.35 127.01 200.81 128.38 200.11 129.64C199.83 130.14 199.34 130.66 198.7 130.86C198.65 130.87 198.6 130.91 198.58 130.95C197.85 132.27 196.52 132.79 195.26 133.36C194.88 133.53 194.35 133.45 193.89 133.45C192.77 133.45 191.71 133.89 190.58 133.76C189.77 133.67 188.99 133.29 188.14 133.46C187.92 133.5 187.65 133.39 187.48 133.2C187.21 132.9 186.94 132.94 186.54 132.95C185.87 132.97 185.26 132.56 184.7 132.14C183.85 131.49 183.29 130.58 182.55 129.83C182.09 129.36 182.02 127.9 182.44 127.22C182.61 126.94 182.63 126.41 183.04 126.44C183.76 126.49 184.5 126.39 185.2 126.61C185.98 126.85 186.56 127.43 187.19 127.89C187.78 128.33 188.4 128.71 188.98 129.15C189.26 129.36 189.57 129.46 189.91 129.4C190.74 129.26 191.56 129.39 192.39 129.4C193.47 129.41 195.42 128.02 195.76 126.98C195.88 126.62 196.03 126.29 196.26 125.97C196.55 125.58 196.57 125.1 196.4 124.63C196.31 124.39 196.23 124.14 196.19 123.89C196.08 123.17 195.51 122.85 194.87 123.23C193.66 123.95 192.29 124.2 190.97 124.51C190.3 124.67 189.49 124.63 188.73 124.46C188.05 124.31 187.38 124.2 186.74 123.89C186.53 123.78 186.28 123.82 186.54 123.36ZM191.1 120.24C192.03 120.45 192.03 120.45 192.56 120.14C193.26 119.73 194.04 119.58 194.64 118.85C195.26 118.09 195.73 117.34 196.16 116.45C196.78 115.14 196.68 113.84 196.78 112.49C196.92 110.63 196.24 109.03 195.49 107.45C194.64 105.68 192.81 105.42 191.14 105.07C190.41 104.92 189.62 105.25 188.92 105.55C188.39 105.77 187.6 106.08 187.5 106.5C187.25 107.48 186.6 108.2 186.14 109.02C185.68 109.84 185.81 110.74 185.54 111.57C185.54 111.57 185.08 114.01 185.75 115.58C186.19 116.88 186.81 118.06 187.85 119.01C188.37 119.48 188.86 119.87 189.57 120.04L191.1 120.24Z" fill="black"/>
<path d="M111.68 123.36C111.28 123.82 110.98 123.6 110.65 123.46C109.79 123.09 109.23 122.37 108.68 121.68C107.6 120.32 106.48 118.97 106.06 117.2C105.8 116.13 105.56 115.06 105.48 113.96C105.42 113.16 105.36 112.36 105.28 111.55C105.24 111.16 105.56 110.89 105.6 110.52C105.7 109.49 105.8 108.46 106.13 107.48C106.32 106.91 106.62 106.41 107.02 105.95C107.3 105.63 107.54 105.26 107.57 104.81C107.6 104.38 107.94 104.22 108.26 104C108.68 103.71 108.91 103.13 109.35 102.91C109.85 102.65 110 102.06 110.59 101.91C111.22 101.76 111.83 101.48 112.4 101.16C113 100.83 113.67 100.78 114.29 100.73C114.85 100.69 115.52 100.85 116.04 100.83C117.44 100.79 118.38 101.72 119.57 102.04C120.36 102.25 121.23 102.69 122.12 101.96C122.77 101.43 123.65 101.25 124.51 101.21C125.67 101.16 126.74 102.29 126.86 103.43C127.02 104.98 126.73 106.4 126.9 108.08C126.92 108.16 126.93 108.26 126.9 108.34C126.74 111.12 127.05 110.43 127.04 112.94C127.13 113.58 126.8 114.18 126.89 114.83C126.91 114.97 126.8 115.42 126.94 115.55C127.03 116.16 127 116.25 126.91 116.45C126.48 117.4 126.91 117.76 127.02 118.73C127.06 119.07 126.82 119.44 126.86 119.78C127.04 121.72 126.81 123.63 126.63 125.55C126.49 127.01 125.95 128.38 125.25 129.64C124.97 130.14 124.48 130.66 123.84 130.86C123.79 130.87 123.74 130.91 123.72 130.95C122.99 132.27 121.66 132.79 120.4 133.36C120.02 133.53 119.49 133.45 119.03 133.45C117.91 133.45 116.85 133.89 115.72 133.76C114.91 133.67 114.13 133.29 113.28 133.46C113.06 133.5 112.79 133.39 112.62 133.2C112.35 132.9 112.08 132.94 111.68 132.95C111.01 132.97 110.4 132.56 109.84 132.14C108.99 131.49 108.43 130.58 107.69 129.83C107.23 129.36 107.16 127.9 107.58 127.22C107.75 126.94 107.77 126.41 108.18 126.44C108.9 126.49 109.64 126.39 110.34 126.61C111.12 126.85 111.7 127.43 112.33 127.89C112.92 128.33 113.54 128.71 114.12 129.15C114.4 129.36 114.71 129.46 115.05 129.4C115.88 129.26 116.7 129.39 117.53 129.4C118.61 129.41 120.56 128.02 120.9 126.98C121.02 126.62 121.17 126.29 121.4 125.97C121.69 125.58 121.71 125.1 121.54 124.63C121.45 124.39 121.37 124.14 121.33 123.89C121.22 123.17 120.65 122.85 120.01 123.23C118.8 123.95 117.43 124.2 116.11 124.51C115.44 124.67 114.63 124.63 113.87 124.46C113.19 124.31 112.52 124.2 111.88 123.89C111.67 123.78 111.41 123.82 111.68 123.36ZM116.24 120.24C117.17 120.45 117.17 120.45 117.7 120.14C118.4 119.73 119.18 119.58 119.78 118.85C120.4 118.09 120.87 117.34 121.3 116.45C121.92 115.14 121.82 113.84 121.92 112.49C122.06 110.63 121.38 109.03 120.63 107.45C119.78 105.68 117.95 105.42 116.28 105.07C115.55 104.92 114.76 105.25 114.06 105.55C113.53 105.77 112.74 106.08 112.64 106.5C112.39 107.48 111.74 108.2 111.28 109.02C110.82 109.84 110.95 110.74 110.68 111.57C110.68 111.57 110.22 114.01 110.89 115.58C111.33 116.88 111.95 118.06 112.99 119.01C113.51 119.48 114 119.87 114.71 120.04L116.24 120.24Z" fill="black"/>
<path d="M9.29995 99.9199C9.85995 99.2499 10.37 98.5199 11.3 98.2999C11.41 98.2699 11.52 98.1899 11.61 98.1099C12.2 97.5299 12.8699 97.1899 13.7299 97.1099C15.2499 96.9699 16.73 96.7499 18.15 97.6199C19.33 98.3399 20.51 99.0299 21.3 100.21C21.84 101.02 22.33 101.88 23.18 102.44C23.25 102.49 23.3199 102.56 23.3499 102.63C23.6099 103.27 24.1799 103.53 24.7899 103.59C25.5099 103.65 26.4499 103.61 26.7899 103.06C27.4699 101.97 27.52 100.7 26.94 99.4499C26.67 98.8799 26.17 98.4799 25.95 97.8799C25.77 97.3899 25.4 97.0899 24.96 96.6599C24.95 96.6499 24.93 96.5399 24.89 96.4899C24.41 95.7999 23.8699 95.0699 23.1699 94.6999C21.6999 93.8999 20.21 93.1499 18.56 92.6999C17.2 92.3299 15.92 91.9799 14.53 92.3399C14.23 92.4199 13.93 92.5599 13.64 92.5499C12.33 92.5099 11.1 92.5399 9.88998 93.2699C8.72998 93.9699 7.37997 94.3399 6.37997 95.3599C5.77997 95.9799 5.01997 96.4599 4.43997 97.1099C3.48997 98.1699 2.99996 99.5099 2.48996 100.81C2.26996 101.37 1.74994 101.82 1.71994 102.38C1.61994 104.11 1.12995 105.77 0.919949 107.48C0.829949 108.21 1.01999 108.91 1.01999 109.62C1.01999 110.37 0.739942 111.24 1.09994 111.89C1.48994 112.61 1.44999 113.31 1.51999 114.04C1.55999 114.39 1.49995 114.76 1.66995 115.1C2.06995 115.87 2.22996 116.75 2.73996 117.48C2.95996 117.8 3.23998 118.14 3.32998 118.5C3.52998 119.25 3.88998 119.89 4.32998 120.52C4.82998 121.23 5.46998 121.8 6.07998 122.39C6.68998 122.99 7.33994 123.64 8.09994 123.97C9.54994 124.61 11.0799 125.1 12.5999 125.54C13.4399 125.78 14.47 125.94 15.21 125.77C16.56 125.47 17.93 125.46 19.27 125.12C20.48 124.81 21.4899 124.16 22.5399 123.59C22.8999 123.39 23.35 123.23 23.64 122.9C24.16 122.32 24.61 121.66 25.24 121.21C25.9 120.74 25.98 119.96 26.37 119.35C26.68 118.88 26.81 118.32 27.13 117.83C27.79 116.83 27.59 115.71 26.77 114.87C26.53 114.62 25.4699 114.57 25.4699 114.57C24.5999 114.33 22.94 115.11 22.51 115.93C22.01 116.9 21.55 117.87 20.7 118.64C19.44 119.79 18.19 120.84 16.33 120.64C16.09 120.66 15.38 120.75 15.38 120.75C14.73 120.83 14.1099 120.58 13.4699 120.53C12.4799 120.45 11.48 120.34 10.77 119.51C10.08 118.71 9.41997 117.89 8.68997 117.12C8.03997 116.44 7.59996 115.57 7.36996 114.76C7.06996 113.71 6.58996 112.66 6.67996 111.5C6.73996 110.74 6.64999 109.98 6.70999 109.22C6.76999 108.5 6.86996 107.79 6.80996 107.06C6.67996 105.51 7.10998 104.1 7.88998 102.75C8.22998 102.16 8.21997 101.39 8.68997 100.83C8.70997 100.86 9.17995 100.07 9.29995 99.9199Z" fill="black"/>
<path d="M38.22 108.58C38.26 107.45 39.2901 106.73 39.9601 106.22C42.3201 104.43 45.33 104.8 46.55 107.9C47.27 109.75 46.9601 111.72 47.0301 113.63C47.0701 114.62 46.94 115.68 47.04 116.65C47.22 118.24 46.87 119.79 46.97 121.36C46.99 121.7 47.17 121.96 47.19 122.3C47.25 124.03 47.48 124.74 48.86 124.8C48.96 124.8 49.06 124.83 49.16 124.87C49.86 125.16 51.32 124.73 51.73 124.1C51.84 123.93 51.85 123.75 51.85 123.55C51.87 122.98 51.88 122.42 51.99 121.85C52.13 121.08 52.16 120.28 52.13 119.49C52.09 118.2 51.97 116.92 52.25 115.64C52.41 114.94 52.6 114.21 51.98 113.59C51.91 113.52 51.9501 113.33 51.9601 113.2C52.0501 111.4 52.32 109.58 51.94 107.79C51.73 106.79 51.89 105.62 50.83 104.95C50.82 104.95 50.86 104.89 50.86 104.86C50.84 103.69 50.17 102.95 49.29 102.25C48.52 101.63 47.54 101.65 46.76 101.16C46.49 100.99 46.2201 100.7 45.8401 100.82C45.4801 100.93 45.17 100.83 44.83 100.75C43.61 100.45 42.4501 100.78 41.3401 101.26C41.0301 101.4 40.72 101.45 40.37 101.56C39.93 101.7 39.93 101.7 39.37 102.1C39.03 102.35 38.69 102.09 38.69 102.09C38.25 101.93 37.82 101.66 37.72 101.21C37.56 100.47 37.34 99.6601 37.5 98.9601C37.79 97.6401 37.48 96.3601 37.5 95.0601C37.52 93.5901 35.64 92.4801 34.26 93.0701C33.87 93.2401 33.3401 93.2901 33.1501 93.7001C32.3101 95.4801 32.2601 96.5701 32.4601 98.6301C32.5201 98.7601 32.46 99.2801 32.45 99.4601C32.42 99.7201 32.4901 99.9801 32.4601 100.24C32.4101 100.65 32.4301 101.08 32.4601 101.46C32.5201 102.13 32.18 102.73 32.36 103.42C32.68 104.61 32.27 105.85 32.51 107.06C32.56 107.3 32.73 107.55 32.62 107.85C32.34 108.56 32.36 109.31 32.43 110.06C32.53 111.12 32.72 112.19 32.68 113.25C32.64 114.39 32.25 115.5 32.45 116.68C32.59 117.49 32.64 118.3 32.41 119.14C32.29 119.56 32.42 120.06 32.49 120.31C32.55 120.34 32.48 120.54 32.48 120.7C32.47 121.23 32.5 121.14 32.49 121.39C32.47 121.75 32.51 122.11 32.5 122.47C32.48 123.42 33.43 124.87 34.29 125.18C35.09 125.47 36.58 124.82 37.08 124C37.51 123.28 37.48 122.51 37.52 121.72C37.59 120.52 37.73 119.32 37.58 118.11C37.48 117.3 37.28 116.47 37.49 115.67C37.73 114.77 37.57 113.9 37.58 113.01C37.6 111.94 37.35 110.83 37.93 109.8L38.22 108.58Z" fill="black"/>
<path d="M101.66 110.69C101.61 111.33 101.55 111.97 101.4 112.59C101.23 113.29 101.51 113.91 101.6 114.57C101.76 115.76 101.48 116.95 101.47 118.14C101.46 118.78 101.25 119.4 101.48 120.07C101.67 120.62 101.54 121.24 101.41 121.82C101.23 122.59 101.3 123.42 100.81 124.13C100.3 124.87 98.93 125.58 97.97 124.83C97.82 124.71 97.58 124.72 97.41 124.63C96.63 124.21 96.31 123.39 96.47 122.35C96.65 121.18 96.71 119.98 96.39 118.86C95.97 117.4 96.5201 116.03 96.4601 114.61C96.4501 114.25 96.52 113.87 96.42 113.54C96.04 112.26 96.3801 110.96 96.2101 109.68C96.1101 108.93 96.24 108.13 95.54 107.53C95.26 107.29 95.31 106.79 95.01 106.45C94.43 105.77 93.64 105.33 92.85 105.2C92.08 105.07 91.1 105.17 90.45 105.51C89.3 106.11 88.18 106.92 87.67 108.26C87.22 109.47 86.9 110.71 87.01 112.02C87.08 112.96 86.87 113.87 86.75 114.8C86.71 115.11 86.79 115.46 86.91 115.76C87.37 116.88 86.84 118 86.93 119.11C87.03 120.36 86.66 121.59 86.89 122.85C86.97 123.32 86.7401 123.73 86.4001 124.14C85.5101 125.21 84.42 125.23 83.22 125C82.82 124.93 81.81 123.41 81.82 122.89C81.84 121.94 82 120.98 81.89 120.04C81.67 118.18 81.94 116.31 81.74 114.45C81.64 113.59 81.67 112.68 81.74 111.82C81.88 110.22 81.76 108.64 81.75 107.05C81.74 105.67 81.7201 104.26 82.0301 102.88C82.0901 102.64 82.18 102.42 82.39 102.27C82.75 101.78 83.23 101.58 83.66 101.3C84.09 101.02 84.7001 101.27 85.2101 101.38C85.6801 101.48 86.11 101.73 86.56 101.9C87.18 102.13 87.77 102.5 88.47 102.05C88.47 102.05 92.04 99.9699 95.94 101.15C97.05 101.28 97.79 101.88 98.56 102.42C99.38 103 100.13 103.82 100.46 104.97C100.74 105.93 100.93 106.93 101.28 107.87C101.3 107.87 101.53 109.07 101.66 110.69Z" fill="black"/>
<path d="M176.7 110.69C176.65 111.33 176.59 111.97 176.44 112.59C176.27 113.29 176.55 113.91 176.64 114.57C176.8 115.76 176.52 116.95 176.51 118.14C176.5 118.78 176.29 119.4 176.52 120.07C176.71 120.62 176.58 121.24 176.45 121.82C176.27 122.59 176.34 123.42 175.85 124.13C175.34 124.87 173.97 125.58 173.01 124.83C172.86 124.71 172.62 124.72 172.45 124.63C171.67 124.21 171.35 123.39 171.51 122.35C171.69 121.18 171.75 119.98 171.43 118.86C171.01 117.4 171.56 116.03 171.5 114.61C171.49 114.25 171.56 113.87 171.46 113.54C171.08 112.26 171.42 110.96 171.25 109.68C171.15 108.93 171.28 108.13 170.58 107.53C170.3 107.29 170.35 106.79 170.05 106.45C169.47 105.77 168.68 105.33 167.89 105.2C167.12 105.07 166.14 105.17 165.49 105.51C164.34 106.11 163.22 106.92 162.71 108.26C162.26 109.47 161.94 110.71 162.05 112.02C162.12 112.96 161.91 113.87 161.79 114.8C161.75 115.11 161.83 115.46 161.95 115.76C162.41 116.88 161.88 118 161.97 119.11C162.07 120.36 161.7 121.59 161.93 122.85C162.01 123.32 161.78 123.73 161.44 124.14C160.55 125.21 159.46 125.23 158.26 125C157.86 124.93 156.85 123.41 156.86 122.89C156.88 121.94 157.04 120.98 156.93 120.04C156.71 118.18 156.98 116.31 156.78 114.45C156.68 113.59 156.71 112.68 156.78 111.82C156.92 110.22 156.8 108.64 156.79 107.05C156.78 105.67 156.76 104.26 157.07 102.88C157.13 102.64 157.22 102.42 157.43 102.27C157.79 101.78 158.27 101.58 158.7 101.3C159.13 101.02 159.74 101.27 160.25 101.38C160.72 101.48 161.15 101.73 161.6 101.9C162.22 102.13 162.81 102.5 163.51 102.05C163.51 102.05 167.08 99.9699 170.98 101.15C172.09 101.28 172.83 101.88 173.6 102.42C174.42 103 175.17 103.82 175.5 104.97C175.78 105.93 175.97 106.93 176.32 107.87C176.34 107.87 176.57 109.07 176.7 110.69Z" fill="black"/>
<path d="M76.25 117.58C76.51 118.62 76.31 119.67 76.14 120.69C76.08 121.03 76.37 120.94 76.4 121.16C76.61 122.34 76.13 123.32 75.63 124.29C75.42 124.71 74.85 124.79 74.44 124.82C73.31 124.9 72.21 124.78 71.1 124.33C70.32 124.01 69.42 123.88 68.5 124.47C67.58 125.07 66.48 125.4 65.44 125.79C65.03 125.95 64.56 125.78 64.17 125.63C63.77 125.47 63.17 125.86 62.93 125.22C62.92 125.2 62.78 125.19 62.73 125.22C61.83 125.91 61.51 124.92 60.96 124.61C60.89 124.57 60.91 124.38 60.77 124.4C59.51 124.61 59.26 123.46 58.69 122.8C58.28 122.33 58.09 121.68 57.73 121.15C57.1 120.23 57.0399 119.18 56.9699 118.13C56.9299 117.57 56.59 117.01 56.81 116.46C57.13 115.68 56.68 114.93 56.78 114.18C56.88 113.45 57.07 112.63 57.06 112C57.03 110.83 57.37 109.6 56.93 108.44C56.84 108.2 56.73 107.96 56.79 107.69C57.09 106.13 56.93 104.54 57.07 102.97C57.14 102.24 57.47 101.74 58.25 101.67C58.66 101.63 58.93 101.28 59.36 101.27C60.69 101.23 61.99 102.42 61.93 103.85C61.85 105.63 62.05 107.4 61.89 109.19C61.76 110.64 61.71 112.14 62.13 113.59C62.24 113.96 62.14 114.44 62.05 114.73C61.75 115.64 62.11 116.47 62.19 117.32C62.35 118.97 63.2 120.19 64.74 120.85C65.27 121.08 65.85 121.17 66.42 121.3C66.62 121.35 66.81 121.29 66.99 121.13C67.19 120.95 67.46 120.71 67.69 120.71C68.56 120.72 68.99 120.03 69.59 119.61C69.98 119.34 69.9 118.81 70.17 118.48C70.85 117.63 70.9 116.59 70.94 115.58C70.96 115.13 71.39 114.84 71.28 114.37C70.98 113.07 71.01 111.74 71.14 110.45C71.24 109.39 71.15 108.34 71.15 107.3C71.15 106.09 71.05 104.88 71.3 103.7C71.42 103.1 71.48 102.47 71.99 101.97C72.85 101.13 73.9 101.22 74.81 101.56C75.51 101.82 75.97 102.58 76.17 103.43C76.46 104.66 76.23 105.87 76.18 107.09C76.13 108.25 76.45 109.44 76.3 110.57C76.12 111.88 76.58 113.18 76.25 114.46C76.12 114.94 76.35 115.36 76.28 115.83C76.29 115.82 76.16 117.13 76.25 117.58Z" fill="black"/>
<path d="M151.22 117.58C151.48 118.62 151.28 119.67 151.11 120.69C151.05 121.03 151.34 120.94 151.37 121.16C151.58 122.34 151.1 123.32 150.6 124.29C150.39 124.71 149.82 124.79 149.41 124.82C148.28 124.9 147.18 124.78 146.07 124.33C145.29 124.01 144.39 123.88 143.47 124.47C142.55 125.07 141.45 125.4 140.41 125.79C140 125.95 139.53 125.78 139.14 125.63C138.74 125.47 138.14 125.86 137.9 125.22C137.89 125.2 137.75 125.19 137.7 125.22C136.8 125.91 136.48 124.92 135.93 124.61C135.86 124.57 135.88 124.38 135.74 124.4C134.48 124.61 134.23 123.46 133.66 122.8C133.25 122.33 133.06 121.68 132.7 121.15C132.07 120.23 132.01 119.18 131.94 118.13C131.9 117.57 131.56 117.01 131.78 116.46C132.1 115.68 131.65 114.93 131.75 114.18C131.85 113.45 132.04 112.63 132.03 112C132 110.83 132.34 109.6 131.9 108.44C131.81 108.2 131.7 107.96 131.76 107.69C132.06 106.13 131.9 104.54 132.04 102.97C132.11 102.24 132.44 101.74 133.22 101.67C133.63 101.63 133.9 101.28 134.33 101.27C135.66 101.23 136.96 102.42 136.9 103.85C136.82 105.63 137.02 107.4 136.86 109.19C136.73 110.64 136.68 112.14 137.1 113.59C137.21 113.96 137.11 114.44 137.02 114.73C136.72 115.64 137.08 116.47 137.16 117.32C137.32 118.97 138.17 120.19 139.71 120.85C140.24 121.08 140.82 121.17 141.39 121.3C141.59 121.35 141.78 121.29 141.96 121.13C142.16 120.95 142.43 120.71 142.66 120.71C143.53 120.72 143.96 120.03 144.56 119.61C144.95 119.34 144.87 118.81 145.14 118.48C145.82 117.63 145.87 116.59 145.91 115.58C145.93 115.13 146.36 114.84 146.25 114.37C145.95 113.07 145.98 111.74 146.11 110.45C146.21 109.39 146.12 108.34 146.12 107.3C146.12 106.09 146.02 104.88 146.27 103.7C146.39 103.1 146.45 102.47 146.96 101.97C147.82 101.13 148.87 101.22 149.78 101.56C150.48 101.82 150.94 102.58 151.14 103.43C151.43 104.66 151.2 105.87 151.15 107.09C151.1 108.25 151.42 109.44 151.27 110.57C151.09 111.88 151.55 113.18 151.22 114.46C151.09 114.94 151.32 115.36 151.25 115.83C151.26 115.82 151.14 117.13 151.22 117.58Z" fill="black"/>
<path d="M121.73 69.9101C129.51 73.2401 137.04 74.6801 138.67 72.4501C140.63 69.7801 138.31 66.4901 136.36 64.6201C135.7 63.9901 133.83 62.0101 130.96 59.6401C129.31 61.9901 127.52 64.2901 125.51 66.4901C124.38 67.7301 123.11 68.8601 121.73 69.9101Z" fill="#1E0001"/>
<path d="M98.6099 94.9702C98.6099 94.9702 103.73 96.6702 105.43 78.9902C101.3 81.0802 97.0399 83.3902 92.9199 86.3502C94.5899 94.5602 95.9199 94.6802 98.6099 94.9702Z" fill="#1E0001"/>
</svg>
