<svg width="14" height="14" viewBox="0 0 14 14" fill="none" xmlns="http://www.w3.org/2000/svg">
<path d="M13.2145 12.3541L9.15664 8.29631C9.78633 7.48225 10.127 6.48694 10.127 5.44006C10.127 4.18694 9.63789 3.01194 8.75351 2.126C7.86914 1.24006 6.69102 0.752563 5.43945 0.752563C4.18789 0.752563 3.00977 1.24163 2.12539 2.126C1.23945 3.01038 0.751953 4.18694 0.751953 5.44006C0.751953 6.69163 1.24102 7.86975 2.12539 8.75412C3.00977 9.64006 4.18633 10.1276 5.43945 10.1276C6.48633 10.1276 7.48008 9.78694 8.29414 9.15881L12.352 13.2151C12.3639 13.227 12.378 13.2364 12.3935 13.2429C12.4091 13.2493 12.4257 13.2526 12.4426 13.2526C12.4594 13.2526 12.4761 13.2493 12.4916 13.2429C12.5072 13.2364 12.5213 13.227 12.5332 13.2151L13.2145 12.5354C13.2264 12.5235 13.2358 12.5093 13.2422 12.4938C13.2487 12.4782 13.252 12.4616 13.252 12.4447C13.252 12.4279 13.2487 12.4113 13.2422 12.3957C13.2358 12.3802 13.2264 12.366 13.2145 12.3541ZM7.91445 7.91506C7.25195 8.576 6.37383 8.94006 5.43945 8.94006C4.50508 8.94006 3.62695 8.576 2.96445 7.91506C2.30352 7.25256 1.93945 6.37444 1.93945 5.44006C1.93945 4.50569 2.30352 3.626 2.96445 2.96506C3.62695 2.30413 4.50508 1.94006 5.43945 1.94006C6.37383 1.94006 7.25352 2.30256 7.91445 2.96506C8.57539 3.62756 8.93945 4.50569 8.93945 5.44006C8.93945 6.37444 8.57539 7.25413 7.91445 7.91506Z" fill="black" fill-opacity="0.45"/>
</svg>
