<svg width="25" height="25" viewBox="0 0 25 25" fill="none" xmlns="http://www.w3.org/2000/svg">
<path d="M17.0798 24.7145C16.8038 24.7145 16.5798 24.4905 16.5798 24.2145C16.5798 23.9385 16.8038 23.7145 17.0798 23.7145H17.5798V22.6945C16.4458 22.5885 15.6828 21.9745 15.5898 19.7145H12.0628C11.9448 21.3725 11.2338 22.4285 10.0798 22.6645V24.2145C10.0798 24.4905 9.85578 24.7145 9.57978 24.7145H8.57978C8.30378 24.7145 8.07978 24.4905 8.07978 24.2145C8.07978 23.9385 8.30378 23.7145 8.57978 23.7145H9.07978V22.6525C7.78278 22.3245 7.11078 20.7315 7.08078 17.9115C5.97578 16.6205 5.57978 13.8795 5.57978 11.7145C5.55378 10.8845 5.60478 10.0435 5.73078 9.21448H4.07978C3.48078 9.21448 3.03878 9.02148 2.76378 8.64048C2.30878 8.00948 2.57378 7.15248 2.60478 7.05648C2.63778 6.95948 2.69778 6.87548 2.77978 6.81448L4.69878 5.37848C4.61978 5.17148 4.57978 4.94948 4.57978 4.71448C4.57978 2.90248 6.92278 2.74348 8.07978 2.71948V1.21448C8.07978 1.05348 8.15778 0.901478 8.28978 0.807478C8.37478 0.746478 8.47478 0.714478 8.57978 0.714478C8.63578 0.714478 8.69078 0.723478 8.74278 0.741478C9.74478 1.08648 10.4538 1.97948 10.5658 3.02748C11.9048 4.80248 12.6198 6.99948 12.5788 9.22348V10.7145H17.0788C20.5228 10.7145 22.5788 12.5835 22.5788 15.7145C22.5788 18.2145 21.2938 18.9305 20.5648 19.1335C20.4488 20.8435 19.6278 22.2795 18.5788 22.6295V24.2145C18.5788 24.4905 18.3548 24.7145 18.0788 24.7145H17.0798ZM16.0798 18.7145C16.3558 18.7145 16.5798 18.9385 16.5798 19.2145C16.5798 21.7145 17.1448 21.7145 18.0798 21.7145C18.6918 21.7145 19.5798 20.5455 19.5798 18.7145V15.7145C19.5798 15.4385 19.8038 15.2145 20.0798 15.2145C20.3558 15.2145 20.5798 15.4385 20.5798 15.7145V18.0685C21.0438 17.8295 21.5798 17.2265 21.5798 15.7145C21.5798 13.1355 19.9818 11.7145 17.0798 11.7145H12.0798C11.8038 11.7145 11.5798 11.4905 11.5798 11.2145V9.21448C11.6168 7.15848 10.9448 5.13848 9.68478 3.52148C9.62178 3.43948 9.58478 3.34248 9.57978 3.23848C9.55878 2.80048 9.37778 2.39848 9.07978 2.10048V3.21448C9.07978 3.49048 8.85578 3.71448 8.57978 3.71448C5.57978 3.71448 5.57978 4.44148 5.57978 4.71448C5.57978 4.89948 5.63278 5.05948 5.74078 5.20148C5.74278 5.20448 5.75578 5.22048 5.75978 5.22648C5.99878 5.52448 6.50678 5.71448 7.07978 5.71448C7.24678 5.71448 7.40178 5.79748 7.49478 5.93548C7.58778 6.07548 7.60578 6.25048 7.54178 6.40448C7.22678 7.16948 6.98478 7.97648 6.82078 8.80248C6.81878 8.82048 6.81478 8.84648 6.80478 8.87748C6.62578 9.80748 6.54978 10.7565 6.57878 11.6985C6.57878 14.2785 7.12278 16.5505 7.93278 17.3605C8.02678 17.4545 8.07878 17.5805 8.07878 17.7145C8.07878 19.2085 8.27378 21.7145 9.57878 21.7145C10.9328 21.7145 11.0788 19.9665 11.0788 19.2145C11.0788 18.9385 11.3028 18.7145 11.5788 18.7145H16.0798ZM3.52178 7.50848C3.48578 7.70848 3.48878 7.93648 3.57578 8.05648C3.66978 8.18748 3.90178 8.21448 4.07978 8.21448H5.92178C6.04378 7.68048 6.19778 7.15448 6.37978 6.64248C5.96778 6.55648 5.59878 6.39548 5.30678 6.17248L3.52178 7.50848Z" fill="#741E9E"/>
</svg>
