<svg width="45" height="45" viewBox="0 0 45 45" fill="none" xmlns="http://www.w3.org/2000/svg">
<circle cx="22.5" cy="22.5" r="22.5" fill="#C7A900"/>
<path d="M11.6316 16.2632C11.2829 16.2632 11 15.9802 11 15.6316C11 15.2829 11.2829 15 11.6316 15H34.3684C34.7171 15 35 15.2829 35 15.6316C35 15.9802 34.7171 16.2632 34.3684 16.2632H11.6316Z" fill="#443232"/>
<path d="M11.6316 22.579C11.2829 22.579 11 22.296 11 21.9474C11 21.5987 11.2829 21.3158 11.6316 21.3158H34.3684C34.7171 21.3158 35 21.5987 35 21.9474C35 22.296 34.7171 22.579 34.3684 22.579H11.6316Z" fill="#443232"/>
<path d="M11.6316 28.8947C11.2829 28.8947 11 28.6118 11 28.2632C11 27.9145 11.2829 27.6316 11.6316 27.6316H34.3684C34.7171 27.6316 35 27.9145 35 28.2632C35 28.6118 34.7171 28.8947 34.3684 28.8947H11.6316Z" fill="#443232"/>
</svg>
