<svg width="24" height="24" viewBox="0 0 24 24" fill="none" xmlns="http://www.w3.org/2000/svg">
<path d="M12 24C8.885 24 5.932 22.805 3.68 20.636C3.635 20.605 3.595 20.567 3.561 20.522C1.265 18.248 0 15.222 0 12C0 5.383 5.383 0 12 0C18.617 0 24 5.383 24 12C24 15.229 22.73 18.259 20.425 20.535C20.398 20.569 20.367 20.598 20.334 20.623C18.081 22.801 15.122 24 12 24ZM4.812 20.318C6.813 22.05 9.352 23 12 23C14.648 23 17.187 22.05 19.188 20.318C17.686 19.501 16.105 18.839 14.483 18.347C14.004 18.171 13.662 17.725 13.506 17.086C13.317 16.312 13.402 15.225 13.93 14.644C14.674 13.826 15.4 12.81 15.4 10.214C15.414 10.036 15.419 9.901 15.415 9.766C15.365 7.96 13.907 6.545 12.094 6.545L12.012 6.546L11.903 6.545C11.793 6.545 11.689 6.55 11.585 6.559C9.767 6.73 8.426 8.348 8.597 10.166C8.599 12.806 9.325 13.824 10.069 14.642C10.597 15.223 10.682 16.31 10.493 17.084C10.337 17.723 10 18.168 9.544 18.336C7.901 18.837 6.315 19.501 4.812 20.318ZM12 1C5.935 1 1 5.935 1 12C1 14.847 2.082 17.536 4.052 19.595C5.697 18.675 7.437 17.933 9.227 17.39C9.306 17.36 9.443 17.174 9.523 16.848C9.673 16.235 9.542 15.548 9.331 15.316C8.456 14.353 7.601 13.165 7.601 10.214C7.494 9.103 7.84 7.99 8.576 7.105C9.313 6.219 10.348 5.672 11.492 5.564C11.627 5.551 11.762 5.545 11.894 5.545C11.934 5.545 11.974 5.546 12.014 5.547C12.038 5.546 12.077 5.545 12.115 5.545C13.215 5.545 14.265 5.964 15.068 6.725C15.904 7.517 16.382 8.587 16.414 9.738C16.419 9.911 16.413 10.086 16.397 10.26C16.399 13.167 15.544 14.352 14.669 15.316C14.457 15.548 14.326 16.235 14.476 16.848C14.561 17.198 14.704 17.364 14.799 17.399C16.567 17.934 18.302 18.674 19.946 19.594C21.918 17.536 23 14.847 23 12C23 5.935 18.065 1 12 1Z" fill="black"/>
</svg>
