<svg width="25" height="25" viewBox="0 0 25 25" fill="none" xmlns="http://www.w3.org/2000/svg">
<path d="M12.5 23.4265C12.224 23.4265 12 23.2025 12 22.9265V9.87048C11.827 9.83048 11.659 9.77148 11.5 9.69248V10.4265C11.39 12.3175 9.898 13.8155 8.029 13.9255L4.5 13.9265C2.892 13.9265 0.5 13.3935 0.5 11.9265C0.5 11.6215 0.5 10.8385 5.274 8.80548C3.989 8.59148 2.772 8.09048 1.71 7.33348C0.431 6.48548 0.433 5.71448 0.549 5.33048C0.715 4.78148 1.284 4.42648 2 4.42648H9.131C9.045 4.20048 9 3.95948 9 3.71448C9 2.61148 9.897 1.71448 11 1.71448C11.575 1.71448 12.123 1.96948 12.5 2.39648C12.877 1.96948 13.425 1.71448 14 1.71448C15.103 1.71448 16 2.61148 16 3.71448C16 3.95948 15.955 4.20048 15.868 4.42648H23C23.716 4.42648 24.285 4.78148 24.451 5.33048C24.567 5.71448 24.568 6.48648 23.276 7.34348C22.223 8.09448 21.01 8.59248 19.727 8.80648C24.5 10.8385 24.5 11.6215 24.5 11.9265C24.5 13.3935 22.108 13.9265 20.5 13.9265H17C15.109 13.8165 13.611 12.3245 13.501 10.4555V9.69148C13.355 9.76448 13.2 9.82148 13.039 9.86048C13.026 9.86448 13.013 9.86748 13 9.87048V22.9265C13 23.2025 12.776 23.4265 12.5 23.4265ZM14.5 10.4265C14.58 11.7655 15.667 12.8475 17.029 12.9275L20.5 12.9265C22.088 12.9265 23.453 12.3955 23.499 11.9495C23.304 11.5635 20.527 10.1355 17.069 8.81048C16.271 8.69448 15.248 8.46048 14.5 7.99148V10.4265ZM1.502 11.9605C1.565 12.4035 2.922 12.9265 4.5 12.9265H8C9.339 12.8465 10.421 11.7595 10.501 10.3975L10.5 7.99148C9.752 8.46048 8.728 8.69548 7.93 8.81148C4.5 10.1255 1.742 11.5415 1.502 11.9605ZM11.5 8.42448C11.597 8.55448 11.718 8.66448 11.852 8.74548C12.048 8.86448 12.272 8.92648 12.498 8.92648C12.599 8.92648 12.701 8.91448 12.8 8.88948C13.08 8.82048 13.326 8.65548 13.5 8.42048V6.42648C13.5 6.14848 13.531 5.89648 13.594 5.67148C13.169 5.58348 12.786 5.35948 12.5 5.03348C12.214 5.35948 11.831 5.58348 11.406 5.67048C11.469 5.89548 11.5 6.14848 11.5 6.42648V8.42448ZM2 5.42648C1.7 5.42648 1.531 5.53948 1.507 5.61948C1.469 5.74648 1.642 6.08848 2.277 6.51048C3.528 7.40148 4.991 7.89048 6.513 7.92748C8.135 7.92748 10.501 7.34248 10.501 6.42748C10.501 5.69748 10.229 5.56248 10.14 5.51848L10.102 5.49948C9.934 5.42648 9.703 5.42648 9.5 5.42648H2ZM15.5 5.42648C15.296 5.42648 15.066 5.42648 14.886 5.50448L14.856 5.51848C14.772 5.56148 14.5 5.69548 14.5 6.42648C14.5 7.35548 16.83 7.92648 18.5 7.92648C20.012 7.88948 21.47 7.40248 22.71 6.51948C23.357 6.09048 23.532 5.74648 23.494 5.61948C23.469 5.53948 23.3 5.42648 23 5.42648H15.5ZM14 2.71448C13.448 2.71448 13 3.16348 13 3.71448C13 4.26548 13.448 4.71448 14 4.71448C14.552 4.71448 15 4.26548 15 3.71448C15 3.16348 14.552 2.71448 14 2.71448ZM11 2.71448C10.449 2.71448 10 3.16348 10 3.71448C10 4.26548 10.449 4.71448 11 4.71448C11.551 4.71448 12 4.26548 12 3.71448C12 3.16348 11.551 2.71448 11 2.71448Z" fill="#1F4C11"/>
</svg>
