<svg width="48" height="38" viewBox="0 0 48 38" fill="none" xmlns="http://www.w3.org/2000/svg">
<path stroke-width="2" d="M1 38C0.448 38 0 37.552 0 37C0 36.448 0.448 36 1 36H47C47.552 36 48 36.448 48 37C48 37.552 47.552 38 47 38H1Z" fill="#C35623"/>
<path stroke-width="2" d="M1 24C0.448 24 0 23.552 0 23C0 22.448 0.448 22 1 22H5C5.552 22 6 22.448 6 23C6 23.552 5.552 24 5 24H1Z" fill="#C35623"/>
<path stroke-width="2" d="M10.2718 11.2719C10.0038 11.2719 9.75381 11.1679 9.56381 10.9799L6.73781 8.15192C6.34781 7.76192 6.34781 7.12792 6.73781 6.73792C6.92581 6.54992 7.17781 6.44592 7.44581 6.44592C7.71381 6.44592 7.96381 6.54992 8.15381 6.73792L10.9798 9.56392C11.3698 9.95392 11.3698 10.5879 10.9798 10.9779C10.7898 11.1679 10.5398 11.2719 10.2718 11.2719Z" fill="#C35623"/>
<path stroke-width="2" d="M23 6C22.448 6 22 5.552 22 5V1C22 0.448 22.448 0 23 0C23.552 0 24 0.448 24 1V5C24 5.552 23.552 6 23 6Z" fill="#C35623"/>
<path stroke-width="2" d="M35.728 11.2719C35.46 11.2719 35.21 11.1679 35.02 10.9799C34.63 10.5899 34.63 9.95592 35.02 9.56592L37.848 6.73792C38.036 6.54992 38.288 6.44592 38.556 6.44592C38.824 6.44592 39.074 6.54992 39.264 6.73792C39.654 7.12792 39.654 7.76192 39.264 8.15192L36.436 10.9799C36.246 11.1679 35.996 11.2719 35.728 11.2719Z" fill="#C35623"/>
<path stroke-width="2" d="M41 24C40.448 24 40 23.552 40 23C40 22.448 40.448 22 41 22H45C45.552 22 46 22.448 46 23C46 23.552 45.552 24 45 24H41Z" fill="#C35623"/>
<path stroke-width="2" d="M32.7585 34C32.4885 34 32.2285 33.89 32.0405 33.696C31.6565 33.3 31.6665 32.668 32.0605 32.282C34.5505 29.862 35.9485 26.616 35.9985 23.144C36.0485 19.672 34.7425 16.388 32.3225 13.898C29.9025 11.408 26.6565 10.01 23.1845 9.95996H22.9845C19.5925 9.95996 16.3805 11.266 13.9405 13.638C11.4545 16.054 10.0585 19.3 10.0085 22.776C9.95845 26.252 11.2625 29.536 13.6785 32.022C13.7645 32.11 13.8525 32.198 13.9405 32.284C14.3345 32.668 14.3445 33.302 13.9605 33.698C13.7685 33.892 13.5145 34 13.2425 34C12.9805 34 12.7325 33.9 12.5445 33.716C12.4445 33.618 12.3445 33.518 12.2445 33.418C9.45445 30.548 7.95045 26.76 8.00845 22.748C8.06645 18.736 9.67645 14.992 12.5445 12.204C15.3605 9.46796 19.0865 7.95996 23.0365 7.95996H23.2105C27.2185 8.01796 30.9625 9.62996 33.7545 12.504C36.5465 15.376 38.0545 19.166 37.9965 23.172C37.9385 27.178 36.3265 30.922 33.4525 33.714C33.2685 33.9 33.0205 34 32.7585 34Z" fill="#C35623"/>
</svg>
