<svg width="25" height="25" viewBox="0 0 25 25" fill="none" xmlns="http://www.w3.org/2000/svg">
<g clip-path="url(#clip0)">
<path d="M1 22.2146C0.724 22.2146 0.5 21.9906 0.5 21.7146C0.5 21.4386 0.724 21.2146 1 21.2146H24C24.276 21.2146 24.5 21.4386 24.5 21.7146C24.5 21.9906 24.276 22.2146 24 22.2146H1Z" fill="#C35623"/>
<path d="M1 15.2146C0.724 15.2146 0.5 14.9906 0.5 14.7146C0.5 14.4386 0.724 14.2146 1 14.2146H3C3.276 14.2146 3.5 14.4386 3.5 14.7146C3.5 14.9906 3.276 15.2146 3 15.2146H1Z" fill="#C35623"/>
<path d="M5.63591 8.8505C5.50191 8.8505 5.37691 8.7985 5.28191 8.7045L3.86891 7.2905C3.67391 7.0955 3.67391 6.7785 3.86891 6.5835C3.96291 6.4895 4.08891 6.4375 4.22291 6.4375C4.35691 6.4375 4.48191 6.4895 4.57691 6.5835L5.98991 7.9965C6.18491 8.1915 6.18491 8.5085 5.98991 8.7035C5.89491 8.7985 5.76991 8.8505 5.63591 8.8505Z" fill="#C35623"/>
<path d="M12 6.2146C11.724 6.2146 11.5 5.9906 11.5 5.7146V3.7146C11.5 3.4386 11.724 3.2146 12 3.2146C12.276 3.2146 12.5 3.4386 12.5 3.7146V5.7146C12.5 5.9906 12.276 6.2146 12 6.2146Z" fill="#C35623"/>
<path d="M18.3635 8.8505C18.2295 8.8505 18.1045 8.7985 18.0095 8.7045C17.8145 8.5095 17.8145 8.1925 18.0095 7.9975L19.4235 6.5835C19.5175 6.4895 19.6435 6.4375 19.7775 6.4375C19.9115 6.4375 20.0365 6.4895 20.1315 6.5835C20.3265 6.7785 20.3265 7.0955 20.1315 7.2905L18.7175 8.7045C18.6225 8.7985 18.4975 8.8505 18.3635 8.8505Z" fill="#C35623"/>
<path d="M21 15.2146C20.724 15.2146 20.5 14.9906 20.5 14.7146C20.5 14.4386 20.724 14.2146 21 14.2146H23C23.276 14.2146 23.5 14.4386 23.5 14.7146C23.5 14.9906 23.276 15.2146 23 15.2146H21Z" fill="#C35623"/>
<path d="M16.8787 20.2146C16.7437 20.2146 16.6137 20.1596 16.5197 20.0626C16.3277 19.8646 16.3327 19.5486 16.5297 19.3556C17.7747 18.1456 18.4737 16.5226 18.4987 14.7866C18.5237 13.0506 17.8707 11.4086 16.6607 10.1636C15.4507 8.91858 13.8277 8.21958 12.0917 8.19458H11.9917C10.2957 8.19458 8.68974 8.84758 7.46974 10.0336C6.22674 11.2416 5.52874 12.8646 5.50374 14.6026C5.47874 16.3406 6.13074 17.9826 7.33874 19.2256C7.38174 19.2696 7.42574 19.3136 7.46974 19.3566C7.66674 19.5486 7.67174 19.8656 7.47974 20.0636C7.38374 20.1606 7.25674 20.2146 7.12074 20.2146C6.98974 20.2146 6.86574 20.1646 6.77174 20.0726C6.72174 20.0236 6.67174 19.9736 6.62174 19.9236C5.22674 18.4886 4.47474 16.5946 4.50374 14.5886C4.53274 12.5826 5.33774 10.7106 6.77174 9.31658C8.17974 7.94858 10.0427 7.19458 12.0177 7.19458H12.1047C14.1087 7.22358 15.9807 8.02958 17.3767 9.46658C18.7727 10.9026 19.5267 12.7976 19.4977 14.8006C19.4687 16.8036 18.6627 18.6756 17.2257 20.0716C17.1337 20.1646 17.0097 20.2146 16.8787 20.2146Z" fill="#C35623"/>
</g>
<defs>
<clipPath id="clip0">
<rect width="24" height="24" fill="white" transform="translate(0.5 0.7146)"/>
</clipPath>
</defs>
</svg>
