<svg width="25" height="25" viewBox="0 0 25 25" fill="none" xmlns="http://www.w3.org/2000/svg">
<path d="M18.499 24.2145C18.325 24.2145 18.161 24.1225 18.071 23.9735C17.385 22.8415 17.015 21.5435 16.999 20.2205C16.997 20.0875 17.048 19.9605 17.141 19.8655C17.234 19.7705 17.359 19.7165 17.493 19.7145H17.494C17.777 19.7145 17.995 19.9365 17.999 20.2085C18.011 21.1745 18.243 22.1325 18.674 22.9965C19.523 22.3305 20.014 21.3125 19.999 20.2215C19.999 18.6195 18.422 17.9955 17.69 17.7935C17.376 18.4475 16.973 19.0645 16.491 19.6325C16.481 19.6475 16.468 19.6635 16.457 19.6745C16.455 19.6765 16.452 19.6795 16.45 19.6815C15.026 21.3335 13.242 22.2145 12.499 22.2145C11.756 22.2145 9.973 21.3335 8.548 19.6805C8.543 19.6755 8.538 19.6715 8.534 19.6665C8.525 19.6565 8.515 19.6435 8.506 19.6305C8.026 19.0655 7.622 18.4465 7.307 17.7925C6.577 17.9945 4.999 18.6175 4.999 20.2145C4.985 21.3105 5.476 22.3295 6.324 22.9955C6.755 22.1315 6.987 21.1735 6.999 20.2085C7.003 19.9365 7.227 19.7145 7.499 19.7145C7.781 19.7175 8.002 19.9445 7.999 20.2205C7.983 21.5435 7.612 22.8415 6.927 23.9735C6.837 24.1225 6.673 24.2145 6.499 24.2145C6.412 24.2145 6.326 24.1915 6.251 24.1485C4.841 23.3425 3.978 21.8325 3.999 20.2085C3.999 18.0405 5.992 17.1615 6.931 16.8675C6.644 16.0195 6.499 15.1285 6.499 14.2145C6.499 12.5965 6.985 11.0185 7.868 9.76848C7.876 9.75248 7.886 9.73648 7.894 9.72548C7.905 9.71048 7.917 9.69848 7.927 9.68848C8.197 9.31448 8.514 8.96248 8.862 8.65148C8.211 7.74748 7.178 7.21448 6.057 7.21448H6.006C3.533 7.21448 2.098 10.9095 1.661 12.2445C3.111 12.1935 4.43 11.3255 5.046 10.0035C5.128 9.82748 5.305 9.71448 5.499 9.71448C5.572 9.71448 5.644 9.73048 5.711 9.76148C5.961 9.87748 6.069 10.1755 5.953 10.4255C5.154 12.1385 3.419 13.2465 1.532 13.2465C1.336 13.2465 1.137 13.2345 0.940004 13.2105C0.797004 13.1925 0.669004 13.1155 0.588004 12.9975C0.507004 12.8795 0.480004 12.7325 0.515004 12.5935C0.579004 12.3325 2.154 6.21448 5.999 6.21448L6.072 6.21348C7.498 6.21348 8.821 6.89548 9.661 8.04848C10.08 7.78548 10.522 7.58248 10.982 7.44248C10.924 6.74848 10.699 6.07548 10.327 5.48648C10.314 5.46448 10.302 5.44248 10.292 5.42048C10.095 4.97448 9.996 4.50048 9.999 4.01148C9.955 2.53048 10.922 1.17948 12.351 0.736478C12.399 0.722478 12.449 0.714478 12.499 0.714478C12.549 0.714478 12.599 0.722478 12.647 0.736478C14.074 1.17848 15.041 2.53048 14.999 4.02348C15.002 4.49848 14.903 4.96948 14.706 5.41648C14.695 5.44148 14.684 5.46148 14.671 5.48148C14.299 6.07048 14.075 6.74448 14.016 7.44248C14.475 7.58248 14.918 7.78548 15.337 8.04848C16.178 6.89448 17.509 6.21348 18.947 6.21348H19.006C20.626 6.21348 22.096 7.34148 23.251 9.47548C24.084 11.0125 24.468 12.5285 24.484 12.5925C24.519 12.7315 24.493 12.8785 24.411 12.9975C24.329 13.1155 24.202 13.1935 24.059 13.2105C23.864 13.2345 23.665 13.2465 23.467 13.2465C21.58 13.2465 19.845 12.1395 19.046 10.4255C18.93 10.1755 19.038 9.87748 19.288 9.76048C19.354 9.73048 19.425 9.71448 19.499 9.71448C19.692 9.71448 19.87 9.82748 19.952 10.0025C20.569 11.3255 21.888 12.1945 23.337 12.2435C22.9 10.9095 21.466 7.21348 18.999 7.21348H18.939C17.838 7.21348 16.783 7.75948 16.136 8.65148C16.481 8.95848 16.796 9.30848 17.076 9.69448C17.087 9.70548 17.097 9.71648 17.105 9.72648C17.118 9.74348 17.127 9.76048 17.134 9.77448C18.011 11.0125 18.499 12.5935 18.499 14.2145C18.499 15.1285 18.354 16.0195 18.067 16.8675C19.005 17.1605 20.999 18.0405 20.999 20.2145C21.02 21.8335 20.157 23.3425 18.747 24.1485C18.672 24.1915 18.587 24.2145 18.499 24.2145ZM9.588 19.3325C10.838 20.6525 12.164 21.2145 12.499 21.2145C12.834 21.2145 14.16 20.6525 15.41 19.3325L13.32 17.2425C13.075 17.4025 12.792 17.4875 12.499 17.4875C12.205 17.4875 11.922 17.4035 11.678 17.2425L9.588 19.3325ZM16.056 18.5645C16.602 17.8245 16.999 17.0175 17.236 16.1585L16.233 15.1555L14.145 16.6535L16.056 18.5645ZM7.762 16.1585C8 17.0165 8.396 17.8245 8.942 18.5645L10.853 16.6535L8.765 15.1555L7.762 16.1585ZM12.21 16.3955C12.294 16.4555 12.395 16.4875 12.499 16.4875C12.604 16.4875 12.705 16.4555 12.79 16.3945L15.517 14.4385L13.879 12.8005L13.402 13.1625C13.144 13.3565 12.823 13.4625 12.499 13.4625C12.175 13.4625 11.856 13.3565 11.599 13.1645L11.12 12.8005L9.482 14.4385L12.21 16.3955ZM8.421 10.7515C7.817 11.7685 7.499 12.9605 7.499 14.2145C7.499 14.4675 7.512 14.7205 7.537 14.9695L10.316 12.1905L8.421 10.7515ZM17.461 14.9695C17.486 14.7205 17.499 14.4675 17.499 14.2145C17.499 12.9605 17.181 11.7685 16.577 10.7515L14.682 12.1905L17.461 14.9695ZM12.201 12.3665C12.284 12.4285 12.39 12.4635 12.498 12.4635C12.607 12.4635 12.713 12.4285 12.799 12.3645L15.998 9.93548C15.066 8.83848 13.803 8.21448 12.499 8.21448C11.195 8.21448 9.933 8.83848 9 9.93548L12.201 12.3665ZM11.194 4.98548C11.617 5.66648 11.882 6.44148 11.967 7.24248C12.147 7.22448 12.326 7.21448 12.499 7.21448C12.672 7.21448 12.851 7.22448 13.031 7.24348C13.116 6.43948 13.381 5.66248 13.804 4.98148C13.935 4.67448 14 4.34848 13.999 4.01248C14.027 3.01448 13.414 2.09748 12.499 1.74348C11.582 2.09748 10.969 3.01248 10.999 3.99948C10.997 4.34948 11.063 4.67848 11.194 4.98548Z" fill="#D6B600"/>
</svg>
