<svg width="208" height="36" viewBox="0 0 208 36" fill="none" xmlns="http://www.w3.org/2000/svg">
<path d="M14.5257 0.00397088C15.3067 0.313398 16.0797 0.69423 16.9321 0.721999C17.3047 0.7339 17.4673 1.02349 17.7527 1.1425C18.6526 1.51937 19.7072 1.64234 20.4089 2.35641C20.8291 2.78088 21.3643 3.08634 21.6973 3.59808C21.7528 3.68139 21.8479 3.72503 21.8043 3.87578C21.7528 4.05429 21.8757 4.10983 22.0065 3.97495C22.2642 3.70916 22.4347 3.98687 22.4704 4.11381C22.7399 5.03019 23.3861 5.73235 23.7865 6.56145C24.2306 7.47783 24.076 8.4775 23.6042 9.39785C23.5844 9.43752 23.5447 9.49306 23.5091 9.49702C22.9065 9.58033 22.3633 9.90564 21.7132 9.80646C21.0987 9.71522 20.7102 9.37009 20.3613 8.91389C20.1393 8.62429 19.8142 8.44577 19.5407 8.21172C19.0927 7.83088 18.9579 7.22395 18.5416 6.81535C17.939 6.21633 17.4038 5.53002 16.5753 5.21266C16.1907 5.06588 15.937 4.71679 15.5287 4.60175C14.7834 4.3915 14.1094 4.01066 13.2571 4.1495C12.5514 4.26454 11.8259 4.35181 11.1004 4.36371C10.6564 4.37165 10.3075 4.58983 10.0142 4.85959C9.74061 5.11348 9.44726 5.31976 9.10632 5.43084C8.43633 5.64506 8.04781 6.18063 7.61569 6.66857C7.49279 6.80741 7.37783 6.93831 7.2034 7.02161C6.91796 7.15649 6.9457 7.16047 7.06463 7.45006C7.13599 7.62461 7.00121 7.79121 6.85056 7.86262C6.56909 7.99353 6.53341 8.21171 6.52944 8.48147C6.52548 8.77106 6.57305 9.02496 6.20436 9.25504C5.94667 9.41372 5.90307 9.92547 5.76828 10.2785C5.42338 11.1711 5.24099 12.0756 5.37578 13.0554C5.45904 13.6426 5.39164 14.2495 5.17756 14.8366C5.08638 15.0826 5.29254 15.3603 5.25686 15.6618C5.22118 15.9514 5.17757 16.3084 5.21325 16.5306C5.26875 16.8558 5.12206 17.1772 5.2291 17.4509C5.40354 17.8992 5.52643 18.3593 5.67311 18.8156C5.7643 19.0932 5.7088 19.482 5.8317 19.597C6.10525 19.8549 6.18851 20.1842 6.33916 20.4777C6.64442 21.0688 7.15185 21.4893 7.5364 21.9971C8.02798 22.6437 8.63453 23.1555 9.16577 23.7505C9.32831 23.933 9.1737 24.1274 9.26488 24.3773C9.5186 23.8219 9.90316 24.1234 10.1212 24.2583C10.3115 24.3733 10.4661 24.4011 10.6604 24.417C10.8824 24.4328 11.1361 24.3654 11.2471 24.6629C11.255 24.6907 11.3898 24.7105 11.4176 24.6828C11.7347 24.3852 12.0558 24.6867 12.369 24.6748C12.5355 24.6708 12.6941 24.7581 12.8765 24.7185C13.1619 24.659 13.4513 24.6272 13.491 25.1112C13.6773 24.5399 14.0182 24.6074 14.4622 24.6867C14.9459 24.774 15.4216 24.4963 15.8736 24.3376C16.7497 24.0322 17.4078 23.3776 18.1293 22.8103C18.6526 22.4017 18.8667 21.8305 19.2552 21.3584C19.4653 21.1005 19.8142 20.93 19.7151 20.5094C19.7111 20.4856 19.7389 20.45 19.7587 20.4262C20.4366 19.7676 21.178 19.244 22.1968 19.3669C22.3039 19.3788 22.4426 19.363 22.4188 19.5336C22.3911 19.7359 22.292 19.5574 22.2285 19.5494C22.1611 19.5415 22.1294 19.6089 22.1334 19.6129C22.3395 19.7279 22.1532 20.081 22.3832 20.1127C22.5616 20.1365 22.8747 20.1643 22.8351 19.7636C22.8272 19.6883 22.7439 19.4503 22.9302 19.3907C23.1404 19.3273 23.3346 19.4225 23.4972 19.5494C24.0839 20.0136 24.3376 20.8784 24.1434 21.6321C24.1077 21.767 24.0244 21.8463 23.9689 21.9534C23.7945 22.2906 23.4932 22.5485 23.4099 22.9611C23.3743 23.1435 23.3346 23.5799 22.8946 23.4728C22.8747 23.4689 22.8113 23.5442 22.8192 23.5601C23.1443 24.2067 22.6607 24.5518 22.2721 24.8652C21.9907 25.0953 21.7806 25.4563 21.3603 25.5C21.2691 25.5079 21.285 25.5634 21.3247 25.6229C21.3524 25.6626 21.503 25.6745 21.4158 25.7221C21.0115 25.9443 20.8648 26.4203 20.393 26.6226C19.8023 26.8725 19.172 27.1463 18.7081 27.6064C18.2522 28.0587 17.6615 28.0349 17.1263 28.2015C16.9757 28.2491 17.0391 28.1103 17.0114 28.0349C16.9717 27.9159 16.7497 27.9198 16.7616 27.9595C16.9202 28.4951 16.4365 28.2293 16.2779 28.3522C16.0678 28.5149 15.8181 28.614 15.5326 28.5902C15.2868 28.5704 15.041 28.5506 14.7992 28.5625C14.4385 28.5783 14.1054 28.6855 13.7566 28.7926C13.3562 28.9155 12.936 29.1337 12.4325 28.8203C12.1272 28.6299 11.6079 28.7688 11.1837 28.7807C10.5058 28.8005 9.93092 28.4117 9.28472 28.3165C9.15389 28.2967 9.11029 28.2531 9.26093 28.1737C9.3204 28.142 9.4076 28.0904 9.32039 27.9952C9.26092 27.9278 9.16577 27.8881 9.12216 27.9674C8.99927 28.2094 8.86448 28.1737 8.6504 28.0745C8.47993 27.9952 8.31342 27.9516 8.30153 27.7374C8.13106 27.7374 8.3848 28.1063 8.02007 27.9555C7.21926 27.6263 6.36689 27.4359 5.75241 26.7337C5.5304 26.4798 5.14586 26.3886 4.87232 26.1386C3.90896 25.258 2.95354 24.3852 2.37077 23.1912C2.33113 23.1078 2.27959 23.0206 2.27563 22.9333C2.26374 22.6794 2.33904 22.3859 1.95449 22.3343C1.95845 21.7948 1.32812 21.5964 1.30037 21.0529C1.27262 20.5134 0.75328 20.1485 0.677956 19.6208C0.598668 19.0655 0.475782 18.4942 0.59075 17.9428C0.650217 17.6651 0.586781 17.5263 0.412347 17.3795C-0.0316684 17.0066 0.0713949 16.3322 0.301331 15.8641C0.321153 15.8244 0.404401 15.8562 0.321148 15.7649C0.0357103 15.4555 0.0357258 15.0905 0.138801 14.7018C0.178445 14.555 0.222049 14.3566 0.158618 14.2416C-0.154571 13.6743 0.0595074 13.1586 0.257728 12.631C0.376661 12.3136 0.261697 11.9843 0.261697 11.659C0.265661 11.2782 0.360799 10.9569 0.551092 10.6197C0.816708 10.1516 0.757237 9.59622 0.745344 9.0686C0.737415 8.75918 0.860314 8.56478 1.09422 8.33072C1.34397 8.0808 1.47481 7.66427 1.55013 7.29931C1.64131 6.8669 1.87521 6.52971 2.11704 6.18855C2.25976 5.98623 2.54123 5.91086 2.43022 5.5221C2.35093 5.24837 2.68793 5.03018 2.89408 4.79613C3.2588 4.38752 3.72263 4.07413 4.04374 3.6814C4.49172 3.13792 5.16172 2.9118 5.56609 2.31674C5.79999 1.97558 6.32329 1.7336 6.75145 1.65029C7.13996 1.57888 7.4135 1.3369 7.76237 1.23773C8.44029 1.03938 8.95963 0.472078 9.67719 0.400672C10.252 0.345134 10.8388 0.35308 11.4136 0.388783C12.0281 0.428454 12.5514 0.154713 13.1104 0C13.5742 0.00396701 14.0499 0.00397088 14.5257 0.00397088ZM5.93081 7.30328C6.27175 7.35882 6.47789 7.31519 6.41446 6.86295C6.40257 6.79154 6.47394 6.65269 6.37483 6.53765C6.22814 6.37104 6.10921 6.54161 6.00217 6.58128C5.84359 6.64079 5.80396 6.82725 5.93875 6.91452C6.17661 7.0732 5.82377 7.17634 5.93081 7.30328ZM21.8559 9.17967C21.7924 9.05272 21.7528 8.94561 21.6894 8.85834C21.5348 8.63619 21.3484 8.80678 21.1819 8.84248C21.0471 8.87422 20.956 9.01702 21.0154 9.12809C21.0947 9.27884 21.289 9.23919 21.4356 9.24712C21.5546 9.25506 21.6775 9.2114 21.8559 9.17967ZM4.04771 6.89072C4.04771 6.78361 4.10322 6.61699 3.92482 6.66063C3.52045 6.76377 3.81382 7.23583 3.55613 7.44212C3.52838 7.46592 3.61163 7.58889 3.65524 7.56509C3.91689 7.42625 4.03582 7.18825 4.04771 6.89072ZM13.0787 2.83245C13.2214 2.47939 13.043 2.285 12.9796 2.08665C12.928 1.93194 12.7377 2.00334 12.6069 2.03508C12.5395 2.05095 12.4404 2.0827 12.4444 2.17791C12.4483 2.32072 12.6148 2.46353 12.6624 2.44766C12.9637 2.34055 12.9796 2.57063 13.0787 2.83245ZM2.43419 13.4918C2.46591 13.7774 2.37077 14.0353 2.69189 14.0393C2.81875 14.0393 2.92577 13.9441 2.87424 13.7814C2.81477 13.6069 2.78703 13.4085 2.54124 13.3926C2.32319 13.3807 2.43816 13.5077 2.43419 13.4918ZM13.9707 3.53065C13.8755 3.51875 13.7169 3.49495 13.7248 3.6338C13.7367 3.81231 13.9072 3.91941 14.0658 3.97495C14.2323 4.03049 14.379 3.8718 14.375 3.76866C14.3671 3.55444 14.1372 3.58222 13.9707 3.53065ZM11.8061 27.785C12.2382 27.8088 12.5395 27.6382 12.8329 27.7968C12.8566 27.8087 12.9558 27.7492 12.9677 27.7056C12.9875 27.6223 12.9122 27.543 12.8448 27.543C12.5316 27.543 12.2025 27.4676 11.8061 27.785ZM3.96842 13.5117C3.7147 13.2617 3.46495 12.8968 2.89011 13.0991C3.32619 13.2657 3.6473 13.3887 3.96842 13.5117ZM20.8529 4.75249C20.9916 4.64142 21.289 4.74851 21.3524 4.46289C21.3722 4.37561 21.1898 4.26851 21.1819 4.29628C21.0868 4.5819 20.6864 4.33595 20.6229 4.62158C20.5912 4.76439 20.734 4.73663 20.8529 4.75249ZM5.85549 23.4649C5.68898 23.449 5.5661 23.4411 5.47095 23.2546C5.43527 23.1832 5.18152 23.2149 5.02691 23.207C4.9952 23.207 4.93574 23.2467 4.93574 23.2705C4.93574 23.326 4.97143 23.4292 4.9754 23.4292C5.26876 23.3657 5.54626 23.6275 5.85549 23.4649ZM15.9489 26.2775C15.6199 26.4322 15.3701 26.5393 15.3067 26.8567C15.7586 26.9281 15.7586 26.5631 15.9489 26.2775ZM6.71973 6.20441C6.58494 6.45433 6.6999 6.61302 6.64043 6.77963C6.57304 6.97401 6.81489 7.12475 6.88228 6.97004C6.99329 6.72409 6.83866 6.50987 6.71973 6.20441Z" fill="#0B0A0A"/>
<path d="M193.528 8.05701C193.647 7.76345 193.909 8.01732 194.075 7.91418C194.301 7.7793 194.511 7.61665 194.749 7.51351C195.245 7.29929 195.752 7.50163 196.248 7.53336C196.489 7.54923 196.692 7.58095 196.914 7.46988C197.274 7.28739 197.635 7.31516 198.043 7.39053C198.781 7.52541 199.49 7.80709 200.279 7.75949C200.557 7.74362 201.025 7.96575 201.144 8.38229C201.199 8.56874 201.31 8.53305 201.421 8.55289C201.929 8.6481 202.381 8.84643 202.714 9.25503C202.825 9.38991 202.987 9.41372 203.126 9.45736C203.467 9.56447 203.772 9.74298 203.958 10.0286C204.252 10.4769 204.616 10.8656 204.969 11.2623C205.727 12.1113 205.98 13.2022 206.416 14.2098C206.84 15.1976 206.856 16.2211 206.948 17.2526C206.773 17.3517 206.745 17.082 206.603 17.1058C206.579 17.1335 206.535 17.1573 206.539 17.1732C206.563 17.3319 206.599 17.4826 206.813 17.4787C206.944 17.4787 207.098 17.4073 207.189 17.5699C207.189 17.6334 207.189 17.6968 207.189 17.7603C206.674 18.1134 207.019 18.6489 206.9 19.0853C206.785 19.5098 206.864 19.9977 206.504 20.3508C206.484 20.3706 206.507 20.4857 206.539 20.4976C206.821 20.6245 206.678 20.8546 206.603 20.9736C206.353 21.3664 206.321 21.7868 206.305 22.2272C206.289 22.5525 206.23 22.8778 205.976 23.1356C205.592 23.5284 205.512 24.1472 205.013 24.4646C204.965 24.4963 204.93 24.5677 204.918 24.6233C204.735 25.4365 204.149 25.8848 203.506 26.3449C203.07 26.6544 202.622 26.944 202.198 27.2693C202.004 27.4161 201.782 27.5033 201.623 27.7691C201.457 28.0508 200.985 27.9357 200.648 27.8802C200.533 27.8603 200.426 27.785 200.271 27.8564C200.434 28.0468 200.513 28.1261 200.153 28.2412C199.098 28.5744 198.012 28.7847 196.937 28.7252C196.077 28.6776 195.201 28.5665 194.337 28.4594C193.56 28.3642 192.906 27.9754 192.176 27.777C191.799 27.6779 191.597 27.1939 191.133 27.2058C191.169 26.7853 190.725 26.9757 190.574 26.7734C190.384 26.5195 190.123 26.341 189.869 26.1466C189.262 25.6904 188.965 25.0001 188.588 24.3773C188.481 24.2028 188.378 24.0203 188.216 23.9449C187.565 23.6553 187.609 23.0285 187.518 22.5009C187.458 22.1597 187.411 21.8384 187.256 21.521C186.935 20.8665 186.876 20.1564 186.923 19.4384C186.935 19.236 187.098 19.2321 187.185 19.3154C187.3 19.4265 187.395 19.4979 187.581 19.4304C187.415 19.2995 187.447 19.0377 187.11 19.0337C186.812 19.0337 186.63 18.4625 186.781 18.1769C186.804 18.1332 186.864 18.1372 186.84 18.038C186.578 17.0542 186.995 16.1457 187.137 15.2016C187.248 14.4717 187.522 13.7854 187.78 13.1189C188.033 12.4683 188.283 11.782 188.87 11.2544C189.385 10.7903 189.901 10.2666 190.237 9.63191C190.36 9.40579 190.519 9.23124 190.765 9.2114C191.256 9.1757 191.645 8.94165 191.982 8.62429C192.295 8.33073 192.628 8.12841 193.08 8.15222C193.227 8.16015 193.377 8.07682 193.528 8.03319C193.48 8.26327 193.12 8.21965 193.12 8.51718C193.465 8.54891 193.73 8.35848 194.083 8.23154C193.865 8.1641 193.698 8.11255 193.528 8.05701ZM191.776 14.2773C191.863 14.4994 192.263 14.4875 192.057 14.6065C191.609 14.8644 191.966 14.9755 192.061 15.1619C192.132 15.2968 192.021 15.392 191.938 15.4872C191.76 15.6816 191.601 15.8879 191.633 16.1815C191.7 16.8479 191.522 17.5025 191.581 18.1769C191.601 18.3831 191.712 18.7164 191.359 18.8473C191.332 18.8592 191.304 18.9742 191.415 18.9385C191.681 18.8473 191.685 19.121 191.685 19.2003C191.696 19.7161 192.136 20.2238 191.712 20.7435C191.974 20.93 191.895 21.291 192.144 21.5131C192.58 21.9019 192.553 21.9535 192.085 22.3303C192.033 22.374 191.986 22.4017 192.025 22.4771C192.132 22.5604 192.2 22.4612 192.271 22.4136C192.62 22.1716 192.802 22.4771 192.771 22.6794C192.703 23.1039 193.028 23.207 193.231 23.4173C193.357 23.5522 193.508 23.6712 193.647 23.7942C194.194 24.2821 194.812 24.6312 195.574 24.7105C195.879 24.7423 196.355 24.6233 196.386 25.2024C196.39 25.3096 196.553 25.2857 196.66 25.2223C197.258 24.8692 197.893 24.651 198.602 24.7145C198.809 24.7343 199.035 24.6629 199.157 24.54C199.669 24.0401 200.291 23.6752 200.767 23.1277C200.898 22.977 201.064 22.8738 201.12 22.6675C201.187 22.4255 201.346 22.2272 201.457 22.009C201.73 21.4695 202.044 20.9101 202.127 20.3309C202.198 19.8192 202.155 19.2916 202.365 18.7997C202.412 18.6846 202.38 18.5894 202.345 18.4903C202.166 18.0103 202.151 17.3954 202.313 16.8083C202.333 16.7408 202.313 16.7289 202.27 16.7289C202 16.7368 202.131 16.5028 202.059 16.4036C201.865 16.1418 202.055 15.8601 201.948 15.5705C201.766 15.0786 201.465 14.432 202.289 14.1226C202.293 14.1226 202.289 14.1027 202.285 14.067C201.814 13.952 201.504 13.6505 201.413 13.1626C201.374 12.9642 201.231 13.0594 201.171 13.0673C201.084 13.0832 201.108 13.226 201.155 13.2578C201.445 13.4482 201.421 13.8171 201.766 14.1186C201.552 14.0551 201.449 14.0551 201.413 14.0075C201.08 13.5791 200.747 13.1586 200.359 12.7738C199.772 12.1906 199.098 11.6829 198.349 11.4448C197.354 11.1275 196.299 11.064 195.245 11.4805C194.59 11.7384 194.016 12.1192 193.461 12.504C193.068 12.7738 192.85 13.3133 192.588 13.7536C192.402 14.0512 192.267 14.3765 191.776 14.2773ZM191.799 13.3014C191.855 13.1705 191.863 12.988 191.728 12.9444C191.562 12.8888 191.379 13.0197 191.276 13.1388C191.145 13.2935 191.367 13.3609 191.439 13.464C191.506 13.5592 191.645 13.6188 191.526 13.7695C191.455 13.8607 191.427 13.9798 191.566 14.0393C191.704 14.1027 191.799 13.9996 191.899 13.9163C192.002 13.829 192.029 13.7417 191.903 13.6505C191.776 13.5632 191.795 13.4323 191.799 13.3014ZM190.844 24.7899C190.844 24.8613 190.84 24.9089 190.844 24.9525C190.856 25.1667 190.971 25.3651 191.173 25.3334C191.498 25.2818 191.149 25.0676 191.217 24.9327C191.237 24.893 191.201 24.8018 191.165 24.7581C191.074 24.655 191.225 24.409 191.007 24.4249C190.792 24.4447 190.856 24.6669 190.844 24.7899ZM204.212 21.3505C204.121 21.283 204.244 21.0648 204.093 21.1045C203.946 21.1442 203.748 21.2473 203.748 21.4536C203.748 21.5806 203.847 21.6678 204.006 21.652C204.216 21.6361 204.172 21.4734 204.212 21.3505ZM193.639 9.87389C193.702 9.87389 193.746 9.87389 193.794 9.87389C193.952 9.87786 193.996 9.74299 194.051 9.63985C194.095 9.56051 194.031 9.48908 193.964 9.44941C193.738 9.32247 193.809 9.53272 193.77 9.62396C193.738 9.69934 193.671 9.68348 193.615 9.65968C193.512 9.61207 193.425 9.62 193.417 9.74694C193.409 9.93339 193.568 9.85405 193.639 9.87389ZM199.379 10.4967C199.146 10.5642 198.86 10.4491 198.666 10.6752C198.65 10.6951 198.67 10.7823 198.694 10.7903C198.991 10.9053 199.181 10.6951 199.379 10.4967Z" fill="#0B0A0A"/>
<path d="M98.425 29.947C98.4646 29.6019 98.7302 29.59 99.0236 29.6455C99.4081 29.7169 99.8046 29.7606 100.134 29.9867C100.645 30.3398 101.168 30.677 101.628 31.1054C101.906 31.3672 101.549 31.4783 101.549 31.6687C101.704 31.7242 101.85 31.7123 101.894 31.5497C102.001 31.153 102.171 31.2799 102.378 31.4624C102.528 31.5973 102.679 31.7322 102.849 31.8393C102.984 31.9226 103.143 32.0099 103.313 31.875C103.361 31.8393 103.456 31.7996 103.484 31.8194C104.015 32.2003 104.629 31.8472 105.184 32.0218C105.858 32.236 106.473 32.0178 107.056 31.7084C107.285 31.5854 107.507 31.4267 107.761 31.3751C108.507 31.2323 108.808 30.6373 109.133 30.074C109.216 29.9272 109.303 29.7764 109.41 29.6495C110.029 28.9434 110.152 27.9199 109.712 27.1185C109.561 26.8448 109.307 26.8051 109.046 26.8369C108.558 26.8964 108.09 27.1146 107.583 26.9757C107.42 26.9321 107.274 27.0352 107.151 27.1265C106.219 27.7929 105.097 27.908 104.039 27.9556C102.778 28.0151 101.529 27.6819 100.379 27.0987C100.074 26.944 99.7649 26.7893 99.4399 26.702C99.2099 26.6425 98.9522 26.5235 98.8888 26.3846C98.6866 25.9324 98.2307 25.8412 97.9096 25.5714C97.4299 25.1707 97.2674 24.5598 96.9225 24.0719C96.6568 23.6911 96.4824 23.2428 96.1097 22.9334C95.8838 22.7469 95.856 22.4732 95.7926 22.2193C95.6221 21.533 95.2614 20.8943 95.3526 20.1445C95.3803 19.9065 95.2733 19.6368 95.0909 19.4503C94.9839 19.3353 94.9561 19.2004 94.9164 19.0695C94.8292 18.76 95.2455 18.522 95.1067 18.2404C94.9323 17.8913 94.9957 17.5818 95.0949 17.2565C95.1186 17.1732 95.2098 17.1018 95.1266 17.0027C95.0869 16.9551 95.083 16.8479 95.1305 16.8638C95.638 17.0384 95.19 16.4949 95.5706 16.5227C95.186 16.3679 95.3446 16.6932 95.1821 16.6932C95.1702 16.5941 95.1305 16.483 95.1504 16.3878C95.3684 15.3286 95.5032 14.2535 95.8639 13.2261C95.9948 12.8452 96.1692 13.2737 96.3159 13.1666C96.0146 12.7183 96.3635 12.3216 96.4071 11.9011C96.419 11.7821 96.4903 11.7622 96.6053 11.7662C96.855 11.7741 96.8749 11.7345 96.7797 11.5401C96.7718 11.5282 96.7559 11.5163 96.752 11.5044C96.7321 11.4409 97.2237 10.4769 97.2951 10.4571C97.5449 10.3897 97.6598 10.1992 97.7906 9.99295C98.0206 9.63195 98.2545 9.23923 98.8056 9.46138C98.8809 9.48915 98.98 9.39791 98.9324 9.33444C98.6985 9.02104 99.0117 8.9298 99.1584 8.86236C99.5033 8.69971 99.8165 8.44583 100.237 8.44583C100.364 8.44583 100.514 8.33077 100.649 8.2078C101.01 7.87853 101.446 7.6802 101.985 7.6802C102.619 7.6802 103.262 7.57705 103.892 7.47391C104.241 7.41837 104.566 7.47787 104.907 7.49771C105.997 7.56912 106.905 8.24748 107.971 8.37443C108.015 8.37839 108.07 8.39426 108.094 8.426C108.546 8.98932 109.085 8.99723 109.68 8.67987C109.751 8.64417 109.854 8.62831 109.898 8.69575C109.93 8.74732 109.926 8.88616 109.89 8.90996C109.557 9.11625 109.862 9.43361 109.751 9.67559C109.739 9.6994 109.795 9.77874 109.811 9.77477C109.87 9.76683 109.957 9.74701 109.973 9.70734C110.092 9.38601 110.465 9.17575 110.322 8.73144C110.219 8.40615 111.028 7.89838 111.488 8.00153C111.948 8.10467 112.408 8.11656 112.875 8.08879C113.716 8.03722 114.275 8.54499 114.291 9.40187C114.295 9.63196 114.449 9.79858 114.473 10.0287C114.295 10.0009 114.132 9.92948 113.962 10.0485C114.009 10.0921 114.061 10.1675 114.1 10.1636C114.715 10.1001 114.743 10.5245 114.671 10.9212C114.592 11.3774 114.54 11.8099 114.679 12.2661C114.802 12.6786 114.854 13.1031 114.683 13.5276C114.477 14.0393 114.667 14.5312 114.786 15.0192C114.873 15.3643 114.893 15.7293 114.858 16.0585C114.747 17.0542 114.842 18.0777 114.529 19.0536C114.501 19.133 114.54 19.2361 114.56 19.3273C114.64 19.7161 114.786 20.089 114.525 20.4857C114.429 20.6325 114.433 20.9221 114.517 21.0847C114.873 21.775 114.453 22.5128 114.683 23.1991C114.691 23.2269 114.695 23.2824 114.679 23.2904C114.299 23.4927 114.584 23.7783 114.6 24.0124C114.683 25.1668 114.679 26.3093 114.572 27.4676C114.521 28.027 114.338 28.6022 114.457 29.1853C114.473 29.2687 114.449 29.3996 114.394 29.4512C114.073 29.7328 114.029 30.1255 113.938 30.4984C113.906 30.6293 113.87 30.7642 113.72 30.7642C113.45 30.7603 113.268 30.9427 113.05 31.0419C112.982 31.0736 112.875 31.0578 112.899 31.1689C112.907 31.2165 112.998 31.2879 113.022 31.276C113.105 31.2442 113.208 31.391 113.26 31.2522C113.292 31.1609 113.319 30.9626 113.407 31.1014C113.494 31.2403 113.819 31.1728 113.708 31.51C113.601 31.8353 113.454 32.1646 113.216 32.3272C112.637 32.7239 112.245 33.2912 111.765 33.7712C111.44 34.0925 111.024 34.2314 110.695 34.513C110.663 34.5408 110.576 34.5607 110.572 34.5527C110.259 34.0132 109.862 34.6995 109.521 34.4813C109.466 34.4456 109.387 34.4892 109.367 34.6003C109.268 35.1121 109.18 35.1676 108.705 34.9256C108.479 34.8106 108.292 34.9375 108.277 35.0565C108.189 35.6397 107.666 35.5127 107.353 35.5841C106.869 35.6992 106.37 35.6635 105.862 35.846C105.438 35.9967 104.923 36.0642 104.411 35.9213C103.428 35.6437 102.429 35.4334 101.41 35.3263C101.129 35.2946 100.875 35.1676 100.645 34.9891C100.423 34.8225 100.177 34.6995 99.8759 34.7233C99.5667 34.7471 99.3447 34.5487 99.1822 34.3187C98.8452 33.8426 98.4726 33.442 97.9294 33.1563C97.5726 32.9699 97.3189 32.5494 97.1762 32.1289C97.0612 31.7877 96.9542 31.4466 96.7004 31.1768C96.6647 31.1371 96.637 31.0657 96.641 31.0102C96.6727 30.5341 97.6876 29.5503 98.1673 29.5424C98.4963 29.5345 98.1197 29.8915 98.425 29.947ZM100.772 21.9178C100.447 21.9416 100.356 22.3026 100.074 22.3899C100.411 22.4176 100.744 22.4454 100.883 22.0368C101.18 22.0844 101.256 22.3264 101.371 22.5525C101.529 22.8778 101.684 23.2388 102.072 23.334C102.441 23.4213 102.722 23.6355 103.016 23.8339C103.222 23.9727 103.432 24.0996 103.694 24.1274C104.994 24.2583 106.235 24.1512 107.432 23.5165C108.784 22.7945 109.565 21.6917 109.922 20.2397C109.993 19.9502 109.799 19.5614 110.263 19.4225C110.346 19.3987 110.231 19.2877 110.227 19.2202C110.203 18.526 110.025 17.8516 110.084 17.1375C110.136 16.5425 110.382 15.8919 109.938 15.3167C109.862 15.2175 109.95 15.1183 110.084 15.0826C110.164 15.0628 110.215 14.9835 110.168 14.8962C110.128 14.8208 110.033 14.7851 109.965 14.8406C109.827 14.9557 109.704 14.9319 109.712 14.7653C109.736 14.2615 109.307 13.9441 109.208 13.5355C109.073 12.9603 108.649 12.7183 108.285 12.389C108.007 12.1431 107.539 12.0756 107.357 11.8098C107.115 11.4568 106.798 11.429 106.508 11.4211C106.148 11.4092 105.815 11.3735 105.486 11.2307C105.208 11.1077 104.907 11.0839 104.61 11.1156C104.106 11.1712 103.63 11.3695 103.131 11.4607C102.937 11.4965 102.659 11.4845 102.552 11.5798C102.278 11.8336 101.842 11.9368 101.755 12.3771C101.68 12.7778 101.236 12.8056 101.026 13.0912C100.566 13.714 100.451 14.4876 100.038 15.1183C100.015 15.154 100.027 15.2096 100.031 15.2572C100.142 16.7607 99.8323 18.2562 99.9275 19.7478C99.7887 19.851 99.6658 19.5019 99.5746 19.7359C99.5231 19.8668 99.6896 19.9303 99.8284 19.9382C99.9552 19.9462 99.9434 20.0731 99.9909 20.1445C100.356 20.692 100.431 21.3624 100.772 21.9178ZM111.765 22.0289C111.924 21.7988 112.419 22.1915 112.471 21.6837C112.487 21.5251 112.34 21.4219 112.178 21.4616C111.908 21.5251 111.603 21.5766 111.496 21.8781C111.452 22.009 111.611 22.0328 111.765 22.0289ZM109.018 23.5681C109.062 23.7148 109.066 23.9132 109.295 23.9251C109.478 23.937 109.553 23.814 109.529 23.6514C109.498 23.4411 109.462 23.1436 109.26 23.1119C109.054 23.0841 109.073 23.3816 109.018 23.5681ZM110.029 25.3255C109.946 25.2183 109.902 25.1231 109.831 25.0795C109.775 25.0478 109.644 25.0557 109.636 25.1509C109.613 25.4127 109.446 25.6151 109.383 25.857C109.347 25.9959 109.466 26.0673 109.506 26.0078C109.664 25.7698 109.751 25.4802 110.029 25.3255ZM110.318 24.8335C110.39 24.782 110.588 24.8097 110.548 24.6868C110.485 24.4924 110.287 24.3734 110.076 24.3496C109.942 24.3377 109.783 24.3972 109.807 24.5797C109.847 24.893 110.132 24.7344 110.318 24.8335ZM101.105 33.0215C101.323 32.9977 101.232 32.8033 101.287 32.6922C101.382 32.4938 101.204 32.5018 101.097 32.4859C100.942 32.4621 100.792 32.5057 100.796 32.6922C100.8 32.8667 100.982 32.9223 101.105 33.0215ZM107.171 26.3767C107.396 26.5552 107.638 26.6703 107.916 26.6861C108.011 26.6901 108.11 26.6782 108.114 26.5473C108.114 26.4838 108.086 26.3926 108.019 26.4204C107.722 26.5354 107.464 26.2894 107.171 26.3767ZM105.085 10.1754C105.244 10.1437 105.462 10.227 105.517 9.99692C105.549 9.86998 105.434 9.78272 105.311 9.84223C105.168 9.90966 104.931 9.77874 104.879 10.0247C104.843 10.1834 104.958 10.2032 105.085 10.1754ZM110.54 10.0723C110.683 10.0406 110.822 9.95725 110.846 9.7946C110.865 9.67559 110.754 9.60419 110.635 9.60022C110.425 9.58832 110.386 9.75891 110.358 9.90569C110.334 10.0049 110.413 10.0644 110.54 10.0723ZM113.605 9.88983C113.664 9.77875 113.759 9.6637 113.942 9.68354C114.065 9.6994 114.1 9.60418 114.085 9.49707C114.069 9.38996 113.973 9.41377 113.902 9.40187C113.636 9.35823 113.561 9.58039 113.45 9.73114C113.399 9.80254 113.462 9.87793 113.605 9.88983Z" fill="#0B0A0A"/>
<path d="M175.913 32.1606C175.778 32.0178 175.671 31.9028 175.516 31.7322C176.369 31.5457 176.967 31.0538 177.399 30.3715C177.697 29.9034 177.974 29.4154 178.204 28.9116C178.351 28.5863 178.371 28.2134 178.168 27.8842C178.057 27.7057 178.042 27.5113 178.014 27.3209C177.911 26.6306 177.336 26.2894 176.769 26.6742C175.992 27.2058 175.076 27.2931 174.224 27.5708C173.99 27.6461 173.796 27.8128 173.538 27.8286C172.717 27.8762 171.897 28.031 171.088 27.7414C170.937 27.6858 170.747 27.6462 170.604 27.6938C170.323 27.781 170.14 27.7057 169.926 27.5232C169.7 27.3328 169.415 27.2177 169.015 27.2614C169.252 27.1344 169.252 26.9995 169.149 26.8686C169.066 26.7575 168.947 26.8765 168.923 26.9043C168.622 27.2693 168.376 26.9559 168.146 26.8289C167.972 26.7298 167.996 26.698 167.73 26.6742C167.663 26.6703 167.595 26.5989 167.544 26.5473C167.163 26.1506 166.791 25.742 166.406 25.3493C166.303 25.2461 166.323 25.1668 166.374 25.0597C166.414 24.9803 166.382 24.8653 166.287 24.901C165.875 25.0636 165.839 24.6907 165.677 24.5003C164.88 23.5641 164.285 22.489 163.98 21.3188C163.754 20.45 163.5 19.5574 163.524 18.6371C163.532 18.399 163.492 18.1848 163.417 17.9666C163.373 17.8437 163.453 16.3322 163.516 16.2211C163.611 16.0545 163.611 15.8602 163.675 15.6896C163.746 15.5031 163.655 15.1858 164.091 15.2215C163.544 15.1302 163.678 14.7177 163.762 14.551C163.996 14.0829 163.968 13.5513 164.198 13.0912C164.376 12.7341 164.531 12.3692 164.816 12.0756C165.133 11.7503 165.363 11.3814 165.462 10.9172C165.514 10.6673 165.633 10.4531 165.966 10.3222C166.303 10.1873 166.505 9.75095 166.806 9.48516C166.957 9.35028 167.128 8.9139 167.461 9.45341C167.266 8.65604 167.912 8.61639 168.297 8.44977C168.86 8.20382 169.419 7.93801 170.01 7.74363C170.565 7.56115 171.147 7.62859 171.683 7.39453C171.73 7.58892 171.536 7.69999 171.683 7.86264C171.841 7.60875 172.075 7.45405 172.388 7.43025C172.594 7.41438 172.793 7.42627 172.987 7.52148C173.106 7.58098 173.26 7.90231 173.368 7.48974C173.391 7.39453 173.534 7.50164 173.613 7.51751C174.513 7.71983 175.334 8.12051 176.17 8.49737C176.777 8.7711 177.471 8.95356 178.16 8.82662C178.434 8.77505 178.616 8.48547 178.898 8.36646C179.5 8.10463 180.103 7.86264 180.773 7.83884C181.38 7.81503 181.812 8.07289 182.287 8.46166C182.914 8.9734 182.882 9.57242 182.973 10.2468C183.104 11.2227 183.021 12.1986 183.116 13.1705C183.128 13.2895 183.191 13.4046 183.231 13.5236C183.326 13.7814 183.405 14.0234 183.12 14.2376C182.961 14.3566 182.926 14.555 182.946 14.7533C182.993 15.1976 183.041 15.634 182.957 16.0942C182.858 16.6456 183.013 17.2089 183.116 17.7643C183.235 18.3871 183.001 18.9941 182.93 19.609C182.914 19.7518 182.938 19.7954 183.017 19.8589C183.283 20.0731 183.306 20.3389 183.132 20.6087C182.938 20.9062 182.969 21.1998 182.993 21.5409C183.053 22.4335 183.156 23.342 182.89 24.2226C182.854 24.3377 182.827 24.4408 182.906 24.5281C183.187 24.8415 183.084 25.1787 182.989 25.5198C182.981 25.5436 183.025 25.5992 183.025 25.5992C182.692 25.7856 182.926 26.0832 182.934 26.2934C182.969 27.3605 182.839 28.4158 182.636 29.4472C182.482 30.2208 182.153 30.9665 181.804 31.6925C181.582 32.1566 181.392 32.6049 180.88 32.8271C180.622 32.9381 180.575 33.4102 180.151 33.2595C180.143 33.2555 180.079 33.3349 180.083 33.3706C180.139 34.037 179.54 34.0807 179.163 34.3028C178.827 34.5012 178.537 34.7709 178.192 34.9534C177.681 35.2232 177.193 35.4493 176.559 35.4691C175.822 35.489 175.064 35.5326 174.327 35.7071C173.498 35.9015 172.634 35.9293 171.837 35.5921C171.381 35.3977 170.965 35.6913 170.537 35.5365C170.406 35.4889 170.251 35.4731 170.148 35.3818C169.843 35.1081 169.574 34.763 169.114 35.1359C169.078 35.1636 168.975 35.1478 168.935 35.116C168.547 34.8106 167.992 34.7987 167.651 34.4536C167.195 33.9934 166.517 33.7554 166.263 33.081C166.168 32.8271 165.899 32.6446 165.716 32.4978C165.213 32.0892 165.221 31.6568 165.316 31.0975C165.391 30.6492 165.387 30.2089 165.688 29.8201C165.831 29.6376 165.978 29.4829 166.184 29.5543C166.81 29.7764 167.476 29.5265 168.119 29.7883C168.471 29.9312 168.757 30.1612 169.074 30.3358C169.245 30.431 169.383 30.6254 169.597 30.6889C169.641 30.7008 169.685 30.7246 169.724 30.7484C169.982 30.911 169.978 31.4585 170.525 31.2522C170.596 31.2244 170.989 31.6172 171.247 31.8076C171.643 32.1051 172.067 32.1765 172.495 32.0892C173.114 31.9623 173.708 32.0972 174.315 32.1051C174.442 32.1051 174.573 32.0892 174.696 32.109C174.973 32.1566 175.084 31.8472 175.322 31.8274C175.588 31.7996 175.528 32.2717 175.913 32.1606ZM169.657 11.9368C169.978 12.508 170.065 12.754 169.847 12.9166C169.288 13.3371 169.185 14.0393 168.773 14.5352C168.511 14.8486 168.424 15.1421 168.464 15.5547C168.495 15.872 168.436 16.2608 168.154 16.4988C168.047 16.5901 168.063 16.6337 168.107 16.7051C168.313 17.0304 168.257 17.3716 168.21 17.7247C168.19 17.8913 168.107 18.0976 168.293 18.2404C168.115 18.4308 168.721 18.8791 168.039 18.9386C167.821 18.9584 167.881 19.3511 168.027 19.3948C168.356 19.4979 168.261 19.728 168.305 19.9382C168.368 20.2516 168.404 20.6087 168.579 20.8507C169.098 21.5687 169.356 22.4811 170.156 22.9928C170.236 23.0444 170.351 23.1119 170.343 23.2388C170.331 23.5601 170.327 23.5641 170.652 23.5482C170.822 23.5403 170.981 23.6117 171.068 23.7228C171.358 24.0838 171.928 23.7863 172.17 24.2187C172.618 23.8894 172.694 24.3178 172.828 24.5678C173.05 24.4884 172.789 23.9727 173.264 24.1869C173.597 24.3377 174.315 24.2663 174.624 24.1076C174.652 24.0917 174.676 24.0679 174.704 24.06C175.441 23.8497 176.17 23.6315 176.61 22.9214C176.65 22.8619 176.733 22.8262 176.801 22.7866C177.32 22.4652 177.518 21.8861 177.824 21.414C177.99 21.1601 177.919 20.7039 178.153 20.4063C178.311 20.204 178.363 19.9739 178.422 19.7359C178.585 19.1171 178.478 18.4982 178.497 17.8794C178.557 16.1061 178.497 16.2925 178.061 14.8565C177.931 14.4241 177.697 14.0472 177.582 13.6029C177.483 13.2142 177.257 12.8135 176.9 12.5636C176.507 12.2898 176.119 12.0478 176.273 11.4687C176.301 11.3616 176.269 11.2267 176.123 11.2227C175.94 11.2148 175.984 11.3735 175.996 11.4647C176.036 11.8297 175.877 11.8336 175.615 11.6988C175.52 11.6512 175.405 11.6353 175.306 11.5877C175.076 11.4806 173.391 11.1196 173.13 11.0997C172.432 11.0402 171.794 11.2941 171.179 11.5401C170.699 11.7424 170.378 12.4445 169.657 11.9368ZM169.114 8.17605C169.229 8.44977 169.32 8.58464 169.518 8.58464C169.578 8.58464 169.689 8.58465 169.681 8.59655C169.51 8.8425 169.879 9.00118 169.764 9.25903C169.629 9.55259 169.847 9.53276 170.026 9.46136C170.137 9.41375 170.22 9.29473 170.335 9.25109C170.652 9.12415 170.581 9.01704 170.402 8.78299C170.081 8.34662 169.566 8.48944 169.114 8.17605ZM176.262 34.0846C176.063 34.1084 175.881 34.037 175.822 34.2552C175.79 34.3782 175.829 34.5012 175.964 34.4972C176.21 34.4893 176.404 34.5964 176.614 34.6995C176.817 34.7987 176.868 34.5845 176.959 34.4694C177.011 34.4059 177.015 34.2949 176.904 34.2988C176.65 34.2949 176.495 33.9736 176.262 34.0846ZM165.47 13.115C165.34 13.119 165.248 13.1864 165.268 13.3133C165.328 13.6664 165.657 13.6783 165.906 13.7576C166.025 13.7933 166.228 13.7259 166.188 13.5394C166.109 13.1665 165.732 13.23 165.47 13.115ZM164.812 17.2843C165.09 17.3597 165.102 17.1137 165.157 16.9273C165.193 16.8083 165.078 16.6337 165.046 16.6575C164.856 16.7964 164.662 16.9511 164.539 17.1455C164.483 17.2327 164.67 17.2843 164.812 17.2843ZM182.188 26.5195C182.161 26.3648 182.058 26.2339 181.919 26.2379C181.752 26.2418 181.641 26.3807 181.625 26.5552C181.606 26.7179 181.705 26.7813 181.855 26.7774C182.03 26.7774 182.169 26.7258 182.188 26.5195ZM180.722 28.5546C180.436 28.265 180.178 28.4753 179.933 28.5189C179.881 28.5268 179.857 28.6657 179.921 28.7212C180.242 28.991 180.408 28.5506 180.722 28.5546ZM181.602 9.10034C181.53 9.25506 181.566 9.38201 181.74 9.45341C181.685 9.22729 182.026 9.25111 181.998 9.04482C181.974 8.86631 181.855 8.73142 181.689 8.75919C181.526 8.78695 181.475 8.9377 181.602 9.10034ZM181.907 23.5681C182.28 23.5363 182.589 23.5601 182.779 23.211C182.402 23.1238 182.129 23.1833 181.907 23.5681ZM181.689 24.6035C181.871 24.5638 182.089 24.5678 182.165 24.3416C182.192 24.2583 182.069 24.1948 182.01 24.2306C181.832 24.3416 181.53 24.2226 181.451 24.4725C181.399 24.6431 181.594 24.5677 181.689 24.6035ZM167.869 16.8916C167.766 16.7091 167.96 16.4274 167.702 16.3481C167.532 16.2926 167.504 16.479 167.476 16.5861C167.373 16.9511 167.774 16.7329 167.869 16.8916ZM167.726 33.7712C167.96 33.8188 168.115 33.6562 168.313 33.6998C168.392 33.7157 168.475 33.6126 168.483 33.5094C168.487 33.4658 168.468 33.3983 168.436 33.3825C168.297 33.3071 168.301 33.4578 168.249 33.5134C168.214 33.553 168.198 33.6284 168.115 33.561C167.813 33.315 167.837 33.6205 167.726 33.7712Z" fill="#0B0A0A"/>
<path d="M33.3842 14.2099C33.4119 14.4479 33.4119 14.4558 33.6657 14.4995C33.7331 14.5114 33.7489 14.5471 33.741 14.5828C33.6657 14.8803 33.8163 15.2135 33.5864 15.4793C33.3762 15.7253 33.3366 16.003 33.3485 16.3164C33.3802 17.2684 33.3089 18.2245 33.4397 19.1806C33.5071 19.6804 33.2811 20.1485 33.1186 20.6166C33.1067 20.6483 33.0591 20.6642 33.0789 20.7198C33.3485 21.4775 33.3723 22.2828 33.4199 23.0682C33.4674 23.8339 33.4754 24.6193 33.2811 25.381C33.2533 25.4841 33.2494 25.6032 33.2652 25.7103C33.511 27.6501 31.9173 28.5982 30.5298 28.3642C30.0025 28.2769 29.4198 27.8604 29.2017 27.3526C29.055 27.0154 28.6982 26.6782 28.8171 26.2577C28.94 25.8134 28.6943 25.3731 28.8409 24.9446C28.8608 24.893 28.7577 24.659 28.9718 24.7423C29.3127 24.8732 29.396 24.5717 29.392 24.417C29.388 24.2464 29.1145 24.1909 28.948 24.1195C28.8964 24.0957 28.8013 24.1512 28.7934 24.0401C28.7656 23.7347 28.6269 23.3737 28.7379 23.1277C29.0867 22.3343 28.8132 21.5568 28.7379 20.7951C28.6744 20.1683 28.833 19.5971 28.8766 19.002C28.9004 18.6966 29.2136 19.0615 29.2374 18.7759C28.8687 18.76 28.8132 18.5934 28.9995 18.2642C29.1898 17.9309 28.9638 17.5858 28.8766 17.2684C28.7696 16.8797 28.8647 16.4988 28.7973 16.118C28.6705 15.392 28.615 14.6145 28.7973 13.9441C28.9282 13.476 28.9282 13.0238 28.8449 12.6429C28.6705 11.8297 28.8211 11.0402 28.7855 10.2389C28.7736 9.94138 28.7894 9.63989 28.6308 9.37013C28.6031 9.31856 28.5793 9.23525 28.5991 9.19161C28.9599 8.42201 28.7339 7.60878 28.7815 6.81537C28.7894 6.64479 28.7498 6.43851 29.0075 6.44247C29.499 6.45438 29.1422 6.07352 29.1304 6.05369C28.9321 5.73633 28.9757 5.73237 28.9202 5.296C28.8964 5.09368 28.8568 4.82789 28.7894 4.69301C28.6427 4.39945 28.726 4.17729 28.7815 3.9234C28.8132 3.77266 28.8449 3.63779 28.8251 3.46721C28.7973 3.25696 28.5595 2.91579 29.0273 2.84439C29.0748 2.83645 29.055 2.81661 29.0511 2.78487C28.9202 1.9518 29.2096 1.45989 29.9074 1.07509C30.839 0.559379 31.731 0.726004 32.5675 1.20998C33.0353 1.47974 33.2613 1.95975 33.3326 2.57463C33.4119 3.21729 33.0393 3.86788 33.4119 4.50657C33.5229 4.69699 33.511 5.03418 33.4238 5.2484C33.0749 6.0775 33.4357 6.8828 33.4674 7.69207C33.4833 8.10464 33.9035 8.3625 34.2762 8.54499C34.5656 8.6878 34.9065 8.73144 35.0691 9.07261C35.1087 9.15591 35.2276 9.15193 35.3704 9.02895C35.2118 8.94168 35.0611 8.8544 34.9303 8.783C35.3307 8.21968 35.739 7.90629 36.3733 8.09274C36.4606 8.11654 36.5993 8.12447 36.6707 8.00943C36.9323 7.60479 37.3882 7.68415 37.7649 7.58498C37.8679 7.55721 38.1415 7.51753 38.1098 7.82299C38.0979 7.92216 38.193 8.00546 38.304 7.96579C38.419 7.92612 38.415 7.78332 38.3754 7.72381C38.2089 7.46992 38.3635 7.46594 38.5617 7.41437C39.1286 7.26363 39.6718 7.3747 40.207 7.53735C40.3774 7.58892 40.5479 7.63654 40.7144 7.59686C41.0752 7.50562 41.4121 7.42628 41.5984 7.88645C41.646 8.00149 41.7134 7.94596 41.7134 7.83885C41.7134 7.69603 41.7808 7.74364 41.8522 7.78727C42.3477 8.06496 42.9781 8.06894 43.4181 8.33869C44.0723 8.73936 44.8215 9.10038 45.1863 9.88981C45.547 10.6713 45.5827 10.6753 45.3567 11.1116C46.1417 10.7982 45.9554 11.5282 46.0664 11.8138C46.4073 12.6865 46.4826 13.6347 46.6412 14.555C46.6927 14.8446 46.7086 15.154 46.55 15.4317C46.4628 15.5825 46.5104 15.7253 46.5263 15.876C46.6135 16.6893 46.5778 17.5025 46.443 18.3078C46.4271 18.399 46.3558 18.4665 46.4628 18.5458C47.1209 19.0219 46.8949 19.7002 46.7126 20.2437C46.554 20.7198 46.5897 21.168 46.5738 21.6242C46.55 22.3185 46.5778 23.0167 46.6214 23.7148C46.6531 24.2068 46.5342 24.7502 46.4826 25.262C46.4232 25.857 46.2804 26.4561 46.3558 27.063C46.3756 27.2138 46.3518 27.3407 46.2805 27.4677C45.9038 28.1182 44.433 28.4951 43.8106 28.1103C43.7234 28.0587 43.7392 28.0191 43.7829 27.9873C43.9295 27.8763 43.8582 27.7929 43.7472 27.7572C43.6481 27.7255 43.5767 27.7969 43.5846 27.9159C43.5965 28.0706 43.5371 28.0667 43.3904 28.0508C42.7561 27.9794 42.4429 27.5152 42.2764 26.9321C42.1337 26.4362 42.2367 25.9403 42.0702 25.4405C41.9394 25.0597 41.8284 24.5638 41.9672 24.1393C42.2883 23.1515 42.1614 22.1677 42.0147 21.1799C42.0068 21.1164 41.9989 21.053 42.0108 20.9895C42.1416 20.2596 42.0108 19.5217 42.0464 18.7957C42.094 17.8754 41.8482 16.9392 42.0464 16.0545C42.2486 15.1421 41.5985 14.4201 41.6817 13.5672C41.2734 13.3292 41.3408 12.7381 40.9047 12.512C40.865 12.4922 40.8294 12.4525 40.8056 12.4128C40.0206 11.1989 39.0018 11.1394 37.86 11.2307C37.1068 11.2902 36.3416 11.3893 35.7232 11.9368C35.5607 12.0836 35.3624 12.1867 35.2752 12.4009C35.2118 12.5517 35.1246 12.6985 34.9779 12.758C34.3911 12.996 34.2563 13.5236 34.1176 14.0552C33.9749 14.559 33.6339 14.1861 33.3842 14.2099ZM30.8628 25.4484C31.0769 25.4524 31.2473 25.262 31.2236 25.2303C31.0531 24.9764 31.4139 24.6907 31.1641 24.4646C31.1364 24.4369 31.0452 24.4249 31.0452 24.4289C30.9619 24.659 30.613 24.7145 30.6249 24.9526C30.6329 25.1152 30.5972 25.4088 30.8628 25.4484ZM29.1898 15.1025C29.4634 14.9517 29.396 14.6502 29.4832 14.4082C29.5506 14.2138 29.5228 14.1226 29.3524 14.0472C29.3286 14.0353 29.2929 14.0393 29.2651 14.0472C29.0907 14.0988 28.9044 14.2377 28.9083 14.3765C28.9163 14.6145 29.0431 14.8486 29.1184 15.0826C29.1184 15.0906 29.1462 15.0906 29.1898 15.1025ZM32.5477 10.0445C32.7657 10.2667 32.9679 10.3896 33.2058 10.469C33.3525 10.5166 33.519 10.5523 33.4595 10.7824C33.4159 10.9649 33.4872 11.0918 33.6815 11.1196C33.7806 11.1315 33.8678 11.0878 33.9035 10.9847C33.963 10.8062 33.8916 10.6673 33.7291 10.5999C33.4476 10.4849 33.2216 10.3024 33.0274 10.0723C32.9124 9.92947 32.7618 9.95723 32.5477 10.0445ZM31.8658 19.2559C32.2345 19.2361 31.9927 18.8553 32.1909 18.7005C32.2821 18.6291 32.0402 18.5419 31.9055 18.5062C31.7944 18.4744 31.731 18.2166 31.5804 18.3911C31.4614 18.526 31.6081 18.6569 31.7191 18.7362C31.9134 18.8711 31.7905 19.0814 31.8658 19.2559ZM33.9511 9.31062C34.074 9.27095 34.2881 9.27888 34.2801 9.06069C34.2762 8.93772 34.2762 8.72747 34.0343 8.73937C33.8163 8.7473 33.6775 8.86235 33.6498 9.06466C33.626 9.23921 33.7608 9.29872 33.9511 9.31062ZM30.8311 28.2015C30.9381 28.1024 31.1165 27.9992 31.1046 27.9278C31.061 27.6739 30.835 27.5589 30.6051 27.4875C30.5139 27.4597 30.395 27.543 30.4188 27.6422C30.4783 27.8723 30.6844 28.0072 30.8311 28.2015ZM33.4 8.01737C33.3485 7.95786 33.3009 7.87455 33.2296 7.81902C33.1067 7.72381 33.0948 7.87059 33.0313 7.91819C32.8173 8.08084 32.9798 8.37043 32.8054 8.56085C32.7578 8.61242 32.9639 8.64812 32.9679 8.63622C33.0313 8.37837 33.3406 8.29903 33.4 8.01737ZM43.6005 14.9993C43.2041 14.9676 42.8472 14.9438 42.4706 15.0707C42.649 15.3802 43.1367 14.8367 43.1644 15.3841C43.2199 15.3603 43.3071 15.3484 43.319 15.3127C43.3587 15.1699 43.5173 15.1461 43.6005 14.9993ZM31.2592 4.87947C31.2711 4.99848 31.2473 5.14128 31.3782 5.11748C31.6041 5.07384 31.6042 4.78425 31.8024 4.66921C31.8856 4.6216 31.7033 4.55019 31.6319 4.53829C31.3504 4.49862 31.3425 4.74062 31.2592 4.87947ZM31.7588 3.27678C31.509 3.56637 31.3861 3.82423 31.5883 4.21696C31.7231 3.89563 31.9292 3.65761 31.7588 3.27678ZM31.6755 27.6025C31.4852 27.3447 31.291 27.067 30.9024 27.2217C30.8469 27.2415 30.7875 27.2812 30.7994 27.3605C30.8152 27.4399 30.8826 27.4597 30.9381 27.4359C31.2355 27.2931 31.4257 27.5232 31.6755 27.6025Z" fill="#0B0A0A"/>
<path d="M160.111 15.4477C160.143 15.9435 160.163 16.3601 160.048 16.7766C159.778 17.7485 159.881 18.7046 160.167 19.6606C160.234 19.8828 160.274 20.0891 160.056 20.339C159.861 20.5651 159.996 20.9777 160.048 21.2871C160.107 21.6362 160.02 21.9615 159.992 22.2828C159.941 22.8858 159.83 23.4491 159.996 24.0759C160.167 24.7225 159.988 25.4207 159.794 26.0634C159.719 26.3173 159.98 26.7537 159.473 26.837C159.853 27.0908 159.473 27.2178 159.386 27.4003C158.969 28.2294 157.649 28.642 156.892 28.1342C156.702 28.0033 156.523 28.1024 156.349 27.9993C155.647 27.5867 155.362 26.829 155.485 26.0039C155.615 25.1153 155.647 24.2148 155.473 23.3103C155.429 23.0802 155.393 22.8779 155.27 22.6756C155.124 22.4336 155.155 22.1718 155.239 21.906C155.433 21.2792 155.405 20.6365 155.385 19.9899C155.381 19.8669 155.362 19.7241 155.409 19.617C155.623 19.1251 155.481 18.6491 155.385 18.169C155.243 17.455 155.31 16.7409 155.318 16.0189C155.326 15.3762 155.326 14.7098 155.148 14.0751C155.068 13.7895 155.132 13.4047 154.7 13.3293C154.688 13.3253 154.672 13.3094 154.668 13.2975C154.533 12.8136 154.303 12.401 153.946 12.0321C153.879 11.9646 153.788 11.925 153.732 11.8932C153.225 11.6235 152.705 11.3696 152.186 11.1236C152.103 11.084 152.012 11.0125 151.889 11.0839C151.322 11.4172 150.68 11.2942 150.069 11.3696C149.669 11.4172 149.451 11.8575 149.082 12.0519C148.039 12.6033 147.587 13.5713 147.147 14.6384C146.794 15.4953 146.874 16.3125 146.842 17.1455C146.814 17.935 146.711 18.7006 146.557 19.4662C146.477 19.855 146.656 20.216 146.771 20.5611C146.953 21.1205 146.981 21.66 146.834 22.2154C146.687 22.7708 146.68 23.3222 146.818 23.8815C146.846 23.9847 146.862 24.1196 146.818 24.2108C146.454 24.9407 146.727 25.6865 146.731 26.4284C146.731 27.0076 146.378 27.3685 145.998 27.7613C145.201 28.5745 144.253 28.2135 143.341 28.1937C143.274 28.1937 143.187 28.1381 143.143 28.0826C142.553 27.3646 141.954 26.6466 142.168 25.6112C142.378 24.5877 142.172 23.5602 142.168 22.5367C142.164 21.4061 142.172 20.2755 142.097 19.1409C142.049 18.4388 142.188 17.7247 142.081 17.0146C142.061 16.8718 142.001 16.6576 142.279 16.6259C142.37 16.614 142.378 16.495 142.338 16.4275C142.021 15.8721 142.168 15.2572 142.2 14.69C142.223 14.2338 142.18 13.7855 142.14 13.3451C142.101 12.9207 142.077 12.516 142.148 12.0876C142.212 11.7028 142.172 11.2982 142.16 10.9015C142.14 10.2509 142.311 9.63598 142.501 9.02903C142.616 8.65613 143.068 8.6244 143.266 8.34671C143.734 7.69216 144.408 7.84687 145.03 7.90638C145.371 7.93812 145.7 8.13646 146.029 8.26737C146.275 8.36258 146.517 8.48159 146.763 8.57284C147.227 8.74342 147.675 8.97746 148.174 8.58869C148.261 8.52126 148.693 8.2277 148.884 8.76324C148.959 8.98143 149.451 9.00126 149.625 8.58869C149.443 8.62043 149.276 8.57284 149.177 8.37448C149.324 8.36655 149.466 8.3348 149.577 8.2396C149.938 7.9262 150.343 7.81514 150.83 7.77943C151.314 7.73976 151.766 7.43826 152.281 7.42636C152.412 7.4224 152.539 7.37478 152.452 7.589C152.428 7.65247 152.424 7.75959 152.535 7.77149C152.65 7.78339 152.729 7.70009 152.717 7.60091C152.686 7.31529 152.852 7.30735 153.062 7.30339C154.081 7.27958 155.025 7.56521 155.944 7.96984C156.182 8.07695 156.365 8.23563 156.543 8.41415C156.654 8.52522 156.769 8.66803 156.908 8.71167C157.82 8.97746 158.394 9.66376 158.791 10.4254C159.092 11.0086 159.421 11.6235 159.508 12.3098C159.592 12.9841 159.845 13.6149 160.067 14.2496C160.163 14.5154 160.155 14.6622 159.913 14.8249C159.75 14.932 159.623 15.1105 159.52 15.281C159.437 15.4159 159.425 15.6024 159.552 15.7214C159.675 15.8325 159.778 15.6896 159.881 15.6222C159.925 15.5825 159.988 15.5389 160.111 15.4477ZM144.65 18.9069C144.222 19.0338 144.547 18.4586 144.273 18.5419C144.122 18.5895 143.789 18.6649 143.805 18.891C143.817 19.0497 144.099 19.141 144.285 19.1608C144.372 19.1727 144.563 19.141 144.65 18.9069ZM144.911 14.9835C144.88 14.7336 144.578 14.6304 144.551 14.6542C144.392 14.8248 144.257 15.0272 144.158 15.2414C144.103 15.3564 144.249 15.4199 144.333 15.3762C144.539 15.2572 144.796 15.2017 144.911 14.9835ZM156.595 22.6597C156.337 22.5883 156.365 22.3701 156.377 22.1559C156.377 22.148 156.266 22.1241 156.206 22.1241C155.647 22.1321 156.262 22.509 156.047 22.6359C156 22.6637 155.897 22.7351 156.044 22.7946C156.166 22.8461 156.305 22.9969 156.4 22.8104C156.456 22.7073 156.599 22.8303 156.595 22.6597ZM156.273 14.3409C156.658 14.0552 156.63 13.6665 156.559 13.2142C156.218 13.5673 156.313 13.9719 156.273 14.3409ZM142.453 15.5706C142.667 15.6341 142.858 15.9158 143.052 15.6897C143.143 15.5825 142.913 15.527 142.842 15.4397C142.592 15.1303 142.568 15.4794 142.453 15.5706ZM159.671 22.2392C159.723 22.0845 159.544 22.14 159.497 22.0726C159.425 22.2313 159.346 22.3899 159.282 22.5526C159.247 22.6518 159.318 22.7113 159.405 22.6914C159.643 22.6359 159.631 22.4296 159.671 22.2392ZM156.884 11.5997C156.773 11.4965 156.61 11.4251 156.432 11.4053C156.349 11.3934 156.198 11.3854 156.238 11.5164C156.297 11.7068 156.511 11.7306 156.682 11.7742C156.765 11.7941 156.876 11.7901 156.884 11.5997Z" fill="#0B0A0A"/>
<path d="M73.6512 22.7469C73.6115 21.4299 74.0754 20.1605 73.6908 18.8672C73.5957 18.5499 73.7662 18.2008 73.8415 17.8715C73.8494 17.8318 73.9248 17.8239 73.893 17.7366C73.5759 16.7726 73.8653 15.7928 73.893 14.8288C73.9129 14.0671 73.6551 13.3293 73.8098 12.5597C73.8732 12.2542 73.8137 11.9448 74.1864 11.7464C73.8098 11.7782 73.7027 11.5957 73.671 11.2981C73.6433 11.0205 73.7265 10.8538 74.008 10.8221C74.0357 10.6039 73.7741 10.7626 73.782 10.6357C73.8058 10.1676 73.7543 9.65977 73.9168 9.23927C74.0873 8.78703 74.3807 8.31494 74.9357 8.18403C75.0982 8.14436 75.2211 8.08089 75.3519 7.98568C75.5977 7.8032 75.8158 7.82305 75.9466 8.12851C75.9942 8.24355 76.0219 8.43396 76.1765 8.31495C76.3549 8.1761 76.0061 8.18801 76.0497 8.04916C76.0616 8.01346 76.0299 7.96189 76.0219 7.93016C76.7355 7.67627 77.2509 8.17213 77.8138 8.41412C78.2975 8.62041 78.7732 8.71958 79.2926 8.75528C80.026 8.80685 80.5136 8.34669 81.0924 8.05313C81.8575 7.66833 82.6861 7.46204 83.5543 7.52154C83.7129 7.53345 83.8873 7.55329 84.0023 7.48585C84.4939 7.22006 84.9617 7.40649 85.4414 7.4898C85.6317 7.52154 85.8259 7.65245 86.0321 7.51757C86.0757 7.4898 86.1708 7.4898 86.2184 7.51757C87.1897 8.08486 88.4861 8.05709 89.2433 8.93777C89.6516 9.41381 90.5396 9.57647 90.4286 10.4571C91.0828 11.2029 91.0074 12.159 91.162 13.0436C91.1858 13.1864 91.2056 13.361 91.3008 13.4245C91.5109 13.5633 91.499 13.7656 91.4475 13.9203C91.2334 14.559 91.5387 15.1461 91.6061 15.7531C91.7091 16.6972 91.606 17.6255 91.4395 18.5538C91.4316 18.6054 91.3444 18.6689 91.4435 18.6927C91.9232 18.8077 91.7726 19.2044 91.721 19.4623C91.6259 19.9502 91.7052 20.4183 91.7131 20.8983C91.729 21.5965 91.943 22.3106 91.6536 23.0048C91.6179 23.0921 91.6417 23.1952 91.503 23.1833C91.4832 23.1833 91.3404 23.1794 91.4435 23.2547C91.828 23.5285 91.721 23.8974 91.6497 24.2465C91.5505 24.7225 91.7448 25.1986 91.6021 25.7381C91.5188 25.5 91.5585 25.2065 91.2136 25.266C91.0788 25.2898 90.936 25.2501 90.8449 25.4128C90.7537 25.5715 90.8449 25.6865 90.9043 25.8095C90.9836 25.9682 91.1422 25.9959 91.2691 25.9285C91.5862 25.754 91.5862 25.9602 91.5545 26.1586C91.4435 26.8488 91.2929 27.4955 90.5674 27.8644C89.8577 28.2254 89.267 28.396 88.5217 28.2532C88.3552 28.2214 88.0698 28.2413 88.1491 27.9041C88.1689 27.8208 88.1095 27.7374 88.0103 27.7731C87.602 27.9239 87.5346 27.5946 87.4751 27.3566C87.4236 27.1503 87.3601 26.9599 87.2333 26.7933C86.6703 26.0753 87.1064 25.3493 87.2412 24.6352C87.261 24.5361 87.2928 24.548 87.2056 24.4805C87.0668 24.3734 87.0034 24.2108 86.9915 24.0283C86.9796 23.8498 86.9796 23.6356 87.1104 23.5403C87.2373 23.4491 87.3721 23.6316 87.5069 23.699C87.606 23.7506 87.7249 23.9331 87.824 23.7903C87.9548 23.6038 87.709 23.6316 87.6337 23.5761C87.4117 23.4134 87.598 23.3539 87.6971 23.2666C87.8319 23.1436 87.6813 23.0762 87.6377 22.9889C87.598 22.9096 87.5148 22.8739 87.4394 22.9096C87.3562 22.9453 87.2611 23.0088 87.3245 23.1238C87.376 23.2151 87.4315 23.3261 87.3007 23.338C87.154 23.3539 87.0232 23.2349 87.0153 23.0841C87.0073 22.9493 87.0589 22.8065 87.1064 22.6755C87.2293 22.3185 87.3245 21.9734 87.047 21.6362C86.9875 21.5648 87.0034 21.4259 86.9994 21.3188C86.9954 20.9856 87.0311 20.6484 86.9875 20.3231C86.9518 20.0414 86.8686 19.7955 87.3641 19.7717C86.7774 19.6447 86.8686 19.3591 87.0311 19.01C87.2927 18.4427 87.0946 17.8477 87.0272 17.2764C86.9717 16.8004 86.932 16.7806 87.3721 16.61C86.6823 16.4394 87.0946 15.9237 87.0232 15.5667C86.9756 15.3247 87.0073 15.043 86.8963 14.8169C86.6545 14.325 86.4959 13.8251 86.3889 13.2777C86.266 12.6588 85.1956 11.5044 84.4106 11.4965C84.363 11.4965 84.3076 11.5044 84.2719 11.4846C83.3283 10.9609 82.4284 11.2902 81.477 11.5203C80.8387 11.671 80.5215 12.1986 79.9784 12.4248C79.7762 12.5081 79.6494 12.8096 79.6375 13.0555C79.6296 13.2459 79.5701 13.3808 79.4432 13.4959C79.0785 13.8172 78.7811 14.1584 78.9199 14.7019C78.9358 14.7653 78.912 14.8724 78.8644 14.92C78.2539 15.5111 78.4918 16.3085 78.3847 17.0067C78.2975 17.5779 78.242 18.1968 78.5909 18.7363C78.6464 18.8196 78.5908 18.891 78.5552 18.9545C78.2697 19.4305 78.4442 19.9423 78.4124 20.4381C78.3728 21.0372 78.5671 21.6679 78.4006 22.1916C78.2737 22.5962 78.4164 22.8541 78.4164 23.1754C78.4124 23.9014 78.4442 24.6154 78.5393 25.3295C78.5671 25.5278 78.4521 25.7182 78.3649 25.9007C78.1706 26.3093 78.0358 26.7338 77.9724 27.1821C77.905 27.6581 77.4372 27.9636 76.9337 27.9953C76.6086 28.0191 76.2955 28.1738 75.9744 28.2611C75.126 28.4952 74.3053 27.9953 74.0873 26.9877C74.0476 26.8092 73.9446 26.6822 73.8851 26.5236C73.6908 26.0118 73.7225 25.4564 73.6512 24.9328C73.5719 24.3576 73.7701 23.7109 73.8534 23.1C73.889 22.6993 73.9564 22.7073 73.6512 22.7469ZM76.8108 13.9679C76.8624 14.2734 76.791 14.5908 77.0923 14.7058C77.2509 14.7653 77.5443 14.8288 77.6394 14.6106C77.7464 14.3646 77.687 14.0949 77.4689 13.8807C77.3619 13.7736 77.2667 13.7537 77.1359 13.8093C76.9179 13.9045 77.1914 14.0274 77.124 14.1623C77.0249 14.0988 76.9417 14.0473 76.8108 13.9679ZM85.9251 9.96524C86.0916 9.97714 86.595 9.54075 86.6069 9.37413C86.6188 9.24322 86.5514 9.15595 86.4364 9.12818C86.262 9.08851 85.7585 9.58439 85.7625 9.77878C85.7625 9.89382 85.8061 9.96127 85.9251 9.96524ZM74.6661 25.2144C74.7969 25.2382 74.8683 25.2739 74.9079 25.2541C75.2013 25.0954 75.3757 24.7741 75.784 24.7622C75.9624 24.7582 75.8078 24.6233 75.7167 24.5757C75.4392 24.4329 75.1141 24.5083 74.8048 24.3417C75.3321 24.7067 75.0189 24.9526 74.6661 25.2144ZM88.9856 20.6047C89.2274 20.5611 89.1759 20.3231 89.2314 20.1644C89.2631 20.0771 89.1917 19.9462 89.0966 19.9661C88.9182 20.0018 88.8032 20.1287 88.8032 20.3271C88.8032 20.4501 88.7874 20.5849 88.9856 20.6047ZM90.1234 18.8831C90.1709 18.9743 90.0639 19.1211 90.2344 19.1211C90.4524 19.1211 90.5594 18.9862 90.5991 18.7879C90.6308 18.6252 90.5 18.5498 90.3811 18.5459C90.1392 18.53 90.2027 18.768 90.1234 18.8831ZM88.4821 17.7683C89.0094 17.8834 89.2115 17.7088 89.0847 17.2685C88.8944 17.4232 88.712 17.574 88.4821 17.7683ZM77.4967 10.6991C77.1994 10.8618 77.1002 10.8816 76.6443 10.7983C76.5175 10.7745 76.4303 10.7824 76.3708 10.8895C76.3589 10.9133 76.3827 10.9808 76.4104 11.0006C76.5849 11.1355 77.3183 10.9689 77.4967 10.6991ZM75.9307 23.4491C76.1963 23.1635 75.9307 22.9255 75.8831 22.6835C75.8792 22.6557 75.8078 22.6279 75.7682 22.6279C75.6889 22.6279 75.6572 22.7113 75.677 22.7589C75.7682 22.9731 75.7246 23.2428 75.9307 23.4491ZM75.3678 21.8266C75.0903 21.7036 74.8881 21.7671 74.6978 21.7631C74.6185 21.7631 74.5551 21.8345 74.5551 21.9178C74.5511 22.0249 74.6463 22.021 74.7216 22.0289C74.9277 22.0527 75.1022 21.9654 75.3678 21.8266Z" fill="#0B0A0A"/>
<path d="M132.293 16.598C132.464 16.3481 132.642 16.8638 132.678 16.5385C132.706 16.3044 132.94 15.9236 132.61 15.8046C132.428 15.7372 132.452 15.6737 132.456 15.5824C132.48 14.8009 132.559 13.9956 132.492 13.2379C132.416 12.3454 132.626 11.4488 132.384 10.5681C132.285 10.1992 132.523 9.87787 132.61 9.53274C132.646 9.3939 132.777 9.28282 132.662 9.08447C132.587 8.95752 132.725 8.73933 132.88 8.65602C133.57 8.27519 134.157 7.577 135.096 7.96577C135.275 8.04114 135.473 7.91024 135.707 8.00545C136.21 8.21174 136.527 8.5053 136.63 9.04878C136.67 9.25506 136.777 9.44546 136.92 9.62001C137.074 9.80646 137.185 10.0326 137.011 10.3023C136.844 10.5562 136.904 10.83 137.003 11.1116C137.043 11.2187 137.296 11.544 136.825 11.5123C136.674 11.5004 136.714 11.7463 136.785 11.7424C137.225 11.7186 136.991 12.0082 136.983 12.1589C136.944 12.8135 136.88 13.4641 136.967 14.1266C137.027 14.5748 136.948 15.039 136.916 15.4952C136.904 15.6935 136.658 15.5428 136.575 15.7094C136.912 15.8482 137.027 16.1259 137.023 16.475C137.023 16.7567 136.991 17.0344 137.106 17.3121C137.158 17.439 137.142 17.5937 137.019 17.7048C136.876 17.8317 136.868 18.038 136.944 18.1412C137.273 18.6093 136.971 18.9782 136.809 19.3749C136.733 19.5614 136.841 19.8668 136.876 19.9224C137.336 20.692 136.912 21.4774 136.987 22.2391C137.047 22.854 136.92 23.457 136.979 24.0838C137.039 24.7224 137.043 25.3691 137.197 25.9998C137.221 26.099 137.181 26.1823 137.118 26.2616C136.912 26.5195 136.797 26.821 136.69 27.1344C136.607 27.3724 136.48 27.666 136.048 27.42C136.492 27.7136 136.218 27.9119 136.02 27.9754C134.997 28.3126 133.954 28.4832 132.967 27.8723C131.849 27.182 130.62 27.2058 129.558 28.0071C129.11 28.3443 128.575 28.4475 128.071 28.6339C127.913 28.6934 127.73 28.7014 127.607 28.8283C127.433 29.0068 127.274 28.9632 127.108 28.8362C126.957 28.7212 126.81 28.7093 126.624 28.7529C125.863 28.9275 125.086 28.8085 124.329 28.741C123.611 28.6736 123.017 28.1777 122.454 27.7374C121.974 27.3605 121.534 26.9281 121.09 26.5037C120.745 26.1744 120.705 25.7023 120.574 25.2739C120.559 25.2223 120.602 25.1152 120.582 25.1033C119.968 24.7224 120.031 23.9727 119.682 23.4451C119.453 23.096 119.373 22.6755 119.5 22.2391C119.627 21.7988 119.453 21.3624 119.401 20.9339C119.349 20.4936 119.373 20.1088 119.583 19.732C119.686 19.5455 119.54 19.4027 119.52 19.2361C119.453 18.6648 119.552 18.0737 119.326 17.5183C119.203 17.2208 119.219 16.9154 119.334 16.6099C119.449 16.3124 119.449 16.0188 119.349 15.7014C119.254 15.396 119.227 15.0667 119.441 14.7732C119.571 14.5907 119.579 14.3606 119.52 14.1821C119.266 13.4164 119.46 12.6865 119.56 11.9288C119.611 11.5361 119.54 11.068 119.532 10.6356C119.516 9.96516 119.48 9.26695 120.162 8.81471C120.325 8.7076 119.948 8.79488 120.051 8.62033C120.214 8.34661 120.428 8.14033 120.733 8.07686C120.971 8.02528 121.114 7.5532 121.482 7.91419C121.534 7.96577 121.899 7.76742 122.136 7.81899C122.271 7.84676 122.41 7.84279 122.533 7.96974C122.802 8.2514 123.104 8.50131 123.397 8.7552C123.675 8.99719 123.687 9.31455 123.722 9.64778C123.75 9.8977 123.457 9.76283 123.457 9.95722C123.782 10.0881 123.897 10.4015 124.012 10.703C124.095 10.9212 124.02 11.1156 123.873 11.2901C123.698 11.4964 123.627 11.1513 123.48 11.2227C123.623 11.5044 123.623 11.5004 123.996 11.5242C124.174 11.5361 124.162 11.6749 124.146 11.8019C124.043 12.6944 124.135 13.6148 123.813 14.4836C123.73 14.7097 123.853 14.9358 123.976 15.1461C124.142 15.4357 124.202 15.7451 123.996 16.0545C123.885 16.2211 123.893 16.3758 123.972 16.5782C124.127 16.9749 124.035 17.4112 124.079 17.8159C124.162 18.5696 123.738 19.3233 124.142 20.0771C124.257 20.2953 124.226 20.6285 124.178 20.8903C124.063 21.4814 124.289 22.0288 124.428 22.5644C124.491 22.8103 124.642 23.1555 124.896 23.3657C125.058 23.5006 125.181 23.6672 125.229 23.8695C125.268 24.0362 125.371 24.1274 125.51 24.1552C126.022 24.2464 126.394 24.6034 126.842 24.8097C127.04 24.901 127.239 25.0517 127.496 24.897C127.699 24.774 127.885 25.0438 128.055 25.02C128.785 24.9287 129.526 24.7304 130.121 24.3456C130.521 24.0838 130.953 23.7624 131.294 23.3895C131.409 23.2626 131.465 23.1475 131.639 23.2983C131.742 23.3895 131.849 23.2903 131.952 23.2626C132.083 23.2308 132.277 23.215 132.242 23.0365C132.214 22.8976 132.048 22.9294 131.917 22.9571C131.798 22.9809 131.671 22.977 131.516 22.9889C131.675 22.6675 131.798 22.3819 131.822 22.0408C131.837 21.8265 131.849 21.4457 132.273 21.5488C132.305 21.3584 131.889 21.5885 132.067 21.283C132.46 20.6007 132.277 19.8073 132.48 19.1012C132.654 18.4903 132.369 17.8754 132.626 17.2843C132.757 16.963 132.495 16.7725 132.293 16.598ZM120.115 18.9941C120.36 19.0298 120.523 18.9465 120.582 18.6688C120.606 18.5538 120.705 18.4546 120.773 18.3514C120.836 18.2522 121.003 18.1888 120.9 18.038C120.812 17.915 120.674 17.9269 120.559 17.9825C120.44 18.042 120.305 18.0102 120.194 18.0539C119.873 18.1769 119.714 18.4823 119.659 18.7719C119.619 18.9465 119.901 19.0139 120.115 18.9941ZM121.225 19.8668C121.185 19.5574 120.503 19.1964 120.245 19.3233C120.202 19.3471 120.091 19.3987 120.134 19.4305C120.321 19.5534 120.107 19.8866 120.372 19.9144C120.63 19.9422 120.876 20.1128 121.141 19.9898C121.189 19.97 121.209 19.8946 121.225 19.8668ZM123.365 24.4844C123.231 24.5043 123.1 24.5162 123.052 24.659C123.028 24.7344 123.017 24.8415 123.1 24.8613C123.199 24.8891 123.314 24.8653 123.425 24.8613C123.199 24.5796 123.75 24.5598 123.623 24.294C123.615 24.2782 123.881 24.1234 123.663 24.06C123.508 24.0163 123.306 23.7704 123.132 24.0282C122.957 24.29 123.326 24.2821 123.365 24.4844ZM123.726 25.6111C123.916 25.5476 123.663 25.1866 124.016 25.3413C124.047 25.3532 124.238 25.3135 124.123 25.135C124.035 24.9962 124.024 24.8137 123.988 24.6471C123.968 24.5558 123.932 24.5082 123.837 24.5082C123.734 24.5122 123.71 24.5677 123.702 24.659C123.683 24.9763 123.643 25.2937 123.726 25.6111ZM133.415 10.3222C133.407 10.1119 133.308 9.99293 133.13 9.98896C132.979 9.98499 132.912 10.108 132.92 10.2468C132.928 10.3936 132.951 10.588 133.126 10.5919C133.261 10.5919 133.439 10.5126 133.415 10.3222ZM120.872 9.02495C120.927 9.2233 121.225 9.31455 120.983 9.5248C120.939 9.5605 120.931 9.64778 121.019 9.67158C121.09 9.69538 121.161 9.70331 121.225 9.62001C121.316 9.49306 121.237 9.10828 121.09 9.04878C121.034 9.02498 120.971 9.03289 120.872 9.02495ZM133.308 13.9163C133.146 13.7893 133.277 13.4799 132.947 13.464C132.745 13.4561 132.737 13.5751 132.757 13.6902C132.809 14.0274 133.098 13.8608 133.308 13.9163ZM121.796 11.5956C121.867 11.5956 121.978 11.5519 121.95 11.4845C121.871 11.2941 121.732 11.1315 121.55 11.0323C121.478 10.9926 121.399 11.0918 121.431 11.1751C121.494 11.3496 121.522 11.5718 121.796 11.5956ZM121.268 20.9221C121.197 21.0252 121.09 21.1283 121.058 21.2474C121.022 21.3703 121.149 21.4655 121.256 21.4457C121.379 21.4219 121.55 21.3862 121.538 21.1958C121.526 21.053 121.407 20.9935 121.268 20.9221ZM123.484 19.2797C123.262 19.2876 123.298 19.4939 123.247 19.6169C123.195 19.7518 123.33 19.7478 123.417 19.7518C123.572 19.7597 123.698 19.7319 123.698 19.5375C123.698 19.3908 123.627 19.3114 123.484 19.2797ZM121.99 17.2248C121.665 17.1018 121.621 16.7845 121.328 16.8281C121.221 16.844 121.268 16.9312 121.292 17.0106C121.379 17.316 121.601 17.3121 121.99 17.2248ZM134.938 22.8818C135.045 22.85 135.243 22.8738 135.271 22.6874C135.286 22.5802 135.16 22.5128 135.037 22.5089C134.878 22.5009 134.755 22.5366 134.735 22.7231C134.727 22.8421 134.787 22.8937 134.938 22.8818ZM134.474 20.6086C134.414 20.9458 134.68 21.0173 134.823 21.1601C134.87 21.2077 135.053 21.2355 135.104 21.0966C135.148 20.9816 135.013 20.9181 134.942 20.9141C134.735 20.9062 134.648 20.7435 134.474 20.6086Z" fill="#0B0A0A"/>
<path d="M55.2167 9.10425C55.6964 9.65566 55.6845 10.3301 55.5814 10.9688C55.4942 11.5122 55.5457 12.02 55.6488 12.5397C55.7162 12.8809 55.7757 13.222 55.6132 13.5513C55.3951 13.9916 55.736 14.5311 55.3594 14.9397C55.7321 15.1976 55.3079 15.5745 55.5339 15.9236C55.736 16.233 55.5061 16.717 55.5497 17.1414C55.5894 17.5342 55.6013 17.9309 55.7083 18.3157C55.7559 18.4863 55.7162 18.6529 55.7361 18.7996C55.8193 19.478 55.3674 20.1286 55.6845 20.8228C55.7916 21.0609 55.8431 21.3623 55.8034 21.6559C55.7876 21.763 55.7757 21.886 55.8827 21.9614C56.2435 22.2073 56.0849 22.5167 55.9739 22.8103C55.9462 22.8817 55.8669 22.9531 55.9462 23.0086C56.6042 23.4926 57.0998 24.1551 57.7857 24.6193C58.2336 24.9208 58.7292 24.8216 59.1653 25.0318C59.6886 25.2857 60.1405 25.1151 60.5687 24.7898C60.64 24.7343 60.7312 24.6867 60.8184 24.6629C61.4171 24.5201 61.9721 24.3654 62.4002 23.8298C62.6024 23.5759 62.8879 23.3935 62.9989 23.0523C63.1099 22.7151 63.2526 22.366 63.546 22.1399C63.7561 21.9772 63.653 21.763 63.6966 21.5765C63.7838 21.2116 63.8394 20.8387 63.8711 20.4658C63.8949 20.1683 63.871 19.8906 64.0931 19.6288C64.3745 19.2916 64.2556 18.8869 64.1129 18.5259C63.9702 18.1609 64.0098 17.8079 64.0178 17.4271C64.0257 16.9391 64.0653 16.4472 64.0455 15.9553C64.0376 15.7966 64.0019 15.6181 64.0534 15.4792C64.2556 14.9397 64.0812 14.4121 64.0574 13.8806C64.0455 13.6148 63.9147 13.341 64.1248 13.0951C64.1882 13.0197 64.105 12.9761 64.0772 12.9126C63.9781 12.7063 63.764 12.4484 64.1882 12.3334C64.2754 12.3096 64.2517 12.1985 64.2199 12.1946C63.7402 12.147 64.105 11.8574 64.0693 11.6828C63.9583 11.1235 64.0257 10.576 64.1684 10.0325C64.3072 9.49699 64.3389 8.92177 64.8106 8.51317C65.3736 8.02126 66.8206 7.67216 67.3915 8.11647C67.9029 8.51713 68.4222 9.0011 68.5808 9.7707C68.6799 10.2467 68.4222 10.7704 68.8068 11.2107C68.9416 11.3654 68.783 11.6312 68.7077 11.7899C68.4222 12.3969 68.5332 12.9999 68.6165 13.6108C68.6284 13.706 68.6482 13.7972 68.5848 13.8806C68.4143 14.0987 68.4619 14.305 68.5927 14.5272C68.7315 14.7612 68.6363 15.0508 68.6799 15.269C68.8425 16.0743 68.3311 16.8518 68.6879 17.6611C68.9138 18.1768 68.5808 18.7401 68.6244 19.2876C68.6323 19.4066 68.4063 19.3431 68.3984 19.478C68.8781 19.8311 68.5927 20.3269 68.5848 20.7435C68.5808 20.9855 68.5729 21.402 68.1011 21.3941C68.0178 21.3941 67.9346 21.5012 67.9822 21.6123C68.0139 21.6837 68.0852 21.7352 68.1725 21.6757C68.7315 21.287 68.5412 21.9138 68.5808 22.0328C68.8226 22.7984 68.7235 23.5918 68.5174 24.3416C68.4103 24.7224 68.6601 24.9049 68.7552 25.1508C68.9693 25.7062 68.6561 26.1703 68.557 26.6543C68.4975 26.9439 68.2756 27.2573 68.1447 27.5707C67.9624 28.0071 67.4628 28.0626 67.11 28.0864C66.4003 28.1301 65.6709 28.2451 64.9653 28.023C64.8622 27.9912 64.7472 27.9793 64.656 27.9238C63.9226 27.4557 63.0861 27.5152 62.2734 27.4517C62.1505 27.4398 62.0197 27.4874 61.9721 27.5509C61.6827 27.9714 61.1752 28.0507 60.7709 28.1856C60.081 28.4197 59.4468 28.8005 58.7332 28.9552C58.3843 29.0346 58.0513 28.8084 57.6945 28.8005C57.5755 28.7965 57.4606 28.7172 57.3377 28.6934C57.08 28.6458 56.7311 28.9116 56.6003 28.4236C56.5725 28.3125 56.2395 28.3324 56.1999 28.4712C56.0968 28.8322 55.8748 28.7013 55.744 28.5823C55.4268 28.3007 54.9114 28.2848 54.7449 27.8048C54.7013 27.6818 54.5665 27.7294 54.4595 27.773C54.0908 27.9277 53.8014 27.7968 53.619 27.4795C53.3851 27.0748 52.9411 26.8606 52.727 26.4481C52.4257 25.8689 52.0848 25.3135 51.7042 24.7779C51.2602 24.1591 51.2562 23.3935 51.1452 22.6794C51.0897 22.3263 51.1492 21.9614 50.9668 21.6281C50.8162 21.3584 50.9272 20.9458 50.9946 20.8268C51.3474 20.196 50.9272 19.6407 50.951 19.0615C50.9589 18.883 50.7924 18.5973 51.173 18.5497C51.2523 18.5418 51.2602 18.3593 51.1452 18.3434C50.7726 18.2879 51.0897 17.9864 50.9549 17.8555C51.284 17.7285 50.9668 17.2446 51.3474 17.1414C51.3672 17.1375 51.395 17.074 51.3871 17.0661C50.8915 16.5345 51.3514 15.9275 51.2562 15.3602C51.169 14.8525 51.3078 14.3209 51.0263 13.8171C50.8836 13.5592 50.9787 13.2101 51.0501 12.9245C51.1452 12.5516 51.1016 12.1747 51.1413 11.8058C51.2483 10.8696 51.0184 9.91354 51.3236 8.99716C51.4465 8.63616 51.6963 8.33068 52.1126 8.26324C52.4099 8.21564 52.6914 8.1839 52.949 7.96572C53.1869 7.7634 53.5398 7.85068 53.8252 7.89828C54.0591 7.93795 53.6706 7.97762 53.7816 8.03712C53.9283 8.12043 54.0512 8.23946 54.2454 8.25533C54.9907 8.3069 54.9907 8.31482 55.2365 9.11616C54.9273 9.13203 54.6181 9.15187 54.2335 9.17171C54.5586 9.39783 54.8678 9.27087 55.1414 9.36211C55.2445 9.40575 55.2286 9.21136 55.2167 9.10425ZM64.8344 15.5745C64.8503 15.8125 64.9534 15.9831 65.211 15.8759C65.3498 15.8164 65.5797 15.7014 65.4727 15.4991C65.3498 15.269 65.1238 15.392 64.9375 15.4634C64.6996 15.2016 64.6481 15.2135 64.2635 15.6419C64.4697 15.7728 64.6441 15.6141 64.8344 15.5745ZM54.0829 20.2278C54.071 19.4383 53.8886 19.1963 53.1433 18.9068C53.0204 18.8592 52.9372 18.8155 52.8777 18.9464C52.8143 19.0892 52.953 19.0892 53.0323 19.113C53.3296 19.2083 53.5398 19.4899 53.4565 19.712C53.3098 20.1127 53.4644 20.2436 53.7856 20.3388C53.9124 20.3785 53.6944 20.6919 53.9798 20.5808C54.1542 20.5094 53.9719 20.319 54.0829 20.2278ZM54.4872 12.0954C54.4595 12.2422 54.0393 12.1152 54.293 12.504C54.5546 12.9007 54.7687 12.5595 54.963 12.5238C55.181 12.4802 55.1691 12.2461 55.0661 12.02C54.9273 11.7146 54.6815 11.6312 54.4 11.5916C54.1424 11.5559 54.1424 11.7225 54.2335 11.8772C54.289 11.9764 54.4119 12.0359 54.4872 12.0954ZM63.4707 24.2702C63.657 24.5518 63.9979 24.524 64.1684 24.7541C64.2239 24.8295 64.3428 24.7779 64.4063 24.6946C64.4816 24.5915 64.4062 24.5002 64.3428 24.4526C64.097 24.2702 63.8275 24.1631 63.4707 24.2702ZM60.4339 27.5588C60.6083 27.3922 60.8105 27.3446 61.0246 27.3129C61.0761 27.3049 61.2109 27.3565 61.1871 27.2256C61.1753 27.1661 61.092 27.0788 61.0405 27.0748C60.7273 27.055 60.3903 27.0233 60.4339 27.5588ZM52.4297 14.4359C52.624 14.4399 52.7469 14.4082 52.7508 14.2177C52.7508 14.0948 52.6914 13.9916 52.5804 13.9797C52.3782 13.9639 52.3425 14.1463 52.2989 14.2852C52.2632 14.4121 52.3742 14.432 52.4297 14.4359ZM51.7677 9.78262C51.8232 9.50096 51.6131 9.36211 51.5813 9.13599C51.2444 9.50096 51.2562 9.5446 51.7677 9.78262ZM68.4143 18.0062C68.2835 17.9904 68.0813 17.919 68.0377 17.9745C67.8989 18.1491 67.7007 17.8753 67.6531 18.0142C67.5699 18.2562 67.8474 18.1173 67.9425 18.2086C68.1447 18.391 68.2676 18.1133 68.4143 18.0062Z" fill="#0B0A0A"/>
</svg>
